<?xml version="1.0" encoding="UTF-8" standalone="no"?>
<!-- Created with Inkscape (http://www.inkscape.org/) -->

<svg
   xmlns:dc="http://purl.org/dc/elements/1.1/"
   xmlns:cc="http://creativecommons.org/ns#"
   xmlns:rdf="http://www.w3.org/1999/02/22-rdf-syntax-ns#"
   xmlns:svg="http://www.w3.org/2000/svg"
   xmlns="http://www.w3.org/2000/svg"
   xmlns:xlink="http://www.w3.org/1999/xlink"
   xmlns:sodipodi="http://sodipodi.sourceforge.net/DTD/sodipodi-0.dtd"
   xmlns:inkscape="http://www.inkscape.org/namespaces/inkscape"
   id="svg2"
   version="1.1"
   inkscape:version="0.48.5 r10040"
   width="2481"
   height="3503"
   sodipodi:docname="Pepper-and-Carrot_by-David-Revoy_E11P03.svg">
  <metadata
     id="metadata8">
    <rdf:RDF>
      <cc:Work
         rdf:about="">
        <dc:format>image/svg+xml</dc:format>
        <dc:type
           rdf:resource="http://purl.org/dc/dcmitype/StillImage" />
        <dc:title />
      </cc:Work>
    </rdf:RDF>
  </metadata>
  <defs
     id="defs6" />
  <sodipodi:namedview
     pagecolor="#ffffff"
     bordercolor="#666666"
     borderopacity="1"
     objecttolerance="10"
     gridtolerance="10"
     guidetolerance="10"
     inkscape:pageopacity="0"
     inkscape:pageshadow="2"
     inkscape:window-width="1600"
     inkscape:window-height="837"
     id="namedview4"
     showgrid="false"
     inkscape:zoom="0.46000001"
     inkscape:cx="1121.5748"
     inkscape:cy="385.08132"
     inkscape:window-x="0"
     inkscape:window-y="27"
     inkscape:window-maximized="1"
     inkscape:current-layer="layer1" />
  <g
     inkscape:groupmode="layer"
     id="layer2"
     inkscape:label="artwork"
     sodipodi:insensitive="true">
    <image
       sodipodi:absref="/home/alex/Documents/Code/Pepper_Carrot/peppercarrot_ep11_translation/en/../gfx_Pepper-and-Carrot_by-David-Revoy_E11P03.png"
       xlink:href="../gfx_Pepper-and-Carrot_by-David-Revoy_E11P03.png"
       y="0"
       x="0"
       id="image10"
       height="3503"
       width="2481" />
  </g>
  <g
     inkscape:groupmode="layer"
     id="layer3"
     inkscape:label="speechbubbles">
    <path
       style="color:#000000;fill:#ffffff;fill-opacity:1;fill-rule:nonzero;stroke:none;stroke-width:1px;marker:none;visibility:visible;display:inline;overflow:visible;enable-background:accumulate"
       d="m 331.52978,1704.9041 c 24.33486,-41.3605 68.98392,-80.7228 136.11463,-94.8229 67.13059,-14.1001 201.94656,-13.3947 223.7641,-8.6946 21.81734,4.6999 142.63058,23.1474 168.6436,46.6477 26.01322,23.5002 56.35318,58.7498 63.9055,88.8301 7.55232,30.0802 0.83912,102.4611 -23.49578,118.4413 -24.33484,15.9802 -135.10032,50.7605 -199.71361,52.6405 -64.61329,1.8801 -214.81787,-13.1601 -257.61372,-23.5002 -42.79585,-10.3402 -88.109,-23.5004 -101.53509,-56.4007 -13.42617,-32.9003 -38.60016,-76.1408 -10.06963,-123.1412 z"
       id="path3533"
       inkscape:connector-curvature="0"
       sodipodi:nodetypes="cscssssssc" />
    <path
       style="color:#000000;display:inline;overflow:visible;visibility:visible;fill:#ffffff;fill-opacity:1;fill-rule:nonzero;stroke:none;stroke-width:1px;marker:none;enable-background:accumulate"
       d="m 883.77495,1745.1358 c 44.44471,-22.895 116.41795,-23.2688 129.48195,54.9811 34.6887,14.392 59.3221,29.36 66.1093,93.306 -13.8854,-45.9668 -26.6681,-69.4371 -79.48608,-86.6191 -11.9779,-39.1913 -54.96889,-53.3177 -104.25568,-15.6318 -49.28677,37.6861 -33.32019,31.3976 -33.32019,31.3976 l 7.61389,-70.6093 z"
       id="path5074"
       inkscape:connector-curvature="0"
       sodipodi:nodetypes="ccccsccc" />
    <path
       style="color:#000000;fill:#ffffff;fill-opacity:1;fill-rule:nonzero;stroke:none;stroke-width:1px;marker:none;visibility:visible;display:inline;overflow:visible;enable-background:accumulate"
       d="m 447.67233,3242.7884 c 11.14569,-71.1849 73.70145,-106.5668 310.02511,-100.6409 155.96613,3.911 290.16816,27.688 275.30726,132.0108 -14.861,104.3228 -198.9677,84.9479 -272.88779,85.4579 -80.53769,0.5556 -241.89144,-6.8864 -278.82002,-43.5744 -23.11646,-22.9657 -35.48215,-51.1614 -33.62456,-73.2534 z"
       id="path4546"
       inkscape:connector-curvature="0"
       sodipodi:nodetypes="cssssc" />
    <path
       style="color:#000000;display:inline;overflow:visible;visibility:visible;fill:#ffffff;fill-opacity:1;fill-rule:nonzero;stroke:none;stroke-width:1px;marker:none;enable-background:accumulate"
       d="m 802.80252,2968.7264 c 11.07268,17.5914 22.81036,35.7325 26.79713,58.318 1.01942,6.4618 1.69704,13.2732 0.8603,19.9677 -2.13488,6.8588 -8.0046,10.9395 -13.63505,11.7125 -8.11535,1.8042 -16.97191,-0.3491 -24.47096,5.4601 -5.38556,4.3813 -6.06745,12.504 -7.13123,19.3023 -2.43507,17.3638 -2.97063,35.0301 -7.64784,52.0685 -4.26526,19.4939 -9.89483,39.7496 -21.71008,55.2021 -4.75293,6.0274 -10.36404,11.5941 -17.01384,13.6262 -16.93018,6.136 -36.18293,0.8137 -46.68954,-15.1409 -5.84983,-11.036 -3.03134,-28.9083 7.27287,-36.4661 5.39695,-4.0838 11.88665,-3.3004 17.09289,-0.5878 10.49304,2.725 22.18726,-2.305 30.32475,-11.8054 6.81219,-7.7175 11.73629,-17.7565 14.39573,-28.3325 6.67084,-13.5431 4.96053,-29.0804 5.87665,-43.5892 0.49961,-6.6294 1.39903,-13.6785 4.44551,-19.5751 5.90723,-7.3191 14.64135,-7.295 21.95511,-6.2342 7.58293,0.8546 16.22562,2.8996 23.25642,-3.257 5.29761,-3.5199 3.38357,-11.3159 3.71315,-17.0122 -0.90369,-18.3049 -6.5414,-35.5415 -14.86542,-49.9818 -0.88295,-1.2943 -1.85199,-2.4853 -2.8266,-3.6752 z"
       id="path4496"
       inkscape:connector-curvature="0" />
  </g>
  <g
     inkscape:groupmode="layer"
     id="layer1"
     inkscape:label="txt">
    <path
       style="color:#000000;fill:#ffffff;fill-opacity:1;fill-rule:nonzero;stroke:none;stroke-width:1px;marker:none;visibility:visible;display:inline;overflow:visible;enable-background:accumulate"
       d="m 85.211193,103.2854 c -23.941644,18.63879 -29.642027,41.71534 -27.361882,52.36603 2.280172,10.65066 34.202338,60.35402 36.482501,73.66746 2.280159,13.31343 -31.922176,72.77981 -25.081709,92.30615 6.840469,19.52633 19.994496,72.64194 110.060637,77.96715 94.20084,4.39626 396.55959,38.44871 462.25842,-38.02699 C 702.29839,280.14358 711.12089,123.64965 632.44848,93.522283 583.42524,77.546174 141.07499,51.806953 85.211193,103.2854 z"
       id="path4464"
       inkscape:connector-curvature="0"
       sodipodi:nodetypes="cssscccc" />
    <flowRoot
       xml:space="preserve"
       id="flowRoot2987-4-9-3-5-9-8-3-5"
       style="font-size:12px;font-style:normal;font-variant:normal;font-weight:normal;font-stretch:normal;text-align:center;line-height:125%;letter-spacing:0px;word-spacing:0px;text-anchor:middle;fill:#000000;fill-opacity:1;stroke:none;font-family:Lavi;-inkscape-font-specification:Lavi"
       transform="translate(14.834888,-114.56802)"><flowRegion
         id="flowRegion2989-5-4-5-8-9-5-4-2"><rect
           id="rect2991-7-9-6-5-7-5-4-9"
           width="497.70953"
           height="358.25998"
           x="120.55251"
           y="265.53046"
           style="font-style:normal;font-variant:normal;font-weight:normal;font-stretch:normal;text-align:center;text-anchor:middle;font-family:Lavi;-inkscape-font-specification:Lavi" /></flowRegion><flowPara
         style="font-size:45px;text-align:center;text-anchor:middle"
         id="flowPara3030-8-1-8-7-8-3">The new King of Acren is too kind and gentle with his subjects. The people must fear their King.</flowPara></flowRoot>    <path
       style="color:#000000;fill:#ffffff;fill-opacity:1;fill-rule:nonzero;stroke:none;stroke-width:1px;marker:none;visibility:visible;display:inline;overflow:visible;enable-background:accumulate"
       d="m 590.93195,374.40123 c -13.14604,32.78603 12.63645,114.47239 62.26505,127.10564 -70.18554,-4.07502 -99.34113,-76.97331 -105.63042,-99.95904 -6.28929,-22.98575 43.36537,-27.1466 43.36537,-27.1466 z"
       id="path5010"
       inkscape:connector-curvature="0"
       sodipodi:nodetypes="ccsc" />
    <flowRoot
       xml:space="preserve"
       id="flowRoot2987-4-9-3-5-9-8-3-5-4"
       style="font-size:12px;font-style:normal;font-variant:normal;font-weight:normal;font-stretch:normal;text-align:center;line-height:125%;letter-spacing:0px;word-spacing:0px;text-anchor:middle;fill:#000000;fill-opacity:1;stroke:none;font-family:Lavi;-inkscape-font-specification:Lavi"
       transform="translate(237.55467,1369.7419)"><flowRegion
         id="flowRegion2989-5-4-5-8-9-5-4-2-2"><rect
           id="rect2991-7-9-6-5-7-5-4-9-5"
           width="567.27466"
           height="327.82516"
           x="107.50903"
           y="276.40002"
           style="font-style:normal;font-variant:normal;font-weight:normal;font-stretch:normal;text-align:center;text-anchor:middle;font-family:Lavi;-inkscape-font-specification:Lavi" /></flowRegion><flowPara
         style="font-size:45px;text-align:center;text-anchor:middle"
         id="flowPara3030-8-1-8-7-8-3-5">Your first mission is to </flowPara><flowPara
         style="font-size:45px;text-align:center;text-anchor:middle"
         id="flowPara3350">find and intimidate </flowPara><flowPara
         style="font-size:45px;text-align:center;text-anchor:middle"
         id="flowPara3356">the monarch to better manipulate him.</flowPara></flowRoot>    <flowRoot
       xml:space="preserve"
       id="flowRoot2987-4-9-3-5-9-8-3-5-4-6"
       style="font-size:12px;font-style:normal;font-variant:normal;font-weight:normal;font-stretch:normal;text-align:center;line-height:125%;letter-spacing:0px;word-spacing:0px;text-anchor:middle;fill:#000000;fill-opacity:1;stroke:none;font-family:Lavi;-inkscape-font-specification:Lavi"
       transform="translate(370.00119,2908.8834)"><flowRegion
         id="flowRegion2989-5-4-5-8-9-5-4-2-2-2"><rect
           id="rect2991-7-9-6-5-7-5-4-9-5-2"
           width="497.70953"
           height="358.25998"
           x="120.55251"
           y="265.53046"
           style="font-style:normal;font-variant:normal;font-weight:normal;font-stretch:normal;text-align:center;text-anchor:middle;font-family:Lavi;-inkscape-font-specification:Lavi" /></flowRegion><flowPara
         style="font-size:45px;text-align:center;text-anchor:middle"
         id="flowPara3030-8-1-8-7-8-3-5-1">A true witch of Chaosah has influence over the powerful!</flowPara></flowRoot>  </g>
</svg>
