<?xml version="1.0" encoding="UTF-8" standalone="no"?>
<!-- Created with Inkscape (http://www.inkscape.org/) -->

<svg
   xmlns:dc="http://purl.org/dc/elements/1.1/"
   xmlns:cc="http://creativecommons.org/ns#"
   xmlns:rdf="http://www.w3.org/1999/02/22-rdf-syntax-ns#"
   xmlns:svg="http://www.w3.org/2000/svg"
   xmlns="http://www.w3.org/2000/svg"
   xmlns:xlink="http://www.w3.org/1999/xlink"
   xmlns:sodipodi="http://sodipodi.sourceforge.net/DTD/sodipodi-0.dtd"
   xmlns:inkscape="http://www.inkscape.org/namespaces/inkscape"
   id="svg2"
   version="1.1"
   inkscape:version="0.91 r"
   width="2481"
   height="3503"
   sodipodi:docname="Pepper-and-Carrot_by-David-Revoy_E11P02.svg">
  <metadata
     id="metadata8">
    <rdf:RDF>
      <cc:Work
         rdf:about="">
        <dc:format>image/svg+xml</dc:format>
        <dc:type
           rdf:resource="http://purl.org/dc/dcmitype/StillImage" />
        <dc:title />
      </cc:Work>
    </rdf:RDF>
  </metadata>
  <defs
     id="defs6">
    <filter
       style="color-interpolation-filters:sRGB"
       id="filter4375-4-1-1-1"
       inkscape:label="deevad outline effect">
      <feFlood
         id="feFlood4377-7-9-0-8"
         flood-opacity="1"
         flood-color="rgb(0,0,0)"
         result="flood" />
      <feComposite
         id="feComposite4379-3-8-8-2"
         in2="SourceGraphic"
         in="flood"
         operator="in"
         result="composite1" />
      <feMorphology
         id="feMorphology4393-1-0-49-8"
         operator="dilate"
         radius="4"
         result="result3" />
      <feComposite
         id="feComposite4385-9-5-7-0"
         in2="result3"
         in="SourceGraphic"
         operator="over"
         result="composite2" />
    </filter>
  </defs>
  <sodipodi:namedview
     pagecolor="#ffffff"
     bordercolor="#666666"
     borderopacity="1"
     objecttolerance="10"
     gridtolerance="10"
     guidetolerance="10"
     inkscape:pageopacity="0"
     inkscape:pageshadow="2"
     inkscape:window-width="1680"
     inkscape:window-height="1033"
     id="namedview4"
     showgrid="false"
     inkscape:zoom="0.3478261"
     inkscape:cx="911.11388"
     inkscape:cy="2496.2013"
     inkscape:window-x="1920"
     inkscape:window-y="0"
     inkscape:window-maximized="1"
     inkscape:current-layer="layer1" />
  <g
     inkscape:groupmode="layer"
     id="layer2"
     inkscape:label="artwork"
     sodipodi:insensitive="true">
    <image
       sodipodi:absref="/home/deevad/Production/Webcomics/New/lang/fr/../gfx_Pepper-and-Carrot_by-David-Revoy_E11P02.png"
       xlink:href="../gfx_Pepper-and-Carrot_by-David-Revoy_E11P02.png"
       y="0"
       x="0"
       id="image10"
       height="3503"
       width="2481" />
  </g>
  <g
     inkscape:groupmode="layer"
     id="layer3"
     inkscape:label="speechbubbles">
    <path
       style="fill:#ffffff;fill-opacity:1;stroke:none"
       d="m 117.14335,239.95798 c -7.24698,-97.53786 33.06268,-98.95842 75.78879,-112.26118 44.58111,-13.88031 371.05223,-38.876004 429.9141,27.20485 32.31799,36.28155 30.88656,174.92474 -55.74601,215.59755 -56.94194,26.73346 -277.51753,47.08716 -365.9758,3.11032 C 172.424,359.34116 128.18411,316.70858 117.14335,239.95798 Z"
       id="path3659"
       inkscape:connector-curvature="0"
       sodipodi:nodetypes="cssssc" />
    <path
       style="fill:#ffffff;fill-opacity:1;stroke:none"
       d="m 851.251,490.20995 c 7.13883,97.54585 -24.47673,135.87823 -67.21757,149.13361 -44.59647,13.83087 -381.96466,44.9863 -440.75323,-21.15978 -32.27774,-36.31736 -74.17084,-192.35018 12.50677,-232.92691 56.97155,-26.67031 318.62191,-32.4535 433.37032,-4.87845 31.16431,7.48906 51.13806,33.06874 62.09371,109.83153 z"
       id="path3659-3"
       inkscape:connector-curvature="0"
       sodipodi:nodetypes="cssssc" />
    <path
       style="color:#000000;display:inline;overflow:visible;visibility:visible;fill:#ffffff;fill-opacity:1;fill-rule:nonzero;stroke:none;stroke-width:1px;marker:none;enable-background:accumulate"
       d="m 705.70272,627.26267 c 25.52219,36.37932 81.2177,67.59219 162.75237,28.43753 -87.92868,19.01581 -119.89595,-10.10558 -135.62673,-42.44271 -15.7307,-32.3372 -27.28244,-45.09027 -27.28244,-45.09027 z"
       id="path4440"
       inkscape:connector-curvature="0"
       sodipodi:nodetypes="ccscc" />
    <path
       style="fill:#ffffff;fill-opacity:1;stroke:none"
       d="m 1550.7318,822.88567 c 35.899,8.22512 49.8595,16.39264 43.6276,21.82448 14.6927,2.22864 22.2659,70.41769 8.9494,83.27741 -0.8731,1.33944 -7.1451,5.45682 -4.3853,6.03894 2.7599,0.58211 19.1382,-1.83877 21.9586,0.71454 2.8202,2.55363 -23.4302,40.75809 -19.7369,41.9724 3.6934,1.21419 86.9485,-26.05423 99.0018,-20.46499 12.0536,5.58913 6.1238,20.87736 9.7969,21.43472 3.673,0.55714 37.3431,-4.30986 41.9295,-3.7778 4.5864,0.53226 13.4093,20.02056 17.996,20.5527 4.5864,0.53226 25.3097,-9.2418 28.9829,-8.68467 3.6731,0.55724 2.3497,17.0349 6.9361,17.5669 4.5865,0.5322 24.2353,-14.47361 26.9954,-13.8916 2.7597,0.58222 13.8123,33.1628 18.4388,35.009 4.6268,1.8464 32.6836,-37.065 35.4032,-37.79714 2.7196,-0.73211 21.4604,44.13364 25.1337,44.69064 3.6732,0.5574 20.972,-31.48358 23.7321,-30.9014 2.7599,0.5821 20.6754,18.5065 24.3685,19.7207 3.6934,1.2143 26.15,-41.48991 29.8029,-41.58984 3.6532,-0.0999 35.2474,16.79248 38.088,20.003 2.8403,3.21054 4.956,-17.2346 8.6091,-17.33454 3.6531,-0.0999 46.0253,10.57875 46.9185,9.89671 0.8931,-0.68214 -6.7955,-12.96725 -4.0558,-13.0422 2.7399,-0.0749 46.1663,15.17857 47.8923,11.84301 1.7258,-3.33547 93.6557,13.87936 99.9679,11.07616 6.3124,-2.80353 -42.7473,-52.75848 -38.3019,-56.82599 4.4456,-4.06763 21.0254,0.0824 21.8782,-1.91383 0.8528,-1.99628 -10.3679,-10.23888 -7.7089,-12.94229 2.6595,-2.70333 33.3882,-14.06643 36.0272,-17.42682 2.6393,-3.36049 -14.0611,-11.45337 -10.4686,-13.52461 3.5928,-2.07123 57.0929,-16.03023 57.9054,-19.34074 0.8125,-3.31053 -27.9815,-18.30637 -24.4695,-23.00608 3.5121,-4.69971 13.4977,-6.94583 12.4837,-10.20638 -1.0139,-3.26056 -18.4867,-6.72859 -17.674,-10.03911 0.8127,-3.31054 9.442,-19.98794 12.1012,-22.69127 2.6592,-2.70342 -19.2187,-0.78959 -19.2992,-3.41807 -0.081,-2.62836 32.8003,-43.49266 30.3697,-63.15581 -27.9285,13.25944 -47.6738,-14.17622 -77.8113,-13.3518 -30.1379,0.82444 -18.3022,-0.7071 -22.8684,-0.58218 -4.5664,0.1249 -38.3511,1.24712 -42.9174,1.37202 -4.5662,0.1249 -6.4048,-0.22078 -10.058,-0.12085 -3.6528,0.0999 -24.6416,1.20869 -29.2078,1.3336 -4.5662,0.12491 -47.5174,0.38911 -53.9104,0.56399 -6.3927,0.17487 -31.0397,1.2055 -36.5195,1.35541 -5.4795,0.14989 -10.059,-0.16042 -14.6254,-0.0355 -4.5663,0.12491 -33.7796,1.28047 -38.3458,1.40536 -4.5663,0.12492 -11.9125,-1.00192 -15.5656,-0.90198 -3.6529,0.0999 -16.3974,1.81596 -16.3974,1.81596 0,0 -11.876,0.20608 -17.3556,0.35597 -5.4795,0.14991 -42.9019,1.8666 -47.4681,1.99152 -4.5664,0.12492 -45.0412,1.65055 -42.3015,1.5756 2.7399,-0.0749 -39.8897,0.75201 -46.2824,0.92689 -6.3927,0.1749 -18.2469,1.14387 -20.0734,1.19384 -1.8265,0.05 -14.6202,0.0918 -20.0998,0.24171 -5.4795,0.14992 -18.2621,0.59858 -18.2621,0.59858 l 1.8301,0.0687 c 0,0 -38.3702,0.61408 -42.9366,0.73899 -4.5662,0.1249 2.7606,0.59764 5.5002,0.52272 -16.4386,0.44966 -64.8596,1.1803 -68.5124,1.28022 -3.6532,0.0999 6.4077,0.3197 11.8873,0.1698 -7.306,0.19986 -13.7015,0.29569 -13.7015,0.29569 l 21.0198,-0.0998 -6.3918,0.21447 c 0,0 -16.9718,32.57473 -16.8711,35.86027 0.1006,3.28543 -35.3956,8.20247 -35.3956,8.20247 0,0 14.7932,5.51408 11.2408,8.89955 -3.5525,3.38548 -12.6247,5.60662 -12.6247,5.60662 l -1.5646,8.59244 z"
       id="path5888"
       inkscape:connector-curvature="0"
       sodipodi:nodetypes="cccsccccccccccccccscscsccsscccscsccscscsscccccccssccccccsccccccsccccc" />
    <path
       style="color:#000000;display:inline;overflow:visible;visibility:visible;fill:#ffffff;fill-opacity:1;fill-rule:nonzero;stroke:none;stroke-width:1px;marker:none;enable-background:accumulate"
       d="m 1967.4603,1256.7971 c 10.3698,-12.3606 78.3192,-47.8623 82.137,0.7246 48.8703,-59.1692 79.4318,-42.0203 120.4846,0.037 5.1116,-41.0197 36.5109,-41.1115 80.5928,-13.7223 -12.3359,-29.8532 14.9365,-28.4203 51.785,-31.7865 -45.0271,-15.4948 -51.53,-27.2591 38.232,-29.7017 -66.328,-8.1574 -127.9722,-17.0355 -42.0381,-48.6168 -24.3052,-3.5505 -88.9762,23.5465 -42.6962,-70.8469 -48.2625,26.6867 -104.6584,11.7789 -148.1526,-59.3916 -9.4676,59.9677 -34.4587,137.7821 -89.5919,56.5989 -14.1687,90.4695 -77.7695,11.4615 -94.2823,-18.4058 6.8392,40.1017 17.1,65.4703 -44.001,61.834 91.3903,62.2584 -3.8341,49.6096 -22.7805,60.9486 76.2364,26.1802 45.383,40.6004 26.8465,61.1039 62.4403,-18.6985 85.1423,2.7269 83.4647,31.2248 z"
       id="path3549-3"
       inkscape:connector-curvature="0"
       sodipodi:nodetypes="cccccccccccccccc" />
    <path
       style="color:#000000;display:inline;overflow:visible;visibility:visible;fill:#ffffff;fill-opacity:1;fill-rule:nonzero;stroke:none;stroke-width:1px;marker:none;enable-background:accumulate"
       d="m 2203.9792,1109.7454 c 31.2445,-19.0795 65.3939,-45.1286 72.8188,-52.0388 -12.6929,-4.9848 -23.0556,-11.472 -31.2287,-16.3975 15.0721,-11.6274 88.769,-61.68328 111.5806,-65.98197 -56.9232,8.44886 -115.9924,42.49157 -138.9231,63.43247 9.6363,8.2294 16.5681,12.0437 21.5327,16.4887 -10.8446,11.026 -54.7604,38.6986 -54.7604,38.6986 z"
       id="path5066"
       inkscape:connector-curvature="0" />
    <flowRoot
       transform="matrix(0.90617713,0,-0.22078013,1.6225798,1674.6489,683.70002)"
       style="font-style:normal;font-variant:normal;font-weight:normal;font-stretch:normal;font-size:12px;line-height:125%;font-family:Lavi;-inkscape-font-specification:Lavi;text-align:center;letter-spacing:0px;word-spacing:0px;text-anchor:middle;fill:#000000;fill-opacity:1;stroke:#000000;stroke-width:4.69999981;stroke-miterlimit:4;stroke-dasharray:none;stroke-opacity:1"
       id="flowRoot4212-3-7-8-6"
       xml:space="preserve"><flowRegion
         id="flowRegion4214-6-7-8-3"><rect
           style="font-style:normal;font-variant:normal;font-weight:normal;font-stretch:normal;font-family:Lavi;-inkscape-font-specification:Lavi;text-align:center;text-anchor:middle;stroke:#000000;stroke-width:4.69999981;stroke-miterlimit:4;stroke-dasharray:none;stroke-opacity:1"
           y="265.53046"
           x="120.55251"
           height="355.03918"
           width="798.1947"
           id="rect4216-4-0-26-5" /></flowRegion><flowPara
         style="font-size:48px;text-align:center;letter-spacing:5.20896292px;text-anchor:middle;stroke:#000000;stroke-width:4.69999981;stroke-miterlimit:4;stroke-dasharray:none;stroke-opacity:1"
         id="flowPara4358-7-1">TAI-TOIS !</flowPara></flowRoot>    <path
       style="color:#000000;display:inline;overflow:visible;visibility:visible;fill:#ffffff;fill-opacity:1;fill-rule:nonzero;stroke:none;stroke-width:1px;marker:none;enable-background:accumulate"
       d="m 1656.6816,860.45168 c -13.9641,31.64222 -47.0315,92.97319 -58.4788,103.42969 -21.9016,-16.83532 -67.233,-35.37975 -70.1513,-31.16101 -2.9182,4.21879 -13.389,87.83874 -20.8852,89.90244 -7.4962,2.0635 -34.1354,0.2416 -43.4933,-4.6298 28.7475,11.2032 51.3462,17.6477 61.1996,11.5672 6.8904,-3.7469 14.3961,-69.18877 14.6661,-73.72212 22.6435,8.32968 67.3012,30.28541 76.7272,30.0624 9.2475,-7.76375 44.7564,-37.65222 72.5931,-88.86226 27.8366,-51.21011 -32.1774,-36.58654 -32.1774,-36.58654 z"
       id="path5901"
       inkscape:connector-curvature="0"
       sodipodi:nodetypes="ccccccccsc" />
    <path
       style="fill:#ffffff;stroke:none"
       d="m 101.62761,1648.0631 c -5.8294,-34.7575 -12.625969,-105.8164 -3.239222,-121.5918 6.236332,-0.1706 16.472312,-0.8031 16.472312,-0.8031 l -10.30686,-18.7637 17.94002,4.0944 8.74003,-6.5876 -6.07248,-10.4147 16.16764,4.4955 7.74582,-10.4401 13.56067,7.0359 6.40017,-10.7561 14.92519,8.0568 27.05045,-5.325 c 66.62864,-3.691 132.48544,-8.3449 202.62373,-7.6576 l 21.20331,-7.2811 6.49923,9.6978 11.1456,0.048 10.57813,-4.5215 10.81294,4.2893 35.55154,-4.1465 11.82585,8.8468 13.60246,-8.1314 4.72674,10.0989 13.64002,-6.7215 2.40557,6.6353 32.75687,-8.6551 -4.47747,15.9937 c 0,0 24.6876,6.3788 41.9194,0.6172 1.87567,3.4756 -0.62804,9.8927 -0.62804,9.8927 l 9.00292,3.2807 0.24412,9.1635 c 0,0 18.13728,11.4956 20.00355,14.6188 1.86628,3.1232 8.18503,89.7138 2.31497,103.6296 4.89988,-0.134 8.07443,1.8953 7.68535,4.0221 -0.38908,2.1269 -3.7932,8.2157 -3.7932,8.2157 0,0 5.05031,5.5052 3.76091,7.304 -1.2895,1.7987 -3.89649,4.3388 -3.89649,4.3388 0,0 4.57662,4.46 3.27775,5.9063 -1.29881,1.4462 -8.80568,4.1203 -11.88633,5.6154 3.63875,2.722 6.91648,8.6283 4.28134,10.1111 -2.63515,1.4829 -8.84323,2.7107 -8.84323,2.7107 l -2.13337,3.5854 c 0,0 -0.70307,7.0731 -2.92096,7.4865 -2.21797,0.4134 -11.67563,-3.2077 -12.99319,-2.4663 -1.31757,0.7415 -4.73097,6.478 -6.95826,6.5389 -2.22718,0.061 -9.53295,-6.4405 -9.53295,-6.4405 -0.91175,1.5324 -118.48204,7.2774 -128.22414,5.9756 -9.80114,-1.31 -48.05237,3.4303 -53.39777,3.5765 -5.3454,0.1462 -27.6461,-0.302 -30.78299,-0.9217 -3.137,-0.6196 -15.67529,-2.7456 -20.12046,-2.2713 -4.44508,0.4742 -12.8148,4.2302 -17.71468,4.3642 -4.89999,0.134 -33.01976,-1.213 -38.35578,-0.7146 -5.33601,0.4987 -29.79826,2.5785 -33.80732,2.6881 -4.00905,0.1097 -49.1028,-2.5368 -54.01218,-2.7553 -4.90937,-0.2184 -26.1877,4.2432 -30.20613,4.0004 -4.01854,-0.2428 -26.82099,-2.7935 -33.93886,-2.2461 -7.11778,0.5474 -33.97632,-3.6559 -35.74871,-3.2547 -1.77236,0.4012 -4.45374,0.8264 -20.93617,0.5726 8.32278,-5.5181 5.52792,-10.0266 5.52792,-10.0266 l -6.31134,-2.649 0.80632,-3.1964 -13.0589,-4.9332 1.67858,-3.9256 0.72183,-6.3683 -13.049433,-4.5809 20.115103,-14.6581 z"
       id="path3894"
       inkscape:connector-curvature="0"
       sodipodi:nodetypes="cccccccccccccccccccccccccccccccscscccccsccssscssssssssssscccccccccc" />
    <path
       style="color:#000000;display:inline;overflow:visible;visibility:visible;fill:#ffffff;fill-opacity:1;fill-rule:nonzero;stroke:none;stroke-width:1px;marker:none;enable-background:accumulate"
       d="m 166.64919,1769.8242 c 20.8754,-3.6499 20.8754,-10.95 12.17733,-20.2777 6.08859,-0.4056 26.964,2.0277 23.48469,-4.4612 5.21895,-0.8111 12.17736,-0.8111 7.82825,-6.0834 6.08875,-0.4056 23.48486,1.6223 19.13575,-3.6501 11.30753,-1.2165 117.42399,-2.8389 155.6955,-0.811 38.27151,2.0277 140.90886,0.4056 151.34655,0 10.4377,-0.4055 90.45982,0 97.41842,0 6.9584,0 34.79221,4.4611 43.49025,6.8944 13.04701,-3.2445 29.5733,-2.0276 29.5733,-2.0276 0,0 0,13.7888 2.60945,15.0055 2.60948,1.2167 15.65665,-2.0277 18.26611,0 2.60931,2.0277 -18.26611,14.1946 -15.65663,14.6 2.60928,0.4057 23.48504,4.8668 23.48504,6.4889 0,1.6223 -16.52663,9.3278 -15.657,9.7335 0.87001,0.4054 14.82708,0.2116 13.0876,4.6728 15.65627,1.6222 18.71081,3.594 23.80198,5.0336 -4.82625,7.0193 -24.61959,9.2758 -26.96398,12.9779 5.77721,3.3655 14.83979,10.703 13.04698,13.3835 -1.79272,2.6803 -14.40003,-1.014 -23.48503,-0.8112 5.36269,4.7725 5.73158,63.6994 -9.92507,81.5439 4.34913,4.0555 12.17736,6.8944 13.91701,10.95 1.73964,4.0557 -3.47949,10.5446 -2.60948,12.5722 0.86983,2.028 7.82824,8.9224 6.95858,12.1669 -0.87,3.2444 -4.3491,6.4889 -9.56786,8.5166 -0.87018,3.2445 3.47911,5.6779 -0.87018,6.489 -4.34896,0.8111 -21.74504,-3.6501 -26.09382,-2.8389 -4.3491,0.8111 -0.86999,11.7612 -5.21911,13.7889 -4.34895,2.0277 -98.28807,7.3 -119.16347,2.8389 -21.74503,-0.8112 -182.65947,16.628 -249.63461,9.7334 -7.82823,-0.8111 -6.08858,-3.65 -12.17718,-4.4612 -6.08873,-0.8111 -9.56786,2.0279 -22.61503,1.2168 -11.30751,-4.0557 -26.09416,-4.4612 -49.57903,-23.928 -7.82823,0 -20.8754,2.0277 -22.61504,-1.2167 -1.73948,-3.2445 0.86982,-5.6776 0.86982,-5.6776 0,0 -8.69807,1.2165 -9.56789,-1.2168 -0.86982,-2.4333 11.30754,-8.9222 10.43771,-10.1389 -0.86982,-1.2166 -25.22434,2.4334 -26.09416,-0.4055 -0.86983,-2.8389 9.56787,-9.7335 8.69805,-11.7612 -0.86982,-2.028 -43.49026,-33.2557 -29.57345,-128.1561 6.95841,-1.2168 13.91698,-2.4334 13.04716,-4.0556 -0.86983,-1.6224 -11.30751,-4.8668 -11.30751,-4.8668 z"
       id="path3915"
       inkscape:connector-curvature="0"
       sodipodi:nodetypes="cccccsssccsccscccccccscccccccccccccccsccccc" />
    <path
       style="color:#000000;display:inline;overflow:visible;visibility:visible;fill:#ffffff;fill-opacity:1;fill-rule:nonzero;stroke:none;stroke-width:1px;marker:none;enable-background:accumulate"
       d="m 1095.0928,1819.5625 c -91.2283,-62.9886 -159.18424,-107.2113 -244.09747,-102.7556 -84.91309,4.4557 -100.49843,21.9951 -109.53087,27.7757 5.18785,12.9068 23.75593,31.6134 30.75182,34.7014 -22.33894,2.4552 -76.54188,62.7404 -110.47938,56.3411 -64.61909,-12.1847 -273.97666,-3.5558 -101.72794,36.5684 172.24873,40.1242 192.34114,-78.0027 263.45059,-85.6848 -16.89501,-9.5809 -49.34755,-27.5154 -45.74516,-34.2065 3.60245,-6.6909 69.55744,-22.806 102.86379,-16.4917 33.30653,6.3141 121.98932,17.5367 214.51462,83.752 z"
       id="path3923"
       inkscape:connector-curvature="0"
       sodipodi:nodetypes="csccszccsc" />
    <path
       style="fill:#ffffff;fill-rule:evenodd;stroke:none;stroke-width:1px;stroke-linecap:butt;stroke-linejoin:miter;stroke-opacity:1"
       d="m 206.04914,1667.4613 c 1.89036,73.724 51.0397,194.707 109.64083,189.0359 58.60114,-5.6711 34.02647,-28.3554 34.02647,-28.3554 0,0 -83.1758,26.465 -117.20227,-160.6805 -34.02646,-187.1456 -26.46503,0 -26.46503,0 z"
       id="path4413"
       inkscape:connector-curvature="0" />
    <path
       style="fill:#ffffff;stroke:none"
       d="m 1375.5293,3211.3901 c -2.3533,45.6378 35.9791,56.4926 74.9713,63.5302 38.9921,7.0375 160.8041,1.8141 153.1669,-54.1964 -7.6373,-56.0106 -66.3148,-64.673 -115.0016,-62.9624 -48.6871,1.7105 -105.0748,10.4766 -113.1366,53.6286 z"
       id="path3938"
       inkscape:connector-curvature="0"
       sodipodi:nodetypes="csssc" />
    <path
       style="color:#000000;display:inline;overflow:visible;visibility:visible;fill:#ffffff;fill-opacity:1;fill-rule:nonzero;stroke:none;stroke-width:1px;marker:none;enable-background:accumulate"
       d="m 1540.2936,3223.4008 c 69.6255,-26.0651 66.8892,-87.8398 67.0296,-99.678 -16.9624,16.0862 -19.0601,54.2993 -76.9475,76.9629 -25.1607,9.8509 9.9179,22.7151 9.9179,22.7151 z"
       id="path3940"
       inkscape:connector-curvature="0"
       sodipodi:nodetypes="ccsc" />
    <flowRoot
       xml:space="preserve"
       id="flowRoot3056-6"
       style="font-style:normal;font-variant:normal;font-weight:normal;font-stretch:normal;font-size:12px;line-height:125%;font-family:Arial;-inkscape-font-specification:Arial;letter-spacing:0px;word-spacing:0px;fill:#000000;fill-opacity:1;stroke:none"
       transform="matrix(0.92403899,-0.0431397,-0.21669727,0.91096764,408.69829,2651.2462)"><flowRegion
         id="flowRegion3058-8"><rect
           id="rect3060-0"
           width="343.2529"
           height="151.69978"
           x="1244.4525"
           y="652.80212" /></flowRegion><flowPara
         id="flowPara3062-10"
         style="font-style:normal;font-variant:normal;font-weight:normal;font-stretch:normal;font-size:48px;font-family:Lavi;-inkscape-font-specification:Lavi">Tadaaa!</flowPara></flowRoot>    <path
       style="fill:#ffffff;stroke:none"
       d="M 78.132651,2831.9116 C 37.430779,2601.483 125.99855,2673.3447 398.58899,2666.4415 c 213.15159,-5.398 326.82653,46.8451 330.76661,153.6861 3.81638,103.4868 -90.56,187.3345 -290.68665,189.6913 -200.12666,2.3567 -358.977079,-26.3306 -360.536299,-177.9073 z"
       id="path3270"
       inkscape:connector-curvature="0"
       sodipodi:nodetypes="csssc" />
    <path
       style="fill:#ffffff;stroke:none"
       d="m 740.22487,3021.0768 c -63.31546,24.471 -150.43401,11.8981 -179.52399,-58.4059 -17.62562,-42.5973 -22.73968,-69.8786 -22.73968,-69.8786 l -34.70784,34.4178 16.75558,49.0193 c 0,0 76.59683,114.726 220.21593,44.8474 z"
       id="path3063"
       inkscape:connector-curvature="0"
       sodipodi:nodetypes="cscccc" />
  </g>
  <g
     inkscape:groupmode="layer"
     id="layer1"
     inkscape:label="txt">
    <flowRoot
       xml:space="preserve"
       id="flowRoot2987-4-9-3"
       style="font-style:normal;font-variant:normal;font-weight:normal;font-stretch:normal;font-size:12px;line-height:125%;font-family:Lavi;-inkscape-font-specification:Lavi;text-align:center;letter-spacing:0px;word-spacing:0px;text-anchor:middle;fill:#000000;fill-opacity:1;stroke:none"
       transform="translate(30.338554,-121.63334)"><flowRegion
         id="flowRegion2989-5-4-5"><rect
           id="rect2991-7-9-6"
           width="468.18622"
           height="276.71347"
           x="120.55251"
           y="265.53046"
           style="font-style:normal;font-variant:normal;font-weight:normal;font-stretch:normal;font-family:Lavi;-inkscape-font-specification:Lavi;text-align:center;text-anchor:middle" /></flowRegion><flowPara
         style="font-size:45px;text-align:center;text-anchor:middle"
         id="flowPara3030-8">Pepper, Tu es certe douée, mais tu es aussi la seule à nous succéder.</flowPara></flowRoot>    <flowRoot
       xml:space="preserve"
       id="flowRoot2987-4-9-3-5"
       style="font-style:normal;font-variant:normal;font-weight:normal;font-stretch:normal;font-size:12px;line-height:125%;font-family:Lavi;-inkscape-font-specification:Lavi;text-align:center;letter-spacing:0px;word-spacing:0px;text-anchor:middle;fill:#000000;fill-opacity:1;stroke:none"
       transform="translate(236.54252,138.97206)"><flowRegion
         id="flowRegion2989-5-4-5-8"><rect
           id="rect2991-7-9-6-5"
           width="449.28259"
           height="263.48093"
           x="120.55251"
           y="265.53046"
           style="font-style:normal;font-variant:normal;font-weight:normal;font-stretch:normal;font-family:Lavi;-inkscape-font-specification:Lavi;text-align:center;text-anchor:middle" /></flowRegion><flowPara
         style="font-size:45px;text-align:center;text-anchor:middle"
         id="flowPara3030-8-1">C'est notre devoir de faire de toi une vrai méchante sorcière de Chaosah.</flowPara></flowRoot>    <flowRoot
       xml:space="preserve"
       id="flowRoot2987-4-9-3-5-9"
       style="font-style:normal;font-variant:normal;font-weight:normal;font-stretch:normal;font-size:12px;line-height:125%;font-family:Lavi;-inkscape-font-specification:Lavi;text-align:center;letter-spacing:0px;word-spacing:0px;text-anchor:middle;fill:#000000;fill-opacity:1;stroke:none"
       transform="translate(1519.8735,526.25598)"><flowRegion
         id="flowRegion2989-5-4-5-8-9"><rect
           id="rect2991-7-9-6-5-7"
           width="568.84778"
           height="193.91568"
           x="120.55251"
           y="265.53046"
           style="font-style:normal;font-variant:normal;font-weight:normal;font-stretch:normal;font-family:Lavi;-inkscape-font-specification:Lavi;text-align:center;text-anchor:middle" /></flowRegion><flowPara
         style="font-size:45px;text-align:center;text-anchor:middle"
         id="flowPara3030-8-1-8">Mais... je ne veux pas être méchante! C'est ...c'est contraire à ma....</flowPara></flowRoot>    <flowRoot
       xml:space="preserve"
       id="flowRoot2987-4-9-3-5-9-8"
       style="font-style:normal;font-variant:normal;font-weight:normal;font-stretch:normal;font-size:12px;line-height:125%;font-family:Lavi;-inkscape-font-specification:Lavi;text-align:center;letter-spacing:0px;word-spacing:0px;text-anchor:middle;fill:#000000;fill-opacity:1;stroke:none"
       transform="translate(-27.047654,1284.3306)"><flowRegion
         id="flowRegion2989-5-4-5-8-9-5"><rect
           id="rect2991-7-9-6-5-7-5"
           width="568.84778"
           height="193.91568"
           x="120.55251"
           y="265.53046"
           style="font-style:normal;font-variant:normal;font-weight:normal;font-stretch:normal;font-family:Lavi;-inkscape-font-specification:Lavi;text-align:center;text-anchor:middle" /></flowRegion><flowPara
         style="font-size:45px;text-align:center;text-anchor:middle"
         id="flowPara3030-8-1-8-7">... ou nous reprendrons tous tes pouvoirs!</flowPara></flowRoot>    <flowRoot
       xml:space="preserve"
       id="flowRoot2987-4-9-3-5-9-8-3"
       style="font-style:normal;font-variant:normal;font-weight:normal;font-stretch:normal;font-size:12px;line-height:125%;font-family:Lavi;-inkscape-font-specification:Lavi;text-align:center;letter-spacing:0px;word-spacing:0px;text-anchor:middle;fill:#000000;fill-opacity:1;stroke:none"
       transform="translate(80.552501,1505.8893)"><flowRegion
         id="flowRegion2989-5-4-5-8-9-5-4"><rect
           id="rect2991-7-9-6-5-7-5-4"
           width="479.72275"
           height="237.04068"
           x="120.55251"
           y="265.53046"
           style="font-style:normal;font-variant:normal;font-weight:normal;font-stretch:normal;font-family:Lavi;-inkscape-font-specification:Lavi;text-align:center;text-anchor:middle" /></flowRegion><flowPara
         style="font-size:45px;text-align:center;text-anchor:middle"
         id="flowPara3030-8-1-8-7-8">Et tu redeviendras la petite idiote orpheline de Bout-un-Cureuil.</flowPara></flowRoot>    <flowRoot
       xml:space="preserve"
       id="flowRoot2987-4-9-3-5-9-8-3-5"
       style="font-style:normal;font-variant:normal;font-weight:normal;font-stretch:normal;font-size:12px;line-height:125%;font-family:Lavi;-inkscape-font-specification:Lavi;text-align:center;letter-spacing:0px;word-spacing:0px;text-anchor:middle;fill:#000000;fill-opacity:1;stroke:none"
       transform="translate(24.355213,2469.2102)"><flowRegion
         id="flowRegion2989-5-4-5-8-9-5-4-2"><rect
           id="rect2991-7-9-6-5-7-5-4-9"
           width="532.22278"
           height="267.04068"
           x="120.55251"
           y="265.53046"
           style="font-style:normal;font-variant:normal;font-weight:normal;font-stretch:normal;font-family:Lavi;-inkscape-font-specification:Lavi;text-align:center;text-anchor:middle" /></flowRegion><flowPara
         style="font-size:45px;text-align:center;text-anchor:middle"
         id="flowPara3030-8-1-8-7-8-3">Cumin va t'accompagner partout à présent pour te former et nous assurer que tu réussis..</flowPara></flowRoot>    <flowRoot
       xml:space="preserve"
       id="flowRoot2987-7-9-9-7-0-3-4-1"
       style="font-style:normal;font-variant:normal;font-weight:normal;font-stretch:normal;font-size:12px;line-height:125%;font-family:Lavi;-inkscape-font-specification:Lavi;letter-spacing:0px;word-spacing:0px;fill:#000000;fill-opacity:1;stroke:#000000;stroke-width:0.99236238;stroke-miterlimit:4;stroke-dasharray:none;stroke-opacity:1;filter:url(#filter4375-4-1-1-1)"
       transform="matrix(1.1967542,-0.56289093,0.22908574,2.2717035,1823.011,2558.2663)"><flowRegion
         id="flowRegion2989-4-5-8-7-41-7-62-2"
         style="stroke-width:5.40286207"><rect
           id="rect2991-45-1-3-3-8-0-4-6"
           width="319.66232"
           height="53.089447"
           x="120.55251"
           y="265.53046"
           style="font-style:normal;font-variant:normal;font-weight:normal;font-stretch:normal;font-family:Lavi;-inkscape-font-specification:Lavi;fill:#000000;fill-opacity:1;stroke:#000000;stroke-width:0.99236238;stroke-miterlimit:4;stroke-dasharray:none;stroke-opacity:1" /></flowRegion><flowPara
         id="flowPara2995-4-1-5-0-7-2-6-4"
         style="font-weight:normal;font-size:48px;-inkscape-font-specification:Lavi;letter-spacing:7.06853437px;fill:#ffffff;fill-opacity:1;stroke:#ffffff;stroke-width:0.99236238;stroke-linejoin:miter;stroke-miterlimit:4;stroke-dasharray:none;stroke-opacity:1">Pouf!</flowPara></flowRoot>  </g>
</svg>
