<?xml version="1.0" encoding="UTF-8" standalone="no"?>
<!-- Created with Inkscape (http://www.inkscape.org/) -->

<svg
   xmlns:dc="http://purl.org/dc/elements/1.1/"
   xmlns:cc="http://creativecommons.org/ns#"
   xmlns:rdf="http://www.w3.org/1999/02/22-rdf-syntax-ns#"
   xmlns:svg="http://www.w3.org/2000/svg"
   xmlns="http://www.w3.org/2000/svg"
   xmlns:xlink="http://www.w3.org/1999/xlink"
   xmlns:sodipodi="http://sodipodi.sourceforge.net/DTD/sodipodi-0.dtd"
   xmlns:inkscape="http://www.inkscape.org/namespaces/inkscape"
   id="svg2"
   version="1.1"
   inkscape:version="0.92.1 renderfarm"
   width="2481"
   height="3503"
   sodipodi:docname="Pepper-and-Carrot_by-David-Revoy_E11P02_092.svg">
  <sodipodi:namedview pagecolor="#ffffff" bordercolor="#666666" inkscape:pageopacity="0" inkscape:pageshadow="2" inkscape:window-width="1813" inkscape:window-height="955" id="namedview70" showgrid="false" inkscape:zoom="0.4" inkscape:cx="1284.4231" inkscape:cy="2618.6204" inkscape:current-layer="layer1" /><metadata
     id="metadata8">
    <rdf:RDF>
      <cc:Work
         rdf:about="">
        <dc:format>image/svg+xml</dc:format>
        <dc:type
           rdf:resource="http://purl.org/dc/dcmitype/StillImage" />
        <dc:title />
      </cc:Work>
    </rdf:RDF>
  </metadata>
  <defs
     id="defs6">
    <filter
       style="color-interpolation-filters:sRGB"
       id="filter4375-4-1-1-1"
       inkscape:label="deevad outline effect">
      <feFlood
         id="feFlood4377-7-9-0-8"
         flood-opacity="1"
         flood-color="rgb(55,104,53)"
         result="flood" />
      <feComposite
         id="feComposite4379-3-8-8-2"
         in2="SourceGraphic"
         in="flood"
         operator="in"
         result="composite1" />
      <feMorphology
         id="feMorphology4393-1-0-49-8"
         operator="dilate"
         radius="4"
         result="result3" />
      <feComposite
         id="feComposite4385-9-5-7-0"
         in2="result3"
         in="SourceGraphic"
         operator="over"
         result="composite2" />
    </filter>
  </defs>
  <sodipodi:namedview
     pagecolor="#ffffff"
     bordercolor="#666666"
     borderopacity="1"
     objecttolerance="10"
     gridtolerance="10"
     guidetolerance="10"
     inkscape:pageopacity="0"
     inkscape:pageshadow="2"
     inkscape:window-width="1920"
     inkscape:window-height="1026"
     id="namedview4"
     showgrid="false"
     inkscape:zoom="0.42"
     inkscape:cx="1007.2584"
     inkscape:cy="2525.6726"
     inkscape:window-x="0"
     inkscape:window-y="27"
     inkscape:window-maximized="1"
     inkscape:current-layer="layer1" />
  <g
     inkscape:groupmode="layer"
     id="layer2"
     inkscape:label="artwork"
     sodipodi:insensitive="true">
    <image
       sodipodi:absref="/home/deevad/peppercarrot/webcomics/ep11_The-Witches-of-Chaosah/lang/kr/../gfx_Pepper-and-Carrot_by-David-Revoy_E11P02.png"
       xlink:href="../gfx_Pepper-and-Carrot_by-David-Revoy_E11P02.png"
       y="0"
       x="0"
       id="image10"
       height="3503"
       width="2481" />
  </g>
  <g
     inkscape:groupmode="layer"
     id="layer3"
     inkscape:label="speechbubbles">
    <path
       style="fill:#ffffff;fill-opacity:1;stroke:none"
       d="m 199.54674,239.95798 c -6.42279,-97.53786 29.30258,-98.95842 67.16958,-112.26118 39.51104,-13.88031 328.85364,-38.876004 381.02134,27.20485 28.64257,36.28155 27.37394,174.92474 -49.40619,215.59755 -50.46611,26.73346 -245.95635,47.08716 -324.35454,3.11032 -25.43643,-14.26836 -64.64506,-56.90094 -74.43019,-133.65154 z"
       id="path3659"
       inkscape:connector-curvature="0"
       sodipodi:nodetypes="cssssc" />
    <path
       style="fill:#ffffff;fill-opacity:1;stroke:none"
       d="m 860.66799,464.16801 c 7.38509,77.68893 -25.32109,108.21817 -69.53634,118.77522 -46.13489,11.01539 -395.14111,35.82866 -455.95768,-16.85239 -33.39121,-28.92441 -76.72947,-153.1944 12.93821,-185.51113 58.93687,-21.24116 329.61326,-25.8471 448.32008,-3.88537 32.23937,5.96455 52.90215,26.3371 64.23573,87.47367 z"
       id="path3659-3"
       inkscape:connector-curvature="0"
       sodipodi:nodetypes="cssssc" />
    <path
       style="color:#000000;display:inline;overflow:visible;visibility:visible;fill:#ffffff;fill-opacity:1;fill-rule:nonzero;stroke:none;stroke-width:1px;marker:none;enable-background:accumulate"
       d="m 725.76198,560.62095 c 15.2137,41.75381 60.90819,86.34357 149.80787,69.67515 -89.85178,-4.43964 -113.17241,-40.85544 -119.9781,-76.16592 -6.8056,-35.31052 -14.65449,-50.62321 -14.65449,-50.62321 z"
       id="path4440"
       inkscape:connector-curvature="0"
       sodipodi:nodetypes="ccscc" />
    <path
       style="fill:#ffffff;fill-opacity:1;stroke:none"
       d="m 1550.7318,822.88567 c 28.8235,8.22512 40.0324,16.39264 35.0288,21.82448 11.7968,2.22864 17.8774,70.41769 7.1855,83.27741 -0.701,1.33944 -1.1953,2.0226 -3.521,6.03894 5.6497,-1.14648 15.3662,-1.83877 17.6307,0.71454 2.2643,2.55363 -18.8122,40.75809 -15.8469,41.9724 2.9655,1.21419 69.8113,-26.05423 79.489,-20.46499 9.6779,5.58913 7.512,17.24113 7.866,21.43472 3.5978,-1.26098 30.4694,-4.9159 33.6653,-3.7778 3.5203,2.14836 13.6859,16.78836 14.4491,20.5527 2.3849,-2.49793 21.6188,-8.23174 23.2705,-8.68467 1.9759,1.97133 5.1305,13.60068 5.569,17.5669 3.0337,-3.71007 19.4586,-14.47361 21.6747,-13.8916 2.2158,0.58222 13.1986,30.9407 14.8046,35.009 1.7685,-3.6079 26.2418,-37.065 28.4254,-37.79714 2.1836,-0.73211 19.0148,37.66924 20.1799,44.69064 2.4627,-6.513 16.8385,-31.48358 19.0546,-30.9014 2.216,0.5821 17.087,16.6884 19.5656,19.7207 0.3703,-6.2602 20.996,-41.48991 23.9289,-41.58984 2.9331,-0.0999 28.3003,16.79248 30.581,20.003 -0.639,-7.09211 3.9792,-17.2346 6.9123,-17.33454 2.9331,-0.0999 34.1965,8.55862 37.671,9.89671 -1.878,-2.70227 -5.4561,-12.96725 -3.2564,-13.0422 2.1999,-0.0749 31.8768,7.30007 38.4529,11.84301 -2.3448,-9.19384 69.0331,8.82904 80.2647,11.07616 -6.7721,-8.45989 -34.322,-52.75848 -30.7528,-56.82599 3.5694,-4.06763 13.4752,-2.13974 17.5661,-1.91383 -5.071,-6.36825 -8.3244,-10.23888 -6.1895,-12.94229 2.1353,-2.70333 15.9863,-16.64318 28.9264,-17.42682 -8.9566,-7.65208 -8.4053,-13.52461 -8.4053,-13.52461 0,0 38.2169,-15.6262 46.4925,-19.34074 -6.5082,-3.17584 -22.4665,-18.30637 -19.6467,-23.00608 2.8199,-4.69971 3.58,-6.45595 10.0233,-10.20638 -4.7068,-1.64446 -14.8431,-6.72859 -14.1906,-10.03911 0.6526,-3.31054 2.0664,-18.77586 9.7161,-22.69127 -6.4613,1.33684 -15.4307,-0.78959 -15.4954,-3.41807 -0.065,-2.62836 13.3598,-50.96713 24.384,-63.15581 -22.4239,13.25944 -38.2775,-14.17622 -62.475,-13.3518 -24.1979,0.82444 -14.6949,-0.7071 -18.3612,-0.58218 -3.6663,0.1249 -30.7922,1.24712 -34.4585,1.37202 -3.6662,0.1249 -5.1425,-0.22078 -8.0756,-0.12085 -2.9329,0.0999 -19.7849,1.20869 -23.4511,1.3336 -3.6662,0.12491 -38.1519,0.38911 -43.2849,0.56399 -5.1327,0.17487 -24.9219,1.2055 -29.3216,1.35541 -4.3995,0.14989 -8.0764,-0.16042 -11.7428,-0.0355 -3.6663,0.12491 -27.1218,1.28047 -30.788,1.40536 -3.6663,0.12492 -9.5646,-1.00192 -12.4977,-0.90198 -2.9329,0.0999 -13.1656,1.81596 -13.1656,1.81596 0,0 -9.5352,0.20608 -13.9348,0.35597 -4.3996,0.14991 -34.4462,1.8666 -38.1124,1.99152 -3.6664,0.12492 -36.1637,1.65055 -33.964,1.5756 2.1999,-0.0749 -32.0276,0.75201 -37.1604,0.92689 -5.1327,0.1749 -14.6505,1.14387 -16.117,1.19384 -1.4665,0.05 -11.7386,0.0918 -16.1382,0.24171 -4.3995,0.14992 -14.6627,0.59858 -14.6627,0.59858 l 1.4694,0.0687 c 0,0 -30.8076,0.61408 -34.474,0.73899 -3.6662,0.1249 2.2165,0.59764 4.4162,0.52272 -13.1987,0.44966 -52.0761,1.1803 -55.0089,1.28022 -2.9332,0.0999 5.1447,0.3197 9.5443,0.1698 -5.866,0.19986 -11.001,0.29569 -11.001,0.29569 l 16.8769,-0.0998 -5.132,0.21447 c 0,0 -13.6267,32.57473 -13.5459,35.86027 0.081,3.28543 -28.4192,8.20247 -28.4192,8.20247 0,0 11.8775,5.51408 9.0253,8.89955 -2.8524,3.38548 -10.1365,5.60662 -10.1365,5.60662 l -1.2562,8.59244 z"
       id="path5888"
       inkscape:connector-curvature="0"
       sodipodi:nodetypes="ccccccccccccccccccscscsccscccccccccscscsscccccccssccccccsccccccsccccc" />
    <path
       style="color:#000000;display:inline;overflow:visible;visibility:visible;fill:#ffffff;fill-opacity:1;fill-rule:nonzero;stroke:none;stroke-width:1px;marker:none;enable-background:accumulate"
       d="m 2027.2801,1256.7971 c 8.7078,-12.3606 65.7666,-47.8623 68.9725,0.7246 41.0376,-59.1692 66.7008,-42.0203 101.1739,0.037 4.2923,-41.0197 30.6591,-41.1115 67.6757,-13.7223 -10.3587,-29.8532 12.5426,-28.4203 43.4852,-31.7865 -37.8104,-15.4948 -43.2711,-27.2591 32.1043,-29.7017 -55.6973,-8.1574 -107.4614,-17.0355 -35.3004,-48.6168 -20.4097,-3.5505 -74.7155,23.5465 -35.8531,-70.8469 -40.5272,26.6867 -87.8842,11.7789 -124.4074,-59.3916 -9.7873,55.1545 -38.1585,113.6193 -75.2325,56.5989 -23.8843,66.6788 -66.1908,9.7032 -79.1711,-18.4058 5.743,40.1017 14.3593,65.4703 -36.9488,61.834 76.7427,62.2584 -3.2195,49.6096 -19.1293,60.9486 64.0176,26.1802 38.1092,40.6004 22.5437,61.1039 52.4326,-18.6985 71.496,2.7269 70.0873,31.2248 z"
       id="path3549-3"
       inkscape:connector-curvature="0"
       sodipodi:nodetypes="cccccccccccccccc" />
    <path
       style="color:#000000;display:inline;overflow:visible;visibility:visible;fill:#ffffff;fill-opacity:1;fill-rule:nonzero;stroke:none;stroke-width:1px;marker:none;enable-background:accumulate"
       d="m 2203.9792,1109.7454 c 31.2445,-19.0795 65.3939,-45.1286 72.8188,-52.0388 -12.6929,-4.9848 -23.0556,-11.472 -31.2287,-16.3975 15.0721,-11.6274 88.769,-61.68328 111.5806,-65.98197 -56.9232,8.44886 -115.9924,42.49157 -138.9231,63.43247 9.6363,8.2294 16.5681,12.0437 21.5327,16.4887 -10.8446,11.026 -54.7604,38.6986 -54.7604,38.6986 z"
       id="path5066"
       inkscape:connector-curvature="0" />
    <flowRoot
       transform="matrix(2.0866048,0,-0.5083784,2.4670027,1188.8933,431.2153)"
       style="font-style:normal;font-variant:normal;font-weight:normal;font-stretch:normal;line-height:0.01%;font-family:'Nanum Pen Script OTF';-inkscape-font-specification:'Nanum Pen Script OTF';text-align:center;letter-spacing:0px;word-spacing:0px;text-anchor:middle;fill:#000000;fill-opacity:1;stroke:#000000;stroke-width:1.95590138;stroke-miterlimit:4;stroke-dasharray:none;stroke-opacity:1"
       id="flowRoot4212-3-7-8-6"
       xml:space="preserve"><flowRegion
         id="flowRegion4214-6-7-8-3"><rect
           style="font-style:normal;font-variant:normal;font-weight:normal;font-stretch:normal;font-family:'Nanum Pen Script OTF';-inkscape-font-specification:'Nanum Pen Script OTF';text-align:center;text-anchor:middle;stroke:#000000;stroke-width:1.95590138;stroke-miterlimit:4;stroke-dasharray:none;stroke-opacity:1"
           y="265.53046"
           x="120.55251"
           height="355.03918"
           width="798.1947"
           id="rect4216-4-0-26-5" /></flowRegion><flowPara
         style="font-style:normal;font-variant:normal;font-weight:normal;font-stretch:normal;font-size:48px;line-height:1.25;font-family:'Nanum Pen Script OTF';-inkscape-font-specification:'Nanum Pen Script OTF';text-align:center;letter-spacing:5.20896292px;text-anchor:middle;stroke:#000000;stroke-width:1.95590138;stroke-miterlimit:4;stroke-dasharray:none;stroke-opacity:1"
         id="flowPara4358-7-1">조용!</flowPara></flowRoot>    <path
       style="color:#000000;display:inline;overflow:visible;visibility:visible;fill:#ffffff;fill-opacity:1;fill-rule:nonzero;stroke:none;stroke-width:1px;marker:none;enable-background:accumulate"
       d="m 1656.6816,860.45168 c -13.9641,31.64222 -47.0315,92.97319 -58.4788,103.42969 -21.9016,-16.83532 -67.233,-35.37975 -70.1513,-31.16101 -2.9182,4.21879 -13.389,87.83874 -20.8852,89.90244 -7.4962,2.0635 -34.1354,0.2416 -43.4933,-4.6298 28.7475,11.2032 51.3462,17.6477 61.1996,11.5672 6.8904,-3.7469 14.3961,-69.18877 14.6661,-73.72212 22.6435,8.32968 67.3012,30.28541 76.7272,30.0624 9.2475,-7.76375 44.7564,-37.65222 72.5931,-88.86226 27.8366,-51.21011 -32.1774,-36.58654 -32.1774,-36.58654 z"
       id="path5901"
       inkscape:connector-curvature="0"
       sodipodi:nodetypes="ccccccccsc" />
    <path
       style="color:#000000;display:inline;overflow:visible;visibility:visible;fill:#ffffff;fill-opacity:1;fill-rule:nonzero;stroke:none;stroke-width:1px;marker:none;enable-background:accumulate"
       d="m 184.98019,1751.9276 c 9.42478,5.6784 24.17184,4.5425 16.17699,-10.4759 14.19651,7.9832 18.3774,9.5897 12.16263,-4.3098 10.84195,7.2851 22.63254,8.1327 20.98375,-8.3375 31.0213,18.4815 123.71134,5.2077 163.15968,7.3406 39.44834,2.1327 145.24174,0.4266 156.00038,0 10.75865,-0.4265 93.24143,0 100.41401,0 7.17238,0 35.86206,4.6921 44.82755,7.2513 13.4482,-3.4124 30.06385,-12.8164 30.06385,-12.8164 0,0 0.41882,25.1865 3.10852,26.4662 2.68972,1.2797 15.53941,-1.5097 23.43473,-2.5641 -5.22299,4.2573 -23.43473,17.4935 -20.74501,17.9199 2.6895,0.4267 21.70849,1.5068 28.99635,2.1505 -5.83012,2.6968 -21.82398,14.4851 -20.92761,14.9118 12.40013,13.8916 19.65895,11.3367 30.05707,8.1765 -4.97467,7.3827 -17.40979,11.7884 -19.82626,15.6821 1.7392,3.847 3.86872,5.604 13.44818,14.0764 -10.85126,-5.6607 -13.21521,-1.7474 -15.95502,1.8455 1.25821,8.9617 3.50558,18.1964 2.02119,33.3638 -1.75256,17.907 -3.44901,36.1347 -11.51807,45.5188 4.48287,4.2655 9.62453,11.9974 17.2006,15.139 -7.01893,1.1747 -15.42769,11.6525 -14.53092,13.785 0.89657,2.133 7.08856,10.1442 16.77685,14.2428 -9.20542,0.4032 -15.97651,1.6836 -21.35574,3.8163 -0.89693,3.4125 5.47546,12.077 7.13288,18.8743 -4.79756,-2.6813 -29.02649,-10.908 -33.03665,-11.34 -1.49132,1.817 -2.62867,9.3175 -1.44339,18.6798 -142.96494,-47.5589 -450.02503,-12.5734 -467.85546,-11.0836 -8.06896,0 -22.27094,0.7972 -37.20958,10.1771 9.52861,-12.9243 13.04764,-22.8184 13.04764,-22.8184 0,0 -21.36406,-2.055 -34.75246,1.6624 9.32542,-7.039 14.80247,-14.433 13.90589,-15.7127 -0.89656,-1.2796 -16.56111,-1.7626 -28.46609,1.2222 4.61094,-4.4519 21.28548,-14.6349 20.38891,-16.7676 -9.27285,0.4682 -34.37504,-33.1811 -20.03031,-132.9945 -0.64289,-8.7898 -7.2067,-13.9595 -18.91721,-18.722 19.96277,-5.0093 47.91679,-7.7989 33.26213,-24.3598 z"
       id="path3915"
       inkscape:connector-curvature="0"
       sodipodi:nodetypes="ccccsssccsccccccccscccccccccccccccccc" />
    <path
       style="color:#000000;display:inline;overflow:visible;visibility:visible;fill:#ffffff;fill-opacity:1;fill-rule:nonzero;stroke:none;stroke-width:1px;marker:none;enable-background:accumulate"
       d="m 1105.0928,1799.5625 c -91.2283,-62.9886 -159.18424,-107.2113 -244.09747,-102.7556 -84.91309,4.4557 -100.49843,21.9951 -109.53087,27.7757 5.18785,12.9068 23.75593,31.6134 30.75182,34.7014 -22.33894,2.4552 -76.54188,62.7404 -110.47938,56.3411 -64.61909,-12.1847 -273.97666,-3.5558 -101.72794,36.5684 172.24873,40.1242 192.34114,-78.0027 263.45059,-85.6848 -16.89501,-9.5809 -49.34755,-27.5154 -45.74516,-34.2065 3.60245,-6.6909 69.55744,-22.806 102.86379,-16.4917 33.30653,6.3141 121.98932,17.5367 214.51462,83.752 z"
       id="path3923"
       inkscape:connector-curvature="0"
       sodipodi:nodetypes="csccszccsc" />
    <path
       style="fill:#ffffff;fill-rule:evenodd;stroke:none;stroke-width:1px;stroke-linecap:butt;stroke-linejoin:miter;stroke-opacity:1"
       d="m 241.76342,1667.4614 c 1.89036,73.724 51.0397,194.707 109.64083,189.0359 58.60114,-5.6711 34.02647,-28.3554 34.02647,-28.3554 0,0 -83.1758,26.465 -117.20227,-160.6805 -34.02646,-187.1456 -26.46503,0 -26.46503,0 z"
       id="path4413"
       inkscape:connector-curvature="0" />
    <path
       style="fill:#ffffff;stroke:none"
       d="m 1375.5352,3211.3901 c -2.4876,45.6378 38.0321,56.4926 79.2493,63.5302 41.217,7.0375 169.9799,1.8141 161.9069,-54.1964 -8.0731,-56.0106 -70.0989,-64.673 -121.5638,-62.9624 -51.4653,1.7105 -111.0706,10.4766 -119.5924,53.6286 z"
       id="path3938"
       inkscape:connector-curvature="0"
       sodipodi:nodetypes="csssc" />
    <path
       style="color:#000000;display:inline;overflow:visible;visibility:visible;fill:#ffffff;fill-opacity:1;fill-rule:nonzero;stroke:none;stroke-width:1px;marker:none;enable-background:accumulate"
       d="m 1540.2936,3223.4008 c 69.6255,-26.0651 66.8892,-87.8398 67.0296,-99.678 -16.9624,16.0862 -19.0601,54.2993 -76.9475,76.9629 -25.1607,9.8509 9.9179,22.7151 9.9179,22.7151 z"
       id="path3940"
       inkscape:connector-curvature="0"
       sodipodi:nodetypes="ccsc" />
    <flowRoot
       xml:space="preserve"
       id="flowRoot3056-6"
       style="font-style:normal;font-variant:normal;font-weight:normal;font-stretch:normal;line-height:0.01%;font-family:'Nanum Pen Script OTF';-inkscape-font-specification:'Nanum Pen Script OTF';letter-spacing:0px;word-spacing:0px;fill:#000000;fill-opacity:1;stroke:none"
       transform="matrix(1.2092317,-0.05926753,-0.28357809,1.2515339,99.054311,2445.8548)"><flowRegion
         id="flowRegion3058-8"><rect
           id="rect3060-0"
           width="343.2529"
           height="151.69978"
           x="1244.4525"
           y="652.80212"
           style="font-style:normal;font-variant:normal;font-weight:normal;font-stretch:normal;font-family:'Nanum Pen Script OTF';-inkscape-font-specification:'Nanum Pen Script OTF'" /></flowRegion><flowPara
         id="flowPara3062-10"
         style="font-style:normal;font-variant:normal;font-weight:normal;font-stretch:normal;font-size:48px;line-height:1.25;font-family:'Nanum Pen Script OTF';-inkscape-font-specification:'Nanum Pen Script OTF'">짜자아안!</flowPara></flowRoot>    <path
       style="fill:#ffffff;stroke:none"
       d="M 77.549553,2831.0954 C 39.370357,2601.7675 122.44875,2673.286 378.14421,2666.4158 c 199.94059,-5.3723 306.57002,46.6213 310.2659,152.9519 3.57984,102.9924 -84.94715,186.4396 -272.67007,188.7852 -187.72293,2.3454 -336.727906,-26.2048 -338.190487,-177.0575 z"
       id="path3270"
       inkscape:connector-curvature="0"
       sodipodi:nodetypes="csssc" />
    <path
       style="fill:#ffffff;stroke:none"
       d="m 740.22487,3021.0768 c -63.31546,24.471 -150.43401,11.8981 -179.52399,-58.4059 -17.62562,-42.5973 -22.73968,-69.8786 -22.73968,-69.8786 l -34.70784,34.4178 16.75558,49.0193 c 0,0 76.59683,114.726 220.21593,44.8474 z"
       id="path3063"
       inkscape:connector-curvature="0"
       sodipodi:nodetypes="cscccc" />
    <path
       style="color:#000000;display:inline;overflow:visible;visibility:visible;fill:#ffffff;fill-opacity:1;fill-rule:nonzero;stroke:none;stroke-width:1px;marker:none;enable-background:accumulate"
       d="m 619.86864,1677.5782 c -9.46388,-5.616 -24.20596,-4.3826 -16.11053,10.5826 -14.25167,-7.8892 -18.44386,-9.468 -12.13619,4.3901 -10.89194,-7.2133 -22.69013,-7.983 -20.93223,8.476 -31.14868,-18.2761 -123.76676,-4.39 -163.23591,-6.2622 -39.46913,-1.8719 -145.26923,0.5333 -156.02688,1.031 -10.75767,0.4976 -93.25726,0.6162 -100.43106,0.6636 -7.17358,0.047 -35.89915,-4.455 -44.88308,-6.9548 -13.427937,3.5012 -29.984277,13.0148 -29.984277,13.0148 0,0 -0.5853,-25.1832 -3.28391,-26.4451 -2.69863,-1.2619 -15.53208,1.6123 -23.42177,2.7189 5.19575,-4.2917 23.32312,-17.648 20.63014,-18.0566 -2.6928,-0.4089 -21.72216,-1.3633 -29.015501,-1.9588 5.813301,-2.7353 21.731971,-14.629 20.832631,-15.0498 -12.49402,-13.8094 -19.737198,-11.2065 -30.11617,-7.9777 4.92671,-7.4154 17.33482,-11.9032 19.72598,-15.8128 -5.97926,-3.5003 -15.373082,-11.1557 -13.543451,-13.9872 1.829523,-2.8311 14.142651,3.1902 23.507191,2.915 -2.78085,-2.4914 -20.14194,-10.6899 -7.38416,-36.6954 7.89416,-16.0916 0.79133,-37.6769 8.79974,-47.1141 -4.51181,-4.2358 -9.70544,-11.9336 -17.30355,-15.025 7.01236,-1.2211 15.35332,-11.7542 14.44232,-13.8808 -0.91083,-2.127 -7.1568,-10.0971 -16.87383,-14.1316 9.20432,-0.464 15.96811,-1.7891 21.33416,-3.9573 0.87454,-3.4184 -5.55619,-12.0406 -7.25882,-18.8268 4.81611,2.6496 29.1035,10.716 33.1172,11.1214 1.47957,-1.8268 2.56755,-9.3346 1.32021,-18.6889 143.303477,46.613 450.184557,9.599 468.008177,7.9914 8.07032,-0.053 22.26944,-0.9444 37.14864,-10.4228 -9.44483,12.987 -12.89907,22.9041 -12.89907,22.9041 0,0 21.38126,1.9138 34.74737,-1.892 -9.28049,7.1005 -14.70961,14.5305 -13.80442,15.8042 0.90517,1.2737 16.57555,1.6532 28.46285,-1.4103 -4.58232,4.4823 -21.1924,14.7753 -20.28158,16.902 9.27132,-0.5294 34.60012,32.9532 20.91247,132.8592 0.7011,8.7854 7.30016,13.9116 19.04414,18.5966 -19.93307,5.1411 -47.8734,8.1154 -33.10683,24.5791 z"
       id="path3915-2"
       inkscape:connector-curvature="0"
       sodipodi:nodetypes="ccccsssccsccccccccscccccccccccccccccc" />
  </g>
  <g
     inkscape:groupmode="layer"
     id="layer1"
     inkscape:label="txt">
    <flowRoot
       xml:space="preserve"
       id="flowRoot2987-4-9-3"
       style="font-style:normal;font-variant:normal;font-weight:normal;font-stretch:normal;line-height:0.01%;font-family:'Nanum Pen Script OTF';-inkscape-font-specification:'Nanum Pen Script OTF';text-align:center;letter-spacing:0px;word-spacing:0px;text-anchor:middle;fill:#000000;fill-opacity:1;stroke:none"
       transform="matrix(1.2855971,0,0,1.2855971,-18.048799,-201.28366)"><flowRegion
         id="flowRegion2989-5-4-5"><rect
           id="rect2991-7-9-6"
           width="468.18622"
           height="276.71347"
           x="120.55251"
           y="265.53046"
           style="font-style:normal;font-variant:normal;font-weight:normal;font-stretch:normal;line-height:100%;font-family:'Nanum Pen Script OTF';-inkscape-font-specification:'Nanum Pen Script OTF';text-align:center;text-anchor:middle" /></flowRegion><flowPara
         style="font-style:normal;font-variant:normal;font-weight:normal;font-stretch:normal;font-size:45px;line-height:100%;font-family:'Nanum Pen Script OTF';-inkscape-font-specification:'Nanum Pen Script OTF';text-align:center;text-anchor:middle"
         id="flowPara3393">후추야, 네가</flowPara><flowPara
         style="font-style:normal;font-variant:normal;font-weight:normal;font-stretch:normal;font-size:45px;line-height:100%;font-family:'Nanum Pen Script OTF';-inkscape-font-specification:'Nanum Pen Script OTF';text-align:center;text-anchor:middle"
         id="flowPara3399">재능이 있는 건 알지만,</flowPara><flowPara
         style="font-style:normal;font-variant:normal;font-weight:normal;font-stretch:normal;font-size:45px;line-height:100%;font-family:'Nanum Pen Script OTF';-inkscape-font-specification:'Nanum Pen Script OTF';text-align:center;text-anchor:middle"
         id="flowPara3403">넌 우리의 유일한</flowPara><flowPara
         style="font-style:normal;font-variant:normal;font-weight:normal;font-stretch:normal;font-size:45px;line-height:100%;font-family:'Nanum Pen Script OTF';-inkscape-font-specification:'Nanum Pen Script OTF';text-align:center;text-anchor:middle"
         id="flowPara3405">후계자이기도 해.</flowPara></flowRoot>    <flowRoot
       xml:space="preserve"
       id="flowRoot2987-4-9-3-5"
       style="font-style:normal;font-variant:normal;font-weight:normal;font-stretch:normal;line-height:0.01%;font-family:'Nanum Pen Script OTF';-inkscape-font-specification:'Nanum Pen Script OTF';text-align:center;letter-spacing:0px;word-spacing:0px;text-anchor:middle;fill:#000000;fill-opacity:1;stroke:none"
       transform="matrix(1.3019994,0,0,1.3019994,132.57727,54.750136)"><flowRegion
         id="flowRegion2989-5-4-5-8"><rect
           id="rect2991-7-9-6-5"
           width="449.28259"
           height="263.48093"
           x="120.55251"
           y="265.53046"
           style="font-style:normal;font-variant:normal;font-weight:normal;font-stretch:normal;line-height:100%;font-family:'Nanum Pen Script OTF';-inkscape-font-specification:'Nanum Pen Script OTF';text-align:center;text-anchor:middle" /></flowRegion><flowPara
         style="font-style:normal;font-variant:normal;font-weight:normal;font-stretch:normal;font-size:45px;line-height:100%;font-family:'Nanum Pen Script OTF';-inkscape-font-specification:'Nanum Pen Script OTF';text-align:center;text-anchor:middle"
         id="flowPara3030-8-1">너를 비열한</flowPara><flowPara
         style="font-style:normal;font-variant:normal;font-weight:normal;font-stretch:normal;font-size:45px;line-height:100%;font-family:'Nanum Pen Script OTF';-inkscape-font-specification:'Nanum Pen Script OTF';text-align:center;text-anchor:middle"
         id="flowPara3407">카오사의 진정한 마녀로</flowPara><flowPara
         style="font-style:normal;font-variant:normal;font-weight:normal;font-stretch:normal;font-size:45px;line-height:100%;font-family:'Nanum Pen Script OTF';-inkscape-font-specification:'Nanum Pen Script OTF';text-align:center;text-anchor:middle"
         id="flowPara3427">만들어주는 게 우리의 임무야.</flowPara></flowRoot>    <flowRoot
       xml:space="preserve"
       id="flowRoot2987-4-9-3-5-9"
       style="font-style:normal;font-variant:normal;font-weight:normal;font-stretch:normal;line-height:0.01%;font-family:'Nanum Pen Script OTF';-inkscape-font-specification:'Nanum Pen Script OTF';text-align:center;letter-spacing:0px;word-spacing:0px;text-anchor:middle;fill:#000000;fill-opacity:1;stroke:none"
       transform="matrix(1.5257389,0,0,1.5257389,1236.0217,369.32895)"><flowRegion
         id="flowRegion2989-5-4-5-8-9"><rect
           id="rect2991-7-9-6-5-7"
           width="568.84778"
           height="193.91568"
           x="120.55251"
           y="265.53046"
           style="font-style:normal;font-variant:normal;font-weight:normal;font-stretch:normal;line-height:100%;font-family:'Nanum Pen Script OTF';-inkscape-font-specification:'Nanum Pen Script OTF';text-align:center;text-anchor:middle" /></flowRegion><flowPara
         style="font-style:normal;font-variant:normal;font-weight:normal;font-stretch:normal;font-size:45px;line-height:100%;font-family:'Nanum Pen Script OTF';-inkscape-font-specification:'Nanum Pen Script OTF';text-align:center;text-anchor:middle"
         id="flowPara3030-8-1-8">하지만... 전 비열해지기</flowPara><flowPara
         style="font-style:normal;font-variant:normal;font-weight:normal;font-stretch:normal;font-size:45px;line-height:100%;font-family:'Nanum Pen Script OTF';-inkscape-font-specification:'Nanum Pen Script OTF';text-align:center;text-anchor:middle"
         id="flowPara3411">싫어요! 그건 ...그건 </flowPara><flowPara
         style="font-style:normal;font-variant:normal;font-weight:normal;font-stretch:normal;font-size:45px;line-height:100%;font-family:'Nanum Pen Script OTF';-inkscape-font-specification:'Nanum Pen Script OTF';text-align:center;text-anchor:middle"
         id="flowPara3413">모두에게 나쁜...</flowPara></flowRoot>    <flowRoot
       xml:space="preserve"
       id="flowRoot2987-4-9-3-5-9-8"
       style="font-style:normal;font-variant:normal;font-weight:normal;font-stretch:normal;line-height:0.01%;font-family:'Nanum Pen Script OTF';-inkscape-font-specification:'Nanum Pen Script OTF';text-align:center;letter-spacing:0px;word-spacing:0px;text-anchor:middle;fill:#000000;fill-opacity:1;stroke:none"
       transform="matrix(1.4106639,0,0,1.4106639,-207.80529,1150.5308)"><flowRegion
         id="flowRegion2989-5-4-5-8-9-5"><rect
           id="rect2991-7-9-6-5-7-5"
           width="568.84778"
           height="193.91568"
           x="120.55251"
           y="265.53046"
           style="font-style:normal;font-variant:normal;font-weight:normal;font-stretch:normal;line-height:100%;font-family:'Nanum Pen Script OTF';-inkscape-font-specification:'Nanum Pen Script OTF';text-align:center;text-anchor:middle" /></flowRegion><flowPara
         style="font-style:normal;font-variant:normal;font-weight:normal;font-stretch:normal;font-size:45px;line-height:100%;font-family:'Nanum Pen Script OTF';-inkscape-font-specification:'Nanum Pen Script OTF';text-align:center;text-anchor:middle"
         id="flowPara3348">... 안 그러면 네</flowPara><flowPara
         style="font-style:normal;font-variant:normal;font-weight:normal;font-stretch:normal;font-size:45px;line-height:100%;font-family:'Nanum Pen Script OTF';-inkscape-font-specification:'Nanum Pen Script OTF';text-align:center;text-anchor:middle"
         id="flowPara3417">모든 힘을 빼앗을 테다!</flowPara></flowRoot>    <flowRoot
       xml:space="preserve"
       id="flowRoot2987-4-9-3-5-9-8-3"
       style="font-style:normal;font-variant:normal;font-weight:normal;font-stretch:normal;line-height:0.01%;font-family:'Nanum Pen Script OTF';-inkscape-font-specification:'Nanum Pen Script OTF';text-align:center;letter-spacing:0px;word-spacing:0px;text-anchor:middle;fill:#000000;fill-opacity:1;stroke:none"
       transform="matrix(1.3770226,0,0,1.3770226,-53.982934,1402.4352)"><flowRegion
         id="flowRegion2989-5-4-5-8-9-5-4"><rect
           id="rect2991-7-9-6-5-7-5-4"
           width="525.72278"
           height="228.41568"
           x="114.80251"
           y="256.90546"
           style="font-style:normal;font-variant:normal;font-weight:normal;font-stretch:normal;line-height:100%;font-family:'Nanum Pen Script OTF';-inkscape-font-specification:'Nanum Pen Script OTF';text-align:center;text-anchor:middle"
           ry="0" /></flowRegion><flowPara
         style="font-style:normal;font-variant:normal;font-weight:normal;font-stretch:normal;font-size:45px;line-height:100%;font-family:'Nanum Pen Script OTF';-inkscape-font-specification:'Nanum Pen Script OTF';text-align:center;text-anchor:middle"
         id="flowPara3030-8-1-8-7-8">그럼 넌 다시</flowPara><flowPara
         style="font-style:normal;font-variant:normal;font-weight:normal;font-stretch:normal;font-size:45px;line-height:100%;font-family:'Nanum Pen Script OTF';-inkscape-font-specification:'Nanum Pen Script OTF';text-align:center;text-anchor:middle"
         id="flowPara3419">다람쥐 꼬리 숲에 사는</flowPara><flowPara
         style="font-style:normal;font-variant:normal;font-weight:normal;font-stretch:normal;font-size:45px;line-height:100%;font-family:'Nanum Pen Script OTF';-inkscape-font-specification:'Nanum Pen Script OTF';text-align:center;text-anchor:middle"
         id="flowPara3421">꼬맹이 바보 고아가 될 테지.</flowPara></flowRoot>    <flowRoot
       xml:space="preserve"
       id="flowRoot2987-4-9-3-5-9-8-3-5"
       style="font-style:normal;font-variant:normal;font-weight:normal;font-stretch:normal;line-height:0.01%;font-family:'Nanum Pen Script OTF';-inkscape-font-specification:'Nanum Pen Script OTF';text-align:center;letter-spacing:0px;word-spacing:0px;text-anchor:middle;fill:#000000;fill-opacity:1;stroke:none"
       transform="matrix(1.5233127,0,0,1.5233127,-197.80476,2292.053)"><flowRegion
         id="flowRegion2989-5-4-5-8-9-5-4-2"><rect
           id="rect2991-7-9-6-5-7-5-4-9"
           width="532.22278"
           height="267.04068"
           x="120.55251"
           y="265.53046"
           style="font-style:normal;font-variant:normal;font-weight:normal;font-stretch:normal;line-height:100%;font-family:'Nanum Pen Script OTF';-inkscape-font-specification:'Nanum Pen Script OTF';text-align:center;text-anchor:middle" /></flowRegion><flowPara
         style="font-style:normal;font-variant:normal;font-weight:normal;font-stretch:normal;font-size:45px;line-height:100%;font-family:'Nanum Pen Script OTF';-inkscape-font-specification:'Nanum Pen Script OTF';text-align:center;text-anchor:middle"
         id="flowPara3433">이제부턴 커민이</flowPara><flowPara
         style="font-style:normal;font-variant:normal;font-weight:normal;font-stretch:normal;font-size:45px;line-height:100%;font-family:'Nanum Pen Script OTF';-inkscape-font-specification:'Nanum Pen Script OTF';text-align:center;text-anchor:middle"
         id="flowPara3439">널 따라다니면서</flowPara><flowPara
         style="font-style:normal;font-variant:normal;font-weight:normal;font-stretch:normal;font-size:45px;line-height:100%;font-family:'Nanum Pen Script OTF';-inkscape-font-specification:'Nanum Pen Script OTF';text-align:center;text-anchor:middle"
         id="flowPara3425">네 수련을 도와주고 우리에게</flowPara><flowPara
         style="font-style:normal;font-variant:normal;font-weight:normal;font-stretch:normal;font-size:45px;line-height:100%;font-family:'Nanum Pen Script OTF';-inkscape-font-specification:'Nanum Pen Script OTF';text-align:center;text-anchor:middle"
         id="flowPara3445">상황 보고를 할 거다.</flowPara></flowRoot>    <flowRoot
       xml:space="preserve"
       id="flowRoot2987-7-9-9-7-0-3-4-1"
       style="font-style:normal;font-variant:normal;font-weight:normal;font-stretch:normal;line-height:0.01%;font-family:'Nanum Pen Script OTF';-inkscape-font-specification:'Nanum Pen Script OTF';letter-spacing:0px;word-spacing:0px;fill:#000000;fill-opacity:1;stroke:#000000;stroke-width:0.73049426;stroke-miterlimit:4;stroke-dasharray:none;stroke-opacity:1;filter:url(#filter4375-4-1-1-1)"
       transform="matrix(1.5383721,-0.72357023,0.29447911,2.9201697,1743.5941,2409.66)"><flowRegion
         id="flowRegion2989-4-5-8-7-41-7-62-2"
         style="stroke-width:5.40286207"><rect
           id="rect2991-45-1-3-3-8-0-4-6"
           width="329.43314"
           height="56.610992"
           x="120.55251"
           y="265.53046"
           style="font-style:normal;font-variant:normal;font-weight:normal;font-stretch:normal;font-family:'Nanum Pen Script OTF';-inkscape-font-specification:'Nanum Pen Script OTF';fill:#000000;fill-opacity:1;stroke:#000000;stroke-width:0.73049426;stroke-miterlimit:4;stroke-dasharray:none;stroke-opacity:1" /></flowRegion><flowPara
         id="flowPara2995-4-1-5-0-7-2-6-4"
         style="font-style:normal;font-variant:normal;font-weight:normal;font-stretch:normal;font-size:48px;line-height:1.25;font-family:'Nanum Pen Script OTF';-inkscape-font-specification:'Nanum Pen Script OTF';letter-spacing:7.06853437px;fill:#ffffff;fill-opacity:1;stroke:#ffffff;stroke-width:0.73049426;stroke-linejoin:miter;stroke-miterlimit:4;stroke-dasharray:none;stroke-opacity:1">펑!</flowPara></flowRoot>  </g>
</svg>
