<?xml version="1.0" encoding="UTF-8" standalone="no"?>
<!-- Created with Inkscape (http://www.inkscape.org/) -->

<svg
   xmlns:dc="http://purl.org/dc/elements/1.1/"
   xmlns:cc="http://creativecommons.org/ns#"
   xmlns:rdf="http://www.w3.org/1999/02/22-rdf-syntax-ns#"
   xmlns:svg="http://www.w3.org/2000/svg"
   xmlns="http://www.w3.org/2000/svg"
   xmlns:xlink="http://www.w3.org/1999/xlink"
   xmlns:sodipodi="http://sodipodi.sourceforge.net/DTD/sodipodi-0.dtd"
   xmlns:inkscape="http://www.inkscape.org/namespaces/inkscape"
   id="svg2"
   version="1.1"
   inkscape:version="0.91 r13725"
   width="2481"
   height="3503"
   sodipodi:docname="Pepper-and-Carrot_by-David-Revoy_E11P05.svg">
  <metadata
     id="metadata8">
    <rdf:RDF>
      <cc:Work
         rdf:about="">
        <dc:format>image/svg+xml</dc:format>
        <dc:type
           rdf:resource="http://purl.org/dc/dcmitype/StillImage" />
        <dc:title />
      </cc:Work>
    </rdf:RDF>
  </metadata>
  <defs
     id="defs6">
    <filter
       style="color-interpolation-filters:sRGB"
       id="filter4375-4-1-1"
       inkscape:label="deevad outline effect">
      <feFlood
         id="feFlood4377-7-9-0"
         flood-opacity="1"
         flood-color="rgb(118,29,43)"
         result="flood" />
      <feComposite
         id="feComposite4379-3-8-8"
         in2="SourceGraphic"
         in="flood"
         operator="in"
         result="composite1" />
      <feMorphology
         id="feMorphology4393-1-0-49"
         operator="dilate"
         radius="4"
         result="result3" />
      <feComposite
         id="feComposite4385-9-5-7"
         in2="result3"
         in="SourceGraphic"
         operator="over"
         result="composite2" />
    </filter>
    <filter
       style="color-interpolation-filters:sRGB"
       id="filter4375-4-1-1-9"
       inkscape:label="deevad outline effect">
      <feFlood
         id="feFlood4377-7-9-0-2"
         flood-opacity="1"
         flood-color="rgb(0,0,0)"
         result="flood" />
      <feComposite
         id="feComposite4379-3-8-8-5"
         in2="SourceGraphic"
         in="flood"
         operator="in"
         result="composite1" />
      <feMorphology
         id="feMorphology4393-1-0-49-5"
         operator="dilate"
         radius="4"
         result="result3" />
      <feComposite
         id="feComposite4385-9-5-7-5"
         in2="result3"
         in="SourceGraphic"
         operator="over"
         result="composite2" />
    </filter>
  </defs>
  <sodipodi:namedview
     pagecolor="#ffffff"
     bordercolor="#666666"
     borderopacity="1"
     objecttolerance="10"
     gridtolerance="10"
     guidetolerance="10"
     inkscape:pageopacity="0"
     inkscape:pageshadow="2"
     inkscape:window-width="1920"
     inkscape:window-height="962"
     id="namedview4"
     showgrid="false"
     inkscape:zoom="0.61"
     inkscape:cx="1717.2103"
     inkscape:cy="1851.193"
     inkscape:window-x="0"
     inkscape:window-y="30"
     inkscape:window-maximized="1"
     inkscape:current-layer="layer1" />
  <g
     inkscape:groupmode="layer"
     id="layer2"
     inkscape:label="artwork"
     sodipodi:insensitive="true">
    <image
       sodipodi:absref="/home/nightlock/peppercarrot-translations/peppercarrot_ep11_translation/kr/../gfx_Pepper-and-Carrot_by-David-Revoy_E11P05.png"
       xlink:href="../gfx_Pepper-and-Carrot_by-David-Revoy_E11P05.png"
       width="2481"
       height="3503"
       id="image10"
       x="0"
       y="0" />
  </g>
  <g
     inkscape:groupmode="layer"
     id="layer3"
     inkscape:label="speechbubbles" />
  <g
     inkscape:groupmode="layer"
     id="layer1"
     inkscape:label="txt">
    <flowRoot
       xml:space="preserve"
       id="flowRoot2987-7-9-9-7-0-3-4"
       style="font-style:normal;font-variant:normal;font-weight:normal;font-stretch:normal;font-size:12px;line-height:125%;font-family:Lavi;-inkscape-font-specification:Lavi;letter-spacing:0px;word-spacing:0px;fill:#000000;fill-opacity:1;stroke:#000000;stroke-width:1.5347175;stroke-miterlimit:4;stroke-dasharray:none;stroke-opacity:1;filter:url(#filter4375-4-1-1);"
       transform="matrix(0.95779366,-0.69642201,0.32573369,1.8441368,734.51733,-199.46191)"><flowRegion
         id="flowRegion2989-4-5-8-7-41-7-62"
         style="stroke-width:5.40286207"><rect
           id="rect2991-45-1-3-3-8-0-4"
           width="343.24704"
           height="76.604034"
           x="120.55251"
           y="265.53046"
           style="font-style:normal;font-variant:normal;font-weight:normal;font-stretch:normal;font-family:Lavi;-inkscape-font-specification:Lavi;fill:#000000;fill-opacity:1;stroke:#000000;stroke-width:1.5347175;stroke-miterlimit:4;stroke-dasharray:none;stroke-opacity:1;" /></flowRegion><flowPara
         id="flowPara2995-4-1-5-0-7-2-6"
         style="font-weight:normal;font-size:48px;-inkscape-font-specification:Lavi;letter-spacing:7.06853437px;fill:#ffffff;fill-opacity:1;stroke:#ffffff;stroke-width:1.5347175;stroke-linejoin:miter;stroke-miterlimit:4;stroke-dasharray:none;stroke-opacity:1;"><flowSpan
           style="font-style:normal;font-variant:normal;font-weight:normal;font-stretch:normal;font-family:'Nanum Pen Script OTF';-inkscape-font-specification:'Nanum Pen Script OTF';stroke-width:1.5347175;"
           id="flowSpan3378"><flowSpan
   style="font-size:65.60019684px;stroke-width:1.5347175;"
   id="flowSpan3382">지</flowSpan>지직</flowSpan></flowPara></flowRoot>    <path
       style="color:#000000;display:inline;overflow:visible;visibility:visible;fill:#ffffff;fill-opacity:1;fill-rule:nonzero;stroke:none;stroke-width:1px;marker:none;enable-background:accumulate"
       d="m 1318.2012,1044.3535 c -7.4439,0.5141 -14.0875,2.9715 -18.3158,7.2054 -10.9586,-11.8967 -26.3421,0.967 -27.757,3.6543 -13.7886,-6.522 -33.2384,-2.2937 -40.9305,4.1378 -18.3086,-9.6187 -57.6609,4.3766 -56.8826,23.9257 -21.4332,13.8384 -22.8014,30.4536 -16.4773,40.6378 -16.4571,11.3968 -25.6501,65.0701 20.4159,71.0346 12.6486,20.3683 47.6895,29.7509 64.1466,18.3539 22.2118,5.7107 36.1141,10.8465 41.7741,0.097 8.8918,9.653 29.3983,11.8547 32.5964,1.6359 15.8968,10.1294 37.9503,12.9555 50.019,4.5975 22.2118,5.7108 36.1142,10.8482 41.7743,0.099 10.9582,11.8967 29.6132,14.9011 39.7472,-0.074 19.0156,7.664 22.0488,2.8397 34.9821,-5.0257 21.2235,15.7961 40.6912,8.9404 48.8382,-4.5905 30.1499,6.858 35.4974,-16.6582 34.1781,-25.507 26.7163,-8.3464 34.463,-29.4333 15.0029,-47.5719 6.5721,-21.827 -2.0606,-47.4868 -41.7355,-58.5804 -9.3153,-17.3532 -41.6403,-30.7253 -64.2606,-16.9688 -15.5925,-13.6088 -40.6336,-13.9448 -51.0419,-3.5229 -7.8673,-8.5409 -17.989,-4.3197 -23.6116,-0.2645 -14.0927,-8.6439 -34.202,-11.9918 -49.7361,-2.5447 -9.2581,-8.0803 -21.8464,-11.4801 -32.7259,-10.7283 z"
       id="path4043"
       inkscape:connector-curvature="0"
       sodipodi:nodetypes="ccccccccccccccccccccccc" />
    <flowRoot
       xml:space="preserve"
       id="flowRoot2987-4-9-3-5-9-8-3-5-4-0-5-5"
       style="font-style:normal;font-variant:normal;font-weight:normal;font-stretch:normal;font-size:12px;line-height:100%;font-family:'Nanum Pen Script OTF';-inkscape-font-specification:'Nanum Pen Script OTF';text-align:center;letter-spacing:0px;word-spacing:0px;text-anchor:middle;fill:#000000;fill-opacity:1;stroke:none"
       transform="matrix(1.3322124,0,0,1.3322124,997.17348,724.55073)"><flowRegion
         id="flowRegion2989-5-4-5-8-9-5-4-2-2-5-0-8"><rect
           id="rect2991-7-9-6-5-7-5-4-9-5-4-3-2"
           width="308.48749"
           height="319.30511"
           x="120.55251"
           y="265.53046"
           style="font-style:normal;font-variant:normal;font-weight:normal;font-stretch:normal;line-height:100%;font-family:'Nanum Pen Script OTF';-inkscape-font-specification:'Nanum Pen Script OTF';text-align:center;text-anchor:middle" /></flowRegion><flowPara
         style="font-style:normal;font-variant:normal;font-weight:normal;font-stretch:normal;font-size:45px;line-height:100%;font-family:'Nanum Pen Script OTF';-inkscape-font-specification:'Nanum Pen Script OTF';text-align:center;text-anchor:middle"
         id="flowPara4272-0">저랑 당신은</flowPara><flowPara
         style="font-style:normal;font-variant:normal;font-weight:normal;font-stretch:normal;font-size:45px;line-height:100%;font-family:'Nanum Pen Script OTF';-inkscape-font-specification:'Nanum Pen Script OTF';text-align:center;text-anchor:middle"
         id="flowPara3384">조금 닮은 면이 있네요...</flowPara></flowRoot>    <path
       style="color:#000000;display:inline;overflow:visible;visibility:visible;fill:#ffffff;fill-opacity:1;fill-rule:nonzero;stroke:none;stroke-width:1px;marker:none;enable-background:accumulate"
       d="m 1263.0275,1261.586 c 3.2526,-13.9142 12.362,-12.7945 19.7109,-8.2909 7.1257,-0.1505 15.5492,0.9462 9.5739,13.2654 4.4484,3.5928 10.3777,11.5837 -2.1306,18.3276 -1.7432,6.2934 -19.9536,11.285 -26.591,-2.8511 -12.9529,-6.0801 -17.4582,-18.2401 -0.5632,-20.451 z"
       id="path4051"
       inkscape:connector-curvature="0"
       sodipodi:nodetypes="cccccc" />
    <path
       style="color:#000000;display:inline;overflow:visible;visibility:visible;fill:#ffffff;fill-opacity:1;fill-rule:nonzero;stroke:none;stroke-width:1px;marker:none;enable-background:accumulate"
       d="m 1286.2708,1309.2578 c 3.6765,-1.0212 6.7369,1.1598 9.1289,4.1414 11.2359,-14.5964 27.0112,26.7457 -0.4784,19.6785 -16.7378,5.7055 -18.2129,-9.5291 -11.4815,-14.9079 -2.5821,-3.2186 -0.8455,-7.8909 2.831,-8.912 z"
       id="path4059"
       inkscape:connector-curvature="0"
       sodipodi:nodetypes="zcccz" />
    <path
       style="color:#000000;display:inline;overflow:visible;visibility:visible;fill:#ffffff;fill-opacity:1;fill-rule:nonzero;stroke:none;stroke-width:1px;marker:none;enable-background:accumulate"
       d="m 1000.0327,2392.193 c 3.516,-0.4647 6.6249,-2.1426 8.5651,-4.8978 5.359,7.3133 12.4544,-1.1057 13.0852,-2.8307 6.6209,3.8632 15.7658,0.8257 19.3136,-3.3836 8.8051,5.7356 27.2291,-3.8485 26.5781,-16.1894 9.9447,-9.1488 10.3519,-19.6756 7.2112,-25.9936 7.6247,-7.512 11.1996,-41.6074 -10.6908,-44.5123 -6.2816,-12.6358 -23.0031,-17.9081 -30.6277,-10.3958 -10.5961,-3.1925 -17.2507,-6.1774 -19.7743,0.7229 -4.3484,-5.9342 -14.08639,-6.9406 -15.45232,-0.4221 -7.67091,-6.1036 -18.15025,-7.4758 -23.74183,-1.9668 -10.59601,-3.1922 -17.25073,-6.1783 -19.7743,0.7221 -5.35888,-7.3132 -14.23224,-8.862 -18.81233,0.7927 -9.11142,-4.4869 -10.47732,-1.3809 -16.48523,3.833 -10.27411,-9.585 -19.38951,-4.8865 -23.05002,3.8183 -14.36996,-3.7685 -16.56091,11.1948 -15.80845,16.7627 -12.52479,5.7766 -15.88647,19.2495 -6.41313,30.3482 -2.79502,13.9186 1.6622,29.9742 20.60184,36.2408 4.6602,10.7929 20.15389,18.6375 30.66174,9.5184 7.57717,8.3083 19.4346,8.0505 24.21039,1.2684 3.84734,5.2502 8.57713,2.3923 11.17983,-0.2762 6.79546,5.1985 16.36216,6.937 23.57821,0.6746 4.49898,4.9332 10.50657,6.8456 15.6452,6.1662 z"
       id="path4043-4"
       inkscape:connector-curvature="0"
       sodipodi:nodetypes="ccccccccccccccccccccccc" />
    <flowRoot
       xml:space="preserve"
       id="flowRoot2987-4-9-3-5-9-8-3-5-4-0-5-5-7"
       style="font-style:normal;font-variant:normal;font-weight:normal;font-stretch:normal;font-size:12px;line-height:125%;font-family:'Nanum Pen Script OTF';-inkscape-font-specification:'Nanum Pen Script OTF';text-align:center;letter-spacing:0px;word-spacing:0px;text-anchor:middle;fill:#000000;fill-opacity:1;stroke:none"
       transform="matrix(1.4813097,0,0,1.4813097,435.72751,1901.8913)"><flowRegion
         id="flowRegion2989-5-4-5-8-9-5-4-2-2-5-0-8-9"><rect
           id="rect2991-7-9-6-5-7-5-4-9-5-4-3-2-2"
           width="493.73337"
           height="314.38708"
           x="120.55251"
           y="265.53046"
           style="font-style:normal;font-variant:normal;font-weight:normal;font-stretch:normal;font-family:'Nanum Pen Script OTF';-inkscape-font-specification:'Nanum Pen Script OTF';text-align:center;text-anchor:middle" /></flowRegion><flowPara
         style="font-style:normal;font-variant:normal;font-weight:normal;font-stretch:normal;font-size:45px;font-family:'Nanum Pen Script OTF';-inkscape-font-specification:'Nanum Pen Script OTF';text-align:center;text-anchor:middle"
         id="flowPara4272-0-7">어리고...</flowPara></flowRoot>    <path
       style="color:#000000;display:inline;overflow:visible;visibility:visible;fill:#ffffff;fill-opacity:1;fill-rule:nonzero;stroke:none;stroke-width:1px;marker:none;enable-background:accumulate"
       d="m 1112.9861,2463.7709 c 3.3541,-0.4647 6.32,-2.1427 8.1709,-4.8978 5.1124,7.3133 11.8812,-1.1058 12.483,-2.8307 6.3161,3.8632 15.0401,0.8257 18.4247,-3.3836 8.3999,5.7355 25.976,-3.8486 25.3549,-16.1895 9.487,-9.1488 9.8755,-19.6755 6.8793,-25.9935 7.2738,-7.512 10.6842,-41.6075 -10.1987,-44.5123 -5.9926,-12.6359 -21.9445,-17.9082 -29.2182,-10.3958 -10.1084,-3.1925 -16.4568,-6.1774 -18.8642,0.7229 -4.1482,-5.9342 -13.4382,-6.9406 -14.7412,-0.4221 -7.3179,-6.1036 -17.315,-7.4758 -22.6491,-1.9668 -10.1084,-3.1923 -16.4569,-6.1784 -18.8643,0.7221 -5.1122,-7.3132 -13.5772,-8.8621 -17.9465,0.7927 -8.6921,-4.4869 -9.9951,-1.3809 -15.7265,3.833 -9.8013,-9.585 -18.4972,-4.8866 -21.9892,3.8183 -13.7086,-3.7685 -15.79873,11.1948 -15.0809,16.7627 -11.94835,5.7766 -15.15532,19.2495 -6.11797,30.3482 -2.66639,13.9185 1.5857,29.9742 19.65367,36.2408 4.4457,10.7929 19.2263,18.6375 29.2506,9.5184 7.2284,8.3083 18.5401,8.0505 23.0961,1.2683 3.6703,5.2502 8.1824,2.3923 10.6653,-0.2762 6.4827,5.1986 15.6091,6.9371 22.4931,0.6747 4.2919,4.9331 10.023,6.8456 14.9252,6.1662 z"
       id="path4043-4-9"
       inkscape:connector-curvature="0"
       sodipodi:nodetypes="ccccccccccccccccccccccc" />
    <flowRoot
       xml:space="preserve"
       id="flowRoot2987-4-9-3-5-9-8-3-5-4-0-5-5-7-1"
       style="font-style:normal;font-variant:normal;font-weight:normal;font-stretch:normal;font-size:12px;line-height:125%;font-family:'Nanum Pen Script OTF';-inkscape-font-specification:'Nanum Pen Script OTF';text-align:center;letter-spacing:0px;word-spacing:0px;text-anchor:middle;fill:#000000;fill-opacity:1;stroke:none"
       transform="matrix(1.3831005,0,0,1.3831005,581.67531,2001.1835)"><flowRegion
         id="flowRegion2989-5-4-5-8-9-5-4-2-2-5-0-8-9-8"><rect
           id="rect2991-7-9-6-5-7-5-4-9-5-4-3-2-2-3"
           width="493.73337"
           height="314.38708"
           x="120.55251"
           y="265.53046"
           style="font-style:normal;font-variant:normal;font-weight:normal;font-stretch:normal;font-family:'Nanum Pen Script OTF';-inkscape-font-specification:'Nanum Pen Script OTF';text-align:center;text-anchor:middle" /></flowRegion><flowPara
         style="font-style:normal;font-variant:normal;font-weight:normal;font-stretch:normal;font-size:45px;font-family:'Nanum Pen Script OTF';-inkscape-font-specification:'Nanum Pen Script OTF';text-align:center;text-anchor:middle"
         id="flowPara4272-0-7-7">외롭고...</flowPara></flowRoot>    <path
       style="color:#000000;display:inline;overflow:visible;visibility:visible;fill:#ffffff;fill-opacity:1;fill-rule:nonzero;stroke:none;stroke-width:1px;marker:none;enable-background:accumulate"
       d="m 1707.1751,2601.3246 c 6.2912,-0.7381 11.854,-3.4028 15.3256,-7.7784 9.5888,11.6143 22.2847,-1.7559 23.4134,-4.4952 11.8465,6.135 28.2095,1.3112 34.5577,-5.3736 15.755,9.1086 48.721,-6.1118 47.5562,-25.7102 17.7939,-14.5292 18.5226,-31.2468 12.9028,-41.2804 13.643,-11.9297 20.0397,-66.0763 -19.129,-70.6897 -11.2396,-20.0668 -41.1593,-28.4397 -54.802,-16.5096 -18.9597,-5.0698 -30.8667,-9.8102 -35.3821,1.1482 -7.7804,-9.4241 -25.2049,-11.0225 -27.6488,-0.6704 -13.7258,-9.693 -32.4763,-11.8721 -42.4814,-3.1234 -18.9593,-5.0696 -30.8666,-9.8119 -35.3821,1.1466 -9.5885,-11.614 -25.4656,-14.0736 -33.6609,1.259 -16.3029,-7.1256 -18.7469,-2.193 -29.4969,6.0872 -18.3834,-15.2219 -34.6936,-7.7605 -41.2433,6.0638 -25.7121,-5.9847 -29.6323,17.7784 -28.2861,26.6208 -22.4105,9.1739 -28.4256,30.57 -11.4749,48.1959 -5.0011,22.1038 2.9742,47.6018 36.8627,57.5536 8.3386,17.1401 36.0613,29.598 54.8632,15.1161 13.5576,13.1945 34.7742,12.785 43.3195,2.0143 6.8841,8.3379 15.347,3.7994 20.004,-0.4385 12.1591,8.2558 29.2768,11.0165 42.1885,1.0714 8.0499,7.8343 18.7993,10.8714 27.9939,9.7925 z"
       id="path4043-4-9-1"
       inkscape:connector-curvature="0"
       sodipodi:nodetypes="ccccccccccccccccccccccc" />
    <flowRoot
       xml:space="preserve"
       id="flowRoot2987-4-9-3-5-9-8-3-5-4-0-5-5-7-1-9"
       style="font-style:normal;font-variant:normal;font-weight:normal;font-stretch:normal;font-size:12px;line-height:100%;font-family:'Nanum Pen Script OTF';-inkscape-font-specification:'Nanum Pen Script OTF';text-align:center;letter-spacing:0px;word-spacing:0px;text-anchor:middle;fill:#000000;fill-opacity:1;stroke:none"
       transform="matrix(1.3298801,0,0,1.3298801,1358.8246,2102.629)"><flowRegion
         id="flowRegion2989-5-4-5-8-9-5-4-2-2-5-0-8-9-8-8"><rect
           id="rect2991-7-9-6-5-7-5-4-9-5-4-3-2-2-3-4"
           width="222.04588"
           height="298.57458"
           x="120.55251"
           y="265.53046"
           style="font-style:normal;font-variant:normal;font-weight:normal;font-stretch:normal;line-height:100%;font-family:'Nanum Pen Script OTF';-inkscape-font-specification:'Nanum Pen Script OTF';text-align:center;text-anchor:middle" /></flowRegion><flowPara
         style="font-style:normal;font-variant:normal;font-weight:normal;font-stretch:normal;font-size:45px;line-height:100%;font-family:'Nanum Pen Script OTF';-inkscape-font-specification:'Nanum Pen Script OTF';text-align:center;text-anchor:middle"
         id="flowPara4435">...운명이란 감옥에 갇혀 있네요.</flowPara></flowRoot>    <path
       style="color:#000000;display:inline;overflow:visible;visibility:visible;fill:#ffffff;fill-opacity:1;fill-rule:nonzero;stroke:none;stroke-width:1px;marker:none;enable-background:accumulate"
       d="m 1199.2151,2323.7893 c 2.225,-9.385 13.0044,-12.9003 20.604,-6.006 5.7937,-4.4838 15.1847,0.9709 10.4045,11.3728 7.9371,3.6245 10.2853,20.5369 -3.8877,20.7106 -3.8301,8.4751 -19.496,8.8047 -25.723,-3.4794 -10.5094,4.3941 -19.2873,-20.2128 -1.3978,-22.598 z"
       id="path4051-1"
       inkscape:connector-curvature="0"
       sodipodi:nodetypes="cccccc" />
    <path
       style="color:#000000;display:inline;overflow:visible;visibility:visible;fill:#ffffff;fill-opacity:1;fill-rule:nonzero;stroke:none;stroke-width:1px;marker:none;enable-background:accumulate"
       d="m 1261.6184,2282.2669 c 3.7043,-1.6524 6.641,0 8.8742,2.5696 6.3848,-5.2404 23.2295,7.2113 -1.4295,19.7477 -9.1804,4.5419 -17.6092,-6.4102 -10.6909,-12.9246 -2.4109,-2.7727 -0.4581,-7.7403 3.2462,-9.3927 z"
       id="path4059-6"
       inkscape:connector-curvature="0"
       sodipodi:nodetypes="zcccz" />
    <path
       style="color:#000000;display:inline;overflow:visible;visibility:visible;fill:#ffffff;fill-opacity:1;fill-rule:nonzero;stroke:none;stroke-width:1px;marker:none;enable-background:accumulate"
       d="m 1765.5082,2376.4339 c 14.1067,14.7269 5.3775,33.1901 -19.7909,27.1407 -14.6783,6.3004 -38.9492,-22.0463 -11.6312,-27.7892 -1.0944,-13.4466 34.9155,-16.36 31.4221,0.6485 z"
       id="path4051-1-3"
       inkscape:connector-curvature="0"
       sodipodi:nodetypes="cccc" />
    <path
       style="color:#000000;display:inline;overflow:visible;visibility:visible;fill:#ffffff;fill-opacity:1;fill-rule:nonzero;stroke:none;stroke-width:1px;marker:none;enable-background:accumulate"
       d="m 1734.4609,2345.1465 c -3.6004,3.1824 -7.7715,3.0113 -11.5262,1.6893 -2.5115,3.1494 -25.5738,-4.2698 -7.1025,-18.6006 8.7242,-8.2935 23.4543,-2.1601 18.2536,6.9001 4.0532,1.4271 3.9754,6.829 0.3751,10.0112 z"
       id="path4059-6-7"
       inkscape:connector-curvature="0"
       sodipodi:nodetypes="zcccz" />
  </g>
</svg>
