<?xml version="1.0" encoding="UTF-8" standalone="no"?>
<!-- Created with Inkscape (http://www.inkscape.org/) -->

<svg
   xmlns:dc="http://purl.org/dc/elements/1.1/"
   xmlns:cc="http://creativecommons.org/ns#"
   xmlns:rdf="http://www.w3.org/1999/02/22-rdf-syntax-ns#"
   xmlns:svg="http://www.w3.org/2000/svg"
   xmlns="http://www.w3.org/2000/svg"
   xmlns:xlink="http://www.w3.org/1999/xlink"
   xmlns:sodipodi="http://sodipodi.sourceforge.net/DTD/sodipodi-0.dtd"
   xmlns:inkscape="http://www.inkscape.org/namespaces/inkscape"
   id="svg2"
   version="1.1"
   inkscape:version="0.92.1 renderfarm"
   width="2481"
   height="3503"
   sodipodi:docname="Pepper-and-Carrot_by-David-Revoy_E11P03_092.svg">
  <sodipodi:namedview pagecolor="#ffffff" bordercolor="#666666" inkscape:pageopacity="0" inkscape:pageshadow="2" inkscape:window-width="1813" inkscape:window-height="955" id="namedview70" showgrid="false" inkscape:zoom="0.4" inkscape:cx="1284.4231" inkscape:cy="2618.6204" inkscape:current-layer="layer1" /><metadata
     id="metadata8">
    <rdf:RDF>
      <cc:Work
         rdf:about="">
        <dc:format>image/svg+xml</dc:format>
        <dc:type
           rdf:resource="http://purl.org/dc/dcmitype/StillImage" />
        <dc:title />
      </cc:Work>
    </rdf:RDF>
  </metadata>
  <defs
     id="defs6" />
  <sodipodi:namedview
     pagecolor="#ffffff"
     bordercolor="#666666"
     borderopacity="1"
     objecttolerance="10"
     gridtolerance="10"
     guidetolerance="10"
     inkscape:pageopacity="0"
     inkscape:pageshadow="2"
     inkscape:window-width="1920"
     inkscape:window-height="1026"
     id="namedview4"
     showgrid="false"
     inkscape:zoom="0.52900001"
     inkscape:cx="1393.8007"
     inkscape:cy="309.71205"
     inkscape:window-x="0"
     inkscape:window-y="27"
     inkscape:window-maximized="1"
     inkscape:current-layer="layer1" />
  <g
     inkscape:groupmode="layer"
     id="layer2"
     inkscape:label="artwork"
     sodipodi:insensitive="true">
    <image
       sodipodi:absref="/home/deevad/peppercarrot/webcomics/ep11_The-Witches-of-Chaosah/lang/kr/../gfx_Pepper-and-Carrot_by-David-Revoy_E11P03.png"
       xlink:href="../gfx_Pepper-and-Carrot_by-David-Revoy_E11P03.png"
       y="0"
       x="0"
       id="image10"
       height="3503"
       width="2481" />
  </g>
  <g
     inkscape:groupmode="layer"
     id="layer3"
     inkscape:label="speechbubbles">
    <path
       style="color:#000000;display:inline;overflow:visible;visibility:visible;fill:#ffffff;fill-opacity:1;fill-rule:nonzero;stroke:none;stroke-width:1px;marker:none;enable-background:accumulate"
       d="m 453.61201,1714.3471 c 19.33582,-33.2855 54.81276,-64.963 108.15302,-76.3102 53.34016,-11.3473 160.4613,-10.7796 177.79693,-6.9972 17.33547,3.7824 113.33041,18.6283 133.99966,37.5405 20.6694,18.9122 44.77672,47.2799 50.77759,71.4875 6.00087,24.2076 -7.51278,74.7935 -18.66911,95.3176 -12.89784,23.728 -103.27759,40.6997 -158.68706,42.3633 -57.45348,1.725 -173.18692,-8.0603 -204.69293,-18.9122 -33.12012,-11.4078 -70.00904,-18.9123 -80.67705,-45.3893 -10.66807,-26.4771 -30.67064,-61.2756 -8.00105,-99.1 z"
       id="path3533"
       inkscape:connector-curvature="0"
       sodipodi:nodetypes="cscssssssc" />
    <path
       style="color:#000000;display:inline;overflow:visible;visibility:visible;fill:#ffffff;fill-opacity:1;fill-rule:nonzero;stroke:none;stroke-width:1px;marker:none;enable-background:accumulate"
       d="m 883.77495,1745.1358 c 44.44471,-22.895 116.41795,-23.2688 129.48195,54.9811 34.6887,14.392 59.3221,29.36 66.1093,93.306 -13.8854,-45.9668 -26.6681,-69.4371 -79.48608,-86.6191 -11.9779,-39.1913 -54.96889,-53.3177 -104.25568,-15.6318 -49.28677,37.6861 -33.32019,31.3976 -33.32019,31.3976 l 7.61389,-70.6093 z"
       id="path5074"
       inkscape:connector-curvature="0"
       sodipodi:nodetypes="ccccsccc" />
    <path
       style="color:#000000;display:inline;overflow:visible;visibility:visible;fill:#ffffff;fill-opacity:1;fill-rule:nonzero;stroke:none;stroke-width:1px;marker:none;enable-background:accumulate"
       d="m 493.00246,3235.7711 c -1.49697,-94.9856 62.88768,-112.9075 264.53699,-106.629 133.08216,4.1437 227.41347,-5.4472 225.74028,133.3436 -1.34449,111.5353 -171.60888,103.0457 -234.68312,103.586 -68.72089,0.5887 -199.06196,-9.47 -230.57223,-48.3409 -19.72472,-24.3322 -26.60696,-58.5533 -25.02192,-81.9597 z"
       id="path4546"
       inkscape:connector-curvature="0"
       sodipodi:nodetypes="cssssc" />
    <path
       style="color:#000000;display:inline;overflow:visible;visibility:visible;fill:#ffffff;fill-opacity:1;fill-rule:nonzero;stroke:none;stroke-width:1px;marker:none;enable-background:accumulate"
       d="m 843.307,3015.1845 c 2.65817,11.0982 0.56895,24.6098 -8.84773,31.9849 -5.62965,4.0443 -12.97276,2.0162 -19.04568,4.8468 -8.44733,3.1446 -16.46289,10.0409 -18.02057,19.2705 0.0653,7.4653 1.05874,14.9149 0.52347,22.3958 -1.23196,27.771 -10.8096,54.396 -22.46763,79.3592 -5.64729,11.4381 -13.39659,23.4472 -26.11245,27.6947 -16.1949,5.4362 -36.3337,-0.7941 -44.785,-16.0969 -6.51063,-11.8916 -4.4561,-28.8897 6.977,-37.0555 4.50534,-3.0892 10.47549,-3.6869 15.52559,-1.6486 15.26771,3.1726 30.67539,-6.5495 37.98276,-19.6292 3.60047,-6.8956 6.43699,-14.1742 9.42856,-21.3428 3.97281,-11.1175 3.9698,-23.063 3.60289,-34.7049 0.0253,-9.3943 6.41635,-17.2373 13.10891,-23.172 5.2564,-4.4486 11.48592,-7.7593 18.14178,-9.542 13.68673,2.4208 27.19412,-12.0571 23.62541,-25.5491 -3.98085,-17.1637 -9.21424,-34.0065 -14.85124,-50.6943 10.19853,16.9993 20.83311,34.3074 25.21393,53.8834 z"
       id="path4496"
       inkscape:connector-curvature="0" />
  </g>
  <g
     inkscape:groupmode="layer"
     id="layer1"
     inkscape:label="txt">
    <path
       style="color:#000000;display:inline;overflow:visible;visibility:visible;fill:#ffffff;fill-opacity:1;fill-rule:nonzero;stroke:none;stroke-width:1px;marker:none;enable-background:accumulate"
       d="m 86.87594,103.2854 c -25.374101,18.63879 -31.415545,41.71534 -28.998976,52.36603 2.416597,10.65066 36.248705,60.35402 38.665293,73.66746 2.416584,13.31343 -33.832118,72.77981 -26.582378,92.30615 7.249743,19.52633 21.190791,72.64194 116.645701,77.96715 99.83699,4.39626 420.28623,38.44871 489.9159,-38.02699 C 740.88421,280.14358 750.23457,123.64965 666.8551,93.522283 614.89874,77.546174 146.08214,51.806953 86.87594,103.2854 Z"
       id="path4464"
       inkscape:connector-curvature="0"
       sodipodi:nodetypes="cssscccc" />
    <flowRoot
       xml:space="preserve"
       id="flowRoot2987-4-9-3-5-9-8-3-5"
       style="font-style:normal;font-variant:normal;font-weight:normal;font-stretch:normal;line-height:0.01%;font-family:'Nanum Pen Script OTF';-inkscape-font-specification:'Nanum Pen Script OTF';text-align:center;letter-spacing:0px;word-spacing:0px;text-anchor:middle;fill:#000000;fill-opacity:1;stroke:none"
       transform="matrix(1.4068253,0,0,1.4068253,-114.80177,-241.98148)"><flowRegion
         id="flowRegion2989-5-4-5-8-9-5-4-2"><rect
           id="rect2991-7-9-6-5-7-5-4-9"
           width="497.70953"
           height="358.25998"
           x="120.55251"
           y="265.53046"
           style="font-style:normal;font-variant:normal;font-weight:normal;font-stretch:normal;line-height:100%;font-family:'Nanum Pen Script OTF';-inkscape-font-specification:'Nanum Pen Script OTF';text-align:center;text-anchor:middle" /></flowRegion><flowPara
         style="font-style:normal;font-variant:normal;font-weight:normal;font-stretch:normal;font-size:45px;line-height:100%;font-family:'Nanum Pen Script OTF';-inkscape-font-specification:'Nanum Pen Script OTF';text-align:center;text-anchor:middle"
         id="flowPara3030-8-1-8-7-8-3">아크렌의 새 왕은 너무</flowPara><flowPara
         style="font-style:normal;font-variant:normal;font-weight:normal;font-stretch:normal;font-size:45px;line-height:100%;font-family:'Nanum Pen Script OTF';-inkscape-font-specification:'Nanum Pen Script OTF';text-align:center;text-anchor:middle"
         id="flowPara3357">신하들을 착하고 부드럽게 대하고</flowPara><flowPara
         style="font-style:normal;font-variant:normal;font-weight:normal;font-stretch:normal;font-size:45px;line-height:100%;font-family:'Nanum Pen Script OTF';-inkscape-font-specification:'Nanum Pen Script OTF';text-align:center;text-anchor:middle"
         id="flowPara3359">있어. 사람들은 왕을 무서워해야</flowPara><flowPara
         style="font-style:normal;font-variant:normal;font-weight:normal;font-stretch:normal;font-size:45px;line-height:100%;font-family:'Nanum Pen Script OTF';-inkscape-font-specification:'Nanum Pen Script OTF';text-align:center;text-anchor:middle"
         id="flowPara3361">하는 법이야.</flowPara></flowRoot>    <path
       style="color:#000000;fill:#ffffff;fill-opacity:1;fill-rule:nonzero;stroke:none;stroke-width:1px;marker:none;visibility:visible;display:inline;overflow:visible;enable-background:accumulate"
       d="m 590.93195,374.40123 c -13.14604,32.78603 12.63645,114.47239 62.26505,127.10564 -70.18554,-4.07502 -99.34113,-76.97331 -105.63042,-99.95904 -6.28929,-22.98575 43.36537,-27.1466 43.36537,-27.1466 z"
       id="path5010"
       inkscape:connector-curvature="0"
       sodipodi:nodetypes="ccsc" />
    <flowRoot
       xml:space="preserve"
       id="flowRoot2987-4-9-3-5-9-8-3-5-4"
       style="font-style:normal;font-variant:normal;font-weight:normal;font-stretch:normal;line-height:0.01%;font-family:'Nanum Pen Script OTF';-inkscape-font-specification:'Nanum Pen Script OTF';text-align:center;letter-spacing:0px;word-spacing:0px;text-anchor:middle;fill:#000000;fill-opacity:1;stroke:none"
       transform="matrix(1.2718311,0,0,1.2725582,343.6715,1330.461)"><flowRegion
         id="flowRegion2989-5-4-5-8-9-5-4-2-2"><rect
           id="rect2991-7-9-6-5-7-5-4-9-5"
           width="323.35153"
           height="256.32764"
           x="107.50903"
           y="276.40002"
           style="font-style:normal;font-variant:normal;font-weight:normal;font-stretch:normal;line-height:100%;font-family:'Nanum Pen Script OTF';-inkscape-font-specification:'Nanum Pen Script OTF';text-align:center;text-anchor:middle" /></flowRegion><flowPara
         style="font-style:normal;font-variant:normal;font-weight:normal;font-stretch:normal;font-size:45px;line-height:100%;font-family:'Nanum Pen Script OTF';-inkscape-font-specification:'Nanum Pen Script OTF';text-align:center;text-anchor:middle"
         id="flowPara3356">네 첫 임무는 그 군주를 찾아서 그를 더 부리기 쉽도록 위협하는 거야.</flowPara></flowRoot>    <flowRoot
       xml:space="preserve"
       id="flowRoot2987-4-9-3-5-9-8-3-5-4-6"
       style="font-style:normal;font-variant:normal;font-weight:normal;font-stretch:normal;line-height:0.01%;font-family:'Nanum Pen Script OTF';-inkscape-font-specification:'Nanum Pen Script OTF';text-align:center;letter-spacing:0px;word-spacing:0px;text-anchor:middle;fill:#000000;fill-opacity:1;stroke:none"
       transform="matrix(1.3870969,0,0,1.3870969,347.41502,2795.5967)"><flowRegion
         id="flowRegion2989-5-4-5-8-9-5-4-2-2-2"><rect
           id="rect2991-7-9-6-5-7-5-4-9-5-2"
           width="321.9061"
           height="362.04068"
           x="120.55251"
           y="265.53046"
           style="font-style:normal;font-variant:normal;font-weight:normal;font-stretch:normal;line-height:100%;font-family:'Nanum Pen Script OTF';-inkscape-font-specification:'Nanum Pen Script OTF';text-align:center;text-anchor:middle" /></flowRegion><flowPara
         style="font-style:normal;font-variant:normal;font-weight:normal;font-stretch:normal;font-size:45px;line-height:100%;font-family:'Nanum Pen Script OTF';-inkscape-font-specification:'Nanum Pen Script OTF';text-align:center;text-anchor:middle"
         id="flowPara3030-8-1-8-7-8-3-5-1">진정한 카오사의 마녀는 권력 위에 군림할 수 있을 만큼 강력해!</flowPara></flowRoot>  </g>
</svg>
