<?xml version="1.0" encoding="UTF-8" standalone="no"?>
<!-- Created with Inkscape (http://www.inkscape.org/) -->

<svg
   xmlns:dc="http://purl.org/dc/elements/1.1/"
   xmlns:cc="http://creativecommons.org/ns#"
   xmlns:rdf="http://www.w3.org/1999/02/22-rdf-syntax-ns#"
   xmlns:svg="http://www.w3.org/2000/svg"
   xmlns="http://www.w3.org/2000/svg"
   xmlns:xlink="http://www.w3.org/1999/xlink"
   xmlns:sodipodi="http://sodipodi.sourceforge.net/DTD/sodipodi-0.dtd"
   xmlns:inkscape="http://www.inkscape.org/namespaces/inkscape"
   id="svg2"
   version="1.1"
   inkscape:version="0.91 r13725"
   width="2481"
   height="3503"
   sodipodi:docname="Pepper-and-Carrot_by-David-Revoy_E11P03.svg">
  <metadata
     id="metadata8">
    <rdf:RDF>
      <cc:Work
         rdf:about="">
        <dc:format>image/svg+xml</dc:format>
        <dc:type
           rdf:resource="http://purl.org/dc/dcmitype/StillImage" />
        <dc:title />
      </cc:Work>
    </rdf:RDF>
  </metadata>
  <defs
     id="defs6" />
  <sodipodi:namedview
     pagecolor="#ffffff"
     bordercolor="#666666"
     borderopacity="1"
     objecttolerance="10"
     gridtolerance="10"
     guidetolerance="10"
     inkscape:pageopacity="0"
     inkscape:pageshadow="2"
     inkscape:window-width="1858"
     inkscape:window-height="1058"
     id="namedview4"
     showgrid="false"
     inkscape:zoom="0.52900001"
     inkscape:cx="795.11865"
     inkscape:cy="1601.9299"
     inkscape:window-x="54"
     inkscape:window-y="-8"
     inkscape:window-maximized="1"
     inkscape:current-layer="layer1" />
  <g
     inkscape:groupmode="layer"
     id="layer2"
     inkscape:label="artwork"
     sodipodi:insensitive="true">
    <image
       sodipodi:absref="C:\work\git\peppercarrot_ep11_translation\de\..\gfx_Pepper-and-Carrot_by-David-Revoy_E11P03.png"
       xlink:href="../gfx_Pepper-and-Carrot_by-David-Revoy_E11P03.png"
       y="0"
       x="0"
       id="image10"
       height="3503"
       width="2481" />
  </g>
  <g
     inkscape:groupmode="layer"
     id="layer3"
     inkscape:label="speechbubbles">
    <path
       style="color:#000000;display:inline;overflow:visible;visibility:visible;fill:#ffffff;fill-opacity:1;fill-rule:nonzero;stroke:none;stroke-width:1px;marker:none;enable-background:accumulate"
       d="m 329.63942,1705.845 c 24.33486,-37.323 68.98392,-72.8429 136.11463,-85.5666 67.13059,-12.7237 201.94656,-12.0872 223.7641,-7.8459 21.81734,4.2412 142.63058,20.8879 168.6436,42.0941 26.01322,21.2063 56.35318,53.0149 63.9055,80.1589 7.55232,27.1438 -9.45511,83.8657 -23.49578,106.8794 -16.23241,26.6061 -129.97871,45.6365 -199.71361,47.5019 -72.30736,1.9343 -217.96223,-9.0381 -257.61372,-21.2062 -41.68292,-12.7915 -88.109,-21.2064 -101.53509,-50.895 -13.42617,-29.6888 -38.60016,-68.7082 -10.06963,-111.1206 z"
       id="path3533"
       inkscape:connector-curvature="0"
       sodipodi:nodetypes="cscssssssc" />
    <path
       style="color:#000000;display:inline;overflow:visible;visibility:visible;fill:#ffffff;fill-opacity:1;fill-rule:nonzero;stroke:none;stroke-width:1px;marker:none;enable-background:accumulate"
       d="m 883.77495,1745.1358 c 44.44471,-22.895 116.41795,-23.2688 129.48195,54.9811 34.6887,14.392 59.3221,29.36 66.1093,93.306 -13.8854,-45.9668 -26.6681,-69.4371 -79.48608,-86.6191 -11.9779,-39.1913 -54.96889,-53.3177 -104.25568,-15.6318 -49.28677,37.6861 -33.32019,31.3976 -33.32019,31.3976 l 7.61389,-70.6093 z"
       id="path5074"
       inkscape:connector-curvature="0"
       sodipodi:nodetypes="ccccsccc" />
    <path
       style="color:#000000;display:inline;overflow:visible;visibility:visible;fill:#ffffff;fill-opacity:1;fill-rule:nonzero;stroke:none;stroke-width:1px;marker:none;enable-background:accumulate"
       d="m 447.67436,3235.7711 c -1.77388,-94.9856 74.5208,-112.9075 313.47168,-106.629 157.70001,4.1437 269.48096,-5.4472 267.49826,133.3436 -1.5932,111.5353 -203.35351,103.0457 -278.09537,103.586 -81.43304,0.5887 -235.88491,-9.47 -273.22403,-48.3409 -23.37345,-24.3322 -31.52878,-58.5533 -29.65054,-81.9597 z"
       id="path4546"
       inkscape:connector-curvature="0"
       sodipodi:nodetypes="cssssc" />
    <path
       style="color:#000000;display:inline;overflow:visible;visibility:visible;fill:#ffffff;fill-opacity:1;fill-rule:nonzero;stroke:none;stroke-width:1px;marker:none;enable-background:accumulate"
       d="m 843.307,3015.1845 c 2.65817,11.0982 0.56895,24.6098 -8.84773,31.9849 -5.62965,4.0443 -12.97276,2.0162 -19.04568,4.8468 -8.44733,3.1446 -16.46289,10.0409 -18.02057,19.2705 0.0653,7.4653 1.05874,14.9149 0.52347,22.3958 -1.23196,27.771 -10.8096,54.396 -22.46763,79.3592 -5.64729,11.4381 -13.39659,23.4472 -26.11245,27.6947 -16.1949,5.4362 -36.3337,-0.7941 -44.785,-16.0969 -6.51063,-11.8916 -4.4561,-28.8897 6.977,-37.0555 4.50534,-3.0892 10.47549,-3.6869 15.52559,-1.6486 15.26771,3.1726 30.67539,-6.5495 37.98276,-19.6292 3.60047,-6.8956 6.43699,-14.1742 9.42856,-21.3428 3.97281,-11.1175 3.9698,-23.063 3.60289,-34.7049 0.0253,-9.3943 6.41635,-17.2373 13.10891,-23.172 5.2564,-4.4486 11.48592,-7.7593 18.14178,-9.542 13.68673,2.4208 27.19412,-12.0571 23.62541,-25.5491 -3.98085,-17.1637 -9.21424,-34.0065 -14.85124,-50.6943 10.19853,16.9993 20.83311,34.3074 25.21393,53.8834 z"
       id="path4496"
       inkscape:connector-curvature="0" />
  </g>
  <g
     inkscape:groupmode="layer"
     id="layer1"
     inkscape:label="txt">
    <path
       style="color:#000000;display:inline;overflow:visible;visibility:visible;fill:#ffffff;fill-opacity:1;fill-rule:nonzero;stroke:none;stroke-width:1px;marker:none;enable-background:accumulate"
       d="M 94.94749,92.852795 C 64.928444,110.01805 57.781062,131.27022 60.640004,141.0789 c 2.858977,9.80864 42.884336,55.58256 45.743306,67.84347 2.85896,12.2609 -40.025377,67.02601 -31.44851,85.00864 8.576869,17.98262 25.06994,66.89903 137.99868,71.80324 118.113,4.0487 497.2232,35.40904 579.59917,-35.02066 C 868.67753,255.72898 879.73955,111.6071 781.09676,83.861532 719.62934,69.148458 164.99188,45.444122 94.94749,92.852795 Z"
       id="path4464"
       inkscape:connector-curvature="0"
       sodipodi:nodetypes="cssscccc" />
    <flowRoot
       xml:space="preserve"
       id="flowRoot2987-4-9-3-5-9-8-3-5"
       style="font-style:normal;font-variant:normal;font-weight:normal;font-stretch:normal;font-size:12px;line-height:125%;font-family:Lavi;-inkscape-font-specification:Lavi;text-align:center;letter-spacing:0px;word-spacing:0px;text-anchor:middle;fill:#000000;fill-opacity:1;stroke:none"
       transform="translate(12.161516,-143.97511)"><flowRegion
         id="flowRegion2989-5-4-5-8-9-5-4-2"><rect
           id="rect2991-7-9-6-5-7-5-4-9"
           width="655.43842"
           height="339.54636"
           x="120.55251"
           y="265.53046"
           style="font-style:normal;font-variant:normal;font-weight:normal;font-stretch:normal;font-family:Lavi;-inkscape-font-specification:Lavi;text-align:center;text-anchor:middle" /></flowRegion><flowPara
         style="font-size:45px;text-align:center;text-anchor:middle"
         id="flowPara3030-8-1-8-7-8-3">Der neue König von Acren ist zu freundlich und sanft zu seinen Untergebenen. Die Leute müssen ihren König fürchten.</flowPara></flowRoot>    <path
       style="color:#000000;display:inline;overflow:visible;visibility:visible;fill:#ffffff;fill-opacity:1;fill-rule:nonzero;stroke:none;stroke-width:1px;marker:none;enable-background:accumulate"
       d="m 614.99229,361.03437 c -13.14604,32.78603 12.63645,114.47239 62.26505,127.10564 -70.18554,-4.07502 -99.34113,-76.97331 -105.63042,-99.95904 -6.28929,-22.98575 43.36537,-27.1466 43.36537,-27.1466 z"
       id="path5010"
       inkscape:connector-curvature="0"
       sodipodi:nodetypes="ccsc" />
    <flowRoot
       xml:space="preserve"
       id="flowRoot2987-4-9-3-5-9-8-3-5-4"
       style="font-style:normal;font-variant:normal;font-weight:normal;font-stretch:normal;font-size:12px;line-height:125%;font-family:Lavi;-inkscape-font-specification:Lavi;text-align:center;letter-spacing:0px;word-spacing:0px;text-anchor:middle;fill:#000000;fill-opacity:1;stroke:none"
       transform="translate(231.88359,1398.0973)"><flowRegion
         id="flowRegion2989-5-4-5-8-9-5-4-2-2"><rect
           id="rect2991-7-9-6-5-7-5-4-9-5"
           width="567.27466"
           height="327.82516"
           x="107.50903"
           y="276.40002"
           style="font-style:normal;font-variant:normal;font-weight:normal;font-stretch:normal;font-family:Lavi;-inkscape-font-specification:Lavi;text-align:center;text-anchor:middle" /></flowRegion><flowPara
         style="font-size:45px;text-align:center;text-anchor:middle"
         id="flowPara3356">Deine erste Aufgabe ist es den König einzuschüchtern um ihn zu manipulieren.</flowPara></flowRoot>    <flowRoot
       xml:space="preserve"
       id="flowRoot2987-4-9-3-5-9-8-3-5-4-6"
       style="font-style:normal;font-variant:normal;font-weight:normal;font-stretch:normal;font-size:12px;line-height:125%;font-family:Lavi;-inkscape-font-specification:Lavi;text-align:center;letter-spacing:0px;word-spacing:0px;text-anchor:middle;fill:#000000;fill-opacity:1;stroke:none"
       transform="translate(367.32782,2900.8633)"><flowRegion
         id="flowRegion2989-5-4-5-8-9-5-4-2-2-2"><rect
           id="rect2991-7-9-6-5-7-5-4-9-5-2"
           width="497.70953"
           height="358.25998"
           x="120.55251"
           y="265.53046"
           style="font-style:normal;font-variant:normal;font-weight:normal;font-stretch:normal;font-family:Lavi;-inkscape-font-specification:Lavi;text-align:center;text-anchor:middle" /></flowRegion><flowPara
         style="font-size:45px;text-align:center;text-anchor:middle"
         id="flowPara3030-8-1-8-7-8-3-5-1">Eine echte Hexe von Chaosāh hat Einfluss auf die Mächtigen!</flowPara></flowRoot>  </g>
</svg>
