<?xml version="1.0" encoding="UTF-8" standalone="no"?>
<!-- Created with Inkscape (http://www.inkscape.org/) -->

<svg
   xmlns:dc="http://purl.org/dc/elements/1.1/"
   xmlns:cc="http://creativecommons.org/ns#"
   xmlns:rdf="http://www.w3.org/1999/02/22-rdf-syntax-ns#"
   xmlns:svg="http://www.w3.org/2000/svg"
   xmlns="http://www.w3.org/2000/svg"
   xmlns:xlink="http://www.w3.org/1999/xlink"
   xmlns:sodipodi="http://sodipodi.sourceforge.net/DTD/sodipodi-0.dtd"
   xmlns:inkscape="http://www.inkscape.org/namespaces/inkscape"
   id="svg2"
   version="1.1"
   inkscape:version="0.92.1 renderfarm"
   width="2481"
   height="3503"
   sodipodi:docname="Pepper-and-Carrot_by-David-Revoy_E11P02_092.svg">
  <sodipodi:namedview pagecolor="#ffffff" bordercolor="#666666" inkscape:pageopacity="0" inkscape:pageshadow="2" inkscape:window-width="1813" inkscape:window-height="955" id="namedview70" showgrid="false" inkscape:zoom="0.4" inkscape:cx="1284.4231" inkscape:cy="2618.6204" inkscape:current-layer="layer1" /><metadata
     id="metadata8">
    <rdf:RDF>
      <cc:Work
         rdf:about="">
        <dc:format>image/svg+xml</dc:format>
        <dc:type
           rdf:resource="http://purl.org/dc/dcmitype/StillImage" />
        <dc:title />
      </cc:Work>
    </rdf:RDF>
  </metadata>
  <defs
     id="defs6">
    <filter
       style="color-interpolation-filters:sRGB"
       id="filter4375-4-1-1-1"
       inkscape:label="deevad outline effect">
      <feFlood
         id="feFlood4377-7-9-0-8"
         flood-opacity="1"
         flood-color="rgb(55,104,53)"
         result="flood" />
      <feComposite
         id="feComposite4379-3-8-8-2"
         in2="SourceGraphic"
         in="flood"
         operator="in"
         result="composite1" />
      <feMorphology
         id="feMorphology4393-1-0-49-8"
         operator="dilate"
         radius="4"
         result="result3" />
      <feComposite
         id="feComposite4385-9-5-7-0"
         in2="result3"
         in="SourceGraphic"
         operator="over"
         result="composite2" />
    </filter>
  </defs>
  <sodipodi:namedview
     pagecolor="#ffffff"
     bordercolor="#666666"
     borderopacity="1"
     objecttolerance="10"
     gridtolerance="10"
     guidetolerance="10"
     inkscape:pageopacity="0"
     inkscape:pageshadow="2"
     inkscape:window-width="1920"
     inkscape:window-height="1026"
     id="namedview4"
     showgrid="false"
     inkscape:zoom="0.56568545"
     inkscape:cx="1412.5712"
     inkscape:cy="2705.3949"
     inkscape:window-x="1920"
     inkscape:window-y="27"
     inkscape:window-maximized="1"
     inkscape:current-layer="layer1" />
  <g
     inkscape:groupmode="layer"
     id="layer2"
     inkscape:label="artwork"
     sodipodi:insensitive="true">
    <image
       sodipodi:absref="/home/deevad/peppercarrot/webcomics/ep11_The-Witches-of-Chaosah/lang/fi/../gfx_Pepper-and-Carrot_by-David-Revoy_E11P02.png"
       xlink:href="../gfx_Pepper-and-Carrot_by-David-Revoy_E11P02.png"
       width="2481"
       height="3503"
       id="image10"
       x="0"
       y="0" />
  </g>
  <g
     inkscape:groupmode="layer"
     id="layer3"
     inkscape:label="speechbubbles">
    <path
       style="fill:#ffffff;fill-opacity:1;stroke:none"
       d="m 117.17998,239.95798 c -7.55953,-97.53786 34.48866,-98.95842 79.05752,-112.26118 46.50386,-13.88031 387.05548,-38.876004 448.45603,27.20485 33.71184,36.28155 32.21868,174.92474 -58.1503,215.59755 -59.39781,26.73346 -289.48669,47.08716 -381.76011,3.11032 -29.93827,-14.26836 -76.0862,-56.90094 -87.60314,-133.65154 z"
       id="path3659"
       inkscape:connector-curvature="0"
       sodipodi:nodetypes="cssssc" />
    <path
       style="fill:#ffffff;fill-opacity:1;stroke:none"
       d="m 860.66799,464.16801 c 7.38509,77.68893 -25.32109,108.21817 -69.53634,118.77522 -46.13489,11.01539 -395.14111,35.82866 -455.95768,-16.85239 -33.39121,-28.92441 -76.72947,-153.1944 12.93821,-185.51113 58.93687,-21.24116 329.61326,-25.8471 448.32008,-3.88537 32.23937,5.96455 52.90215,26.3371 64.23573,87.47367 z"
       id="path3659-3"
       inkscape:connector-curvature="0"
       sodipodi:nodetypes="cssssc" />
    <path
       style="color:#000000;display:inline;overflow:visible;visibility:visible;fill:#ffffff;fill-opacity:1;fill-rule:nonzero;stroke:none;stroke-width:1px;marker:none;enable-background:accumulate"
       d="m 725.76198,560.62095 c 15.2137,41.75381 60.90819,86.34357 149.80787,69.67515 -89.85178,-4.43964 -113.17241,-40.85544 -119.9781,-76.16592 -6.8056,-35.31052 -14.65449,-50.62321 -14.65449,-50.62321 z"
       id="path4440"
       inkscape:connector-curvature="0"
       sodipodi:nodetypes="ccscc" />
    <path
       style="fill:#ffffff;fill-opacity:1;stroke:none"
       d="m 1550.7318,822.88567 c 35.899,8.22512 49.8595,16.39264 43.6276,21.82448 14.6927,2.22864 22.2659,70.41769 8.9494,83.27741 -0.8731,1.33944 -1.4887,2.0226 -4.3853,6.03894 7.0366,-1.14648 19.1382,-1.83877 21.9586,0.71454 2.8202,2.55363 -23.4302,40.75809 -19.7369,41.9724 3.6934,1.21419 86.9485,-26.05423 99.0018,-20.46499 12.0536,5.58913 9.356,17.24113 9.7969,21.43472 4.4811,-1.26098 37.9491,-4.9159 41.9295,-3.7778 4.3844,2.14836 17.0455,16.78836 17.996,20.5527 2.9703,-2.49793 26.9258,-8.23174 28.9829,-8.68467 2.461,1.97133 6.39,13.60068 6.9361,17.5669 3.7784,-3.71007 24.2353,-14.47361 26.9954,-13.8916 2.7597,0.58222 16.4385,30.9407 18.4388,35.009 2.2026,-3.6079 32.6836,-37.065 35.4032,-37.79714 2.7196,-0.73211 23.6825,37.66924 25.1337,44.69064 3.0672,-6.513 20.972,-31.48358 23.7321,-30.9014 2.7599,0.5821 21.2814,16.6884 24.3685,19.7207 0.4612,-6.2602 26.15,-41.48991 29.8029,-41.58984 3.6532,-0.0999 35.2474,16.79248 38.088,20.003 -0.7959,-7.09211 4.956,-17.2346 8.6091,-17.33454 3.6531,-0.0999 42.5911,8.55862 46.9185,9.89671 -2.3391,-2.70227 -6.7955,-12.96725 -4.0558,-13.0422 2.7399,-0.0749 39.7019,7.30007 47.8923,11.84301 -2.9205,-9.19384 85.9792,8.82904 99.9679,11.07616 -8.4345,-8.45989 -42.7473,-52.75848 -38.3019,-56.82599 4.4456,-4.06763 16.7831,-2.13974 21.8782,-1.91383 -6.3159,-6.36825 -10.3679,-10.23888 -7.7089,-12.94229 2.6595,-2.70333 19.9106,-16.64318 36.0272,-17.42682 -11.1552,-7.65208 -10.4686,-13.52461 -10.4686,-13.52461 0,0 47.5983,-15.6262 57.9054,-19.34074 -8.1058,-3.17584 -27.9815,-18.30637 -24.4695,-23.00608 3.5121,-4.69971 4.4587,-6.45595 12.4837,-10.20638 -5.8622,-1.64446 -18.4867,-6.72859 -17.674,-10.03911 0.8127,-3.31054 2.5736,-18.77586 12.1012,-22.69127 -8.0475,1.33684 -19.2187,-0.78959 -19.2992,-3.41807 -0.081,-2.62836 16.6393,-50.96713 30.3697,-63.15581 -27.9285,13.25944 -47.6738,-14.17622 -77.8113,-13.3518 -30.1379,0.82444 -18.3022,-0.7071 -22.8684,-0.58218 -4.5664,0.1249 -38.3511,1.24712 -42.9174,1.37202 -4.5662,0.1249 -6.4048,-0.22078 -10.058,-0.12085 -3.6528,0.0999 -24.6416,1.20869 -29.2078,1.3336 -4.5662,0.12491 -47.5174,0.38911 -53.9104,0.56399 -6.3927,0.17487 -31.0397,1.2055 -36.5195,1.35541 -5.4795,0.14989 -10.059,-0.16042 -14.6254,-0.0355 -4.5663,0.12491 -33.7796,1.28047 -38.3458,1.40536 -4.5663,0.12492 -11.9125,-1.00192 -15.5656,-0.90198 -3.6529,0.0999 -16.3974,1.81596 -16.3974,1.81596 0,0 -11.876,0.20608 -17.3556,0.35597 -5.4795,0.14991 -42.9019,1.8666 -47.4681,1.99152 -4.5664,0.12492 -45.0412,1.65055 -42.3015,1.5756 2.7399,-0.0749 -39.8897,0.75201 -46.2824,0.92689 -6.3927,0.1749 -18.2469,1.14387 -20.0734,1.19384 -1.8265,0.05 -14.6202,0.0918 -20.0998,0.24171 -5.4795,0.14992 -18.2621,0.59858 -18.2621,0.59858 l 1.8301,0.0687 c 0,0 -38.3702,0.61408 -42.9366,0.73899 -4.5662,0.1249 2.7606,0.59764 5.5002,0.52272 -16.4386,0.44966 -64.8596,1.1803 -68.5124,1.28022 -3.6532,0.0999 6.4077,0.3197 11.8873,0.1698 -7.306,0.19986 -13.7015,0.29569 -13.7015,0.29569 l 21.0198,-0.0998 -6.3918,0.21447 c 0,0 -16.9718,32.57473 -16.8711,35.86027 0.1006,3.28543 -35.3956,8.20247 -35.3956,8.20247 0,0 14.7932,5.51408 11.2408,8.89955 -3.5525,3.38548 -12.6247,5.60662 -12.6247,5.60662 l -1.5646,8.59244 z"
       id="path5888"
       inkscape:connector-curvature="0"
       sodipodi:nodetypes="ccccccccccccccccccscscsccscccccccccscscsscccccccssccccccsccccccsccccc" />
    <path
       style="color:#000000;display:inline;overflow:visible;visibility:visible;fill:#ffffff;fill-opacity:1;fill-rule:nonzero;stroke:none;stroke-width:1px;marker:none;enable-background:accumulate"
       d="m 1967.4603,1256.7971 c 10.3698,-12.3606 78.3192,-47.8623 82.137,0.7246 48.8703,-59.1692 79.4318,-42.0203 120.4846,0.037 5.1116,-41.0197 36.5109,-41.1115 80.5928,-13.7223 -12.3359,-29.8532 14.9365,-28.4203 51.785,-31.7865 -45.0271,-15.4948 -51.53,-27.2591 38.232,-29.7017 -66.328,-8.1574 -127.9722,-17.0355 -42.0381,-48.6168 -24.3052,-3.5505 -88.9762,23.5465 -42.6962,-70.8469 -48.2625,26.6867 -104.6584,11.7789 -148.1526,-59.3916 -11.6554,55.1545 -45.4418,113.6193 -89.5919,56.5989 -28.4431,66.6788 -78.8245,9.7032 -94.2823,-18.4058 6.8392,40.1017 17.1,65.4703 -44.001,61.834 91.3903,62.2584 -3.8341,49.6096 -22.7805,60.9486 76.2364,26.1802 45.383,40.6004 26.8465,61.1039 62.4403,-18.6985 85.1423,2.7269 83.4647,31.2248 z"
       id="path3549-3"
       inkscape:connector-curvature="0"
       sodipodi:nodetypes="cccccccccccccccc" />
    <path
       style="color:#000000;display:inline;overflow:visible;visibility:visible;fill:#ffffff;fill-opacity:1;fill-rule:nonzero;stroke:none;stroke-width:1px;marker:none;enable-background:accumulate"
       d="m 2203.9792,1109.7454 c 31.2445,-19.0795 65.3939,-45.1286 72.8188,-52.0388 -12.6929,-4.9848 -23.0556,-11.472 -31.2287,-16.3975 15.0721,-11.6274 88.769,-61.68328 111.5806,-65.98197 -56.9232,8.44886 -115.9924,42.49157 -138.9231,63.43247 9.6363,8.2294 16.5681,12.0437 21.5327,16.4887 -10.8446,11.026 -54.7604,38.6986 -54.7604,38.6986 z"
       id="path5066"
       inkscape:connector-curvature="0" />
    <flowRoot
       transform="matrix(0.90617713,0,-0.22078013,1.6225798,1676.8105,681.53838)"
       style="font-style:normal;font-variant:normal;font-weight:normal;font-stretch:normal;line-height:0.01%;font-family:Lavi;-inkscape-font-specification:Lavi;text-align:center;letter-spacing:0px;word-spacing:0px;text-anchor:middle;fill:#000000;fill-opacity:1;stroke:#000000;stroke-width:2.30830574;stroke-miterlimit:4;stroke-dasharray:none;stroke-opacity:1"
       id="flowRoot4212-3-7-8-6"
       xml:space="preserve"><flowRegion
         id="flowRegion4214-6-7-8-3"><rect
           style="font-style:normal;font-variant:normal;font-weight:normal;font-stretch:normal;font-family:Lavi;-inkscape-font-specification:Lavi;text-align:center;text-anchor:middle;stroke:#000000;stroke-width:2.30830574;stroke-miterlimit:4;stroke-dasharray:none;stroke-opacity:1"
           y="265.53046"
           x="120.55251"
           height="355.03918"
           width="798.1947"
           id="rect4216-4-0-26-5" /></flowRegion><flowPara
         style="font-size:48px;line-height:1.25;text-align:center;letter-spacing:5.20896292px;text-anchor:middle;stroke:#000000;stroke-width:2.30830574;stroke-miterlimit:4;stroke-dasharray:none;stroke-opacity:1"
         id="flowPara4358-7-1">HILJAA !</flowPara></flowRoot>    <path
       style="color:#000000;display:inline;overflow:visible;visibility:visible;fill:#ffffff;fill-opacity:1;fill-rule:nonzero;stroke:none;stroke-width:1px;marker:none;enable-background:accumulate"
       d="m 1656.6816,860.45168 c -13.9641,31.64222 -47.0315,92.97319 -58.4788,103.42969 -21.9016,-16.83532 -67.233,-35.37975 -70.1513,-31.16101 -2.9182,4.21879 -13.389,87.83874 -20.8852,89.90244 -7.4962,2.0635 -34.1354,0.2416 -43.4933,-4.6298 28.7475,11.2032 51.3462,17.6477 61.1996,11.5672 6.8904,-3.7469 14.3961,-69.18877 14.6661,-73.72212 22.6435,8.32968 67.3012,30.28541 76.7272,30.0624 9.2475,-7.76375 44.7564,-37.65222 72.5931,-88.86226 27.8366,-51.21011 -32.1774,-36.58654 -32.1774,-36.58654 z"
       id="path5901"
       inkscape:connector-curvature="0"
       sodipodi:nodetypes="ccccccccsc" />
    <path
       style="color:#000000;display:inline;overflow:visible;visibility:visible;fill:#ffffff;fill-opacity:1;fill-rule:nonzero;stroke:none;stroke-width:1px;marker:none;enable-background:accumulate"
       d="m 173.03708,1751.9276 c 9.61629,5.6784 24.66304,4.5425 16.50574,-10.4759 14.485,7.9832 18.75083,9.5897 12.40977,-4.3098 11.06229,7.2851 23.09247,8.1327 21.41018,-8.3375 31.65168,18.4815 126.22531,5.2077 166.4753,7.3406 40.24998,2.1327 148.19325,0.4266 159.17052,0 10.97729,-0.4265 95.13622,0 102.45455,0 7.31812,0 36.59082,4.6921 45.73851,7.2513 13.72149,-3.4124 30.67479,-12.8164 30.67479,-12.8164 0,0 0.42733,25.1865 3.17168,26.4662 2.74437,1.2797 15.8552,-1.5097 23.91096,-2.5641 -5.32914,4.2573 -23.91096,17.4935 -21.16659,17.9199 2.74417,0.4267 22.14966,1.5068 29.58561,2.1505 -5.94861,2.6968 -22.26747,14.4851 -21.35289,14.9118 12.65211,13.8916 20.05845,11.3367 30.66787,8.1765 -5.07575,7.3827 -17.76357,11.7884 -20.22916,15.6821 1.77456,3.847 3.94734,5.604 13.72145,14.0764 -11.07176,-5.6607 -13.48376,-1.7474 -16.27922,1.8455 1.28377,8.9617 3.57681,18.1964 2.06224,33.3638 -1.78816,17.907 -3.51909,36.1347 -11.75211,45.5188 4.57396,4.2655 9.82011,11.9974 17.55014,15.139 -7.16157,1.1747 -15.74121,11.6525 -14.82623,13.785 0.9148,2.133 7.23261,10.1442 17.1178,14.2428 -9.39249,0.4032 -16.30119,1.6836 -21.78973,3.8163 -0.91516,3.4125 5.58673,12.077 7.27784,18.8743 -4.89507,-2.6813 -29.61635,-10.908 -33.708,-11.34 -1.52163,1.817 -2.68209,9.3175 -1.47273,18.6798 -145.87018,-47.5589 -459.17014,-12.5734 -477.36292,-11.0836 -8.23291,0 -22.72349,0.7972 -37.96571,10.1771 9.72225,-12.9243 13.31277,-22.8184 13.31277,-22.8184 0,0 -21.7982,-2.055 -35.45866,1.6624 9.51492,-7.039 15.10327,-14.433 14.18847,-15.7127 -0.91479,-1.2796 -16.89764,-1.7626 -29.04456,1.2222 4.70465,-4.4519 21.71803,-14.6349 20.80324,-16.7676 -9.46128,0.4682 -35.07359,-33.1811 -20.43734,-132.9945 -0.65597,-8.7898 -7.35315,-13.9595 -19.30164,-18.722 20.36844,-5.0093 48.89052,-7.7989 33.93806,-24.3598 z"
       id="path3915"
       inkscape:connector-curvature="0"
       sodipodi:nodetypes="ccccsssccsccccccccscccccccccccccccccc" />
    <path
       style="color:#000000;display:inline;overflow:visible;visibility:visible;fill:#ffffff;fill-opacity:1;fill-rule:nonzero;stroke:none;stroke-width:1px;marker:none;enable-background:accumulate"
       d="m 1105.0928,1799.5625 c -91.2283,-62.9886 -159.18424,-107.2113 -244.09747,-102.7556 -84.91309,4.4557 -100.49843,21.9951 -109.53087,27.7757 5.18785,12.9068 23.75593,31.6134 30.75182,34.7014 -22.33894,2.4552 -76.54188,62.7404 -110.47938,56.3411 -64.61909,-12.1847 -273.97666,-3.5558 -101.72794,36.5684 172.24873,40.1242 192.34114,-78.0027 263.45059,-85.6848 -16.89501,-9.5809 -49.34755,-27.5154 -45.74516,-34.2065 3.60245,-6.6909 69.55744,-22.806 102.86379,-16.4917 33.30653,6.3141 121.98932,17.5367 214.51462,83.752 z"
       id="path3923"
       inkscape:connector-curvature="0"
       sodipodi:nodetypes="csccszccsc" />
    <path
       style="fill:#ffffff;fill-rule:evenodd;stroke:none;stroke-width:1px;stroke-linecap:butt;stroke-linejoin:miter;stroke-opacity:1"
       d="m 206.04914,1667.4613 c 1.89036,73.724 51.0397,194.707 109.64083,189.0359 58.60114,-5.6711 34.02647,-28.3554 34.02647,-28.3554 0,0 -83.1758,26.465 -117.20227,-160.6805 -34.02646,-187.1456 -26.46503,0 -26.46503,0 z"
       id="path4413"
       inkscape:connector-curvature="0" />
    <path
       style="fill:#ffffff;stroke:none"
       d="m 1375.5352,3211.3901 c -2.4876,45.6378 38.0321,56.4926 79.2493,63.5302 41.217,7.0375 169.9799,1.8141 161.9069,-54.1964 -8.0731,-56.0106 -70.0989,-64.673 -121.5638,-62.9624 -51.4653,1.7105 -111.0706,10.4766 -119.5924,53.6286 z"
       id="path3938"
       inkscape:connector-curvature="0"
       sodipodi:nodetypes="csssc" />
    <path
       style="color:#000000;display:inline;overflow:visible;visibility:visible;fill:#ffffff;fill-opacity:1;fill-rule:nonzero;stroke:none;stroke-width:1px;marker:none;enable-background:accumulate"
       d="m 1540.2936,3223.4008 c 69.6255,-26.0651 66.8892,-87.8398 67.0296,-99.678 -16.9624,16.0862 -19.0601,54.2993 -76.9475,76.9629 -25.1607,9.8509 9.9179,22.7151 9.9179,22.7151 z"
       id="path3940"
       inkscape:connector-curvature="0"
       sodipodi:nodetypes="ccsc" />
    <flowRoot
       xml:space="preserve"
       id="flowRoot3056-6"
       style="font-style:normal;font-variant:normal;font-weight:normal;font-stretch:normal;line-height:0.01%;font-family:Arial;-inkscape-font-specification:Arial;letter-spacing:0px;word-spacing:0px;fill:#000000;fill-opacity:1;stroke:none"
       transform="matrix(0.92403899,-0.0431397,-0.21669727,0.91096764,408.69829,2651.2462)"><flowRegion
         id="flowRegion3058-8"><rect
           id="rect3060-0"
           width="343.2529"
           height="151.69978"
           x="1244.4525"
           y="652.80212" /></flowRegion><flowPara
         id="flowPara3062-10"
         style="font-style:normal;font-variant:normal;font-weight:normal;font-stretch:normal;font-size:48px;line-height:1.25;font-family:Lavi;-inkscape-font-specification:Lavi">Ta-daaa!</flowPara></flowRoot>    <path
       style="fill:#ffffff;stroke:none"
       d="M 78.132651,2831.9116 C 37.430779,2601.483 125.99855,2673.3447 398.58899,2666.4415 c 213.15159,-5.398 326.82653,46.8451 330.76661,153.6861 3.81638,103.4868 -90.56,187.3345 -290.68665,189.6913 -200.12666,2.3567 -358.977079,-26.3306 -360.536299,-177.9073 z"
       id="path3270"
       inkscape:connector-curvature="0"
       sodipodi:nodetypes="csssc" />
    <path
       style="fill:#ffffff;stroke:none"
       d="m 740.22487,3021.0768 c -63.31546,24.471 -150.43401,11.8981 -179.52399,-58.4059 -17.62562,-42.5973 -22.73968,-69.8786 -22.73968,-69.8786 l -34.70784,34.4178 16.75558,49.0193 c 0,0 76.59683,114.726 220.21593,44.8474 z"
       id="path3063"
       inkscape:connector-curvature="0"
       sodipodi:nodetypes="cscccc" />
    <path
       style="color:#000000;display:inline;overflow:visible;visibility:visible;fill:#ffffff;fill-opacity:1;fill-rule:nonzero;stroke:none;stroke-width:1px;marker:none;enable-background:accumulate"
       d="m 619.86864,1677.5782 c -9.46388,-5.616 -24.20596,-4.3826 -16.11053,10.5826 -14.25167,-7.8892 -18.44386,-9.468 -12.13619,4.3901 -10.89194,-7.2133 -22.69013,-7.983 -20.93223,8.476 -31.14868,-18.2761 -123.76676,-4.39 -163.23591,-6.2622 -39.46913,-1.8719 -145.26923,0.5333 -156.02688,1.031 -10.75767,0.4976 -93.25726,0.6162 -100.43106,0.6636 -7.17358,0.047 -35.89915,-4.455 -44.88308,-6.9548 -13.427937,3.5012 -29.984277,13.0148 -29.984277,13.0148 0,0 -0.5853,-25.1832 -3.28391,-26.4451 -2.69863,-1.2619 -15.53208,1.6123 -23.42177,2.7189 5.19575,-4.2917 23.32312,-17.648 20.63014,-18.0566 -2.6928,-0.4089 -21.72216,-1.3633 -29.015501,-1.9588 5.813301,-2.7353 21.731971,-14.629 20.832631,-15.0498 -12.49402,-13.8094 -19.737198,-11.2065 -30.11617,-7.9777 4.92671,-7.4154 17.33482,-11.9032 19.72598,-15.8128 -5.97926,-3.5003 -15.373082,-11.1557 -13.543451,-13.9872 1.829523,-2.8311 14.142651,3.1902 23.507191,2.915 -2.78085,-2.4914 -20.14194,-10.6899 -7.38416,-36.6954 7.89416,-16.0916 0.79133,-37.6769 8.79974,-47.1141 -4.51181,-4.2358 -9.70544,-11.9336 -17.30355,-15.025 7.01236,-1.2211 15.35332,-11.7542 14.44232,-13.8808 -0.91083,-2.127 -7.1568,-10.0971 -16.87383,-14.1316 9.20432,-0.464 15.96811,-1.7891 21.33416,-3.9573 0.87454,-3.4184 -5.55619,-12.0406 -7.25882,-18.8268 4.81611,2.6496 29.1035,10.716 33.1172,11.1214 1.47957,-1.8268 2.56755,-9.3346 1.32021,-18.6889 143.303477,46.613 450.184557,9.599 468.008177,7.9914 8.07032,-0.053 22.26944,-0.9444 37.14864,-10.4228 -9.44483,12.987 -12.89907,22.9041 -12.89907,22.9041 0,0 21.38126,1.9138 34.74737,-1.892 -9.28049,7.1005 -14.70961,14.5305 -13.80442,15.8042 0.90517,1.2737 16.57555,1.6532 28.46285,-1.4103 -4.58232,4.4823 -21.1924,14.7753 -20.28158,16.902 9.27132,-0.5294 34.60012,32.9532 20.91247,132.8592 0.7011,8.7854 7.30016,13.9116 19.04414,18.5966 -19.93307,5.1411 -47.8734,8.1154 -33.10683,24.5791 z"
       id="path3915-2"
       inkscape:connector-curvature="0"
       sodipodi:nodetypes="ccccsssccsccccccccscccccccccccccccccc" />
  </g>
  <g
     inkscape:groupmode="layer"
     id="layer1"
     inkscape:label="txt">
    <flowRoot
       xml:space="preserve"
       id="flowRoot2987-4-9-3"
       style="font-style:normal;font-variant:normal;font-weight:normal;font-stretch:normal;line-height:0.01%;font-family:Lavi;-inkscape-font-specification:Lavi;text-align:center;letter-spacing:0px;word-spacing:0px;text-anchor:middle;fill:#000000;fill-opacity:1;stroke:none"
       transform="translate(37.838554,-126.63334)"><flowRegion
         id="flowRegion2989-5-4-5"><rect
           id="rect2991-7-9-6"
           width="468.18622"
           height="276.71347"
           x="120.55251"
           y="265.53046"
           style="font-style:normal;font-variant:normal;font-weight:normal;font-stretch:normal;font-family:Lavi;-inkscape-font-specification:Lavi;text-align:center;text-anchor:middle" /></flowRegion><flowPara
         style="font-size:45px;line-height:1.25;text-align:center;text-anchor:middle"
         id="flowPara3030-8">Pepper, sinä olet toki lahjakas, mutta olet myös ainoa seuraajamme.</flowPara></flowRoot>    <flowRoot
       xml:space="preserve"
       id="flowRoot2987-4-9-3-5"
       style="font-style:normal;font-variant:normal;font-weight:normal;font-stretch:normal;line-height:0.01%;font-family:Lavi;-inkscape-font-specification:Lavi;text-align:center;letter-spacing:0px;word-spacing:0px;text-anchor:middle;fill:#000000;fill-opacity:1;stroke:none"
       transform="translate(236.54252,138.97206)"><flowRegion
         id="flowRegion2989-5-4-5-8"><rect
           id="rect2991-7-9-6-5"
           width="449.28259"
           height="263.48093"
           x="120.55251"
           y="265.53046"
           style="font-style:normal;font-variant:normal;font-weight:normal;font-stretch:normal;font-family:Lavi;-inkscape-font-specification:Lavi;text-align:center;text-anchor:middle" /></flowRegion><flowPara
         style="font-size:45px;line-height:1.25;text-align:center;text-anchor:middle"
         id="flowPara3030-8-1">Velvollisuutemme on tehdä sinusta oikea,</flowPara><flowPara
         style="font-size:45px;line-height:1.25;text-align:center;text-anchor:middle"
         id="flowPara3393">ilkeä Chaosahin noita.</flowPara></flowRoot>    <flowRoot
       xml:space="preserve"
       id="flowRoot2987-4-9-3-5-9"
       style="font-style:normal;font-variant:normal;font-weight:normal;font-stretch:normal;line-height:0.01%;font-family:Lavi;-inkscape-font-specification:Lavi;text-align:center;letter-spacing:0px;word-spacing:0px;text-anchor:middle;fill:#000000;fill-opacity:1;stroke:none"
       transform="translate(1519.8735,526.25598)"><flowRegion
         id="flowRegion2989-5-4-5-8-9"><rect
           id="rect2991-7-9-6-5-7"
           width="568.84778"
           height="193.91568"
           x="120.55251"
           y="265.53046"
           style="font-style:normal;font-variant:normal;font-weight:normal;font-stretch:normal;font-family:Lavi;-inkscape-font-specification:Lavi;text-align:center;text-anchor:middle" /></flowRegion><flowPara
         style="font-size:45px;line-height:1.25;text-align:center;text-anchor:middle"
         id="flowPara3030-8-1-8">Mutta... en halua olla</flowPara><flowPara
         style="font-size:45px;line-height:1.25;text-align:center;text-anchor:middle"
         id="flowPara3395">ilkeä! Se ... se on</flowPara><flowPara
         style="font-size:45px;line-height:1.25;text-align:center;text-anchor:middle"
         id="flowPara3397">vastoin kaikk...</flowPara></flowRoot>    <flowRoot
       xml:space="preserve"
       id="flowRoot2987-4-9-3-5-9-8"
       style="font-style:normal;font-variant:normal;font-weight:normal;font-stretch:normal;line-height:0.01%;font-family:Lavi;-inkscape-font-specification:Lavi;text-align:center;letter-spacing:0px;word-spacing:0px;text-anchor:middle;fill:#000000;fill-opacity:1;stroke:none"
       transform="translate(-37.157499,1272.1126)"><flowRegion
         id="flowRegion2989-5-4-5-8-9-5"><rect
           id="rect2991-7-9-6-5-7-5"
           width="568.84778"
           height="193.91568"
           x="120.55251"
           y="265.53046"
           style="font-style:normal;font-variant:normal;font-weight:normal;font-stretch:normal;font-family:Lavi;-inkscape-font-specification:Lavi;text-align:center;text-anchor:middle" /></flowRegion><flowPara
         style="font-size:45px;line-height:1.25;text-align:center;text-anchor:middle"
         id="flowPara3030-8-1-8-7">... tai otamme sinulta</flowPara><flowPara
         style="font-size:45px;line-height:1.25;text-align:center;text-anchor:middle"
         id="flowPara3348">pois kaikki voimasi!</flowPara></flowRoot>    <flowRoot
       xml:space="preserve"
       id="flowRoot2987-4-9-3-5-9-8-3"
       style="font-style:normal;font-variant:normal;font-weight:normal;font-stretch:normal;line-height:0.01%;font-family:Lavi;-inkscape-font-specification:Lavi;text-align:center;letter-spacing:0px;word-spacing:0px;text-anchor:middle;fill:#000000;fill-opacity:1;stroke:none"
       transform="translate(80.552501,1505.8893)"><flowRegion
         id="flowRegion2989-5-4-5-8-9-5-4"><rect
           id="rect2991-7-9-6-5-7-5-4"
           width="525.72278"
           height="228.41568"
           x="114.80251"
           y="256.90546"
           style="font-style:normal;font-variant:normal;font-weight:normal;font-stretch:normal;font-family:Lavi;-inkscape-font-specification:Lavi;text-align:center;text-anchor:middle"
           ry="0" /></flowRegion><flowPara
         style="font-size:45px;line-height:1.25;text-align:center;text-anchor:middle"
         id="flowPara3030-8-1-8-7-8">Ja sinusta tulee taas</flowPara><flowPara
         style="font-size:45px;line-height:1.25;text-align:center;text-anchor:middle"
         id="flowPara3399">pieni typerä Kurrenperän orpolapsi.</flowPara></flowRoot>    <flowRoot
       xml:space="preserve"
       id="flowRoot2987-4-9-3-5-9-8-3-5"
       style="font-style:normal;font-variant:normal;font-weight:normal;font-stretch:normal;line-height:0.01%;font-family:Lavi;-inkscape-font-specification:Lavi;text-align:center;letter-spacing:0px;word-spacing:0px;text-anchor:middle;fill:#000000;fill-opacity:1;stroke:none"
       transform="translate(-14.144785,2459.7102)"><flowRegion
         id="flowRegion2989-5-4-5-8-9-5-4-2"><rect
           id="rect2991-7-9-6-5-7-5-4-9"
           width="607.22278"
           height="317.04068"
           x="120.55251"
           y="265.53046"
           style="font-style:normal;font-variant:normal;font-weight:normal;font-stretch:normal;font-family:Lavi;-inkscape-font-specification:Lavi;text-align:center;text-anchor:middle" /></flowRegion><flowPara
         style="font-size:45px;line-height:1.25;text-align:center;text-anchor:middle"
         id="flowPara3030-8-1-8-7-8-3">Cumin seuraa sinua tästä lähtien auttaakseen koulutuksessasi ja pitääkseen meidät ajan tasalla.</flowPara></flowRoot>    <flowRoot
       xml:space="preserve"
       id="flowRoot2987-7-9-9-7-0-3-4-1"
       style="font-style:normal;font-variant:normal;font-weight:normal;font-stretch:normal;line-height:0.01%;font-family:Lavi;-inkscape-font-specification:Lavi;letter-spacing:0px;word-spacing:0px;fill:#000000;fill-opacity:1;stroke:#000000;stroke-width:0.99236238;stroke-miterlimit:4;stroke-dasharray:none;stroke-opacity:1;filter:url(#filter4375-4-1-1-1)"
       transform="matrix(1.1967542,-0.56289093,0.22908574,2.2717035,1801.2719,2593.0489)"><flowRegion
         id="flowRegion2989-4-5-8-7-41-7-62-2"
         style="stroke-width:5.40286207"><rect
           id="rect2991-45-1-3-3-8-0-4-6"
           width="319.66232"
           height="56.089447"
           x="120.55251"
           y="265.53046"
           style="font-style:normal;font-variant:normal;font-weight:normal;font-stretch:normal;font-family:Lavi;-inkscape-font-specification:Lavi;fill:#000000;fill-opacity:1;stroke:#000000;stroke-width:0.99236238;stroke-miterlimit:4;stroke-dasharray:none;stroke-opacity:1" /></flowRegion><flowPara
         id="flowPara2995-4-1-5-0-7-2-6-4"
         style="font-weight:normal;font-size:48px;line-height:1.25;-inkscape-font-specification:Lavi;letter-spacing:7.06853437px;fill:#ffffff;fill-opacity:1;stroke:#ffffff;stroke-width:0.99236238;stroke-linejoin:miter;stroke-miterlimit:4;stroke-dasharray:none;stroke-opacity:1">Poof!</flowPara></flowRoot>  </g>
</svg>
