<?xml version="1.0" encoding="UTF-8" standalone="no"?>
<!-- Created with Inkscape (http://www.inkscape.org/) -->

<svg
   xmlns:dc="http://purl.org/dc/elements/1.1/"
   xmlns:cc="http://creativecommons.org/ns#"
   xmlns:rdf="http://www.w3.org/1999/02/22-rdf-syntax-ns#"
   xmlns:svg="http://www.w3.org/2000/svg"
   xmlns="http://www.w3.org/2000/svg"
   xmlns:xlink="http://www.w3.org/1999/xlink"
   xmlns:sodipodi="http://sodipodi.sourceforge.net/DTD/sodipodi-0.dtd"
   xmlns:inkscape="http://www.inkscape.org/namespaces/inkscape"
   id="svg2"
   version="1.1"
   inkscape:version="0.91 r13725"
   width="2481"
   height="3503"
   sodipodi:docname="Pepper-and-Carrot_by-David-Revoy_E11P03.svg">
  <metadata
     id="metadata8">
    <rdf:RDF>
      <cc:Work
         rdf:about="">
        <dc:format>image/svg+xml</dc:format>
        <dc:type
           rdf:resource="http://purl.org/dc/dcmitype/StillImage" />
        <dc:title />
      </cc:Work>
    </rdf:RDF>
  </metadata>
  <defs
     id="defs6" />
  <sodipodi:namedview
     pagecolor="#ffffff"
     bordercolor="#666666"
     borderopacity="1"
     objecttolerance="10"
     gridtolerance="10"
     guidetolerance="10"
     inkscape:pageopacity="0"
     inkscape:pageshadow="2"
     inkscape:window-width="1304"
     inkscape:window-height="745"
     id="namedview4"
     showgrid="false"
     inkscape:zoom="0.37405949"
     inkscape:cx="1233.647"
     inkscape:cy="651.07121"
     inkscape:window-x="-8"
     inkscape:window-y="-8"
     inkscape:window-maximized="1"
     inkscape:current-layer="layer1" />
  <g
     inkscape:groupmode="layer"
     id="layer2"
     inkscape:label="artwork"
     sodipodi:insensitive="true">
    <image
       sodipodi:absref="E:\Projects\Pepper&amp;Carrot\peppercarrot_ep11_translation\hu\..\gfx_Pepper-and-Carrot_by-David-Revoy_E11P03.png"
       xlink:href="..\gfx_Pepper-and-Carrot_by-David-Revoy_E11P03.png"
       width="2481"
       height="3503"
       id="image10"
       x="0"
       y="0" />
  </g>
  <g
     inkscape:groupmode="layer"
     id="layer3"
     inkscape:label="speechbubbles">
    <path
       style="color:#000000;display:inline;overflow:visible;visibility:visible;fill:#ffffff;fill-opacity:1;fill-rule:nonzero;stroke:none;stroke-width:1px;marker:none;enable-background:accumulate"
       d="m 313.85041,1688.3681 c 26.26297,-46.3566 74.44966,-90.4738 146.89928,-106.277 72.44947,-15.8034 217.94719,-15.0128 241.49338,-9.7449 23.54598,5.2677 153.93149,25.9435 182.00558,52.2825 28.07431,26.3389 60.81816,65.8464 68.96887,99.5602 8.1507,33.7138 -10.20426,104.1646 -25.3574,132.7484 -17.51854,33.0459 -140.2772,56.6823 -215.53734,58.9993 -78.03641,2.4023 -235.23181,-11.2256 -278.02498,-26.339 -44.98554,-15.8876 -95.09006,-26.3392 -109.57992,-63.2135 -14.48996,-36.8746 -41.65853,-85.3383 -10.86747,-138.016 z"
       id="path3533"
       inkscape:connector-curvature="0"
       sodipodi:nodetypes="cscssssssc" />
    <path
       style="color:#000000;display:inline;overflow:visible;visibility:visible;fill:#ffffff;fill-opacity:1;fill-rule:nonzero;stroke:none;stroke-width:1px;marker:none;enable-background:accumulate"
       d="m 883.77495,1745.1358 c 44.44471,-22.895 116.41795,-23.2688 129.48195,54.9811 34.6887,14.392 59.3221,29.36 66.1093,93.306 -13.8854,-45.9668 -26.6681,-69.4371 -79.48608,-86.6191 -11.9779,-39.1913 -54.96889,-53.3177 -104.25568,-15.6318 -49.28677,37.6861 -33.32019,31.3976 -33.32019,31.3976 l 7.61389,-70.6093 z"
       id="path5074"
       inkscape:connector-curvature="0"
       sodipodi:nodetypes="ccccsccc" />
    <path
       style="color:#000000;display:inline;overflow:visible;visibility:visible;fill:#ffffff;fill-opacity:1;fill-rule:nonzero;stroke:none;stroke-width:1px;marker:none;enable-background:accumulate"
       d="m 495.75207,3252.7106 c -1.48017,-109.9178 62.18201,-130.6571 261.5686,-123.3916 131.58884,4.7951 224.86166,-6.3034 223.20724,154.3059 -1.3294,129.0692 -169.68325,119.245 -232.04973,119.8702 -67.94976,0.6813 -196.82827,-10.9587 -227.98496,-55.9403 -19.50339,-28.1573 -26.30841,-67.7581 -24.74115,-94.8442 z"
       id="path4546"
       inkscape:connector-curvature="0"
       sodipodi:nodetypes="cssssc" />
    <path
       style="color:#000000;display:inline;overflow:visible;visibility:visible;fill:#ffffff;fill-opacity:1;fill-rule:nonzero;stroke:none;stroke-width:1px;marker:none;enable-background:accumulate"
       d="m 843.307,3015.1845 c 2.65817,11.0982 0.56895,24.6098 -8.84773,31.9849 -5.62965,4.0443 -12.97276,2.0162 -19.04568,4.8468 -8.44733,3.1446 -16.46289,10.0409 -18.02057,19.2705 0.0653,7.4653 1.05874,14.9149 0.52347,22.3958 -1.23196,27.771 -10.8096,54.396 -22.46763,79.3592 -5.64729,11.4381 -13.39659,23.4472 -26.11245,27.6947 -16.1949,5.4362 -36.3337,-0.7941 -44.785,-16.0969 -6.51063,-11.8916 -4.4561,-28.8897 6.977,-37.0555 4.50534,-3.0892 10.47549,-3.6869 15.52559,-1.6486 15.26771,3.1726 30.67539,-6.5495 37.98276,-19.6292 3.60047,-6.8956 6.43699,-14.1742 9.42856,-21.3428 3.97281,-11.1175 3.9698,-23.063 3.60289,-34.7049 0.0253,-9.3943 6.41635,-17.2373 13.10891,-23.172 5.2564,-4.4486 11.48592,-7.7593 18.14178,-9.542 13.68673,2.4208 27.19412,-12.0571 23.62541,-25.5491 -3.98085,-17.1637 -9.21424,-34.0065 -14.85124,-50.6943 10.19853,16.9993 20.83311,34.3074 25.21393,53.8834 z"
       id="path4496"
       inkscape:connector-curvature="0" />
  </g>
  <g
     inkscape:groupmode="layer"
     id="layer1"
     inkscape:label="txt">
    <path
       style="color:#000000;display:inline;overflow:visible;visibility:visible;fill:#ffffff;fill-opacity:1;fill-rule:nonzero;stroke:none;stroke-width:1px;marker:none;enable-background:accumulate"
       d="m 87.447786,103.2854 c -25.866155,18.63879 -32.024754,41.71534 -29.561323,52.36603 2.46346,10.65066 36.951638,60.35402 39.415088,73.66746 2.463446,13.31343 -34.488189,72.77981 -27.097862,92.30615 7.390329,19.52633 21.601722,72.64194 118.907681,77.96715 C 290.8844,403.98845 617.54777,438.0409 688.5277,361.5652 754.13855,280.14358 763.67023,123.64965 678.67387,93.522283 625.70997,77.546174 147.8021,51.806953 87.447786,103.2854 Z"
       id="path4464"
       inkscape:connector-curvature="0"
       sodipodi:nodetypes="cssscccc" />
    <flowRoot
       xml:space="preserve"
       id="flowRoot2987-4-9-3-5-9-8-3-5"
       style="font-style:normal;font-variant:normal;font-weight:normal;font-stretch:normal;font-size:12px;line-height:125%;font-family:Lavi;-inkscape-font-specification:Lavi;text-align:center;letter-spacing:0px;word-spacing:0px;text-anchor:middle;fill:#000000;fill-opacity:1;stroke:none"
       transform="translate(-15.165112,-136.56802)"><flowRegion
         id="flowRegion2989-5-4-5-8-9-5-4-2"><rect
           id="rect2991-7-9-6-5-7-5-4-9"
           width="601.97101"
           height="344.8931"
           x="120.55251"
           y="265.53046"
           style="font-style:normal;font-variant:normal;font-weight:normal;font-stretch:normal;font-family:Lavi;-inkscape-font-specification:Lavi;text-align:center;text-anchor:middle" /></flowRegion><flowPara
         style="font-size:45px;text-align:center;text-anchor:middle"
         id="flowPara3030-8-1-8-7-8-3">Akren új királya túlságosan enyhén és szelíden bánik az alattvalóival. Az embereknek tartaniuk kell a királyuktól!</flowPara></flowRoot>    <path
       style="color:#000000;fill:#ffffff;fill-opacity:1;fill-rule:nonzero;stroke:none;stroke-width:1px;marker:none;visibility:visible;display:inline;overflow:visible;enable-background:accumulate"
       d="m 590.93195,374.40123 c -13.14604,32.78603 12.63645,114.47239 62.26505,127.10564 -70.18554,-4.07502 -99.34113,-76.97331 -105.63042,-99.95904 -6.28929,-22.98575 43.36537,-27.1466 43.36537,-27.1466 z"
       id="path5010"
       inkscape:connector-curvature="0"
       sodipodi:nodetypes="ccsc" />
    <flowRoot
       xml:space="preserve"
       id="flowRoot2987-4-9-3-5-9-8-3-5-4"
       style="font-style:normal;font-variant:normal;font-weight:normal;font-stretch:normal;font-size:12px;line-height:125%;font-family:Lavi;-inkscape-font-specification:Lavi;text-align:center;letter-spacing:0px;word-spacing:0px;text-anchor:middle;fill:#000000;fill-opacity:1;stroke:none"
       transform="translate(237.55467,1325.7419)"><flowRegion
         id="flowRegion2989-5-4-5-8-9-5-4-2-2"><rect
           id="rect2991-7-9-6-5-7-5-4-9-5"
           width="567.27466"
           height="327.82516"
           x="107.50903"
           y="276.40002"
           style="font-style:normal;font-variant:normal;font-weight:normal;font-stretch:normal;font-family:Lavi;-inkscape-font-specification:Lavi;text-align:center;text-anchor:middle" /></flowRegion><flowPara
         style="font-size:45px;text-align:center;text-anchor:middle"
         id="flowPara3356">Az első küldetésed,</flowPara><flowPara
         style="font-size:45px;text-align:center;text-anchor:middle"
         id="flowPara3363">hogy találd és félemlítsd meg az uralkodót. Így a későbbiekben majd könnyen manipulálhatjuk.</flowPara></flowRoot>    <flowRoot
       xml:space="preserve"
       id="flowRoot2987-4-9-3-5-9-8-3-5-4-6"
       style="font-style:normal;font-variant:normal;font-weight:normal;font-stretch:normal;font-size:12px;line-height:125%;font-family:Lavi;-inkscape-font-specification:Lavi;text-align:center;letter-spacing:0px;word-spacing:0px;text-anchor:middle;fill:#000000;fill-opacity:1;stroke:none"
       transform="translate(370.00119,2916.8834)"><flowRegion
         id="flowRegion2989-5-4-5-8-9-5-4-2-2-2"><rect
           id="rect2991-7-9-6-5-7-5-4-9-5-2"
           width="569.8905"
           height="393.01376"
           x="88.472054"
           y="236.12337"
           style="font-style:normal;font-variant:normal;font-weight:normal;font-stretch:normal;font-family:Lavi;-inkscape-font-specification:Lavi;text-align:center;text-anchor:middle" /></flowRegion><flowPara
         style="font-size:45px;text-align:center;text-anchor:middle"
         id="flowPara3030-8-1-8-7-8-3-5-1">Egy igazi Káoszah-boszorkány képes befolyásolni a</flowPara><flowPara
         style="font-size:45px;text-align:center;text-anchor:middle"
         id="flowPara3365">hatalmasokat!</flowPara></flowRoot>  </g>
</svg>
