<?xml version="1.0" encoding="UTF-8" standalone="no"?>
<!-- Created with Inkscape (http://www.inkscape.org/) -->

<svg
   xmlns:dc="http://purl.org/dc/elements/1.1/"
   xmlns:cc="http://creativecommons.org/ns#"
   xmlns:rdf="http://www.w3.org/1999/02/22-rdf-syntax-ns#"
   xmlns:svg="http://www.w3.org/2000/svg"
   xmlns="http://www.w3.org/2000/svg"
   xmlns:xlink="http://www.w3.org/1999/xlink"
   xmlns:sodipodi="http://sodipodi.sourceforge.net/DTD/sodipodi-0.dtd"
   xmlns:inkscape="http://www.inkscape.org/namespaces/inkscape"
   id="svg2"
   version="1.1"
   inkscape:version="0.91 r13725"
   width="2481"
   height="3503"
   sodipodi:docname="Pepper-and-Carrot_by-David-Revoy_E11P05.svg">
  <metadata
     id="metadata8">
    <rdf:RDF>
      <cc:Work
         rdf:about="">
        <dc:format>image/svg+xml</dc:format>
        <dc:type
           rdf:resource="http://purl.org/dc/dcmitype/StillImage" />
        <dc:title />
      </cc:Work>
    </rdf:RDF>
  </metadata>
  <defs
     id="defs6">
    <filter
       style="color-interpolation-filters:sRGB"
       id="filter4375-4-1-1"
       inkscape:label="deevad outline effect">
      <feFlood
         id="feFlood4377-7-9-0"
         flood-opacity="1"
         flood-color="rgb(118,29,43)"
         result="flood" />
      <feComposite
         id="feComposite4379-3-8-8"
         in2="SourceGraphic"
         in="flood"
         operator="in"
         result="composite1" />
      <feMorphology
         id="feMorphology4393-1-0-49"
         operator="dilate"
         radius="4"
         result="result3" />
      <feComposite
         id="feComposite4385-9-5-7"
         in2="result3"
         in="SourceGraphic"
         operator="over"
         result="composite2" />
    </filter>
    <filter
       style="color-interpolation-filters:sRGB"
       id="filter4375-4-1-1-9"
       inkscape:label="deevad outline effect">
      <feFlood
         id="feFlood4377-7-9-0-2"
         flood-opacity="1"
         flood-color="rgb(0,0,0)"
         result="flood" />
      <feComposite
         id="feComposite4379-3-8-8-5"
         in2="SourceGraphic"
         in="flood"
         operator="in"
         result="composite1" />
      <feMorphology
         id="feMorphology4393-1-0-49-5"
         operator="dilate"
         radius="4"
         result="result3" />
      <feComposite
         id="feComposite4385-9-5-7-5"
         in2="result3"
         in="SourceGraphic"
         operator="over"
         result="composite2" />
    </filter>
  </defs>
  <sodipodi:namedview
     pagecolor="#ffffff"
     bordercolor="#666666"
     borderopacity="1"
     objecttolerance="10"
     gridtolerance="10"
     guidetolerance="10"
     inkscape:pageopacity="0"
     inkscape:pageshadow="2"
     inkscape:window-width="1304"
     inkscape:window-height="745"
     id="namedview4"
     showgrid="false"
     inkscape:zoom="0.34782609"
     inkscape:cx="849.68266"
     inkscape:cy="1302.6447"
     inkscape:window-x="-8"
     inkscape:window-y="-8"
     inkscape:window-maximized="1"
     inkscape:current-layer="layer1" />
  <g
     inkscape:groupmode="layer"
     id="layer2"
     inkscape:label="artwork"
     sodipodi:insensitive="true">
    <image
       sodipodi:absref="E:\Projects\Pepper&amp;Carrot\peppercarrot_ep11_translation\hu\..\gfx_Pepper-and-Carrot_by-David-Revoy_E11P05.png"
       xlink:href="..\gfx_Pepper-and-Carrot_by-David-Revoy_E11P05.png"
       width="2481"
       height="3503"
       id="image10"
       x="0"
       y="0" />
  </g>
  <g
     inkscape:groupmode="layer"
     id="layer3"
     inkscape:label="speechbubbles" />
  <g
     inkscape:groupmode="layer"
     id="layer1"
     inkscape:label="txt">
    <flowRoot
       xml:space="preserve"
       id="flowRoot2987-7-9-9-7-0-3-4"
       style="font-style:normal;font-variant:normal;font-weight:normal;font-stretch:normal;font-size:12px;line-height:125%;font-family:Lavi;-inkscape-font-specification:Lavi;letter-spacing:0px;word-spacing:0px;fill:#000000;fill-opacity:1;stroke:#000000;stroke-width:0.99236238;stroke-miterlimit:4;stroke-dasharray:none;stroke-opacity:1;filter:url(#filter4375-4-1-1)"
       transform="matrix(0.72826899,-0.81755759,0.24767521,2.1649058,787.1265,-276.56588)"><flowRegion
         id="flowRegion2989-4-5-8-7-41-7-62"
         style="stroke-width:5.40286207"><rect
           id="rect2991-45-1-3-3-8-0-4"
           width="319.66232"
           height="53.089447"
           x="120.55251"
           y="265.53046"
           style="font-style:normal;font-variant:normal;font-weight:normal;font-stretch:normal;font-family:Lavi;-inkscape-font-specification:Lavi;fill:#000000;fill-opacity:1;stroke:#000000;stroke-width:0.99236238;stroke-miterlimit:4;stroke-dasharray:none;stroke-opacity:1" /></flowRegion><flowPara
         id="flowPara2995-4-1-5-0-7-2-6"
         style="font-weight:normal;font-size:48px;-inkscape-font-specification:Lavi;letter-spacing:7.06853437px;fill:#ffffff;fill-opacity:1;stroke:#ffffff;stroke-width:0.99236238;stroke-linejoin:miter;stroke-miterlimit:4;stroke-dasharray:none;stroke-opacity:1">Dzzz</flowPara></flowRoot>    <path
       style="color:#000000;display:inline;overflow:visible;visibility:visible;fill:#ffffff;fill-opacity:1;fill-rule:nonzero;stroke:none;stroke-width:1px;marker:none;enable-background:accumulate"
       d="m 1307.5658,1023.0655 c -9.0246,0.6321 -17.0789,3.6541 -22.2052,8.8605 -13.2856,-14.6295 -31.9358,1.1891 -33.6512,4.4937 -16.7166,-8.0201 -40.2966,-2.8205 -49.6222,5.0884 -22.1964,-11.8283 -69.9052,5.3819 -68.9617,29.4216 -25.9846,17.0173 -27.6433,37.4492 -19.9762,49.9728 -19.9518,14.0148 -31.097,80.0174 24.7512,87.352 15.3346,25.0472 57.8165,36.5851 77.7682,22.5701 26.9285,7.0225 43.783,13.338 50.645,0.1192 10.7799,11.8705 35.641,14.5779 39.5183,2.0117 19.2725,12.4563 46.009,15.9316 60.6406,5.6536 26.9285,7.0226 43.7831,13.3402 50.6451,0.1212 13.2852,14.6295 35.9016,18.324 48.1876,-0.091 23.0536,9.4245 26.7309,3.492 42.4106,-6.1802 25.7303,19.4246 49.332,10.9941 59.2091,-5.645 36.5523,8.4333 43.0353,-20.4848 41.4359,-31.3663 32.3895,-10.2636 41.7812,-36.1944 18.1887,-58.4996 7.9677,-26.8409 -2.4981,-58.3951 -50.598,-72.037 -11.2935,-21.3394 -50.4827,-37.7833 -77.9065,-20.8668 -18.9036,-16.7349 -49.2622,-17.148 -61.8807,-4.3321 -9.538,-10.5028 -21.809,-5.312 -28.6256,-0.3252 -17.0853,-10.6295 -41.4649,-14.7465 -60.2976,-3.1293 -11.2241,-9.9364 -26.4856,-14.1172 -39.6754,-13.1927 z"
       id="path4043"
       inkscape:connector-curvature="0"
       sodipodi:nodetypes="ccccccccccccccccccccccc" />
    <flowRoot
       xml:space="preserve"
       id="flowRoot2987-4-9-3-5-9-8-3-5-4-0-5-5"
       style="font-style:normal;font-variant:normal;font-weight:normal;font-stretch:normal;font-size:12px;line-height:125%;font-family:Lavi;-inkscape-font-specification:Lavi;text-align:center;letter-spacing:0px;word-spacing:0px;text-anchor:middle;fill:#000000;fill-opacity:1;stroke:none"
       transform="translate(996.95336,820.89393)"><flowRegion
         id="flowRegion2989-5-4-5-8-9-5-4-2-2-5-0-8"><rect
           id="rect2991-7-9-6-5-7-5-4-9-5-4-3-2"
           width="493.73337"
           height="314.38708"
           x="120.55251"
           y="265.53046"
           style="font-style:normal;font-variant:normal;font-weight:normal;font-stretch:normal;font-family:Lavi;-inkscape-font-specification:Lavi;text-align:center;text-anchor:middle" /></flowRegion><flowPara
         style="font-size:45px;text-align:center;text-anchor:middle"
         id="flowPara4272-0">Te és én, egy kicsit hasonlítunk...</flowPara></flowRoot>    <path
       style="color:#000000;display:inline;overflow:visible;visibility:visible;fill:#ffffff;fill-opacity:1;fill-rule:nonzero;stroke:none;stroke-width:1px;marker:none;enable-background:accumulate"
       d="m 1263.0275,1261.586 c 3.2526,-13.9142 12.362,-12.7945 19.7109,-8.2909 7.1257,-0.1505 15.5492,0.9462 9.5739,13.2654 4.4484,3.5928 10.3777,11.5837 -2.1306,18.3276 -1.7432,6.2934 -19.9536,11.285 -26.591,-2.8511 -12.9529,-6.0801 -17.4582,-18.2401 -0.5632,-20.451 z"
       id="path4051"
       inkscape:connector-curvature="0"
       sodipodi:nodetypes="cccccc" />
    <path
       style="color:#000000;display:inline;overflow:visible;visibility:visible;fill:#ffffff;fill-opacity:1;fill-rule:nonzero;stroke:none;stroke-width:1px;marker:none;enable-background:accumulate"
       d="m 1286.2708,1309.2578 c 3.6765,-1.0212 6.7369,1.1598 9.1289,4.1414 11.2359,-14.5964 27.0112,26.7457 -0.4784,19.6785 -16.7378,5.7055 -18.2129,-9.5291 -11.4815,-14.9079 -2.5821,-3.2186 -0.8455,-7.8909 2.831,-8.912 z"
       id="path4059"
       inkscape:connector-curvature="0"
       sodipodi:nodetypes="zcccz" />
    <path
       style="color:#000000;display:inline;overflow:visible;visibility:visible;fill:#ffffff;fill-opacity:1;fill-rule:nonzero;stroke:none;stroke-width:1px;marker:none;enable-background:accumulate"
       d="m 921.87678,2375.7845 c 5.63697,-0.5176 10.62151,-2.3865 13.73214,-5.4552 8.59189,8.1455 19.96758,-1.2315 20.97895,-3.1528 10.61492,4.3028 25.27651,0.9197 30.96469,-3.7686 14.11684,6.3882 43.65524,-4.2865 42.61144,-18.0317 15.9439,-10.1899 16.5968,-21.9146 11.5614,-28.9515 12.2244,-8.3668 17.9559,-46.3421 -17.1401,-49.5776 -10.071,-14.0737 -36.87982,-19.9459 -49.10412,-11.5788 -16.98823,-3.5557 -27.65732,-6.8803 -31.70327,0.8052 -6.97148,-6.6095 -22.58417,-7.7304 -24.77411,-0.4701 -12.29844,-6.7982 -29.09951,-8.3265 -38.06426,-2.1906 -16.98812,-3.5555 -27.65734,-6.8814 -31.70328,0.8042 -8.59166,-8.1454 -22.81793,-9.8704 -30.161,0.8829 -14.60794,-4.9974 -16.79784,-1.538 -26.43005,4.2692 -16.47204,-10.6757 -31.08637,-5.4426 -36.95512,4.2528 -23.03873,-4.1973 -26.55138,12.4687 -25.345,18.6702 -20.08045,6.434 -25.47009,21.44 -10.28189,33.8017 -4.48114,15.5024 2.66493,33.3851 33.03004,40.3648 7.47149,12.021 32.31186,20.7583 49.15865,10.6015 12.14814,9.2538 31.15865,8.9666 38.81547,1.4127 6.16828,5.8477 13.75135,2.6646 17.92414,-0.3076 10.89487,5.7901 26.23275,7.7264 37.80193,0.7514 7.21302,5.4945 16.84473,7.6246 25.08335,6.8679 z"
       id="path4043-4"
       inkscape:connector-curvature="0"
       sodipodi:nodetypes="ccccccccccccccccccccccc" />
    <flowRoot
       xml:space="preserve"
       id="flowRoot2987-4-9-3-5-9-8-3-5-4-0-5-5-7"
       style="font-style:normal;font-variant:normal;font-weight:normal;font-stretch:normal;font-size:12px;line-height:125%;font-family:Lavi;-inkscape-font-specification:Lavi;text-align:center;letter-spacing:0px;word-spacing:0px;text-anchor:middle;fill:#000000;fill-opacity:1;stroke:none"
       transform="translate(524.87792,2020.1239)"><flowRegion
         id="flowRegion2989-5-4-5-8-9-5-4-2-2-5-0-8-9"><rect
           id="rect2991-7-9-6-5-7-5-4-9-5-4-3-2-2"
           width="493.73337"
           height="314.38708"
           x="120.55251"
           y="265.53046"
           style="font-style:normal;font-variant:normal;font-weight:normal;font-stretch:normal;font-family:Lavi;-inkscape-font-specification:Lavi;text-align:center;text-anchor:middle" /></flowRegion><flowPara
         style="font-size:45px;text-align:center;text-anchor:middle"
         id="flowPara4272-0-7">fiatalon...</flowPara></flowRoot>    <path
       style="color:#000000;display:inline;overflow:visible;visibility:visible;fill:#ffffff;fill-opacity:1;fill-rule:nonzero;stroke:none;stroke-width:1px;marker:none;enable-background:accumulate"
       d="m 1045.2643,2467.0345 c 6.3067,-0.5176 11.8835,-2.3865 15.3638,-5.4552 9.6129,8.1455 22.3403,-1.2315 23.4718,-3.1528 11.8761,4.3028 28.2798,0.9197 34.6439,-3.7686 15.7944,6.3882 48.8425,-4.2865 47.6747,-18.0317 17.8384,-10.1899 18.569,-21.9146 12.9353,-28.9515 13.6768,-8.3668 20.0894,-46.3421 -19.1768,-49.5776 -11.2677,-14.0737 -41.2621,-19.9459 -54.9389,-11.5788 -19.0068,-3.5557 -30.9436,-6.8803 -35.4703,0.8052 -7.7999,-6.6095 -25.2678,-7.7304 -27.7178,-0.4701 -13.7598,-6.7982 -32.5574,-8.3265 -42.58713,-2.1906 -19.00679,-3.5555 -30.94375,-6.8814 -35.4705,0.8042 -9.61243,-8.1454 -25.52915,-9.8704 -33.74476,0.8829 -16.3437,-4.9974 -18.7938,-1.538 -29.57053,4.2692 -18.42929,-10.6757 -34.78014,-5.4426 -41.34623,4.2528 -25.77625,-4.1973 -29.70629,12.4687 -28.35657,18.6702 -22.46645,6.434 -28.49651,21.44 -11.5036,33.8017 -5.01361,15.5024 2.98159,33.3851 36.95475,40.3648 8.35927,12.021 36.15124,20.7583 54.99982,10.6015 13.5916,9.2538 34.86101,8.9666 43.42761,1.4127 6.90123,5.8477 15.38534,2.6646 20.05399,-0.3076 12.18932,5.7901 29.34975,7.7264 42.29365,0.7514 8.0701,5.4945 18.8462,7.6246 28.0638,6.8679 z"
       id="path4043-4-9"
       inkscape:connector-curvature="0"
       sodipodi:nodetypes="ccccccccccccccccccccccc" />
    <flowRoot
       xml:space="preserve"
       id="flowRoot2987-4-9-3-5-9-8-3-5-4-0-5-5-7-1"
       style="font-style:normal;font-variant:normal;font-weight:normal;font-stretch:normal;font-size:12px;line-height:125%;font-family:Lavi;-inkscape-font-specification:Lavi;text-align:center;letter-spacing:0px;word-spacing:0px;text-anchor:middle;fill:#000000;fill-opacity:1;stroke:none"
       transform="translate(638.11252,2109.665)"><flowRegion
         id="flowRegion2989-5-4-5-8-9-5-4-2-2-5-0-8-9-8"><rect
           id="rect2991-7-9-6-5-7-5-4-9-5-4-3-2-2-3"
           width="493.73337"
           height="314.38708"
           x="120.55251"
           y="265.53046"
           style="font-style:normal;font-variant:normal;font-weight:normal;font-stretch:normal;font-family:Lavi;-inkscape-font-specification:Lavi;text-align:center;text-anchor:middle" /></flowRegion><flowPara
         style="font-size:45px;text-align:center;text-anchor:middle"
         id="flowPara4272-0-7-7">magányosan...</flowPara></flowRoot>    <path
       style="color:#000000;display:inline;overflow:visible;visibility:visible;fill:#ffffff;fill-opacity:1;fill-rule:nonzero;stroke:none;stroke-width:1px;marker:none;enable-background:accumulate"
       d="m 1726.2722,2601.3246 c 7.9437,-0.7381 14.9677,-3.4028 19.3512,-7.7784 12.1075,11.6143 28.138,-1.7559 29.5632,-4.4952 14.9583,6.135 35.6192,1.3112 43.6349,-5.3736 19.8934,9.1086 61.5184,-6.1118 60.0476,-25.7102 22.4678,-14.5292 23.3879,-31.2468 16.292,-41.2804 17.2265,-11.9297 25.3034,-66.0763 -24.1535,-70.6897 -14.1919,-20.0668 -51.9705,-28.4397 -69.1968,-16.5096 -23.9397,-5.0698 -38.9743,-9.8102 -44.6757,1.1482 -9.824,-9.4241 -31.8254,-11.0225 -34.9113,-0.6704 -17.331,-9.693 -41.0067,-11.8721 -53.6398,-3.1234 -23.9393,-5.0696 -38.9742,-9.8119 -44.6758,1.1466 -12.1071,-11.614 -32.1546,-14.0736 -42.5025,1.259 -20.5852,-7.1256 -23.671,-2.193 -37.2449,6.0872 -23.212,-15.2219 -43.8063,-7.7605 -52.0764,6.0638 -32.4658,-5.9847 -37.4158,17.7784 -35.7159,26.6208 -28.297,9.1739 -35.8921,30.57 -14.489,48.1959 -6.3148,22.1038 3.7554,47.6018 46.5453,57.5536 10.5289,17.1401 45.5334,29.598 69.2739,15.1161 17.1188,13.1945 43.9082,12.785 54.6981,2.0143 8.6923,8.3379 19.3783,3.7994 25.2585,-0.4385 15.3528,8.2558 36.9668,11.0165 53.2699,1.0714 10.1645,7.8343 23.7372,10.8714 35.347,9.7925 z"
       id="path4043-4-9-1"
       inkscape:connector-curvature="0"
       sodipodi:nodetypes="ccccccccccccccccccccccc" />
    <flowRoot
       xml:space="preserve"
       id="flowRoot2987-4-9-3-5-9-8-3-5-4-0-5-5-7-1-9"
       style="font-style:normal;font-variant:normal;font-weight:normal;font-stretch:normal;font-size:12px;line-height:125%;font-family:Lavi;-inkscape-font-specification:Lavi;text-align:center;letter-spacing:0px;word-spacing:0px;text-anchor:middle;fill:#000000;fill-opacity:1;stroke:none"
       transform="translate(1308.8506,2188.3034)"><flowRegion
         id="flowRegion2989-5-4-5-8-9-5-4-2-2-5-0-8-9-8-8"><rect
           id="rect2991-7-9-6-5-7-5-4-9-5-4-3-2-2-3-4"
           width="493.73337"
           height="314.38708"
           x="120.55251"
           y="265.53046"
           style="font-style:normal;font-variant:normal;font-weight:normal;font-stretch:normal;font-family:Lavi;-inkscape-font-specification:Lavi;text-align:center;text-anchor:middle" /></flowRegion><flowPara
         style="font-size:45px;text-align:center;text-anchor:middle"
         id="flowPara4435">...a sorsunk foglyai vagyunk.</flowPara></flowRoot>    <path
       style="color:#000000;display:inline;overflow:visible;visibility:visible;fill:#ffffff;fill-opacity:1;fill-rule:nonzero;stroke:none;stroke-width:1px;marker:none;enable-background:accumulate"
       d="m 1199.2151,2323.7893 c 2.225,-9.385 13.0044,-12.9003 20.604,-6.006 5.7937,-4.4838 15.1847,0.9709 10.4045,11.3728 7.9371,3.6245 10.2853,20.5369 -3.8877,20.7106 -3.8301,8.4751 -19.496,8.8047 -25.723,-3.4794 -10.5094,4.3941 -19.2873,-20.2128 -1.3978,-22.598 z"
       id="path4051-1"
       inkscape:connector-curvature="0"
       sodipodi:nodetypes="cccccc" />
    <path
       style="color:#000000;display:inline;overflow:visible;visibility:visible;fill:#ffffff;fill-opacity:1;fill-rule:nonzero;stroke:none;stroke-width:1px;marker:none;enable-background:accumulate"
       d="m 1261.6184,2282.2669 c 3.7043,-1.6524 6.641,0 8.8742,2.5696 6.3848,-5.2404 23.2295,7.2113 -1.4295,19.7477 -9.1804,4.5419 -17.6092,-6.4102 -10.6909,-12.9246 -2.4109,-2.7727 -0.4581,-7.7403 3.2462,-9.3927 z"
       id="path4059-6"
       inkscape:connector-curvature="0"
       sodipodi:nodetypes="zcccz" />
    <path
       style="color:#000000;display:inline;overflow:visible;visibility:visible;fill:#ffffff;fill-opacity:1;fill-rule:nonzero;stroke:none;stroke-width:1px;marker:none;enable-background:accumulate"
       d="m 1765.5082,2376.4339 c 14.1067,14.7269 5.3775,33.1901 -19.7909,27.1407 -14.6783,6.3004 -38.9492,-22.0463 -11.6312,-27.7892 -1.0944,-13.4466 34.9155,-16.36 31.4221,0.6485 z"
       id="path4051-1-3"
       inkscape:connector-curvature="0"
       sodipodi:nodetypes="cccc" />
    <path
       style="color:#000000;display:inline;overflow:visible;visibility:visible;fill:#ffffff;fill-opacity:1;fill-rule:nonzero;stroke:none;stroke-width:1px;marker:none;enable-background:accumulate"
       d="m 1734.4609,2345.1465 c -3.6004,3.1824 -7.7715,3.0113 -11.5262,1.6893 -2.5115,3.1494 -25.5738,-4.2698 -7.1025,-18.6006 8.7242,-8.2935 23.4543,-2.1601 18.2536,6.9001 4.0532,1.4271 3.9754,6.829 0.3751,10.0112 z"
       id="path4059-6-7"
       inkscape:connector-curvature="0"
       sodipodi:nodetypes="zcccz" />
  </g>
</svg>
