<?xml version="1.0" encoding="UTF-8" standalone="no"?>
<!-- Created with Inkscape (http://www.inkscape.org/) -->

<svg
   xmlns:dc="http://purl.org/dc/elements/1.1/"
   xmlns:cc="http://creativecommons.org/ns#"
   xmlns:rdf="http://www.w3.org/1999/02/22-rdf-syntax-ns#"
   xmlns:svg="http://www.w3.org/2000/svg"
   xmlns="http://www.w3.org/2000/svg"
   xmlns:xlink="http://www.w3.org/1999/xlink"
   xmlns:sodipodi="http://sodipodi.sourceforge.net/DTD/sodipodi-0.dtd"
   xmlns:inkscape="http://www.inkscape.org/namespaces/inkscape"
   id="svg2"
   version="1.1"
   inkscape:version="0.48.4 r9939"
   width="2481"
   height="3503"
   sodipodi:docname="Pepper-and-Carrot_by-David-Revoy_E11P05.svg">
  <metadata
     id="metadata8">
    <rdf:RDF>
      <cc:Work
         rdf:about="">
        <dc:format>image/svg+xml</dc:format>
        <dc:type
           rdf:resource="http://purl.org/dc/dcmitype/StillImage" />
        <dc:title />
      </cc:Work>
    </rdf:RDF>
  </metadata>
  <defs
     id="defs6">
    <filter
       style="color-interpolation-filters:sRGB"
       id="filter4375-4-1-1"
       inkscape:label="deevad outline effect">
      <feFlood
         id="feFlood4377-7-9-0"
         flood-opacity="1"
         flood-color="rgb(0,0,0)"
         result="flood" />
      <feComposite
         id="feComposite4379-3-8-8"
         in2="SourceGraphic"
         in="flood"
         operator="in"
         result="composite1" />
      <feMorphology
         id="feMorphology4393-1-0-49"
         operator="dilate"
         radius="4"
         result="result3" />
      <feComposite
         id="feComposite4385-9-5-7"
         in2="result3"
         in="SourceGraphic"
         operator="over"
         result="composite2" />
    </filter>
    <filter
       style="color-interpolation-filters:sRGB"
       id="filter4375-4-1-1-9"
       inkscape:label="deevad outline effect">
      <feFlood
         id="feFlood4377-7-9-0-2"
         flood-opacity="1"
         flood-color="rgb(0,0,0)"
         result="flood" />
      <feComposite
         id="feComposite4379-3-8-8-5"
         in2="SourceGraphic"
         in="flood"
         operator="in"
         result="composite1" />
      <feMorphology
         id="feMorphology4393-1-0-49-5"
         operator="dilate"
         radius="4"
         result="result3" />
      <feComposite
         id="feComposite4385-9-5-7-5"
         in2="result3"
         in="SourceGraphic"
         operator="over"
         result="composite2" />
    </filter>
    <filter
       style="color-interpolation-filters:sRGB"
       id="filter4375-4-1-1-2"
       inkscape:label="deevad outline effect">
      <feFlood
         id="feFlood4377-7-9-0-0"
         flood-opacity="1"
         flood-color="rgb(118,29,43)"
         result="flood" />
      <feComposite
         id="feComposite4379-3-8-8-4"
         in2="SourceGraphic"
         in="flood"
         operator="in"
         result="composite1" />
      <feMorphology
         id="feMorphology4393-1-0-49-9"
         operator="dilate"
         radius="4"
         result="result3" />
      <feComposite
         id="feComposite4385-9-5-7-9"
         in2="result3"
         in="SourceGraphic"
         operator="over"
         result="composite2" />
    </filter>
  </defs>
  <sodipodi:namedview
     pagecolor="#ffffff"
     bordercolor="#666666"
     borderopacity="1"
     objecttolerance="10"
     gridtolerance="10"
     guidetolerance="10"
     inkscape:pageopacity="0"
     inkscape:pageshadow="2"
     inkscape:window-width="1381"
     inkscape:window-height="876"
     id="namedview4"
     showgrid="false"
     inkscape:zoom="0.40000001"
     inkscape:cx="1561.686"
     inkscape:cy="655.01524"
     inkscape:window-x="59"
     inkscape:window-y="24"
     inkscape:window-maximized="1"
     inkscape:current-layer="layer1" />
  <g
     inkscape:groupmode="layer"
     id="layer2"
     inkscape:label="artwork"
     sodipodi:insensitive="true">
    <image
       sodipodi:absref="/home/stefan/Dropbox/Pepper&amp;Carrot/peppercarrot_ep11_translation-master/br/../gfx_Pepper-and-Carrot_by-David-Revoy_E11P05.png"
       xlink:href="../gfx_Pepper-and-Carrot_by-David-Revoy_E11P05.png"
       y="0"
       x="0"
       id="image10"
       height="3503"
       width="2481" />
  </g>
  <g
     inkscape:groupmode="layer"
     id="layer3"
     inkscape:label="speechbubbles" />
  <g
     inkscape:groupmode="layer"
     id="layer1"
     inkscape:label="txt">
    <path
       style="color:#000000;display:inline;overflow:visible;visibility:visible;fill:#ffffff;fill-opacity:1;fill-rule:nonzero;stroke:none;stroke-width:1px;marker:none;enable-background:accumulate"
       d="m 1296.6692,1034.9685 c -9.0014,0.9036 -16.9611,4.1668 -21.9283,9.5252 -13.7201,-14.2228 -31.8855,2.1503 -33.5006,5.505 -16.9505,-7.513 -40.3632,-1.6057 -49.4464,6.5805 -22.5426,-11.1545 -69.7114,7.4846 -68.0444,31.485 -25.4604,17.7921 -26.503,38.2647 -18.4622,50.5517 -19.5207,14.6093 -28.6732,80.9176 27.3705,86.567 16.082,24.5741 58.8921,34.8274 78.4126,20.2179 27.1278,6.2084 44.1649,12.0135 50.6257,-1.406 11.1325,11.5405 36.0638,13.498 39.5609,0.8207 19.6389,11.8703 46.4679,14.5388 60.7834,3.8249 27.1277,6.2084 44.165,12.0156 50.6258,-1.404 13.7197,14.2227 36.4371,17.2345 48.163,-1.5418 23.3269,8.726 26.8239,2.6855 42.2052,-7.4545 26.3036,18.6409 49.6407,9.5034 59.0123,-7.4256 36.7897,7.3288 42.3989,-21.7715 40.4725,-32.5999 32.0657,-11.2343 40.6722,-37.4362 16.4187,-59.0208 7.1558,-27.0687 -4.2555,-58.2934 -52.7444,-70.4806 -11.931,-20.9896 -51.5976,-36.2458 -78.4996,-18.5112 -19.399,-16.158 -49.7562,-15.6567 -61.9831,-2.4666 -9.8499,-10.2108 -21.959,-4.6528 -28.6224,0.537 -17.3976,-10.1101 -41.8901,-13.4911 -60.3645,-1.312 -11.5182,-9.5939 -26.8987,-13.3132 -40.0547,-11.9919 z"
       id="path4043"
       inkscape:connector-curvature="0"
       sodipodi:nodetypes="ccccccccccccccccccccccc" />
    <flowRoot
       xml:space="preserve"
       id="flowRoot2987-4-9-3-5-9-8-3-5-4-0-5-5"
       style="font-size:12px;font-style:normal;font-variant:normal;font-weight:normal;font-stretch:normal;text-align:center;line-height:125%;letter-spacing:0px;word-spacing:0px;text-anchor:middle;fill:#000000;fill-opacity:1;stroke:none;font-family:Lavi;-inkscape-font-specification:Lavi"
       transform="translate(1004.5148,822.78429)"><flowRegion
         id="flowRegion2989-5-4-5-8-9-5-4-2-2-5-0-8"><rect
           id="rect2991-7-9-6-5-7-5-4-9-5-4-3-2"
           width="493.73337"
           height="314.38708"
           x="120.55251"
           y="265.53046"
           style="font-style:normal;font-variant:normal;font-weight:normal;font-stretch:normal;text-align:center;text-anchor:middle;font-family:Lavi;-inkscape-font-specification:Lavi" /></flowRegion><flowPara
         style="font-size:45px;text-align:center;text-anchor:middle"
         id="flowPara4182">Te ha me, damheñvel omp...</flowPara></flowRoot>    <path
       style="color:#000000;display:inline;overflow:visible;visibility:visible;fill:#ffffff;fill-opacity:1;fill-rule:nonzero;stroke:none;stroke-width:1px;marker:none;enable-background:accumulate"
       d="m 921.87678,2375.7845 c 5.63697,-0.5176 10.62151,-2.3865 13.73214,-5.4552 8.59189,8.1455 19.96758,-1.2315 20.97895,-3.1528 10.61492,4.3028 25.27651,0.9197 30.96469,-3.7686 14.11684,6.3882 43.65524,-4.2865 42.61144,-18.0317 15.9439,-10.1899 16.5968,-21.9146 11.5614,-28.9515 12.2244,-8.3668 17.9559,-46.3421 -17.1401,-49.5776 -10.071,-14.0737 -36.87982,-19.9459 -49.10412,-11.5788 -16.98823,-3.5557 -27.65732,-6.8803 -31.70327,0.8052 -6.97148,-6.6095 -22.58417,-7.7304 -24.77411,-0.4701 -12.29844,-6.7982 -29.09951,-8.3265 -38.06426,-2.1906 -16.98812,-3.5555 -27.65734,-6.8814 -31.70328,0.8042 -8.59166,-8.1454 -22.81793,-9.8704 -30.161,0.8829 -14.60794,-4.9974 -16.79784,-1.538 -26.43005,4.2692 -16.47204,-10.6757 -31.08637,-5.4426 -36.95512,4.2528 -23.03873,-4.1973 -26.55138,12.4687 -25.345,18.6702 -20.08045,6.434 -25.47009,21.44 -10.28189,33.8017 -4.48114,15.5024 2.66493,33.3851 33.03004,40.3648 7.47149,12.021 32.31186,20.7583 49.15865,10.6015 12.14814,9.2538 31.15865,8.9666 38.81547,1.4127 6.16828,5.8477 13.75135,2.6646 17.92414,-0.3076 10.89487,5.7901 26.23275,7.7264 37.80193,0.7514 7.21302,5.4945 16.84473,7.6246 25.08335,6.8679 z"
       id="path4043-4"
       inkscape:connector-curvature="0"
       sodipodi:nodetypes="ccccccccccccccccccccccc" />
    <flowRoot
       xml:space="preserve"
       id="flowRoot2987-4-9-3-5-9-8-3-5-4-0-5-5-7"
       style="font-size:12px;font-style:normal;font-variant:normal;font-weight:normal;font-stretch:normal;text-align:center;line-height:125%;letter-spacing:0px;word-spacing:0px;text-anchor:middle;fill:#000000;fill-opacity:1;stroke:none;font-family:Lavi;-inkscape-font-specification:Lavi"
       transform="translate(526.87792,2012.1239)"><flowRegion
         id="flowRegion2989-5-4-5-8-9-5-4-2-2-5-0-8-9"><rect
           id="rect2991-7-9-6-5-7-5-4-9-5-4-3-2-2"
           width="493.73337"
           height="314.38708"
           x="120.55251"
           y="265.53046"
           style="font-style:normal;font-variant:normal;font-weight:normal;font-stretch:normal;text-align:center;text-anchor:middle;font-family:Lavi;-inkscape-font-specification:Lavi" /></flowRegion><flowPara
         style="font-size:45px;text-align:center;text-anchor:middle"
         id="flowPara4272-0-7">yaouank...</flowPara></flowRoot>    <path
       style="color:#000000;display:inline;overflow:visible;visibility:visible;fill:#ffffff;fill-opacity:1;fill-rule:nonzero;stroke:none;stroke-width:1px;marker:none;enable-background:accumulate"
       d="m 1060.6268,2467.0345 c 5.637,-0.5176 10.6215,-2.3865 13.7322,-5.4552 8.5919,8.1455 19.9676,-1.2315 20.9789,-3.1528 10.6149,4.3028 25.2765,0.9197 30.9647,-3.7686 14.1169,6.3882 43.6553,-4.2865 42.6115,-18.0317 15.9439,-10.1899 16.5968,-21.9146 11.5614,-28.9515 12.2244,-8.3668 17.9559,-46.3421 -17.1401,-49.5776 -10.071,-14.0737 -36.8799,-19.9459 -49.1042,-11.5788 -16.9882,-3.5557 -27.6573,-6.8803 -31.7032,0.8052 -6.9715,-6.6095 -22.5842,-7.7304 -24.7741,-0.4701 -12.2985,-6.7982 -29.0996,-8.3265 -38.0643,-2.1906 -16.9881,-3.5555 -27.6573,-6.8814 -31.7033,0.8042 -8.5916,-8.1454 -22.8179,-9.8704 -30.16099,0.8829 -14.60794,-4.9974 -16.79784,-1.538 -26.43005,4.2692 -16.47204,-10.6757 -31.08637,-5.4426 -36.95512,4.2528 -23.03873,-4.1973 -26.55138,12.4687 -25.345,18.6702 -20.08045,6.434 -25.47009,21.44 -10.28189,33.8017 -4.48114,15.5024 2.66493,33.3851 33.03004,40.3648 7.47149,12.021 32.31186,20.7583 49.15865,10.6015 12.14814,9.2538 31.15866,8.9666 38.81546,1.4127 6.1683,5.8477 13.7514,2.6646 17.9242,-0.3076 10.8948,5.7901 26.2327,7.7264 37.8019,0.7514 7.213,5.4945 16.8447,7.6246 25.0833,6.8679 z"
       id="path4043-4-9"
       inkscape:connector-curvature="0"
       sodipodi:nodetypes="ccccccccccccccccccccccc" />
    <flowRoot
       xml:space="preserve"
       id="flowRoot2987-4-9-3-5-9-8-3-5-4-0-5-5-7-1"
       style="font-size:12px;font-style:normal;font-variant:normal;font-weight:normal;font-stretch:normal;text-align:center;line-height:125%;letter-spacing:0px;word-spacing:0px;text-anchor:middle;fill:#000000;fill-opacity:1;stroke:none;font-family:Lavi;-inkscape-font-specification:Lavi"
       transform="translate(676.11252,2111.665)"><flowRegion
         id="flowRegion2989-5-4-5-8-9-5-4-2-2-5-0-8-9-8"><rect
           id="rect2991-7-9-6-5-7-5-4-9-5-4-3-2-2-3"
           width="493.73337"
           height="314.38708"
           x="120.55251"
           y="265.53046"
           style="font-style:normal;font-variant:normal;font-weight:normal;font-stretch:normal;text-align:center;text-anchor:middle;font-family:Lavi;-inkscape-font-specification:Lavi" /></flowRegion><flowPara
         style="font-size:45px;text-align:center;text-anchor:middle"
         id="flowPara4272-0-7-7">hon-unan...</flowPara></flowRoot>    <path
       style="color:#000000;fill:#ffffff;fill-opacity:1;fill-rule:nonzero;stroke:none;stroke-width:1px;marker:none;visibility:visible;display:inline;overflow:visible;enable-background:accumulate"
       d="m 1752.0486,2597.0427 c 8.9492,-0.7165 16.8621,-3.3033 21.8004,-7.5507 13.6401,11.2743 31.6997,-1.7045 33.3052,-4.3636 16.8516,5.9554 40.1275,1.2728 49.1579,-5.2163 22.4112,8.842 69.3049,-5.9328 67.6477,-24.9574 25.3119,-14.1038 26.3483,-30.3319 18.3543,-40.0717 19.4068,-11.5804 28.506,-64.1418 -27.2107,-68.6201 -15.9881,-19.4793 -58.5484,-27.607 -77.9552,-16.0261 -26.9697,-4.9214 -43.9074,-9.523 -50.3303,1.1145 -11.0674,-9.1483 -35.8536,-10.6998 -39.3302,-0.6508 -19.5246,-9.4092 -46.1968,-11.5245 -60.429,-3.0319 -26.9693,-4.9212 -43.9073,-9.5246 -50.3304,1.113 -13.6396,-11.2739 -36.2245,-13.6616 -47.8821,1.2221 -23.1908,-6.917 -26.6672,-2.1287 -41.9591,5.909 -26.15,-14.7762 -49.351,-7.5332 -58.6679,5.8862 -36.5751,-5.8094 -42.1516,17.2579 -40.2365,25.8414 -31.8786,8.9054 -40.4349,29.6749 -16.3229,46.7848 -7.114,21.4567 4.2308,46.2081 52.4368,55.8686 11.8613,16.6383 51.2965,28.7314 78.0418,14.6735 19.2857,12.8082 49.4658,12.4107 61.6213,1.9553 9.7925,8.0938 21.831,3.6882 28.4555,-0.4256 17.2961,8.014 41.6458,10.6939 60.0125,1.0399 11.451,7.605 26.7416,10.5531 39.8209,9.5059 z"
       id="path4043-4-9-1"
       inkscape:connector-curvature="0"
       sodipodi:nodetypes="ccccccccccccccccccccccc" />
    <flowRoot
       xml:space="preserve"
       id="flowRoot2987-4-9-3-5-9-8-3-5-4-0-5-5-7-1-9"
       style="font-size:12px;font-style:normal;font-variant:normal;font-weight:normal;font-stretch:normal;text-align:center;line-height:125%;letter-spacing:0px;word-spacing:0px;text-anchor:middle;fill:#000000;fill-opacity:1;stroke:none;font-family:Lavi;-inkscape-font-specification:Lavi"
       transform="matrix(0.93379684,0,0,1.0262584,1347.0022,2184.7387)"><flowRegion
         id="flowRegion2989-5-4-5-8-9-5-4-2-2-5-0-8-9-8-8"><rect
           id="rect2991-7-9-6-5-7-5-4-9-5-4-3-2-2-3-4"
           width="493.73337"
           height="314.38708"
           x="120.55251"
           y="265.53046"
           style="font-style:normal;font-variant:normal;font-weight:normal;font-stretch:normal;text-align:center;text-anchor:middle;font-family:Lavi;-inkscape-font-specification:Lavi" /></flowRegion><flowPara
         style="font-size:45px;text-align:center;text-anchor:middle"
         id="flowPara4435">...bac'het etre krabanoù an tonkad.</flowPara></flowRoot>    <path
       style="color:#000000;display:inline;overflow:visible;visibility:visible;fill:#ffffff;fill-opacity:1;fill-rule:nonzero;stroke:none;stroke-width:1px;marker:none;enable-background:accumulate"
       d="m 1240.5275,1276.586 c 3.2526,-13.9142 12.362,-12.7945 19.7109,-8.2909 7.1257,-0.1505 15.5492,0.9462 9.5739,13.2654 4.4484,3.5928 10.3777,11.5837 -2.1306,18.3276 -1.7432,6.2934 -19.9536,11.285 -26.591,-2.8511 -12.9529,-6.0801 -17.4582,-18.2401 -0.5632,-20.451 z"
       id="path4051"
       inkscape:connector-curvature="0"
       sodipodi:nodetypes="cccccc" />
    <path
       style="color:#000000;display:inline;overflow:visible;visibility:visible;fill:#ffffff;fill-opacity:1;fill-rule:nonzero;stroke:none;stroke-width:1px;marker:none;enable-background:accumulate"
       d="m 1286.2708,1309.2578 c 3.6765,-1.0212 6.7369,1.1598 9.1289,4.1414 11.2359,-14.5964 27.0112,26.7457 -0.4784,19.6785 -16.7378,5.7055 -18.2129,-9.5291 -11.4815,-14.9079 -2.5821,-3.2186 -0.8455,-7.8909 2.831,-8.912 z"
       id="path4059"
       inkscape:connector-curvature="0"
       sodipodi:nodetypes="zcccz" />
    <path
       style="color:#000000;display:inline;overflow:visible;visibility:visible;fill:#ffffff;fill-opacity:1;fill-rule:nonzero;stroke:none;stroke-width:1px;marker:none;enable-background:accumulate"
       d="m 1199.2151,2323.7893 c 2.225,-9.385 13.0044,-12.9003 20.604,-6.006 5.7937,-4.4838 15.1847,0.9709 10.4045,11.3728 7.9371,3.6245 10.2853,20.5369 -3.8877,20.7106 -3.8301,8.4751 -19.496,8.8047 -25.723,-3.4794 -10.5094,4.3941 -19.2873,-20.2128 -1.3978,-22.598 z"
       id="path4051-1"
       inkscape:connector-curvature="0"
       sodipodi:nodetypes="cccccc" />
    <path
       style="color:#000000;display:inline;overflow:visible;visibility:visible;fill:#ffffff;fill-opacity:1;fill-rule:nonzero;stroke:none;stroke-width:1px;marker:none;enable-background:accumulate"
       d="m 1261.6184,2282.2669 c 3.7043,-1.6524 6.641,0 8.8742,2.5696 6.3848,-5.2404 23.2295,7.2113 -1.4295,19.7477 -9.1804,4.5419 -17.6092,-6.4102 -10.6909,-12.9246 -2.4109,-2.7727 -0.4581,-7.7403 3.2462,-9.3927 z"
       id="path4059-6"
       inkscape:connector-curvature="0"
       sodipodi:nodetypes="zcccz" />
    <path
       style="color:#000000;display:inline;overflow:visible;visibility:visible;fill:#ffffff;fill-opacity:1;fill-rule:nonzero;stroke:none;stroke-width:1px;marker:none;enable-background:accumulate"
       d="m 1765.5082,2376.4339 c 14.1067,14.7269 5.3775,33.1901 -19.7909,27.1407 -14.6783,6.3004 -38.9492,-22.0463 -11.6312,-27.7892 -1.0944,-13.4466 34.9155,-16.36 31.4221,0.6485 z"
       id="path4051-1-3"
       inkscape:connector-curvature="0"
       sodipodi:nodetypes="cccc" />
    <path
       style="color:#000000;display:inline;overflow:visible;visibility:visible;fill:#ffffff;fill-opacity:1;fill-rule:nonzero;stroke:none;stroke-width:1px;marker:none;enable-background:accumulate"
       d="m 1734.4609,2345.1465 c -3.6004,3.1824 -7.7715,3.0113 -11.5262,1.6893 -2.5115,3.1494 -25.5738,-4.2698 -7.1025,-18.6006 8.7242,-8.2935 23.4543,-2.1601 18.2536,6.9001 4.0532,1.4271 3.9754,6.829 0.3751,10.0112 z"
       id="path4059-6-7"
       inkscape:connector-curvature="0"
       sodipodi:nodetypes="zcccz" />
    <flowRoot
       xml:space="preserve"
       id="flowRoot2987-7-9-9-7-0-3-4"
       style="font-style:normal;font-variant:normal;font-weight:normal;font-stretch:normal;font-size:12px;line-height:125%;font-family:Lavi;-inkscape-font-specification:Lavi;letter-spacing:0px;word-spacing:0px;fill:#000000;fill-opacity:1;stroke:#000000;stroke-width:0.99236238;stroke-miterlimit:4;stroke-dasharray:none;stroke-opacity:1;filter:url(#filter4375-4-1-1-2)"
       transform="matrix(0.72826899,-0.81755759,0.24767521,2.1649058,770.1582,-256.64007)"><flowRegion
         id="flowRegion2989-4-5-8-7-41-7-62"
         style="stroke-width:5.40286207"><rect
           id="rect2991-45-1-3-3-8-0-4"
           width="319.66232"
           height="56.089447"
           x="120.55251"
           y="265.53046"
           style="font-style:normal;font-variant:normal;font-weight:normal;font-stretch:normal;font-family:Lavi;-inkscape-font-specification:Lavi;fill:#000000;fill-opacity:1;stroke:#000000;stroke-width:0.99236238;stroke-miterlimit:4;stroke-dasharray:none;stroke-opacity:1" /></flowRegion><flowPara
         id="flowPara2995-4-1-5-0-7-2-6"
         style="font-weight:normal;font-size:48px;-inkscape-font-specification:Lavi;letter-spacing:7.06853437px;fill:#ffffff;fill-opacity:1;stroke:#ffffff;stroke-width:0.99236238;stroke-linejoin:miter;stroke-miterlimit:4;stroke-dasharray:none;stroke-opacity:1">Dzzz</flowPara></flowRoot>  </g>
</svg>
