<?xml version="1.0" encoding="UTF-8" standalone="no"?>
<!-- Created with Inkscape (http://www.inkscape.org/) -->

<svg
   xmlns:dc="http://purl.org/dc/elements/1.1/"
   xmlns:cc="http://creativecommons.org/ns#"
   xmlns:rdf="http://www.w3.org/1999/02/22-rdf-syntax-ns#"
   xmlns:svg="http://www.w3.org/2000/svg"
   xmlns="http://www.w3.org/2000/svg"
   xmlns:xlink="http://www.w3.org/1999/xlink"
   xmlns:sodipodi="http://sodipodi.sourceforge.net/DTD/sodipodi-0.dtd"
   xmlns:inkscape="http://www.inkscape.org/namespaces/inkscape"
   id="svg2"
   version="1.1"
   inkscape:version="0.91 r13725"
   width="2481"
   height="3503"
   sodipodi:docname="Pepper-and-Carrot_by-David-Revoy_E11P03.svg">
  <metadata
     id="metadata8">
    <rdf:RDF>
      <cc:Work
         rdf:about="">
        <dc:format>image/svg+xml</dc:format>
        <dc:type
           rdf:resource="http://purl.org/dc/dcmitype/StillImage" />
        <dc:title />
      </cc:Work>
    </rdf:RDF>
  </metadata>
  <defs
     id="defs6" />
  <sodipodi:namedview
     pagecolor="#ffffff"
     bordercolor="#666666"
     borderopacity="1"
     objecttolerance="10"
     gridtolerance="10"
     guidetolerance="10"
     inkscape:pageopacity="0"
     inkscape:pageshadow="2"
     inkscape:window-width="1366"
     inkscape:window-height="715"
     id="namedview4"
     showgrid="false"
     inkscape:zoom="0.46000001"
     inkscape:cx="1121.5748"
     inkscape:cy="2211.1682"
     inkscape:window-x="-8"
     inkscape:window-y="-8"
     inkscape:window-maximized="1"
     inkscape:current-layer="layer1"
     showguides="false" />
  <g
     inkscape:groupmode="layer"
     id="layer2"
     inkscape:label="artwork"
     sodipodi:insensitive="true">
    <image
       sodipodi:absref="D:\practical\Trans\peppercarrot_ep11_translation\vi\..\gfx_Pepper-and-Carrot_by-David-Revoy_E11P03.png"
       xlink:href="../gfx_Pepper-and-Carrot_by-David-Revoy_E11P03.png"
       width="2481"
       height="3503"
       id="image10"
       x="0"
       y="0" />
  </g>
  <g
     inkscape:groupmode="layer"
     id="layer3"
     inkscape:label="speechbubbles">
    <path
       style="color:#000000;display:inline;overflow:visible;visibility:visible;fill:#ffffff;fill-opacity:1;fill-rule:nonzero;stroke:none;stroke-width:1px;marker:none;enable-background:accumulate"
       d="m 331.94954,1684.9386 c 25.1174,-45.4243 71.20226,-88.6541 140.49172,-104.1396 69.28934,-15.4855 208.44064,-14.7108 230.95977,-9.5489 22.51893,5.1616 147.21721,25.4217 174.06674,51.2309 26.84974,25.8093 58.16536,64.5224 65.96054,97.5581 7.79518,33.0357 0.8661,112.5283 -24.25134,130.0786 -25.11739,17.5505 -139.4448,55.748 -206.13589,57.8127 -66.69108,2.0649 -221.72585,-14.4532 -265.8979,-25.8092 -44.17206,-11.3562 -90.94236,-25.8095 -104.8002,-61.9423 -13.85792,-36.1329 -39.84144,-83.6219 -10.39344,-135.2403 z"
       id="path3533"
       inkscape:connector-curvature="0"
       sodipodi:nodetypes="cscssssssc" />
    <path
       style="color:#000000;display:inline;overflow:visible;visibility:visible;fill:#ffffff;fill-opacity:1;fill-rule:nonzero;stroke:none;stroke-width:1px;marker:none;enable-background:accumulate"
       d="m 883.77495,1745.1358 c 44.44471,-22.895 116.41795,-23.2688 129.48195,54.9811 34.6887,14.392 59.3221,29.36 66.1093,93.306 -13.8854,-45.9668 -26.6681,-69.4371 -79.48608,-86.6191 -11.9779,-39.1913 -54.96889,-53.3177 -104.25568,-15.6318 -49.28677,37.6861 -33.32019,31.3976 -33.32019,31.3976 l 7.61389,-70.6093 z"
       id="path5074"
       inkscape:connector-curvature="0"
       sodipodi:nodetypes="ccccsccc" />
    <path
       style="color:#000000;fill:#ffffff;fill-opacity:1;fill-rule:nonzero;stroke:none;stroke-width:1px;marker:none;visibility:visible;display:inline;overflow:visible;enable-background:accumulate"
       d="m 447.67233,3242.7884 c 11.14569,-71.1849 73.70145,-106.5668 310.02511,-100.6409 155.96613,3.911 290.16816,27.688 275.30726,132.0108 -14.861,104.3228 -198.9677,84.9479 -272.88779,85.4579 -80.53769,0.5556 -241.89144,-6.8864 -278.82002,-43.5744 -23.11646,-22.9657 -35.48215,-51.1614 -33.62456,-73.2534 z"
       id="path4546"
       inkscape:connector-curvature="0"
       sodipodi:nodetypes="cssssc" />
    <path
       style="color:#000000;display:inline;overflow:visible;visibility:visible;fill:#ffffff;fill-opacity:1;fill-rule:nonzero;stroke:none;stroke-width:1px;marker:none;enable-background:accumulate"
       d="m 802.80252,2968.7264 c 11.07268,17.5914 22.81036,35.7325 26.79713,58.318 1.01942,6.4618 1.69704,13.2732 0.8603,19.9677 -2.13488,6.8588 -8.0046,10.9395 -13.63505,11.7125 -8.11535,1.8042 -16.97191,-0.3491 -24.47096,5.4601 -5.38556,4.3813 -6.06745,12.504 -7.13123,19.3023 -2.43507,17.3638 -2.97063,35.0301 -7.64784,52.0685 -4.26526,19.4939 -9.89483,39.7496 -21.71008,55.2021 -4.75293,6.0274 -10.36404,11.5941 -17.01384,13.6262 -16.93018,6.136 -36.18293,0.8137 -46.68954,-15.1409 -5.84983,-11.036 -3.03134,-28.9083 7.27287,-36.4661 5.39695,-4.0838 11.88665,-3.3004 17.09289,-0.5878 10.49304,2.725 22.18726,-2.305 30.32475,-11.8054 6.81219,-7.7175 11.73629,-17.7565 14.39573,-28.3325 6.67084,-13.5431 4.96053,-29.0804 5.87665,-43.5892 0.49961,-6.6294 1.39903,-13.6785 4.44551,-19.5751 5.90723,-7.3191 14.64135,-7.295 21.95511,-6.2342 7.58293,0.8546 16.22562,2.8996 23.25642,-3.257 5.29761,-3.5199 3.38357,-11.3159 3.71315,-17.0122 -0.90369,-18.3049 -6.5414,-35.5415 -14.86542,-49.9818 -0.88295,-1.2943 -1.85199,-2.4853 -2.8266,-3.6752 z"
       id="path4496"
       inkscape:connector-curvature="0" />
  </g>
  <g
     inkscape:groupmode="layer"
     id="layer1"
     inkscape:label="txt">
    <path
       style="color:#000000;display:inline;overflow:visible;visibility:visible;fill:#ffffff;fill-opacity:1;fill-rule:nonzero;stroke:none;stroke-width:1px;marker:none;enable-background:accumulate"
       d="m 621.36673,385.2708 c -13.14604,32.78603 12.63645,114.47239 62.26505,127.10564 -70.18554,-4.07502 -99.34113,-76.97331 -105.63042,-99.95904 -6.28929,-22.98575 43.36537,-27.1466 43.36537,-27.1466 z"
       id="path5010"
       inkscape:connector-curvature="0"
       sodipodi:nodetypes="ccsc" />
    <path
       style="color:#000000;display:inline;overflow:visible;visibility:visible;fill:#ffffff;fill-opacity:1;fill-rule:nonzero;stroke:none;stroke-width:1px;marker:none;enable-background:accumulate"
       d="m 83.392456,112.70188 c -22.376684,24.39036 -27.704458,54.58788 -25.573356,68.52517 2.131127,13.93724 31.966682,78.97809 34.097801,96.3998 2.131115,17.42169 -29.835564,95.23823 -23.442228,120.79002 6.393337,25.55177 18.687544,95.05782 102.866457,102.02629 88.04335,5.75286 370.63824,50.31323 432.04262,-49.76138 C 660.14338,344.13504 668.38919,139.35014 594.85925,99.926061 549.04045,79.020037 135.60468,45.338195 83.392456,112.70188 Z"
       id="path4464"
       inkscape:connector-curvature="0"
       sodipodi:nodetypes="cssscccc" />
    <flowRoot
       xml:space="preserve"
       id="flowRoot2987-4-9-3-5-9-8-3-5"
       style="font-style:normal;font-variant:normal;font-weight:normal;font-stretch:normal;font-size:12px;line-height:125%;font-family:Lavi;-inkscape-font-specification:Lavi;text-align:center;letter-spacing:0px;word-spacing:0px;text-anchor:middle;fill:#000000;fill-opacity:1;stroke:none"
       transform="translate(14.834888,-114.56802)"><flowRegion
         id="flowRegion2989-5-4-5-8-9-5-4-2"><rect
           id="rect2991-7-9-6-5-7-5-4-9"
           width="497.7095"
           height="399.5643"
           x="120.55251"
           y="265.53046"
           style="font-style:normal;font-variant:normal;font-weight:normal;font-stretch:normal;font-family:Lavi;-inkscape-font-specification:Lavi;text-align:center;text-anchor:middle" /></flowRegion><flowPara
         style="font-style:normal;font-variant:normal;font-weight:500;font-stretch:normal;font-size:45px;font-family:'Rounded M+ 1c';-inkscape-font-specification:'Rounded M+ 1c Medium';text-align:center;text-anchor:middle"
         id="flowPara3030-8-1-8-7-8-3">Vị vua mới lên ngôi của Acren rất thân thiện và tử tế với mọi người. Những người này đáng lẽ phải trở nên sợ hãi và tôn kính ngài.</flowPara></flowRoot>    <flowRoot
       xml:space="preserve"
       id="flowRoot2987-4-9-3-5-9-8-3-5-4"
       style="font-style:normal;font-variant:normal;font-weight:normal;font-stretch:normal;font-size:12px;line-height:125%;font-family:Lavi;-inkscape-font-specification:Lavi;text-align:center;letter-spacing:0px;word-spacing:0px;text-anchor:middle;fill:#000000;fill-opacity:1;stroke:none"
       transform="translate(241.9025,1370.1767)"><flowRegion
         id="flowRegion2989-5-4-5-8-9-5-4-2-2"><rect
           id="rect2991-7-9-6-5-7-5-4-9-5"
           width="567.27466"
           height="327.82516"
           x="107.50903"
           y="276.40002"
           style="font-style:normal;font-variant:normal;font-weight:normal;font-stretch:normal;font-family:Lavi;-inkscape-font-specification:Lavi;text-align:center;text-anchor:middle" /></flowRegion><flowPara
         style="font-style:normal;font-variant:normal;font-weight:500;font-stretch:normal;font-size:45px;font-family:'Rounded M+ 1c';-inkscape-font-specification:'Rounded M+ 1c Medium';text-align:center;text-anchor:middle"
         id="flowPara3356">Nhiệm vụ đầu tiên của con là tìm và hăm dọa đức vua để ông ấy trở nên chính chắn hơn</flowPara></flowRoot>    <flowRoot
       xml:space="preserve"
       id="flowRoot2987-4-9-3-5-9-8-3-5-4-6"
       style="font-style:normal;font-variant:normal;font-weight:normal;font-stretch:normal;font-size:12px;line-height:125%;font-family:Lavi;-inkscape-font-specification:Lavi;text-align:center;letter-spacing:0px;word-spacing:0px;text-anchor:middle;fill:#000000;fill-opacity:1;stroke:none"
       transform="translate(370.00119,2904.8834)"><flowRegion
         id="flowRegion2989-5-4-5-8-9-5-4-2-2-2"><rect
           id="rect2991-7-9-6-5-7-5-4-9-5-2"
           width="512.92688"
           height="358.25995"
           x="120.55251"
           y="265.53046"
           style="font-style:normal;font-variant:normal;font-weight:normal;font-stretch:normal;font-family:Lavi;-inkscape-font-specification:Lavi;text-align:center;text-anchor:middle" /></flowRegion><flowPara
         style="font-style:normal;font-variant:normal;font-weight:500;font-stretch:normal;font-size:45px;font-family:'Rounded M+ 1c';-inkscape-font-specification:'Rounded M+ 1c Medium';text-align:center;text-anchor:middle"
         id="flowPara3030-8-1-8-7-8-3-5-1">một phù thủy của Chaosah phải có một sự ảnh hưởng mạnh mẽ.</flowPara></flowRoot>  </g>
</svg>
