<?xml version="1.0" encoding="UTF-8" standalone="no"?>
<!-- Created with Inkscape (http://www.inkscape.org/) -->

<svg
   xmlns:dc="http://purl.org/dc/elements/1.1/"
   xmlns:cc="http://creativecommons.org/ns#"
   xmlns:rdf="http://www.w3.org/1999/02/22-rdf-syntax-ns#"
   xmlns:svg="http://www.w3.org/2000/svg"
   xmlns="http://www.w3.org/2000/svg"
   xmlns:xlink="http://www.w3.org/1999/xlink"
   xmlns:sodipodi="http://sodipodi.sourceforge.net/DTD/sodipodi-0.dtd"
   xmlns:inkscape="http://www.inkscape.org/namespaces/inkscape"
   id="svg2"
   version="1.1"
   inkscape:version="0.91 r13725"
   width="2481"
   height="3503"
   sodipodi:docname="Pepper-and-Carrot_by-David-Revoy_E11P05.svg">
  <metadata
     id="metadata8">
    <rdf:RDF>
      <cc:Work
         rdf:about="">
        <dc:format>image/svg+xml</dc:format>
        <dc:type
           rdf:resource="http://purl.org/dc/dcmitype/StillImage" />
        <dc:title />
      </cc:Work>
    </rdf:RDF>
  </metadata>
  <defs
     id="defs6">
    <filter
       style="color-interpolation-filters:sRGB"
       id="filter4375-4-1-1"
       inkscape:label="deevad outline effect">
      <feFlood
         id="feFlood4377-7-9-0"
         flood-opacity="1"
         flood-color="rgb(0,0,0)"
         result="flood" />
      <feComposite
         id="feComposite4379-3-8-8"
         in2="SourceGraphic"
         in="flood"
         operator="in"
         result="composite1" />
      <feMorphology
         id="feMorphology4393-1-0-49"
         operator="dilate"
         radius="4"
         result="result3" />
      <feComposite
         id="feComposite4385-9-5-7"
         in2="result3"
         in="SourceGraphic"
         operator="over"
         result="composite2" />
    </filter>
    <filter
       style="color-interpolation-filters:sRGB"
       id="filter4375-4-1-1-9"
       inkscape:label="deevad outline effect">
      <feFlood
         id="feFlood4377-7-9-0-2"
         flood-opacity="1"
         flood-color="rgb(0,0,0)"
         result="flood" />
      <feComposite
         id="feComposite4379-3-8-8-5"
         in2="SourceGraphic"
         in="flood"
         operator="in"
         result="composite1" />
      <feMorphology
         id="feMorphology4393-1-0-49-5"
         operator="dilate"
         radius="4"
         result="result3" />
      <feComposite
         id="feComposite4385-9-5-7-5"
         in2="result3"
         in="SourceGraphic"
         operator="over"
         result="composite2" />
    </filter>
  </defs>
  <sodipodi:namedview
     pagecolor="#ffffff"
     bordercolor="#666666"
     borderopacity="1"
     objecttolerance="10"
     gridtolerance="10"
     guidetolerance="10"
     inkscape:pageopacity="0"
     inkscape:pageshadow="2"
     inkscape:window-width="1366"
     inkscape:window-height="715"
     id="namedview4"
     showgrid="false"
     inkscape:zoom="0.46000001"
     inkscape:cx="1192.1746"
     inkscape:cy="1901.7212"
     inkscape:window-x="-8"
     inkscape:window-y="-8"
     inkscape:window-maximized="1"
     inkscape:current-layer="layer1" />
  <g
     inkscape:groupmode="layer"
     id="layer2"
     inkscape:label="artwork"
     sodipodi:insensitive="true">
    <image
       sodipodi:absref="D:\practical\Trans\peppercarrot_ep11_translation\vi\..\gfx_Pepper-and-Carrot_by-David-Revoy_E11P05.png"
       xlink:href="../gfx_Pepper-and-Carrot_by-David-Revoy_E11P05.png"
       y="0"
       x="0"
       id="image10"
       height="3503"
       width="2481" />
  </g>
  <g
     inkscape:groupmode="layer"
     id="layer3"
     inkscape:label="speechbubbles" />
  <g
     inkscape:groupmode="layer"
     id="layer1"
     inkscape:label="txt">
    <flowRoot
       xml:space="preserve"
       id="flowRoot2987-7-9-9-7-0-3-4"
       style="font-style:normal;font-variant:normal;font-weight:normal;font-stretch:normal;font-size:12px;line-height:125%;font-family:Lavi;-inkscape-font-specification:Lavi;letter-spacing:0px;word-spacing:0px;fill:#000000;fill-opacity:1;stroke:#000000;stroke-width:0.99236238;stroke-miterlimit:4;stroke-dasharray:none;stroke-opacity:1;filter:url(#filter4375-4-1-1)"
       transform="matrix(0.72826899,-0.81755759,0.24767521,2.1649058,787.1265,-276.56588)"><flowRegion
         id="flowRegion2989-4-5-8-7-41-7-62"
         style="stroke-width:5.40286207"><rect
           id="rect2991-45-1-3-3-8-0-4"
           width="319.66232"
           height="53.089447"
           x="120.55251"
           y="265.53046"
           style="font-style:normal;font-variant:normal;font-weight:normal;font-stretch:normal;font-family:Lavi;-inkscape-font-specification:Lavi;fill:#000000;fill-opacity:1;stroke:#000000;stroke-width:0.99236238;stroke-miterlimit:4;stroke-dasharray:none;stroke-opacity:1" /></flowRegion><flowPara
         id="flowPara2995-4-1-5-0-7-2-6"
         style="font-weight:normal;font-size:48px;-inkscape-font-specification:Lavi;letter-spacing:7.06853437px;fill:#ffffff;fill-opacity:1;stroke:#ffffff;stroke-width:0.99236238;stroke-linejoin:miter;stroke-miterlimit:4;stroke-dasharray:none;stroke-opacity:1">Dzzz</flowPara></flowRoot>    <path
       style="color:#000000;display:inline;overflow:visible;visibility:visible;fill:#ffffff;fill-opacity:1;fill-rule:nonzero;stroke:none;stroke-width:1px;marker:none;enable-background:accumulate"
       d="m 1310.7857,1024.9685 c -9.2898,0.9036 -17.5046,4.1668 -22.631,9.5252 -14.1598,-14.2228 -32.9074,2.1503 -34.5742,5.505 -17.4938,-7.513 -41.6568,-1.6057 -51.0311,6.5805 -23.265,-11.1545 -71.9455,7.4846 -70.2251,31.485 -26.2763,17.7921 -27.3523,38.2647 -19.0538,50.5517 -20.1463,14.6093 -29.5922,80.9176 28.2476,86.567 16.5974,24.5741 60.7795,34.8274 80.9256,20.2179 27.9972,6.2084 45.5803,12.0135 52.2481,-1.406 11.4893,11.5405 37.2196,13.498 40.8288,0.8207 20.2682,11.8703 47.9571,14.5388 62.7313,3.8249 27.9971,6.2084 45.5804,12.0156 52.2483,-1.404 14.1594,14.2227 37.6048,17.2345 49.7065,-1.5418 24.0745,8.726 27.6836,2.6855 43.5578,-7.4545 27.1466,18.6409 51.2316,9.5034 60.9035,-7.4256 37.9687,7.3288 43.7577,-21.7715 41.7696,-32.5999 33.0933,-11.2343 41.9756,-37.4362 16.9448,-59.0208 7.3852,-27.0687 -4.3918,-58.2934 -54.4347,-70.4806 -12.3134,-20.9896 -53.2512,-36.2458 -81.0153,-18.5112 -20.0207,-16.158 -51.3508,-15.6567 -63.9696,-2.4666 -10.1655,-10.2108 -22.6627,-4.6528 -29.5397,0.537 -17.9551,-10.1101 -43.2325,-13.4911 -62.299,-1.312 -11.8873,-9.5939 -27.7607,-13.3132 -41.3384,-11.9919 z"
       id="path4043"
       inkscape:connector-curvature="0"
       sodipodi:nodetypes="ccccccccccccccccccccccc" />
    <flowRoot
       xml:space="preserve"
       id="flowRoot2987-4-9-3-5-9-8-3-5-4-0-5-5"
       style="font-style:normal;font-variant:normal;font-weight:normal;font-stretch:normal;font-size:12px;line-height:125%;font-family:Lavi;-inkscape-font-specification:Lavi;text-align:center;letter-spacing:0px;word-spacing:0px;text-anchor:middle;fill:#000000;fill-opacity:1;stroke:none"
       transform="translate(1004.5148,822.78429)"><flowRegion
         id="flowRegion2989-5-4-5-8-9-5-4-2-2-5-0-8"><rect
           id="rect2991-7-9-6-5-7-5-4-9-5-4-3-2"
           width="506.77686"
           height="303.51752"
           x="120.55251"
           y="265.53046"
           style="font-style:normal;font-variant:normal;font-weight:normal;font-stretch:normal;font-family:Lavi;-inkscape-font-specification:Lavi;text-align:center;text-anchor:middle" /></flowRegion><flowPara
         style="font-size:45px;text-align:center;text-anchor:middle;-inkscape-font-specification:'Rounded M+ 1c Medium';font-family:'Rounded M+ 1c';font-weight:500;font-style:normal;font-stretch:normal;font-variant:normal"
         id="flowPara4272-0">Ngài và tôi, chúng ta có một số điểm chung...</flowPara></flowRoot>    <path
       style="color:#000000;display:inline;overflow:visible;visibility:visible;fill:#ffffff;fill-opacity:1;fill-rule:nonzero;stroke:none;stroke-width:1px;marker:none;enable-background:accumulate"
       d="m 1249.1658,1261.9418 c 12.5227,-13.119 32.7975,-12.5227 31.0085,5.3668 8.9448,7.7522 4.7706,29.8159 -30.4122,16.6969 -13.7153,-6.5595 -18.4858,-19.6785 -0.5963,-22.0637 z"
       id="path4051"
       inkscape:connector-curvature="0" />
    <path
       style="color:#000000;display:inline;overflow:visible;visibility:visible;fill:#ffffff;fill-opacity:1;fill-rule:nonzero;stroke:none;stroke-width:1px;marker:none;enable-background:accumulate"
       d="m 1290.5799,1311.4072 c 4.5827,-1.0212 8.3975,1.1598 11.3791,4.1414 7.7521,-4.1742 29.8159,11.3301 -0.5963,19.6785 -11.33,2.9816 -22.6601,-9.5411 -14.3116,-14.9079 -3.2186,-3.2186 -1.0539,-7.8909 3.5288,-8.912 z"
       id="path4059"
       inkscape:connector-curvature="0"
       sodipodi:nodetypes="zcccz" />
    <path
       style="color:#000000;display:inline;overflow:visible;visibility:visible;fill:#ffffff;fill-opacity:1;fill-rule:nonzero;stroke:none;stroke-width:1px;marker:none;enable-background:accumulate"
       d="m 921.87678,2375.7845 c 5.63697,-0.5176 10.62151,-2.3865 13.73214,-5.4552 8.59189,8.1455 19.96758,-1.2315 20.97895,-3.1528 10.61492,4.3028 25.27651,0.9197 30.96469,-3.7686 14.11684,6.3882 43.65524,-4.2865 42.61144,-18.0317 15.9439,-10.1899 16.5968,-21.9146 11.5614,-28.9515 12.2244,-8.3668 17.9559,-46.3421 -17.1401,-49.5776 -10.071,-14.0737 -36.87982,-19.9459 -49.10412,-11.5788 -16.98823,-3.5557 -27.65732,-6.8803 -31.70327,0.8052 -6.97148,-6.6095 -22.58417,-7.7304 -24.77411,-0.4701 -12.29844,-6.7982 -29.09951,-8.3265 -38.06426,-2.1906 -16.98812,-3.5555 -27.65734,-6.8814 -31.70328,0.8042 -8.59166,-8.1454 -22.81793,-9.8704 -30.161,0.8829 -14.60794,-4.9974 -16.79784,-1.538 -26.43005,4.2692 -16.47204,-10.6757 -31.08637,-5.4426 -36.95512,4.2528 -23.03873,-4.1973 -26.55138,12.4687 -25.345,18.6702 -20.08045,6.434 -25.47009,21.44 -10.28189,33.8017 -4.48114,15.5024 2.66493,33.3851 33.03004,40.3648 7.47149,12.021 32.31186,20.7583 49.15865,10.6015 12.14814,9.2538 31.15865,8.9666 38.81547,1.4127 6.16828,5.8477 13.75135,2.6646 17.92414,-0.3076 10.89487,5.7901 26.23275,7.7264 37.80193,0.7514 7.21302,5.4945 16.84473,7.6246 25.08335,6.8679 z"
       id="path4043-4"
       inkscape:connector-curvature="0"
       sodipodi:nodetypes="ccccccccccccccccccccccc" />
    <flowRoot
       xml:space="preserve"
       id="flowRoot2987-4-9-3-5-9-8-3-5-4-0-5-5-7"
       style="font-style:normal;font-variant:normal;font-weight:normal;font-stretch:normal;font-size:12px;line-height:125%;font-family:Lavi;-inkscape-font-specification:Lavi;text-align:center;letter-spacing:0px;word-spacing:0px;text-anchor:middle;fill:#000000;fill-opacity:1;stroke:none"
       transform="translate(526.87792,2012.1239)"><flowRegion
         id="flowRegion2989-5-4-5-8-9-5-4-2-2-5-0-8-9"><rect
           id="rect2991-7-9-6-5-7-5-4-9-5-4-3-2-2"
           width="493.73337"
           height="314.38708"
           x="120.55251"
           y="265.53046"
           style="font-style:normal;font-variant:normal;font-weight:normal;font-stretch:normal;font-family:Lavi;-inkscape-font-specification:Lavi;text-align:center;text-anchor:middle" /></flowRegion><flowPara
         style="font-size:45px;text-align:center;text-anchor:middle;-inkscape-font-specification:'Rounded M+ 1c Medium';font-family:'Rounded M+ 1c';font-weight:500;font-style:normal;font-stretch:normal;font-variant:normal"
         id="flowPara4272-0-7">trẻ tuổi...</flowPara></flowRoot>    <path
       style="color:#000000;display:inline;overflow:visible;visibility:visible;fill:#ffffff;fill-opacity:1;fill-rule:nonzero;stroke:none;stroke-width:1px;marker:none;enable-background:accumulate"
       d="m 1060.6268,2467.0345 c 5.637,-0.5176 10.6215,-2.3865 13.7322,-5.4552 8.5919,8.1455 19.9676,-1.2315 20.9789,-3.1528 10.6149,4.3028 25.2765,0.9197 30.9647,-3.7686 14.1169,6.3882 43.6553,-4.2865 42.6115,-18.0317 15.9439,-10.1899 16.5968,-21.9146 11.5614,-28.9515 12.2244,-8.3668 17.9559,-46.3421 -17.1401,-49.5776 -10.071,-14.0737 -36.8799,-19.9459 -49.1042,-11.5788 -16.9882,-3.5557 -27.6573,-6.8803 -31.7032,0.8052 -6.9715,-6.6095 -22.5842,-7.7304 -24.7741,-0.4701 -12.2985,-6.7982 -29.0996,-8.3265 -38.0643,-2.1906 -16.9881,-3.5555 -27.6573,-6.8814 -31.7033,0.8042 -8.5916,-8.1454 -22.8179,-9.8704 -30.16099,0.8829 -14.60794,-4.9974 -16.79784,-1.538 -26.43005,4.2692 -16.47204,-10.6757 -31.08637,-5.4426 -36.95512,4.2528 -23.03873,-4.1973 -26.55138,12.4687 -25.345,18.6702 -20.08045,6.434 -25.47009,21.44 -10.28189,33.8017 -4.48114,15.5024 2.66493,33.3851 33.03004,40.3648 7.47149,12.021 32.31186,20.7583 49.15865,10.6015 12.14814,9.2538 31.15866,8.9666 38.81546,1.4127 6.1683,5.8477 13.7514,2.6646 17.9242,-0.3076 10.8948,5.7901 26.2327,7.7264 37.8019,0.7514 7.213,5.4945 16.8447,7.6246 25.0833,6.8679 z"
       id="path4043-4-9"
       inkscape:connector-curvature="0"
       sodipodi:nodetypes="ccccccccccccccccccccccc" />
    <flowRoot
       xml:space="preserve"
       id="flowRoot2987-4-9-3-5-9-8-3-5-4-0-5-5-7-1"
       style="font-style:normal;font-variant:normal;font-weight:normal;font-stretch:normal;font-size:12px;line-height:125%;font-family:Lavi;-inkscape-font-specification:Lavi;text-align:center;letter-spacing:0px;word-spacing:0px;text-anchor:middle;fill:#000000;fill-opacity:1;stroke:none"
       transform="translate(676.11252,2111.665)"><flowRegion
         id="flowRegion2989-5-4-5-8-9-5-4-2-2-5-0-8-9-8"><rect
           id="rect2991-7-9-6-5-7-5-4-9-5-4-3-2-2-3"
           width="493.73337"
           height="314.38708"
           x="120.55251"
           y="265.53046"
           style="font-style:normal;font-variant:normal;font-weight:normal;font-stretch:normal;font-family:Lavi;-inkscape-font-specification:Lavi;text-align:center;text-anchor:middle" /></flowRegion><flowPara
         style="font-size:45px;text-align:center;text-anchor:middle;-inkscape-font-specification:'Rounded M+ 1c Medium';font-family:'Rounded M+ 1c';font-weight:500;font-style:normal;font-stretch:normal;font-variant:normal"
         id="flowPara4272-0-7-7">cô đơn...</flowPara></flowRoot>    <path
       style="color:#000000;display:inline;overflow:visible;visibility:visible;fill:#ffffff;fill-opacity:1;fill-rule:nonzero;stroke:none;stroke-width:1px;marker:none;enable-background:accumulate"
       d="m 1740.1847,2610.0683 c 8.419,-0.7792 15.8635,-3.5922 20.5092,-8.2113 12.8322,12.2606 29.8219,-1.8536 31.3323,-4.7453 15.8535,6.4764 37.7507,1.3841 46.2462,-5.6727 21.0837,9.6156 65.1997,-6.4518 63.6407,-27.1408 23.8125,-15.3377 24.7876,-32.9855 17.267,-43.5775 18.2574,-12.5935 26.8176,-69.7532 -25.5988,-74.6233 -15.0412,-21.1835 -55.0804,-30.0222 -73.3376,-17.4282 -25.3723,-5.3519 -41.3066,-10.3562 -47.3491,1.212 -10.4119,-9.9485 -33.7298,-11.6358 -37.0005,-0.7077 -18.3682,-10.2324 -43.4605,-12.5328 -56.8497,-3.2972 -25.3718,-5.3517 -41.3065,-10.3578 -47.3492,1.2104 -12.8316,-12.2602 -34.0787,-14.8567 -45.0459,1.3291 -21.817,-7.5222 -25.0876,-2.315 -39.4737,6.4259 -24.601,-16.0689 -46.4277,-8.1923 -55.1927,6.4012 -34.4087,-6.3177 -39.6548,18.7677 -37.8533,28.1021 -29.9901,9.6844 -38.0397,32.2711 -15.3559,50.8778 -6.6926,23.3339 3.9801,50.2507 49.3306,60.7563 11.159,18.0939 48.2582,31.245 73.4192,15.9573 18.1433,13.9287 46.5357,13.4964 57.9715,2.1263 9.2123,8.8019 20.5378,4.0109 26.7699,-0.4628 16.2716,8.7151 39.1789,11.6294 56.4577,1.1309 10.7727,8.2703 25.1577,11.4764 37.4621,10.3375 z"
       id="path4043-4-9-1"
       inkscape:connector-curvature="0"
       sodipodi:nodetypes="ccccccccccccccccccccccc" />
    <flowRoot
       xml:space="preserve"
       id="flowRoot2987-4-9-3-5-9-8-3-5-4-0-5-5-7-1-9"
       style="font-style:normal;font-variant:normal;font-weight:normal;font-stretch:normal;font-size:12px;line-height:125%;font-family:Lavi;-inkscape-font-specification:Lavi;text-align:center;letter-spacing:0px;word-spacing:0px;text-anchor:middle;fill:#000000;fill-opacity:1;stroke:none"
       transform="translate(1308.8506,2188.3034)"><flowRegion
         id="flowRegion2989-5-4-5-8-9-5-4-2-2-5-0-8-9-8-8"><rect
           id="rect2991-7-9-6-5-7-5-4-9-5-4-3-2-2-3-4"
           width="493.73337"
           height="314.38708"
           x="120.55251"
           y="265.53046"
           style="font-style:normal;font-variant:normal;font-weight:normal;font-stretch:normal;font-family:Lavi;-inkscape-font-specification:Lavi;text-align:center;text-anchor:middle" /></flowRegion><flowPara
         style="font-size:45px;text-align:center;text-anchor:middle;-inkscape-font-specification:'Rounded M+ 1c Medium';font-family:'Rounded M+ 1c';font-weight:500;font-style:normal;font-stretch:normal;font-variant:normal"
         id="flowPara4435">...mắc kẹt với định mệnh của chính mình.</flowPara></flowRoot>    <path
       style="color:#000000;display:inline;overflow:visible;visibility:visible;fill:#ffffff;fill-opacity:1;fill-rule:nonzero;stroke:none;stroke-width:1px;marker:none;enable-background:accumulate"
       d="m 1200.0166,2324.3236 c 12.5227,-13.119 32.7975,-12.5227 31.0085,5.3668 8.9448,7.7522 4.7706,29.8159 -30.4122,16.6969 -13.7153,-6.5595 -18.4858,-19.6785 -0.5963,-22.0637 z"
       id="path4051-1"
       inkscape:connector-curvature="0" />
    <path
       style="color:#000000;display:inline;overflow:visible;visibility:visible;fill:#ffffff;fill-opacity:1;fill-rule:nonzero;stroke:none;stroke-width:1px;marker:none;enable-background:accumulate"
       d="m 1266.0052,2273.6 c 4.5827,-1.0212 8.3975,1.1598 11.3791,4.1414 7.7521,-4.1742 29.8159,11.3301 -0.5963,19.6785 -11.33,2.9816 -22.6601,-9.5411 -14.3116,-14.9079 -3.2186,-3.2186 -1.0539,-7.8909 3.5288,-8.912 z"
       id="path4059-6"
       inkscape:connector-curvature="0"
       sodipodi:nodetypes="zcccz" />
    <path
       style="color:#000000;display:inline;overflow:visible;visibility:visible;fill:#ffffff;fill-opacity:1;fill-rule:nonzero;stroke:none;stroke-width:1px;marker:none;enable-background:accumulate"
       d="m 1765.5082,2376.4339 c 14.1067,14.7269 5.3775,33.1901 -19.7909,27.1407 -14.6783,6.3004 -44.9557,-2.9669 -12.3378,-32.0291 14.805,-10.9733 35.6221,-12.1201 32.1287,4.8884 z"
       id="path4051-1-3"
       inkscape:connector-curvature="0" />
    <path
       style="color:#000000;display:inline;overflow:visible;visibility:visible;fill:#ffffff;fill-opacity:1;fill-rule:nonzero;stroke:none;stroke-width:1px;marker:none;enable-background:accumulate"
       d="m 1711.546,2326.7541 c 4.5932,-0.973 8.3849,1.2479 11.3349,4.2607 7.7956,-4.0925 29.6952,11.6428 -0.803,19.6712 -11.3607,2.8628 -22.5586,-9.7787 -14.1541,-15.0575 -3.1846,-3.2523 -0.9709,-7.9016 3.6222,-8.8744 z"
       id="path4059-6-7"
       inkscape:connector-curvature="0"
       sodipodi:nodetypes="zcccz" />
  </g>
</svg>
