<?xml version="1.0" encoding="UTF-8" standalone="no"?>
<!-- Created with Inkscape (http://www.inkscape.org/) -->

<svg
   xmlns:dc="http://purl.org/dc/elements/1.1/"
   xmlns:cc="http://creativecommons.org/ns#"
   xmlns:rdf="http://www.w3.org/1999/02/22-rdf-syntax-ns#"
   xmlns:svg="http://www.w3.org/2000/svg"
   xmlns="http://www.w3.org/2000/svg"
   xmlns:xlink="http://www.w3.org/1999/xlink"
   xmlns:sodipodi="http://sodipodi.sourceforge.net/DTD/sodipodi-0.dtd"
   xmlns:inkscape="http://www.inkscape.org/namespaces/inkscape"
   id="svg2"
   version="1.1"
   inkscape:version="0.91 r"
   width="2481"
   height="3503"
   sodipodi:docname="Pepper-and-Carrot_by-David-Revoy_E11P02.svg">
  <metadata
     id="metadata8">
    <rdf:RDF>
      <cc:Work
         rdf:about="">
        <dc:format>image/svg+xml</dc:format>
        <dc:type
           rdf:resource="http://purl.org/dc/dcmitype/StillImage" />
        <dc:title />
      </cc:Work>
    </rdf:RDF>
  </metadata>
  <defs
     id="defs6">
    <filter
       style="color-interpolation-filters:sRGB"
       id="filter4375-4-1-1-1"
       inkscape:label="deevad outline effect">
      <feFlood
         id="feFlood4377-7-9-0-8"
         flood-opacity="1"
         flood-color="rgb(0,0,0)"
         result="flood" />
      <feComposite
         id="feComposite4379-3-8-8-2"
         in2="SourceGraphic"
         in="flood"
         operator="in"
         result="composite1" />
      <feMorphology
         id="feMorphology4393-1-0-49-8"
         operator="dilate"
         radius="4"
         result="result3" />
      <feComposite
         id="feComposite4385-9-5-7-0"
         in2="result3"
         in="SourceGraphic"
         operator="over"
         result="composite2" />
    </filter>
    <filter
       style="color-interpolation-filters:sRGB"
       id="filter4375-4-1-1-1-3"
       inkscape:label="deevad outline effect">
      <feFlood
         id="feFlood4377-7-9-0-8-2"
         flood-opacity="1"
         flood-color="rgb(55,104,53)"
         result="flood" />
      <feComposite
         id="feComposite4379-3-8-8-2-4"
         in2="SourceGraphic"
         in="flood"
         operator="in"
         result="composite1" />
      <feMorphology
         id="feMorphology4393-1-0-49-8-1"
         operator="dilate"
         radius="4"
         result="result3" />
      <feComposite
         id="feComposite4385-9-5-7-0-8"
         in2="result3"
         in="SourceGraphic"
         operator="over"
         result="composite2" />
    </filter>
  </defs>
  <sodipodi:namedview
     pagecolor="#ffffff"
     bordercolor="#666666"
     borderopacity="1"
     objecttolerance="10"
     gridtolerance="10"
     guidetolerance="10"
     inkscape:pageopacity="0"
     inkscape:pageshadow="2"
     inkscape:window-width="1366"
     inkscape:window-height="715"
     id="namedview4"
     showgrid="false"
     inkscape:zoom="0.46000002"
     inkscape:cx="1196.3148"
     inkscape:cy="751.81105"
     inkscape:window-x="-8"
     inkscape:window-y="-8"
     inkscape:window-maximized="1"
     inkscape:current-layer="layer3"
     showguides="false" />
  <g
     inkscape:groupmode="layer"
     id="layer2"
     inkscape:label="artwork"
     sodipodi:insensitive="true">
    <image
       sodipodi:absref="/home/deevad/Production/Webcomics/New/lang/vi/../gfx_Pepper-and-Carrot_by-David-Revoy_E11P02.png"
       xlink:href="../gfx_Pepper-and-Carrot_by-David-Revoy_E11P02.png"
       y="0"
       x="0"
       id="image10"
       height="3503"
       width="2481" />
  </g>
  <g
     inkscape:groupmode="layer"
     id="layer3"
     inkscape:label="speechbubbles">
    <path
       style="fill:#ffffff;fill-opacity:1;stroke:none"
       d="m 126.61957,249.0072 c -7.45535,-100.09905 34.01333,-101.55691 77.96794,-115.20898 45.86295,-14.24479 381.72107,-39.896825 442.27539,27.9192 33.24723,37.23425 31.77464,179.51799 -57.34887,221.2588 -58.57919,27.43544 -285.49697,48.32359 -376.49868,3.19199 C 183.4897,371.52519 137.97779,327.77314 126.61957,249.0072 Z"
       id="path3659"
       inkscape:connector-curvature="0"
       sodipodi:nodetypes="cssssc" />
    <path
       style="fill:#ffffff;fill-opacity:1;stroke:none"
       d="m 909.725,490.21001 c 8.44674,97.04904 -28.96117,135.18619 -79.53267,148.37405 -52.76708,13.76044 -451.94528,44.75718 -521.50462,-21.05201 -38.19143,-36.13238 -87.75986,-191.37051 14.79816,-231.74059 67.40944,-26.53447 376.99736,-32.28821 512.76908,-4.85361 36.874,7.45093 60.50718,32.90032 73.47005,109.27216 z"
       id="path3659-3"
       inkscape:connector-curvature="0"
       sodipodi:nodetypes="cssssc" />
    <path
       style="color:#000000;display:inline;overflow:visible;visibility:visible;fill:#ffffff;fill-opacity:1;fill-rule:nonzero;stroke:none;stroke-width:1px;marker:none;enable-background:accumulate"
       d="m 761.07559,646.74518 c 25.52219,36.37932 81.2177,67.59219 162.75237,28.43753 C 835.89928,694.19852 803.93201,665.07713 788.20123,632.74 772.47053,600.4028 760.91879,587.64973 760.91879,587.64973 Z"
       id="path4440"
       inkscape:connector-curvature="0"
       sodipodi:nodetypes="ccscc" />
    <path
       style="color:#000000;display:inline;overflow:visible;visibility:visible;fill:#ffffff;fill-opacity:1;fill-rule:nonzero;stroke:none;stroke-width:1px;marker:none;enable-background:accumulate"
       d="m 2212.5555,1125.4686 c 31.2445,-19.0795 65.3939,-45.1286 72.8188,-52.0388 -12.6929,-4.9848 -23.0556,-11.472 -31.2287,-16.3975 15.0721,-11.6274 88.769,-61.68327 111.5806,-65.98196 -56.9232,8.44886 -115.9924,42.49156 -138.9231,63.43246 9.6363,8.2294 16.5681,12.0437 21.5327,16.4887 -10.8446,11.026 -54.7604,38.6986 -54.7604,38.6986 z"
       id="path5066"
       inkscape:connector-curvature="0" />
    <path
       style="color:#000000;display:inline;overflow:visible;visibility:visible;fill:#ffffff;fill-opacity:1;fill-rule:nonzero;stroke:none;stroke-width:1px;marker:none;enable-background:accumulate"
       d="m 1961.7428,1271.0909 c 10.3698,-12.3606 78.3192,-47.8623 82.137,0.7246 48.8703,-59.1692 79.4318,-42.0203 120.4846,0.037 5.1116,-41.0197 36.5109,-41.1115 80.5928,-13.7223 -12.3359,-29.8532 14.9365,-28.4203 51.785,-31.7865 -45.0271,-15.4948 -51.53,-27.2591 38.232,-29.7017 -66.328,-8.1574 -127.9722,-17.0355 -42.0381,-48.6168 -24.3052,-3.5505 -88.9762,23.5465 -42.6962,-70.8469 -48.2625,26.6867 -104.6584,11.7789 -148.1526,-59.3916 -11.6554,55.1545 -45.4418,113.6193 -89.5919,56.5989 -28.4431,66.6788 -78.8245,9.7032 -94.2823,-18.4058 6.8392,40.1017 17.1,65.4703 -44.001,61.834 91.3903,62.2584 -3.8341,49.6096 -22.7805,60.9486 76.2364,26.1802 45.383,40.6004 26.8465,61.1039 62.4403,-18.6985 85.1423,2.7269 83.4647,31.2248 z"
       id="path3549-3"
       inkscape:connector-curvature="0"
       sodipodi:nodetypes="cccccccccccccccc" />
    <flowRoot
       transform="matrix(0.90617713,0,-0.22078013,1.6225798,1674.6489,683.70002)"
       style="font-style:normal;font-variant:normal;font-weight:normal;font-stretch:normal;font-size:12px;line-height:125%;font-family:Lavi;-inkscape-font-specification:Lavi;text-align:center;letter-spacing:0px;word-spacing:0px;text-anchor:middle;fill:#000000;fill-opacity:1;stroke:#000000;stroke-width:2.80311931;stroke-miterlimit:4;stroke-dasharray:none;stroke-opacity:1"
       id="flowRoot4212-3-7-8-6"
       xml:space="preserve"><flowRegion
         id="flowRegion4214-6-7-8-3"><rect
           style="font-style:normal;font-variant:normal;font-weight:normal;font-stretch:normal;font-family:Lavi;-inkscape-font-specification:Lavi;text-align:center;text-anchor:middle;stroke:#000000;stroke-width:2.80311931;stroke-miterlimit:4;stroke-dasharray:none;stroke-opacity:1"
           y="265.53046"
           x="120.55251"
           height="355.03918"
           width="798.1947"
           id="rect4216-4-0-26-5" /></flowRegion><flowPara
         style="font-style:normal;font-variant:normal;font-weight:500;font-stretch:normal;font-size:48px;font-family:'Rounded M+ 1c';-inkscape-font-specification:'Rounded M+ 1c Medium';text-align:center;letter-spacing:5.20896292px;text-anchor:middle;stroke:#000000;stroke-width:2.80311931;stroke-miterlimit:4;stroke-dasharray:none;stroke-opacity:1"
         id="flowPara4358-7-1">Im Lặng!</flowPara></flowRoot>    <path
       style="fill:#ffffff;fill-opacity:1;stroke:none"
       d="m 1536.438,827.63771 c 38.3402,8.658 53.25,17.25536 46.5943,22.97307 15.6919,2.34592 23.7801,74.12364 9.558,87.66014 -0.9325,1.40993 -1.5899,2.12904 -4.6835,6.35676 7.5151,-1.20682 20.4396,-1.93554 23.4518,0.75214 3.012,2.68802 -25.0234,42.90311 -21.079,44.18133 3.9445,1.27809 92.8612,-27.42542 105.7342,-21.54202 12.8733,5.88327 9.9923,18.14849 10.4632,22.56279 4.7857,-1.32735 40.5297,-5.17462 44.7807,-3.97662 4.6826,2.26142 18.2047,17.6719 19.2199,21.6343 3.1722,-2.6293 28.7567,-8.66491 30.9537,-9.14168 2.6284,2.07508 6.8245,14.31648 7.4079,18.49148 4.0353,-3.9054 25.8832,-15.2354 28.8311,-14.6228 2.9474,0.6129 17.5563,32.5691 19.6926,36.8515 2.3524,-3.7978 34.9062,-39.0157 37.8108,-39.7863 2.9045,-0.77067 25.2929,39.6517 26.8428,47.0426 3.2758,-6.8558 22.3982,-33.1405 25.346,-32.5277 2.9475,0.6128 22.7286,17.5667 26.0256,20.7586 0.4925,-6.5897 27.9282,-43.67347 31.8296,-43.77866 3.9016,-0.10516 37.6442,17.67626 40.678,21.05576 -0.8499,-7.4654 5.2931,-18.14167 9.1946,-18.24687 3.9015,-0.10515 45.4874,9.00907 50.1091,10.41757 -2.4981,-2.8445 -7.2576,-13.6497 -4.3316,-13.7286 2.9262,-0.0788 42.4017,7.68426 51.1491,12.4663 -3.1191,-9.67771 91.826,9.2937 106.7659,11.6591 -9.0079,-8.9052 -45.6541,-55.53509 -40.9065,-59.81667 4.7479,-4.2817 17.9244,-2.25235 23.366,-2.01455 -6.7454,-6.7034 -11.0729,-10.77773 -8.2332,-13.62342 2.8404,-2.8456 21.2647,-17.51908 38.4772,-18.34396 -11.9137,-8.05479 -11.1805,-14.23638 -11.1805,-14.23638 0,0 50.8351,-16.44858 61.8432,-20.35861 -8.657,-3.34298 -29.8844,-19.2698 -26.1335,-24.21685 3.7509,-4.94704 4.7619,-6.79571 13.3326,-10.74352 -6.2609,-1.73101 -19.7439,-7.0827 -18.8759,-10.56745 0.868,-3.48477 2.7486,-19.764 12.9241,-23.88547 -8.5947,1.4072 -20.5256,-0.83114 -20.6115,-3.59796 -0.087,-2.76668 17.7708,-53.64943 32.4348,-66.47958 -29.8277,13.95726 -50.9156,-14.92228 -83.1026,-14.05448 -32.1873,0.86783 -19.5468,-0.74431 -24.4235,-0.61282 -4.8769,0.13148 -40.9591,1.31276 -45.836,1.44423 -4.8767,0.13147 -6.8403,-0.2324 -10.7419,-0.12721 -3.9011,0.10516 -26.3172,1.2723 -31.194,1.40379 -4.8767,0.13148 -50.7487,0.40958 -57.5764,0.59367 -6.8275,0.18407 -33.1506,1.26894 -39.003,1.42674 -5.8521,0.15778 -10.743,-0.16886 -15.6199,-0.0374 -4.8768,0.13149 -36.0767,1.34786 -40.9535,1.47932 -4.8768,0.1315 -12.7225,-1.05465 -16.6241,-0.94945 -3.9013,0.10516 -17.5125,1.91153 -17.5125,1.91153 0,0 -12.6835,0.21693 -18.5358,0.37471 -5.852,0.1578 -45.8193,1.96483 -50.6961,2.09633 -4.8769,0.13149 -48.1041,1.73741 -45.178,1.65852 2.9262,-0.0788 -42.6024,0.79159 -49.4298,0.97567 -6.8274,0.1841 -19.4877,1.20407 -21.4384,1.25667 -1.9507,0.0526 -15.6145,0.0966 -21.4666,0.25443 -5.8522,0.15781 -19.504,0.63008 -19.504,0.63008 l 1.9545,0.0723 c 0,0 -40.9795,0.6464 -45.8564,0.77788 -4.8767,0.13147 2.9483,0.62909 5.8742,0.55023 -17.5564,0.47332 -69.2701,1.24242 -73.1714,1.34759 -3.9016,0.10516 6.8435,0.33653 12.6957,0.17874 -7.8029,0.21038 -14.6333,0.31125 -14.6333,0.31125 l 22.4493,-0.10505 -6.8265,0.22576 c 0,0 -18.1259,34.28907 -18.0184,37.74753 0.1074,3.45833 -37.8025,8.63415 -37.8025,8.63415 0,0 15.7991,5.80427 12.0052,9.36791 -3.7942,3.56365 -13.4833,5.90169 -13.4833,5.90169 l -1.671,9.04464 z"
       id="path5888"
       inkscape:connector-curvature="0"
       sodipodi:nodetypes="ccccccccccccccccccscscsccscccccccccscscsscccccccssccccccsccccccsccccc" />
    <path
       style="color:#000000;display:inline;overflow:visible;visibility:visible;fill:#ffffff;fill-opacity:1;fill-rule:nonzero;stroke:none;stroke-width:1px;marker:none;enable-background:accumulate"
       d="m 1645.2466,881.89242 c -13.9641,31.64222 -47.0315,92.97319 -58.4788,103.42969 -21.9016,-16.83532 -67.233,-35.37975 -70.1513,-31.16101 -2.9182,4.21879 -13.389,87.8388 -20.8852,89.9025 -7.4962,2.0635 -34.1354,0.2416 -43.4933,-4.6298 28.7475,11.2032 51.3462,17.6477 61.1996,11.5672 6.8904,-3.7469 14.3961,-69.18883 14.6661,-73.72218 22.6435,8.32968 67.3012,30.28538 76.7272,30.06238 9.2475,-7.76373 44.7564,-37.6522 72.5931,-88.86224 27.8366,-51.21011 -32.1774,-36.58654 -32.1774,-36.58654 z"
       id="path5901"
       inkscape:connector-curvature="0"
       sodipodi:nodetypes="ccccccccsc" />
    <path
       style="color:#000000;display:inline;overflow:visible;visibility:visible;fill:#ffffff;fill-opacity:1;fill-rule:nonzero;stroke:none;stroke-width:1px;marker:none;enable-background:accumulate"
       d="m 1114.658,1821.7364 c -91.2283,-62.9886 -159.18422,-107.2113 -244.09745,-102.7556 -84.91309,4.4557 -100.49843,21.9951 -109.53087,27.7757 5.18785,12.9068 23.75593,31.6134 30.75182,34.7014 -22.33894,2.4552 -76.54188,62.7404 -110.47938,56.3411 -64.61909,-12.1847 -273.97666,-3.5558 -101.72794,36.5684 172.24873,40.1242 192.34114,-78.0027 263.45059,-85.6848 -16.89501,-9.5809 -49.34755,-27.5154 -45.74516,-34.2065 3.60245,-6.6909 69.55744,-22.806 102.86379,-16.4917 33.30653,6.3141 121.9893,17.5367 214.5146,83.752 z"
       id="path3923"
       inkscape:connector-curvature="0"
       sodipodi:nodetypes="csccszccsc" />
    <path
       style="fill:#ffffff;fill-rule:evenodd;stroke:none;stroke-width:1px;stroke-linecap:butt;stroke-linejoin:miter;stroke-opacity:1"
       d="m 206.04914,1667.4613 c 1.89036,73.724 51.0397,194.707 109.64083,189.0359 58.60114,-5.6711 34.02647,-28.3554 34.02647,-28.3554 0,0 -83.1758,26.465 -117.20227,-160.6805 -34.02646,-187.1456 -26.46503,0 -26.46503,0 z"
       id="path4413"
       inkscape:connector-curvature="0" />
    <path
       style="fill:#ffffff;stroke:none"
       d="m 1375.5293,3211.3901 c -2.3533,45.6378 35.9791,56.4926 74.9713,63.5302 38.9921,7.0375 160.8041,1.8141 153.1669,-54.1964 -7.6373,-56.0106 -66.3148,-64.673 -115.0016,-62.9624 -48.6871,1.7105 -105.0748,10.4766 -113.1366,53.6286 z"
       id="path3938"
       inkscape:connector-curvature="0"
       sodipodi:nodetypes="csssc" />
    <path
       style="color:#000000;display:inline;overflow:visible;visibility:visible;fill:#ffffff;fill-opacity:1;fill-rule:nonzero;stroke:none;stroke-width:1px;marker:none;enable-background:accumulate"
       d="m 1540.2936,3223.4008 c 69.6255,-26.0651 66.8892,-87.8398 67.0296,-99.678 -16.9624,16.0862 -19.0601,54.2993 -76.9475,76.9629 -25.1607,9.8509 9.9179,22.7151 9.9179,22.7151 z"
       id="path3940"
       inkscape:connector-curvature="0"
       sodipodi:nodetypes="ccsc" />
    <flowRoot
       xml:space="preserve"
       id="flowRoot3056-6"
       style="font-size:12px;font-style:normal;font-variant:normal;font-weight:normal;font-stretch:normal;line-height:125%;letter-spacing:0px;word-spacing:0px;fill:#000000;fill-opacity:1;stroke:none;font-family:Arial;-inkscape-font-specification:Arial"
       transform="matrix(0.92403899,-0.0431397,-0.21669727,0.91096764,408.69829,2651.2462)"><flowRegion
         id="flowRegion3058-8"><rect
           id="rect3060-0"
           width="343.2529"
           height="151.69978"
           x="1244.4525"
           y="652.80212" /></flowRegion><flowPara
         id="flowPara3062-10"
         style="font-size:48px;font-style:normal;font-variant:normal;font-weight:normal;font-stretch:normal;font-family:Lavi;-inkscape-font-specification:Lavi">Ta-daaa!</flowPara></flowRoot>    <path
       style="fill:#ffffff;stroke:none"
       d="m 78.821591,2834.7275 c -43.682454,-234.2262 51.371099,-161.1802 343.923219,-168.1971 228.76059,-5.487 350.7599,47.6171 354.98851,156.2189 4.09585,105.1923 -97.19167,190.4218 -311.9735,192.8175 -214.78186,2.3955 -385.264828,-26.7646 -386.938229,-180.8393 z"
       id="path3270"
       inkscape:connector-curvature="0"
       sodipodi:nodetypes="csssc" />
    <path
       style="fill:#ffffff;stroke:none"
       d="m 740.22487,3021.0768 c -63.31546,24.471 -150.43401,11.8981 -179.52399,-58.4059 -17.62562,-42.5973 -22.73968,-69.8786 -22.73968,-69.8786 l -34.70784,34.4178 16.75558,49.0193 c 0,0 76.59683,114.726 220.21593,44.8474 z"
       id="path3063"
       inkscape:connector-curvature="0"
       sodipodi:nodetypes="cscccc" />
    <path
       style="color:#000000;display:inline;overflow:visible;visibility:visible;fill:#ffffff;fill-opacity:1;fill-rule:nonzero;stroke:none;stroke-width:1px;marker:none;enable-background:accumulate"
       d="m 173.15352,1753.3211 c 9.64929,6.0205 24.74767,4.8162 16.56238,-11.1072 14.5347,8.4642 18.81516,10.1675 12.45235,-4.5696 11.10024,7.7242 23.1717,8.6228 21.48364,-8.8399 31.76028,19.5952 126.6584,5.5215 167.04649,7.783 40.38808,2.2612 148.70171,0.4523 159.71664,0 11.01496,-0.4522 95.46264,0 102.80608,0 7.34323,0 36.71637,4.9748 45.89545,7.6882 13.76857,-3.618 30.78003,-13.5887 30.78003,-13.5887 0,0 0.4288,26.7043 3.18257,28.0611 2.75378,1.3568 15.9096,-1.6007 23.993,-2.7186 -5.34743,4.5138 -23.993,18.5477 -21.23922,18.9998 2.75359,0.4524 22.22566,1.5976 29.68712,2.2801 -5.96902,2.8593 -22.34387,15.358 -21.42615,15.8104 12.69552,14.7287 20.12727,12.0199 30.77309,8.6692 -5.09316,7.8276 -17.82452,12.4988 -20.29856,16.6272 1.78064,4.0788 3.96088,5.9417 13.76852,14.9246 -11.10974,-6.0018 -13.53002,-1.8527 -16.33507,1.9567 1.28817,9.5018 3.58908,19.293 2.06931,35.3744 -1.79429,18.9861 -3.53116,38.3123 -11.79243,48.2619 4.58966,4.5225 9.85381,12.7204 17.61036,16.0513 -7.18614,1.2455 -15.79522,12.3547 -14.8771,14.6157 0.91794,2.2615 7.25742,10.7555 17.17653,15.1011 -9.42472,0.4275 -16.35712,1.7851 -21.86449,4.0463 -0.9183,3.6181 5.6059,12.8048 7.30281,20.0117 -4.91187,-2.8429 -29.71797,-11.5654 -33.82366,-12.0234 -1.52685,1.9265 -2.69129,9.879 -1.47778,19.8055 -146.37067,-50.4249 -460.74559,-13.3311 -479.00079,-11.7515 -8.26116,0 -22.80146,0.8452 -38.09597,10.7904 9.7556,-13.7032 13.35844,-24.1935 13.35844,-24.1935 0,0 -21.87299,-2.1789 -35.58032,1.7626 9.54757,-7.4632 15.15509,-15.3028 14.23715,-16.6596 -0.91792,-1.3567 -16.95561,-1.8688 -29.14421,1.2958 4.72079,-4.7202 21.79255,-15.5168 20.87462,-17.778 -9.49374,0.4964 -35.19393,-35.1807 -20.50746,-141.009 -0.65823,-9.3195 -7.37838,-14.8008 -19.36787,-19.8503 20.43833,-5.3111 49.05827,-8.2689 34.0545,-25.8277 z"
       id="path3915"
       inkscape:connector-curvature="0"
       sodipodi:nodetypes="ccccsssccsccccccccscccccccccccccccccc" />
    <path
       style="color:#000000;display:inline;overflow:visible;visibility:visible;fill:#ffffff;fill-opacity:1;fill-rule:nonzero;stroke:none;stroke-width:1px;marker:none;enable-background:accumulate"
       d="m 644.56534,1699.1365 c -9.8613,-6.1462 -25.22244,-4.7964 -16.78706,11.5817 -14.85014,-8.634 -19.21837,-10.3619 -12.64582,4.8046 -11.34933,-7.8943 -23.64296,-8.7367 -21.81124,9.2762 -32.45671,-20.0015 -128.9641,-4.8044 -170.09068,-6.8534 -41.12655,-2.0486 -151.36952,0.5837 -162.57891,1.1284 -11.20942,0.5445 -97.17341,0.6743 -104.64846,0.7262 -7.47482,0.051 -37.40667,-4.8756 -46.76786,-7.6114 -13.991815,3.8317 -31.243405,14.2435 -31.243405,14.2435 0,0 -0.609879,-27.5608 -3.421812,-28.9418 -2.811953,-1.381 -16.184318,1.7645 -24.40532,2.9756 5.413935,-4.6969 24.302528,-19.3142 21.496461,-19.7614 -2.805878,-0.4475 -22.634338,-1.492 -30.233948,-2.1437 6.057419,-2.9935 22.644561,-16.0101 21.707455,-16.4707 -13.018681,-15.1131 -20.566022,-12.2645 -31.380838,-8.7309 5.133597,-8.1155 18.062761,-13.027 20.554333,-17.3057 -6.230347,-3.8307 -16.018644,-12.2089 -14.112181,-15.3077 1.90635,-3.0984 14.736543,3.4914 24.494328,3.1902 -2.897626,-2.7266 -20.98776,-11.6992 -7.694243,-40.1599 8.22566,-17.6109 0.824561,-41.2341 9.169268,-51.5622 -4.701275,-4.6358 -10.113001,-13.0603 -18.030178,-16.4436 7.30683,-1.3364 15.998052,-12.8639 15.048796,-15.1913 -0.949078,-2.3278 -7.457335,-11.0504 -17.582413,-15.4658 9.590837,-0.5078 16.638659,-1.958 22.230046,-4.3309 0.911264,-3.7411 -5.789511,-13.1774 -7.56364,-20.6043 5.018353,2.8998 30.325643,11.7277 34.507891,12.1714 1.541701,-1.9993 2.675369,-10.2159 1.375649,-20.4533 149.321221,51.0138 469.089161,10.5052 487.661241,8.7458 8.40922,-0.058 23.2046,-1.0335 38.70863,-11.4068 -9.84145,14.2131 -13.44075,25.0665 -13.44075,25.0665 0,0 22.27913,2.0945 36.20652,-2.0706 -9.6702,7.7709 -15.32731,15.9023 -14.38411,17.2963 0.94318,1.394 17.27161,1.8093 29.65809,-1.5434 -4.77474,4.9054 -22.08233,16.1702 -21.13326,18.4977 9.66065,-0.5794 36.05308,36.0644 21.79065,145.4027 0.73054,9.6148 7.60671,15.225 19.84386,20.3523 -20.77012,5.6265 -49.88375,8.8816 -34.49709,26.8997 z"
       id="path3915-2"
       inkscape:connector-curvature="0"
       sodipodi:nodetypes="ccccsssccsccccccccscccccccccccccccccc" />
  </g>
  <g
     inkscape:groupmode="layer"
     id="layer1"
     inkscape:label="txt">
    <flowRoot
       xml:space="preserve"
       id="flowRoot2987-4-9-3"
       style="font-style:normal;font-variant:normal;font-weight:normal;font-stretch:normal;font-size:12px;line-height:125%;font-family:Lavi;-inkscape-font-specification:Lavi;text-align:center;letter-spacing:0px;word-spacing:0px;text-anchor:middle;fill:#000000;fill-opacity:1;stroke:none"
       transform="translate(43.571068,-104.62011)"><flowRegion
         id="flowRegion2989-5-4-5"><rect
           id="rect2991-7-9-6"
           width="468.18622"
           height="276.71347"
           x="120.55251"
           y="265.53046"
           style="font-style:normal;font-variant:normal;font-weight:normal;font-stretch:normal;font-family:Lavi;-inkscape-font-specification:Lavi;text-align:center;text-anchor:middle" /></flowRegion><flowPara
         style="font-style:normal;font-variant:normal;font-weight:500;font-stretch:normal;font-size:45px;font-family:'Rounded M+ 1c';-inkscape-font-specification:'Rounded M+ 1c Medium';text-align:center;text-anchor:middle"
         id="flowPara3030-8">Hạt tiêu, con rất tài năng, và con cũng là người nối dõng chúng ta.</flowPara></flowRoot>    <flowRoot
       xml:space="preserve"
       id="flowRoot2987-4-9-3-5"
       style="font-style:normal;font-variant:normal;font-weight:normal;font-stretch:normal;font-size:12px;line-height:125%;font-family:Lavi;-inkscape-font-specification:Lavi;text-align:center;letter-spacing:0px;word-spacing:0px;text-anchor:middle;fill:#000000;fill-opacity:1;stroke:none"
       transform="translate(205.47778,135.17386)"><flowRegion
         id="flowRegion2989-5-4-5-8"><rect
           id="rect2991-7-9-6-5"
           width="541.28259"
           height="300.8559"
           x="120.55251"
           y="265.53046"
           style="font-style:normal;font-variant:normal;font-weight:normal;font-stretch:normal;font-family:Lavi;-inkscape-font-specification:Lavi;text-align:center;text-anchor:middle" /></flowRegion><flowPara
         style="font-style:normal;font-variant:normal;font-weight:500;font-stretch:normal;font-size:45px;font-family:'Rounded M+ 1c';-inkscape-font-specification:'Rounded M+ 1c Medium';text-align:center;text-anchor:middle"
         id="flowPara3030-8-1">Nhiệm vụ của chúng ta là làm cho con trở thành một phù thủy đáng sợ, xứng đáng với Chaosah.</flowPara></flowRoot>    <flowRoot
       xml:space="preserve"
       id="flowRoot2987-4-9-3-5-9"
       style="font-style:normal;font-variant:normal;font-weight:normal;font-stretch:normal;font-size:12px;line-height:125%;font-family:Lavi;-inkscape-font-specification:Lavi;text-align:center;letter-spacing:0px;word-spacing:0px;text-anchor:middle;fill:#000000;fill-opacity:1;stroke:none"
       transform="translate(1505.8735,526.25598)"><flowRegion
         id="flowRegion2989-5-4-5-8-9"><rect
           id="rect2991-7-9-6-5-7"
           width="588.97278"
           height="211.16568"
           x="120.55251"
           y="265.53046"
           style="font-style:normal;font-variant:normal;font-weight:normal;font-stretch:normal;font-family:Lavi;-inkscape-font-specification:Lavi;text-align:center;text-anchor:middle" /></flowRegion><flowPara
         style="font-style:normal;font-variant:normal;font-weight:500;font-stretch:normal;font-size:45px;font-family:'Rounded M+ 1c';-inkscape-font-specification:'Rounded M+ 1c Medium';text-align:center;text-anchor:middle"
         id="flowPara3030-8-1-8">Nhưng... Con không muốn trở nên đáng sợ. điều... điều nó ngược lại với mọi...</flowPara></flowRoot>    <flowRoot
       xml:space="preserve"
       id="flowRoot2987-4-9-3-5-9-8"
       style="font-style:normal;font-variant:normal;font-weight:normal;font-stretch:normal;font-size:12px;line-height:125%;font-family:Lavi;-inkscape-font-specification:Lavi;text-align:center;letter-spacing:0px;word-spacing:0px;text-anchor:middle;fill:#000000;fill-opacity:1;stroke:none"
       transform="translate(-24.873741,1269.1132)"><flowRegion
         id="flowRegion2989-5-4-5-8-9-5"><rect
           id="rect2991-7-9-6-5-7-5"
           width="568.84778"
           height="193.91568"
           x="120.55251"
           y="265.53046"
           style="font-style:normal;font-variant:normal;font-weight:normal;font-stretch:normal;font-family:Lavi;-inkscape-font-specification:Lavi;text-align:center;text-anchor:middle" /></flowRegion><flowPara
         style="font-style:normal;font-variant:normal;font-weight:500;font-stretch:normal;font-size:45px;font-family:'Rounded M+ 1c';-inkscape-font-specification:'Rounded M+ 1c Medium';text-align:center;text-anchor:middle"
         id="flowPara3348">... không là ta sẽ thu hồi hết phép thuật của con đó!</flowPara></flowRoot>    <flowRoot
       xml:space="preserve"
       id="flowRoot2987-4-9-3-5-9-8-3"
       style="font-style:normal;font-variant:normal;font-weight:normal;font-stretch:normal;font-size:12px;line-height:125%;font-family:Lavi;-inkscape-font-specification:Lavi;text-align:center;letter-spacing:0px;word-spacing:0px;text-anchor:middle;fill:#000000;fill-opacity:1;stroke:none"
       transform="translate(82.726414,1510.2371)"><flowRegion
         id="flowRegion2989-5-4-5-8-9-5-4"><rect
           id="rect2991-7-9-6-5-7-5-4"
           width="525.72278"
           height="228.41568"
           x="114.80251"
           y="256.90546"
           style="font-style:normal;font-variant:normal;font-weight:normal;font-stretch:normal;font-family:Lavi;-inkscape-font-specification:Lavi;text-align:center;text-anchor:middle"
           ry="0" /></flowRegion><flowPara
         style="font-style:normal;font-variant:normal;font-weight:500;font-stretch:normal;font-size:45px;font-family:'Rounded M+ 1c';-inkscape-font-specification:'Rounded M+ 1c Medium';text-align:center;text-anchor:middle"
         id="flowPara3030-8-1-8-7-8">và con sẽ trở lại thành một đứa mồ côi và vô dụng  của Squirrel's End.</flowPara></flowRoot>    <flowRoot
       xml:space="preserve"
       id="flowRoot2987-4-9-3-5-9-8-3-5"
       style="font-style:normal;font-variant:normal;font-weight:normal;font-stretch:normal;font-size:12px;line-height:125%;font-family:Lavi;-inkscape-font-specification:Lavi;text-align:center;letter-spacing:0px;word-spacing:0px;text-anchor:middle;fill:#000000;fill-opacity:1;stroke:none"
       transform="translate(24.355213,2469.2102)"><flowRegion
         id="flowRegion2989-5-4-5-8-9-5-4-2"><rect
           id="rect2991-7-9-6-5-7-5-4-9"
           width="575.34778"
           height="290.04071"
           x="120.55251"
           y="265.53046"
           style="font-style:normal;font-variant:normal;font-weight:normal;font-stretch:normal;font-family:Lavi;-inkscape-font-specification:Lavi;text-align:center;text-anchor:middle" /></flowRegion><flowPara
         style="font-style:normal;font-variant:normal;font-weight:500;font-stretch:normal;font-size:45px;font-family:'Rounded M+ 1c';-inkscape-font-specification:'Rounded M+ 1c Medium';text-align:center;text-anchor:middle"
         id="flowPara3030-8-1-8-7-8-3">Cumin sẽ theo sát con từ bây giờ để giúp con tập luyện và báo lại cho chúng ta sự tiến triển của con.</flowPara></flowRoot>    <text
       xml:space="preserve"
       style="font-style:normal;font-weight:normal;font-size:40px;line-height:125%;font-family:sans-serif;letter-spacing:0px;word-spacing:0px;fill:#000000;fill-opacity:1;stroke:none;stroke-width:1px;stroke-linecap:butt;stroke-linejoin:miter;stroke-opacity:1"
       x="603.75"
       y="2942.375"
       id="text3395"
       sodipodi:linespacing="125%"><tspan
         sodipodi:role="line"
         id="tspan3397"
         x="603.75"
         y="2942.375" /></text>
    <flowRoot
       xml:space="preserve"
       id="flowRoot2987-7-9-9-7-0-3-4-1"
       style="font-style:normal;font-variant:normal;font-weight:normal;font-stretch:normal;font-size:12px;line-height:125%;font-family:Lavi;-inkscape-font-specification:Lavi;letter-spacing:0px;word-spacing:0px;fill:#000000;fill-opacity:1;stroke:#000000;stroke-width:0.99236238;stroke-miterlimit:4;stroke-dasharray:none;stroke-opacity:1;filter:url(#filter4375-4-1-1-1-3)"
       transform="matrix(1.1967542,-0.56289093,0.22908574,2.2717035,1801.1466,2620.5927)"><flowRegion
         id="flowRegion2989-4-5-8-7-41-7-62-2"
         style="stroke-width:5.40286207"><rect
           id="rect2991-45-1-3-3-8-0-4-6"
           width="319.66232"
           height="53.089447"
           x="120.55251"
           y="265.53046"
           style="font-style:normal;font-variant:normal;font-weight:normal;font-stretch:normal;font-family:Lavi;-inkscape-font-specification:Lavi;fill:#000000;fill-opacity:1;stroke:#000000;stroke-width:0.99236238;stroke-miterlimit:4;stroke-dasharray:none;stroke-opacity:1" /></flowRegion><flowPara
         id="flowPara2995-4-1-5-0-7-2-6-4"
         style="font-weight:normal;font-size:48px;-inkscape-font-specification:Lavi;letter-spacing:7.06853437px;fill:#ffffff;fill-opacity:1;stroke:#ffffff;stroke-width:0.99236238;stroke-linejoin:miter;stroke-miterlimit:4;stroke-dasharray:none;stroke-opacity:1">Poof!</flowPara></flowRoot>  </g>
</svg>
