<?xml version="1.0" encoding="UTF-8" standalone="no"?>
<!-- Created with Inkscape (http://www.inkscape.org/) -->

<svg
   xmlns:dc="http://purl.org/dc/elements/1.1/"
   xmlns:cc="http://creativecommons.org/ns#"
   xmlns:rdf="http://www.w3.org/1999/02/22-rdf-syntax-ns#"
   xmlns:svg="http://www.w3.org/2000/svg"
   xmlns="http://www.w3.org/2000/svg"
   xmlns:xlink="http://www.w3.org/1999/xlink"
   xmlns:sodipodi="http://sodipodi.sourceforge.net/DTD/sodipodi-0.dtd"
   xmlns:inkscape="http://www.inkscape.org/namespaces/inkscape"
   id="svg2"
   version="1.1"
   inkscape:version="0.91 r"
   width="2481"
   height="3503"
   sodipodi:docname="Pepper-and-Carrot_by-David-Revoy_E11P05.svg">
  <metadata
     id="metadata8">
    <rdf:RDF>
      <cc:Work
         rdf:about="">
        <dc:format>image/svg+xml</dc:format>
        <dc:type
           rdf:resource="http://purl.org/dc/dcmitype/StillImage" />
        <dc:title />
      </cc:Work>
    </rdf:RDF>
  </metadata>
  <defs
     id="defs6">
    <filter
       style="color-interpolation-filters:sRGB"
       id="filter4375-4-1-1"
       inkscape:label="deevad outline effect">
      <feFlood
         id="feFlood4377-7-9-0"
         flood-opacity="1"
         flood-color="rgb(0,0,0)"
         result="flood" />
      <feComposite
         id="feComposite4379-3-8-8"
         in2="SourceGraphic"
         in="flood"
         operator="in"
         result="composite1" />
      <feMorphology
         id="feMorphology4393-1-0-49"
         operator="dilate"
         radius="4"
         result="result3" />
      <feComposite
         id="feComposite4385-9-5-7"
         in2="result3"
         in="SourceGraphic"
         operator="over"
         result="composite2" />
    </filter>
    <filter
       style="color-interpolation-filters:sRGB"
       id="filter4375-4-1-1-9"
       inkscape:label="deevad outline effect">
      <feFlood
         id="feFlood4377-7-9-0-2"
         flood-opacity="1"
         flood-color="rgb(0,0,0)"
         result="flood" />
      <feComposite
         id="feComposite4379-3-8-8-5"
         in2="SourceGraphic"
         in="flood"
         operator="in"
         result="composite1" />
      <feMorphology
         id="feMorphology4393-1-0-49-5"
         operator="dilate"
         radius="4"
         result="result3" />
      <feComposite
         id="feComposite4385-9-5-7-5"
         in2="result3"
         in="SourceGraphic"
         operator="over"
         result="composite2" />
    </filter>
    <filter
       style="color-interpolation-filters:sRGB"
       id="filter4375-4-1-1-5"
       inkscape:label="deevad outline effect">
      <feFlood
         id="feFlood4377-7-9-0-6"
         flood-opacity="1"
         flood-color="rgb(118,29,43)"
         result="flood" />
      <feComposite
         id="feComposite4379-3-8-8-2"
         in2="SourceGraphic"
         in="flood"
         operator="in"
         result="composite1" />
      <feMorphology
         id="feMorphology4393-1-0-49-4"
         operator="dilate"
         radius="4"
         result="result3" />
      <feComposite
         id="feComposite4385-9-5-7-8"
         in2="result3"
         in="SourceGraphic"
         operator="over"
         result="composite2" />
    </filter>
  </defs>
  <sodipodi:namedview
     pagecolor="#ffffff"
     bordercolor="#666666"
     borderopacity="1"
     objecttolerance="10"
     gridtolerance="10"
     guidetolerance="10"
     inkscape:pageopacity="0"
     inkscape:pageshadow="2"
     inkscape:window-width="1366"
     inkscape:window-height="715"
     id="namedview4"
     showgrid="false"
     inkscape:zoom="0.40000001"
     inkscape:cx="1260.6801"
     inkscape:cy="1489.2185"
     inkscape:window-x="-8"
     inkscape:window-y="-8"
     inkscape:window-maximized="1"
     inkscape:current-layer="layer1" />
  <g
     inkscape:groupmode="layer"
     id="layer2"
     inkscape:label="artwork"
     sodipodi:insensitive="true">
    <image
       sodipodi:absref="/home/deevad/Production/Webcomics/New/lang/vi/../gfx_Pepper-and-Carrot_by-David-Revoy_E11P05.png"
       xlink:href="../gfx_Pepper-and-Carrot_by-David-Revoy_E11P05.png"
       width="2481"
       height="3503"
       id="image10"
       x="0"
       y="0" />
  </g>
  <g
     inkscape:groupmode="layer"
     id="layer3"
     inkscape:label="speechbubbles" />
  <g
     inkscape:groupmode="layer"
     id="layer1"
     inkscape:label="txt">
    <path
       style="color:#000000;display:inline;overflow:visible;visibility:visible;fill:#ffffff;fill-opacity:1;fill-rule:nonzero;stroke:none;stroke-width:1px;marker:none;enable-background:accumulate"
       d="m 1304.7955,1018.5883 c -10.2588,0.7092 -19.3773,3.8 -25.1305,9.0502 -15.3411,-14.5164 -36.3203,1.4617 -38.2215,4.7809 -19.1438,-7.8775 -45.895,-2.4766 -56.3851,5.5121 -25.4373,-11.6391 -79.4597,5.9786 -78.0181,30.0106 -29.3064,17.2394 -30.8809,37.6858 -21.965,50.1441 -22.4879,14.1854 -34.1594,80.2842 29.5001,87.1422 17.8321,24.9168 66.3471,36.0923 88.8347,21.9068 30.7482,6.7928 50.0229,12.9646 57.6285,-0.313 12.4477,11.7787 40.7775,14.2739 44.997,1.6744 22.1198,12.2921 52.5954,15.5392 69.0868,5.1362 30.7481,6.7928 50.023,12.9667 57.6287,-0.3111 15.3405,14.5163 41.1312,18.0179 54.8292,-0.5019 26.3759,9.2279 30.4693,3.264 48.1625,-6.5422 29.5747,19.2053 56.301,10.5731 67.2851,-6.1505 41.7203,8.1215 48.6544,-20.8525 46.6681,-31.7205 36.6974,-10.5402 46.9868,-36.5516 19.8005,-58.6558 8.6553,-26.9094 -3.7362,-58.3748 -58.6759,-71.6064 -13.177,-21.2433 -58.0203,-37.3529 -88.9657,-20.2022 -21.7658,-16.5738 -56.3157,-16.7278 -70.4778,-3.804 -11.0134,-10.4216 -24.8967,-5.1259 -32.5768,-0.081 -19.6031,-10.4838 -47.4066,-14.3928 -68.6579,-2.6147 -12.9234,-9.8408 -30.3528,-13.8914 -45.3469,-12.8543 z"
       id="path4043"
       inkscape:connector-curvature="0"
       sodipodi:nodetypes="ccccccccccccccccccccccc" />
    <flowRoot
       xml:space="preserve"
       id="flowRoot2987-4-9-3-5-9-8-3-5-4-0-5-5"
       style="font-style:normal;font-variant:normal;font-weight:normal;font-stretch:normal;font-size:12px;line-height:125%;font-family:Lavi;-inkscape-font-specification:Lavi;text-align:center;letter-spacing:0px;word-spacing:0px;text-anchor:middle;fill:#000000;fill-opacity:1;stroke:none"
       transform="translate(1004.5148,822.78429)"><flowRegion
         id="flowRegion2989-5-4-5-8-9-5-4-2-2-5-0-8"><rect
           id="rect2991-7-9-6-5-7-5-4-9-5-4-3-2"
           width="506.77686"
           height="303.51752"
           x="120.55251"
           y="265.53046"
           style="font-style:normal;font-variant:normal;font-weight:normal;font-stretch:normal;font-family:Lavi;-inkscape-font-specification:Lavi;text-align:center;text-anchor:middle" /></flowRegion><flowPara
         style="font-size:45px;text-align:center;text-anchor:middle;-inkscape-font-specification:'Rounded M+ 1c Medium';font-family:'Rounded M+ 1c';font-weight:500;font-style:normal;font-stretch:normal;font-variant:normal"
         id="flowPara4272-0">Ngài và tôi, chúng ta có một số điểm chung...</flowPara></flowRoot>    <path
       style="color:#000000;display:inline;overflow:visible;visibility:visible;fill:#ffffff;fill-opacity:1;fill-rule:nonzero;stroke:none;stroke-width:1px;marker:none;enable-background:accumulate"
       d="m 921.87678,2375.7845 c 5.63697,-0.5176 10.62151,-2.3865 13.73214,-5.4552 8.59189,8.1455 19.96758,-1.2315 20.97895,-3.1528 10.61492,4.3028 25.27651,0.9197 30.96469,-3.7686 14.11684,6.3882 43.65524,-4.2865 42.61144,-18.0317 15.9439,-10.1899 16.5968,-21.9146 11.5614,-28.9515 12.2244,-8.3668 17.9559,-46.3421 -17.1401,-49.5776 -10.071,-14.0737 -36.87982,-19.9459 -49.10412,-11.5788 -16.98823,-3.5557 -27.65732,-6.8803 -31.70327,0.8052 -6.97148,-6.6095 -22.58417,-7.7304 -24.77411,-0.4701 -12.29844,-6.7982 -29.09951,-8.3265 -38.06426,-2.1906 -16.98812,-3.5555 -27.65734,-6.8814 -31.70328,0.8042 -8.59166,-8.1454 -22.81793,-9.8704 -30.161,0.8829 -14.60794,-4.9974 -16.79784,-1.538 -26.43005,4.2692 -16.47204,-10.6757 -31.08637,-5.4426 -36.95512,4.2528 -23.03873,-4.1973 -26.55138,12.4687 -25.345,18.6702 -20.08045,6.434 -25.47009,21.44 -10.28189,33.8017 -4.48114,15.5024 2.66493,33.3851 33.03004,40.3648 7.47149,12.021 32.31186,20.7583 49.15865,10.6015 12.14814,9.2538 31.15865,8.9666 38.81547,1.4127 6.16828,5.8477 13.75135,2.6646 17.92414,-0.3076 10.89487,5.7901 26.23275,7.7264 37.80193,0.7514 7.21302,5.4945 16.84473,7.6246 25.08335,6.8679 z"
       id="path4043-4"
       inkscape:connector-curvature="0"
       sodipodi:nodetypes="ccccccccccccccccccccccc" />
    <flowRoot
       xml:space="preserve"
       id="flowRoot2987-4-9-3-5-9-8-3-5-4-0-5-5-7"
       style="font-style:normal;font-variant:normal;font-weight:normal;font-stretch:normal;font-size:12px;line-height:125%;font-family:Lavi;-inkscape-font-specification:Lavi;text-align:center;letter-spacing:0px;word-spacing:0px;text-anchor:middle;fill:#000000;fill-opacity:1;stroke:none"
       transform="translate(526.87792,2012.1239)"><flowRegion
         id="flowRegion2989-5-4-5-8-9-5-4-2-2-5-0-8-9"><rect
           id="rect2991-7-9-6-5-7-5-4-9-5-4-3-2-2"
           width="493.73337"
           height="314.38708"
           x="120.55251"
           y="265.53046"
           style="font-style:normal;font-variant:normal;font-weight:normal;font-stretch:normal;font-family:Lavi;-inkscape-font-specification:Lavi;text-align:center;text-anchor:middle" /></flowRegion><flowPara
         style="font-size:45px;text-align:center;text-anchor:middle;-inkscape-font-specification:'Rounded M+ 1c Medium';font-family:'Rounded M+ 1c';font-weight:500;font-style:normal;font-stretch:normal;font-variant:normal"
         id="flowPara4272-0-7">trẻ tuổi...</flowPara></flowRoot>    <path
       style="color:#000000;display:inline;overflow:visible;visibility:visible;fill:#ffffff;fill-opacity:1;fill-rule:nonzero;stroke:none;stroke-width:1px;marker:none;enable-background:accumulate"
       d="m 1063.1005,2467.0345 c 4.7661,-0.5176 8.9805,-2.3865 11.6107,-5.4552 7.2646,8.1455 16.8829,-1.2315 17.7379,-3.1528 8.9751,4.3028 21.3716,0.9197 26.1811,-3.7686 11.936,6.3882 36.9111,-4.2865 36.0285,-18.0317 13.4808,-10.1899 14.0328,-21.9146 9.7753,-28.9515 10.3359,-8.3668 15.1819,-46.3421 -14.4922,-49.5776 -8.5151,-14.0737 -31.1823,-19.9459 -41.5181,-11.5788 -14.3638,-3.5557 -23.3847,-6.8803 -26.8055,0.8052 -5.8945,-6.6095 -19.0952,-7.7304 -20.9468,-0.4701 -10.3985,-6.7982 -24.6041,-8.3265 -32.1838,-2.1906 -14.3637,-3.5555 -23.3847,-6.8814 -26.8056,0.8042 -7.2643,-8.1454 -19.2928,-9.8704 -25.50147,0.8829 -12.35119,-4.9974 -14.20278,-1.538 -22.34693,4.2692 -13.92732,-10.6757 -26.28391,-5.4426 -31.24602,4.2528 -19.47953,-4.1973 -22.44952,12.4687 -21.42951,18.6702 -16.97827,6.434 -21.53528,21.44 -8.69347,33.8017 -3.78886,15.5024 2.25324,33.3851 27.92731,40.3648 6.31724,12.021 27.32008,20.7583 41.56425,10.6015 10.2714,9.2538 26.34503,8.9666 32.81898,1.4127 5.21535,5.8477 11.62696,2.6646 15.15506,-0.3076 9.2118,5.7901 22.1801,7.7264 31.962,0.7514 6.0987,5.4945 14.2424,7.6246 21.2083,6.8679 z"
       id="path4043-4-9"
       inkscape:connector-curvature="0"
       sodipodi:nodetypes="ccccccccccccccccccccccc" />
    <flowRoot
       xml:space="preserve"
       id="flowRoot2987-4-9-3-5-9-8-3-5-4-0-5-5-7-1"
       style="font-style:normal;font-variant:normal;font-weight:normal;font-stretch:normal;font-size:12px;line-height:125%;font-family:Lavi;-inkscape-font-specification:Lavi;text-align:center;letter-spacing:0px;word-spacing:0px;text-anchor:middle;fill:#000000;fill-opacity:1;stroke:none"
       transform="translate(676.11252,2111.665)"><flowRegion
         id="flowRegion2989-5-4-5-8-9-5-4-2-2-5-0-8-9-8"><rect
           id="rect2991-7-9-6-5-7-5-4-9-5-4-3-2-2-3"
           width="493.73337"
           height="314.38708"
           x="120.55251"
           y="265.53046"
           style="font-style:normal;font-variant:normal;font-weight:normal;font-stretch:normal;font-family:Lavi;-inkscape-font-specification:Lavi;text-align:center;text-anchor:middle" /></flowRegion><flowPara
         style="font-size:45px;text-align:center;text-anchor:middle;-inkscape-font-specification:'Rounded M+ 1c Medium';font-family:'Rounded M+ 1c';font-weight:500;font-style:normal;font-stretch:normal;font-variant:normal"
         id="flowPara4272-0-7-7">cô đơn...</flowPara></flowRoot>    <path
       style="color:#000000;display:inline;overflow:visible;visibility:visible;fill:#ffffff;fill-opacity:1;fill-rule:nonzero;stroke:none;stroke-width:1px;marker:none;enable-background:accumulate"
       d="m 1748.0644,2610.0683 c 9.1654,-0.7792 17.27,-3.5922 22.3276,-8.2113 13.9699,12.2606 32.466,-1.8536 34.1103,-4.7453 17.2591,6.4764 41.0977,1.3841 50.3465,-5.6727 22.953,9.6156 70.9804,-6.4518 69.2832,-27.1408 25.9238,-15.3377 26.9853,-32.9855 18.798,-43.5775 19.8761,-12.5935 29.1952,-69.7532 -27.8686,-74.6233 -16.3747,-21.1835 -59.9638,-30.0222 -79.8398,-17.4282 -27.6219,-5.3519 -44.969,-10.3562 -51.5472,1.212 -11.335,-9.9485 -36.7203,-11.6358 -40.281,-0.7077 -19.9968,-10.2324 -47.3138,-12.5328 -61.8901,-3.2972 -27.6214,-5.3517 -44.9689,-10.3578 -51.5473,1.2104 -13.9692,-12.2602 -37.1002,-14.8567 -49.0397,1.3291 -23.7514,-7.5222 -27.312,-2.315 -42.9736,6.4259 -26.7821,-16.0689 -50.544,-8.1923 -60.0862,6.4012 -37.4594,-6.3177 -43.1706,18.7677 -41.2094,28.1021 -32.6491,9.6844 -41.4124,32.2711 -16.7174,50.8778 -7.286,23.3339 4.333,50.2507 53.7044,60.7563 12.1483,18.0939 52.5368,31.245 79.9287,15.9573 19.7518,13.9287 50.6616,13.4964 63.1114,2.1263 10.029,8.8019 22.3587,4.0109 29.1432,-0.4628 17.7143,8.7151 42.6527,11.6294 61.4635,1.1309 11.7278,8.2703 27.3882,11.4764 40.7835,10.3375 z"
       id="path4043-4-9-1"
       inkscape:connector-curvature="0"
       sodipodi:nodetypes="ccccccccccccccccccccccc" />
    <flowRoot
       xml:space="preserve"
       id="flowRoot2987-4-9-3-5-9-8-3-5-4-0-5-5-7-1-9"
       style="font-style:normal;font-variant:normal;font-weight:normal;font-stretch:normal;font-size:12px;line-height:125%;font-family:Lavi;-inkscape-font-specification:Lavi;text-align:center;letter-spacing:0px;word-spacing:0px;text-anchor:middle;fill:#000000;fill-opacity:1;stroke:none"
       transform="translate(1308.8506,2188.3034)"><flowRegion
         id="flowRegion2989-5-4-5-8-9-5-4-2-2-5-0-8-9-8-8"><rect
           id="rect2991-7-9-6-5-7-5-4-9-5-4-3-2-2-3-4"
           width="493.73337"
           height="314.38708"
           x="120.55251"
           y="265.53046"
           style="font-style:normal;font-variant:normal;font-weight:normal;font-stretch:normal;font-family:Lavi;-inkscape-font-specification:Lavi;text-align:center;text-anchor:middle" /></flowRegion><flowPara
         style="font-size:45px;text-align:center;text-anchor:middle;-inkscape-font-specification:'Rounded M+ 1c Medium';font-family:'Rounded M+ 1c';font-weight:500;font-style:normal;font-stretch:normal;font-variant:normal"
         id="flowPara4435">...mắc kẹt với định mệnh của chính mình.</flowPara></flowRoot>    <flowRoot
       xml:space="preserve"
       id="flowRoot2987-7-9-9-7-0-3-4"
       style="font-style:normal;font-variant:normal;font-weight:normal;font-stretch:normal;font-size:12px;line-height:125%;font-family:Lavi;-inkscape-font-specification:Lavi;letter-spacing:0px;word-spacing:0px;fill:#000000;fill-opacity:1;stroke:#000000;stroke-width:0.99236238;stroke-miterlimit:4;stroke-dasharray:none;stroke-opacity:1;filter:url(#filter4375-4-1-1-5)"
       transform="matrix(0.72826899,-0.81755759,0.24767521,2.1649058,787.1265,-276.56587)"><flowRegion
         id="flowRegion2989-4-5-8-7-41-7-62"
         style="stroke-width:5.40286207"><rect
           id="rect2991-45-1-3-3-8-0-4"
           width="319.66232"
           height="53.089447"
           x="120.55251"
           y="265.53046"
           style="font-style:normal;font-variant:normal;font-weight:normal;font-stretch:normal;font-family:Lavi;-inkscape-font-specification:Lavi;fill:#000000;fill-opacity:1;stroke:#000000;stroke-width:0.99236238;stroke-miterlimit:4;stroke-dasharray:none;stroke-opacity:1" /></flowRegion><flowPara
         id="flowPara2995-4-1-5-0-7-2-6"
         style="font-weight:normal;font-size:48px;-inkscape-font-specification:Lavi;letter-spacing:7.06853437px;fill:#ffffff;fill-opacity:1;stroke:#ffffff;stroke-width:0.99236238;stroke-linejoin:miter;stroke-miterlimit:4;stroke-dasharray:none;stroke-opacity:1">Dzzz</flowPara></flowRoot>    <path
       style="color:#000000;display:inline;overflow:visible;visibility:visible;fill:#ffffff;fill-opacity:1;fill-rule:nonzero;stroke:none;stroke-width:1px;marker:none;enable-background:accumulate"
       d="m 1263.0275,1261.586 c 3.2526,-13.9142 12.362,-12.7945 19.7109,-8.2909 7.1257,-0.1505 15.5492,0.9462 9.5739,13.2654 4.4484,3.5928 10.3777,11.5837 -2.1306,18.3276 -1.7432,6.2934 -19.9536,11.285 -26.591,-2.8511 -12.9529,-6.0801 -17.4582,-18.2401 -0.5632,-20.451 z"
       id="path4051"
       inkscape:connector-curvature="0"
       sodipodi:nodetypes="cccccc" />
    <path
       style="color:#000000;display:inline;overflow:visible;visibility:visible;fill:#ffffff;fill-opacity:1;fill-rule:nonzero;stroke:none;stroke-width:1px;marker:none;enable-background:accumulate"
       d="m 1286.2708,1309.2578 c 3.6765,-1.0212 6.7369,1.1598 9.1289,4.1414 11.2359,-14.5964 27.0112,26.7457 -0.4784,19.6785 -16.7378,5.7055 -18.2129,-9.5291 -11.4815,-14.9079 -2.5821,-3.2186 -0.8455,-7.8909 2.831,-8.912 z"
       id="path4059"
       inkscape:connector-curvature="0"
       sodipodi:nodetypes="zcccz" />
    <path
       style="color:#000000;display:inline;overflow:visible;visibility:visible;fill:#ffffff;fill-opacity:1;fill-rule:nonzero;stroke:none;stroke-width:1px;marker:none;enable-background:accumulate"
       d="m 1199.2151,2323.7893 c 2.225,-9.385 13.0044,-12.9003 20.604,-6.006 5.7937,-4.4838 15.1847,0.9709 10.4045,11.3728 7.9371,3.6245 10.2853,20.5369 -3.8877,20.7106 -3.8301,8.4751 -19.496,8.8047 -25.723,-3.4794 -10.5094,4.3941 -19.2873,-20.2128 -1.3978,-22.598 z"
       id="path4051-1"
       inkscape:connector-curvature="0"
       sodipodi:nodetypes="cccccc" />
    <path
       style="color:#000000;display:inline;overflow:visible;visibility:visible;fill:#ffffff;fill-opacity:1;fill-rule:nonzero;stroke:none;stroke-width:1px;marker:none;enable-background:accumulate"
       d="m 1261.6184,2282.2669 c 3.7043,-1.6524 6.641,0 8.8742,2.5696 6.3848,-5.2404 23.2295,7.2113 -1.4295,19.7477 -9.1804,4.5419 -17.6092,-6.4102 -10.6909,-12.9246 -2.4109,-2.7727 -0.4581,-7.7403 3.2462,-9.3927 z"
       id="path4059-6"
       inkscape:connector-curvature="0"
       sodipodi:nodetypes="zcccz" />
    <path
       style="color:#000000;display:inline;overflow:visible;visibility:visible;fill:#ffffff;fill-opacity:1;fill-rule:nonzero;stroke:none;stroke-width:1px;marker:none;enable-background:accumulate"
       d="m 1765.5082,2376.4339 c 14.1067,14.7269 5.3775,33.1901 -19.7909,27.1407 -14.6783,6.3004 -38.9492,-22.0463 -11.6312,-27.7892 -1.0944,-13.4466 34.9155,-16.36 31.4221,0.6485 z"
       id="path4051-1-3"
       inkscape:connector-curvature="0"
       sodipodi:nodetypes="cccc" />
    <path
       style="color:#000000;display:inline;overflow:visible;visibility:visible;fill:#ffffff;fill-opacity:1;fill-rule:nonzero;stroke:none;stroke-width:1px;marker:none;enable-background:accumulate"
       d="m 1734.4609,2345.1465 c -3.6004,3.1824 -7.7715,3.0113 -11.5262,1.6893 -2.5115,3.1494 -25.5738,-4.2698 -7.1025,-18.6006 8.7242,-8.2935 23.4543,-2.1601 18.2536,6.9001 4.0532,1.4271 3.9754,6.829 0.3751,10.0112 z"
       id="path4059-6-7"
       inkscape:connector-curvature="0"
       sodipodi:nodetypes="zcccz" />
  </g>
</svg>
