<?xml version="1.0" encoding="UTF-8" standalone="no"?>
<!-- Created with Inkscape (http://www.inkscape.org/) -->

<svg
   xmlns:dc="http://purl.org/dc/elements/1.1/"
   xmlns:cc="http://creativecommons.org/ns#"
   xmlns:rdf="http://www.w3.org/1999/02/22-rdf-syntax-ns#"
   xmlns:svg="http://www.w3.org/2000/svg"
   xmlns="http://www.w3.org/2000/svg"
   xmlns:xlink="http://www.w3.org/1999/xlink"
   xmlns:sodipodi="http://sodipodi.sourceforge.net/DTD/sodipodi-0.dtd"
   xmlns:inkscape="http://www.inkscape.org/namespaces/inkscape"
   id="svg2"
   version="1.1"
   inkscape:version="0.91 r13725"
   width="2481"
   height="3503"
   sodipodi:docname="Pepper-and-Carrot_by-David-Revoy_E11P01.svg">
  <metadata
     id="metadata8">
    <rdf:RDF>
      <cc:Work
         rdf:about="">
        <dc:format>image/svg+xml</dc:format>
        <dc:type
           rdf:resource="http://purl.org/dc/dcmitype/StillImage" />
        <dc:title />
      </cc:Work>
    </rdf:RDF>
  </metadata>
  <defs
     id="defs6" />
  <sodipodi:namedview
     pagecolor="#ffffff"
     bordercolor="#666666"
     borderopacity="1"
     objecttolerance="10"
     gridtolerance="10"
     guidetolerance="10"
     inkscape:pageopacity="0"
     inkscape:pageshadow="2"
     inkscape:window-width="1366"
     inkscape:window-height="715"
     id="namedview4"
     showgrid="false"
     inkscape:zoom="0.40000001"
     inkscape:cx="1094.6857"
     inkscape:cy="1253.2403"
     inkscape:window-x="-8"
     inkscape:window-y="-8"
     inkscape:window-maximized="1"
     inkscape:current-layer="layer1" />
  <g
     inkscape:groupmode="layer"
     id="layer2"
     inkscape:label="artwork"
     sodipodi:insensitive="true">
    <image
       sodipodi:absref="D:\practical\Trans\peppercarrot_ep11_translation\vi\..\gfx_Pepper-and-Carrot_by-David-Revoy_E11P01.png"
       xlink:href="..\gfx_Pepper-and-Carrot_by-David-Revoy_E11P01.png"
       width="2481"
       height="3503"
       id="image10"
       x="0"
       y="0" />
  </g>
  <g
     inkscape:groupmode="layer"
     id="layer3"
     inkscape:label="speechbubbles">
    <path
       style="fill:#ffffff;stroke:none"
       d="m 70.808522,1761.104 c -4.882025,-114.5933 38.818118,-129.7709 234.756978,-128.8097 195.93878,0.9611 243.20544,20.0515 249.5447,95.1699 5.8087,68.8312 -21.09816,99.8124 -46.70528,114.9224 -36.64494,21.6229 -172.21944,25.9599 -260.49386,22.072 -80.49962,-3.5455 -182.647993,-37.0359 -177.102538,-103.3546 z"
       id="path3065"
       inkscape:connector-curvature="0"
       sodipodi:nodetypes="cssssc" />
    <path
       style="fill:#ffffff;stroke:none"
       d="m 917.51761,1764.0103 c 13.84734,-94.5458 132.17769,-112.4973 148.54259,-120.8748 16.3647,-8.3773 110.0474,-14.2485 121.3769,-13.0519 11.3296,1.1968 88.5652,-6.1029 146.554,-5.3581 60.6697,0.7791 95.2696,-12.0121 177.6035,28.7778 25.6971,12.7308 66.5004,59.788 75.0517,138.9997 3.7293,34.5452 -9.5025,111.6468 -61.4584,144.4307 -126.7431,79.9745 -238.1778,68.9173 -327.555,62.9333 -89.3773,-5.9837 -175.9529,-22.2579 -221.73363,-61.7493 -49.48482,-42.6866 -70.96988,-127.4331 -58.38166,-174.1074 z"
       id="path3061"
       inkscape:connector-curvature="0"
       sodipodi:nodetypes="cssssssssc" />
    <path
       style="color:#000000;display:inline;overflow:visible;visibility:visible;fill:#ffffff;fill-opacity:1;fill-rule:nonzero;stroke:none;stroke-width:1px;marker:none;enable-background:accumulate"
       d="m 1773.4918,1763.6398 c -0.9357,-98.8824 9.0624,-159.2453 327.2366,-152.4496 318.1744,6.796 305.8117,31.0981 313.057,162.4482 7.2453,131.3497 -132.4264,148.8705 -327.29,149.1854 -226.3596,0.3655 -296.9462,-16.917 -313.0036,-159.184 z"
       id="path5026"
       inkscape:connector-curvature="0"
       sodipodi:nodetypes="csssc" />
    <path
       style="color:#000000;display:inline;overflow:visible;visibility:visible;fill:#ffffff;fill-opacity:1;fill-rule:nonzero;stroke:none;stroke-width:1px;marker:none;enable-background:accumulate"
       d="m 237.59274,1836.547 c 15.44367,15.7148 30.88746,36.4298 32.17439,41.43 1.28694,5.0001 -10.93928,32.8583 -6.4349,38.5728 4.50439,5.7145 21.23511,6.4288 23.16562,10.7147 1.93041,4.2859 -3.86092,26.4295 0,30.7153 3.86092,4.2859 30.88735,15.7149 32.17439,19.2865 1.28694,3.5715 8.36531,22.858 21.235,37.8584 -12.22622,-37.8584 -8.36531,-45.7159 -12.86969,-51.4303 -4.50439,-5.7146 -22.52204,-10.7147 -25.09603,-17.1436 -2.57398,-6.4287 2.57399,-27.8581 -2.57398,-33.5725 -5.14785,-5.7145 -17.37418,-7.8575 -17.37418,-7.8575 4.50449,-5.7145 23.80908,-39.2871 2.57398,-72.8597 -21.23511,-33.5727 -46.9746,4.2859 -46.9746,4.2859 z"
       id="path5050"
       inkscape:connector-curvature="0" />
    <path
       style="color:#000000;fill:#ffffff;fill-opacity:1;fill-rule:nonzero;stroke:none;stroke-width:1px;marker:none;visibility:visible;display:inline;overflow:visible;enable-background:accumulate"
       d="m 1396.1772,2120.9882 c 68.3118,-74.6739 88.7022,-171.0856 50.2681,-232.2418 -12.9068,-20.5376 -46.5081,4.9084 -46.5081,4.9084 59.7063,72.6609 34.287,166.8134 -3.76,227.3334 z"
       id="path4000"
       inkscape:connector-curvature="0"
       sodipodi:nodetypes="cscc" />
    <path
       style="fill:#ffffff;stroke:none"
       d="m 2295.182,1822.1558 c -15.4539,18.0781 -34.4193,44.3463 -33.8114,53.7712 0.8079,9.3246 11.6508,27.238 10.4321,49.7021 -1.0616,19.5667 -14.0824,60.651 -76.2349,91.1318 39.1463,-33.6868 47.3811,-82.8609 45.3101,-99.1786 -1.7861,-14.0729 -24.2104,-45.8128 -23.7763,-55.1893 -0.878,-26.1428 12.9745,-54.7358 37.3709,-63.0033 24.3967,-8.2674 40.7095,22.7661 40.7095,22.7661 z"
       id="path3272"
       inkscape:connector-curvature="0"
       sodipodi:nodetypes="ccscscsc" />
    <path
       style="color:#000000;display:inline;overflow:visible;visibility:visible;fill:#ffffff;fill-opacity:1;fill-rule:nonzero;stroke:none;stroke-width:1px;marker:none;enable-background:accumulate"
       d="m 1486.9753,2935.723 c -0.7919,-23.3017 13.4636,-39.1469 21.3834,-46.6034 7.9198,-7.4565 57.8144,-24.2338 76.0299,-24.2338 18.2154,0 93.4533,16.7773 106.9169,33.5545 13.4636,16.7772 30.8871,16.7772 22.1754,44.7393 -8.7118,27.962 -63.3582,41.9431 -75.2379,44.7393 -11.8797,2.7962 -45.9347,4.6603 -57.0224,3.7283 -11.0877,-0.9321 -96.6212,-17.7092 -94.2453,-55.9242 z"
       id="path3357"
       inkscape:connector-curvature="0" />
    <path
       style="color:#000000;display:inline;overflow:visible;visibility:visible;fill:#ffffff;fill-opacity:1;fill-rule:nonzero;stroke:none;stroke-width:1px;marker:none;enable-background:accumulate"
       d="m 1536.589,3035.7417 c -1.5835,-26.3501 22.1689,-45.1716 88.6757,-62.3797 66.5068,-17.2082 158.3497,-12.9061 182.102,-7.5287 23.7526,5.3775 114.0153,-8.5465 167.2303,23.5737 62.7902,30.3214 33.6435,94.5909 -12.0475,106.5634 -28.5029,6.4532 -231.1905,15.0572 -264.444,10.7551 -33.2532,-4.3019 -87.0923,-5.3775 -115.5951,-18.2837 -28.8961,-13.0842 -44.3379,-26.35 -45.9214,-52.7001 z"
       id="path3373"
       inkscape:connector-curvature="0"
       sodipodi:nodetypes="zssccssz" />
    <path
       style="color:#000000;display:inline;overflow:visible;visibility:visible;fill:#ffffff;fill-opacity:1;fill-rule:nonzero;stroke:none;stroke-width:1px;marker:none;enable-background:accumulate"
       d="m 1408.674,3036.2361 c 27.2189,10.6931 31.1073,9.721 39.8563,-1.9442 8.7489,-11.6652 17.4978,-31.1073 43.7446,-34.9957 26.2468,-3.8884 38.8841,5.8326 47.633,11.6652 63.6716,-29.2781 71.0511,-33.267 29.1631,16.5258 -16.5257,17.4978 -53.4656,-4.8605 -71.9356,-4.8605 -18.4699,0 -32.0794,26.2467 -46.6609,29.163 -14.5816,2.9163 -30.1352,-7.7768 -41.8005,-15.5536 z"
       id="path4538"
       inkscape:connector-curvature="0"
       sodipodi:nodetypes="cssccssc" />
  </g>
  <g
     inkscape:groupmode="layer"
     id="layer1"
     inkscape:label="txt">
    <flowRoot
       xml:space="preserve"
       id="flowRoot2987-4-9-3"
       style="font-style:normal;font-variant:normal;font-weight:normal;font-stretch:normal;font-size:12px;line-height:125%;font-family:Lavi;-inkscape-font-specification:Lavi;text-align:center;letter-spacing:0px;word-spacing:0px;text-anchor:middle;fill:#000000;fill-opacity:1;stroke:none"
       transform="translate(25.583909,1430.8032)"><flowRegion
         id="flowRegion2989-5-4-5"><rect
           id="rect2991-7-9-6"
           width="372.4017"
           height="233.23993"
           x="120.55251"
           y="265.53046"
           style="font-style:normal;font-variant:normal;font-weight:normal;font-stretch:normal;font-family:Lavi;-inkscape-font-specification:Lavi;text-align:center;text-anchor:middle" /></flowRegion><flowPara
         style="font-style:normal;font-variant:normal;font-weight:500;font-stretch:normal;font-size:45px;font-family:'Rounded M+ 1c';-inkscape-font-specification:'Rounded M+ 1c Medium';text-align:center;text-anchor:middle"
         id="flowPara3030-8">Hạt tiêu, con là nỗi thất vọng của Chaosah.</flowPara></flowRoot>    <flowRoot
       xml:space="preserve"
       id="flowRoot2987-4-9-3-9"
       style="font-style:normal;font-variant:normal;font-weight:normal;font-stretch:normal;font-size:12px;line-height:125%;font-family:Lavi;-inkscape-font-specification:Lavi;text-align:center;letter-spacing:0px;word-spacing:0px;text-anchor:middle;fill:#000000;fill-opacity:1;stroke:none"
       transform="translate(857.22868,1414.1681)"><flowRegion
         id="flowRegion2989-5-4-5-1"><rect
           id="rect2991-7-9-6-4"
           width="549.66528"
           height="320.46033"
           x="120.55251"
           y="265.53046"
           style="font-style:normal;font-variant:normal;font-weight:normal;font-stretch:normal;font-family:Lavi;-inkscape-font-specification:Lavi;text-align:center;text-anchor:middle" /></flowRegion><flowPara
         style="font-style:normal;font-variant:normal;font-weight:500;font-stretch:normal;font-size:45px;font-family:'Rounded M+ 1c';-inkscape-font-specification:'Rounded M+ 1c Medium';text-align:center;text-anchor:middle"
         id="flowPara4289">Cayenne nói đúng đấy,</flowPara><flowPara
         style="font-style:normal;font-variant:normal;font-weight:500;font-stretch:normal;font-size:45px;font-family:'Rounded M+ 1c';-inkscape-font-specification:'Rounded M+ 1c Medium';text-align:center;text-anchor:middle"
         id="flowPara3345">để một phù thủy Chaosah xứng đáng với danh hiệu, họ phải làm cho người khác sợ hãi và kính nể.</flowPara></flowRoot>    <flowRoot
       xml:space="preserve"
       id="flowRoot2987-4-9-3-9-7"
       style="font-style:normal;font-variant:normal;font-weight:normal;font-stretch:normal;font-size:12px;line-height:125%;font-family:Lavi;-inkscape-font-specification:Lavi;text-align:center;letter-spacing:0px;word-spacing:0px;text-anchor:middle;fill:#000000;fill-opacity:1;stroke:none"
       transform="translate(1705.7682,1413.8235)"><flowRegion
         id="flowRegion2989-5-4-5-1-6"><rect
           id="rect2991-7-9-6-4-8"
           width="637.72778"
           height="262.47906"
           x="65.552513"
           y="268.03046"
           style="font-style:normal;font-variant:normal;font-weight:normal;font-stretch:normal;font-family:Lavi;-inkscape-font-specification:Lavi;text-align:center;text-anchor:middle" /></flowRegion><flowPara
         style="font-style:normal;font-variant:normal;font-weight:500;font-stretch:normal;font-size:45px;font-family:'Rounded M+ 1c';-inkscape-font-specification:'Rounded M+ 1c Medium';text-align:center;text-anchor:middle"
         id="flowPara3347">... trong khi đó con lại mời bánh ngọt và trà,</flowPara><flowPara
         style="font-style:normal;font-variant:normal;font-weight:500;font-stretch:normal;font-size:45px;font-family:'Rounded M+ 1c';-inkscape-font-specification:'Rounded M+ 1c Medium';text-align:center;text-anchor:middle"
         id="flowPara3349">cho những con quỷ của chúng ta*...</flowPara></flowRoot>    <flowRoot
       xml:space="preserve"
       id="flowRoot2987-4-9-9-9-9"
       style="font-style:normal;font-variant:normal;font-weight:normal;font-stretch:normal;font-size:12px;line-height:125%;font-family:Lavi;-inkscape-font-specification:Lavi;text-align:center;letter-spacing:0px;word-spacing:0px;text-anchor:middle;fill:#000000;fill-opacity:1;stroke:none"
       transform="matrix(0.66530597,0,0,0.68592152,1696.3374,2574.0818)"><flowRegion
         id="flowRegion2989-5-4-7-7-9"><rect
           id="rect2991-7-9-4-3-7"
           width="1100.3401"
           height="65.915588"
           x="120.55251"
           y="265.53046"
           style="font-style:normal;font-variant:normal;font-weight:normal;font-stretch:normal;font-family:Lavi;-inkscape-font-specification:Lavi;text-align:center;text-anchor:middle" /></flowRegion><flowPara
         style="font-style:normal;font-variant:normal;font-weight:500;font-stretch:normal;font-size:48px;font-family:'Rounded M+ 1c';-inkscape-font-specification:'Rounded M+ 1c Medium';text-align:start;text-anchor:start;fill:#a0a0a0;fill-opacity:1"
         id="flowPara3080-9-7-0">* Xem tập 8: Tiệc sinh nhật của Hạt Tiêu.</flowPara></flowRoot>    <flowRoot
       xml:space="preserve"
       id="flowRoot2987-4-9-3-0"
       style="font-style:normal;font-variant:normal;font-weight:500;font-stretch:normal;font-size:12px;line-height:125%;font-family:'Rounded M+ 1c';-inkscape-font-specification:'Rounded M+ 1c Medium';text-align:center;letter-spacing:0px;word-spacing:0px;text-anchor:middle;fill:#000000;fill-opacity:1;stroke:none;"
       transform="translate(1405.6686,2630.8459)"><flowRegion
         id="flowRegion2989-5-4-5-4"><rect
           id="rect2991-7-9-6-8"
           width="179.9017"
           height="58.239929"
           x="120.55251"
           y="265.53046"
           style="font-style:normal;font-variant:normal;font-weight:500;font-stretch:normal;font-family:'Rounded M+ 1c';-inkscape-font-specification:'Rounded M+ 1c Medium';text-align:center;text-anchor:middle" /></flowRegion><flowPara
         style="font-size:45px;text-align:center;text-anchor:middle;-inkscape-font-specification:'Rounded M+ 1c Medium';font-family:'Rounded M+ 1c';font-weight:500;font-style:normal;font-stretch:normal;font-variant:normal;"
         id="flowPara3030-8-3">nhưng...</flowPara></flowRoot>    <flowRoot
       xml:space="preserve"
       id="flowRoot2987-4-9-3-0-3"
       style="font-style:normal;font-variant:normal;font-weight:normal;font-stretch:normal;font-size:12px;line-height:125%;font-family:Lavi;-inkscape-font-specification:Lavi;text-align:center;letter-spacing:0px;word-spacing:0px;text-anchor:middle;fill:#000000;fill-opacity:1;stroke:none"
       transform="translate(1428.9516,2719.8339)"><flowRegion
         id="flowRegion2989-5-4-5-4-2"><rect
           id="rect2991-7-9-6-8-8"
           width="467.4017"
           height="180.73993"
           x="120.55251"
           y="265.53046"
           style="font-style:normal;font-variant:normal;font-weight:normal;font-stretch:normal;font-family:Lavi;-inkscape-font-specification:Lavi;text-align:center;text-anchor:middle" /></flowRegion><flowPara
         style="font-style:normal;font-variant:normal;font-weight:500;font-stretch:normal;font-size:45px;font-family:'Rounded M+ 1c';-inkscape-font-specification:'Rounded M+ 1c Medium';text-align:center;text-anchor:middle"
         id="flowPara3030-8-3-6">...thưa các mẹ đỡ đầu...</flowPara></flowRoot>  </g>
</svg>
