<?xml version="1.0" encoding="UTF-8" standalone="no"?>
<!-- Created with Inkscape (http://www.inkscape.org/) -->

<svg
   xmlns:dc="http://purl.org/dc/elements/1.1/"
   xmlns:cc="http://creativecommons.org/ns#"
   xmlns:rdf="http://www.w3.org/1999/02/22-rdf-syntax-ns#"
   xmlns:svg="http://www.w3.org/2000/svg"
   xmlns="http://www.w3.org/2000/svg"
   xmlns:xlink="http://www.w3.org/1999/xlink"
   xmlns:sodipodi="http://sodipodi.sourceforge.net/DTD/sodipodi-0.dtd"
   xmlns:inkscape="http://www.inkscape.org/namespaces/inkscape"
   id="svg2"
   version="1.1"
   inkscape:version="0.91 r13725"
   width="2481"
   height="3503"
   sodipodi:docname="Pepper-and-Carrot_by-David-Revoy_E11P05.svg">
  <metadata
     id="metadata8">
    <rdf:RDF>
      <cc:Work
         rdf:about="">
        <dc:format>image/svg+xml</dc:format>
        <dc:type
           rdf:resource="http://purl.org/dc/dcmitype/StillImage" />
        <dc:title />
      </cc:Work>
    </rdf:RDF>
  </metadata>
  <defs
     id="defs6">
    <filter
       style="color-interpolation-filters:sRGB"
       id="filter4375-4-1-1"
       inkscape:label="deevad outline effect">
      <feFlood
         id="feFlood4377-7-9-0"
         flood-opacity="1"
         flood-color="rgb(118,29,43)"
         result="flood" />
      <feComposite
         id="feComposite4379-3-8-8"
         in2="SourceGraphic"
         in="flood"
         operator="in"
         result="composite1" />
      <feMorphology
         id="feMorphology4393-1-0-49"
         operator="dilate"
         radius="4"
         result="result3" />
      <feComposite
         id="feComposite4385-9-5-7"
         in2="result3"
         in="SourceGraphic"
         operator="over"
         result="composite2" />
    </filter>
    <filter
       style="color-interpolation-filters:sRGB"
       id="filter4375-4-1-1-9"
       inkscape:label="deevad outline effect">
      <feFlood
         id="feFlood4377-7-9-0-2"
         flood-opacity="1"
         flood-color="rgb(0,0,0)"
         result="flood" />
      <feComposite
         id="feComposite4379-3-8-8-5"
         in2="SourceGraphic"
         in="flood"
         operator="in"
         result="composite1" />
      <feMorphology
         id="feMorphology4393-1-0-49-5"
         operator="dilate"
         radius="4"
         result="result3" />
      <feComposite
         id="feComposite4385-9-5-7-5"
         in2="result3"
         in="SourceGraphic"
         operator="over"
         result="composite2" />
    </filter>
  </defs>
  <sodipodi:namedview
     pagecolor="#ffffff"
     bordercolor="#666666"
     borderopacity="1"
     objecttolerance="10"
     gridtolerance="10"
     guidetolerance="10"
     inkscape:pageopacity="0"
     inkscape:pageshadow="2"
     inkscape:window-width="1600"
     inkscape:window-height="832"
     id="namedview4"
     showgrid="false"
     inkscape:zoom="0.34782609"
     inkscape:cx="1454.0571"
     inkscape:cy="1347.8672"
     inkscape:window-x="1276"
     inkscape:window-y="0"
     inkscape:window-maximized="1"
     inkscape:current-layer="layer1" />
  <g
     inkscape:groupmode="layer"
     id="layer2"
     inkscape:label="artwork"
     sodipodi:insensitive="true">
    <image
       sodipodi:absref="/home/willem/Git/peppercarrot_ep11_translation/nl/../gfx_Pepper-and-Carrot_by-David-Revoy_E11P05.png"
       xlink:href="../gfx_Pepper-and-Carrot_by-David-Revoy_E11P05.png"
       width="2481"
       height="3503"
       id="image10"
       x="0"
       y="0" />
  </g>
  <g
     inkscape:groupmode="layer"
     id="layer3"
     inkscape:label="speechbubbles" />
  <g
     inkscape:groupmode="layer"
     id="layer1"
     inkscape:label="txt">
    <flowRoot
       xml:space="preserve"
       id="flowRoot2987-7-9-9-7-0-3-4"
       style="font-style:normal;font-variant:normal;font-weight:normal;font-stretch:normal;font-size:12px;line-height:125%;font-family:Lavi;-inkscape-font-specification:Lavi;letter-spacing:0px;word-spacing:0px;fill:#000000;fill-opacity:1;stroke:#000000;stroke-width:0.99236238;stroke-miterlimit:4;stroke-dasharray:none;stroke-opacity:1;filter:url(#filter4375-4-1-1)"
       transform="matrix(0.72826899,-0.81755759,0.24767521,2.1649058,787.1265,-276.56588)"><flowRegion
         id="flowRegion2989-4-5-8-7-41-7-62"
         style="stroke-width:5.40286207"><rect
           id="rect2991-45-1-3-3-8-0-4"
           width="319.66232"
           height="56.089447"
           x="120.55251"
           y="265.53046"
           style="font-style:normal;font-variant:normal;font-weight:normal;font-stretch:normal;font-family:Lavi;-inkscape-font-specification:Lavi;fill:#000000;fill-opacity:1;stroke:#000000;stroke-width:0.99236238;stroke-miterlimit:4;stroke-dasharray:none;stroke-opacity:1" /></flowRegion><flowPara
         id="flowPara2995-4-1-5-0-7-2-6"
         style="font-weight:normal;font-size:48px;-inkscape-font-specification:Lavi;letter-spacing:7.06853437px;fill:#ffffff;fill-opacity:1;stroke:#ffffff;stroke-width:0.99236238;stroke-linejoin:miter;stroke-miterlimit:4;stroke-dasharray:none;stroke-opacity:1">Dzzz</flowPara></flowRoot>    <path
       style="color:#000000;display:inline;overflow:visible;visibility:visible;fill:#ffffff;fill-opacity:1;fill-rule:nonzero;stroke:none;stroke-width:1px;marker:none;enable-background:accumulate"
       d="m 1307.5658,1023.0655 c -9.0246,0.6321 -17.0789,3.6541 -22.2052,8.8605 -13.2856,-14.6295 -31.9358,1.1891 -33.6512,4.4937 -16.7166,-8.0201 -40.2966,-2.8205 -49.6222,5.0884 -22.1964,-11.8283 -69.9052,5.3819 -68.9617,29.4216 -25.9846,17.0173 -27.6433,37.4492 -19.9762,49.9728 -19.9518,14.0148 -31.097,80.0174 24.7512,87.352 15.3346,25.0472 57.8165,36.5851 77.7682,22.5701 26.9285,7.0225 43.783,13.338 50.645,0.1192 10.7799,11.8705 35.641,14.5779 39.5183,2.0117 19.2725,12.4563 46.009,15.9316 60.6406,5.6536 26.9285,7.0226 43.7831,13.3402 50.6451,0.1212 13.2852,14.6295 35.9016,18.324 48.1876,-0.091 23.0536,9.4245 26.7309,3.492 42.4106,-6.1802 25.7303,19.4246 49.332,10.9941 59.2091,-5.645 36.5523,8.4333 43.0353,-20.4848 41.4359,-31.3663 32.3895,-10.2636 41.7812,-36.1944 18.1887,-58.4996 7.9677,-26.8409 -2.4981,-58.3951 -50.598,-72.037 -11.2935,-21.3394 -50.4827,-37.7833 -77.9065,-20.8668 -18.9036,-16.7349 -49.2622,-17.148 -61.8807,-4.3321 -9.538,-10.5028 -21.809,-5.312 -28.6256,-0.3252 -17.0853,-10.6295 -41.4649,-14.7465 -60.2976,-3.1293 -11.2241,-9.9364 -26.4856,-14.1172 -39.6754,-13.1927 z"
       id="path4043"
       inkscape:connector-curvature="0"
       sodipodi:nodetypes="ccccccccccccccccccccccc" />
    <flowRoot
       xml:space="preserve"
       id="flowRoot2987-4-9-3-5-9-8-3-5-4-0-5-5"
       style="font-style:normal;font-variant:normal;font-weight:normal;font-stretch:normal;font-size:12px;line-height:125%;font-family:Lavi;-inkscape-font-specification:Lavi;text-align:center;letter-spacing:0px;word-spacing:0px;text-anchor:middle;fill:#000000;fill-opacity:1;stroke:none"
       transform="translate(996.95336,820.89393)"><flowRegion
         id="flowRegion2989-5-4-5-8-9-5-4-2-2-5-0-8"><rect
           id="rect2991-7-9-6-5-7-5-4-9-5-4-3-2"
           width="493.73337"
           height="314.38708"
           x="120.55251"
           y="265.53046"
           style="font-style:normal;font-variant:normal;font-weight:normal;font-stretch:normal;font-family:Lavi;-inkscape-font-specification:Lavi;text-align:center;text-anchor:middle" /></flowRegion><flowPara
         style="font-size:45px;text-align:center;text-anchor:middle"
         id="flowPara4272-0">Jij en ik, we lijken wel</flowPara><flowPara
         style="font-size:45px;text-align:center;text-anchor:middle"
         id="flowPara4176">wat op elkaar...</flowPara></flowRoot>    <path
       style="color:#000000;display:inline;overflow:visible;visibility:visible;fill:#ffffff;fill-opacity:1;fill-rule:nonzero;stroke:none;stroke-width:1px;marker:none;enable-background:accumulate"
       d="m 1263.0275,1261.586 c 3.2526,-13.9142 12.362,-12.7945 19.7109,-8.2909 7.1257,-0.1505 15.5492,0.9462 9.5739,13.2654 4.4484,3.5928 10.3777,11.5837 -2.1306,18.3276 -1.7432,6.2934 -19.9536,11.285 -26.591,-2.8511 -12.9529,-6.0801 -17.4582,-18.2401 -0.5632,-20.451 z"
       id="path4051"
       inkscape:connector-curvature="0"
       sodipodi:nodetypes="cccccc" />
    <path
       style="color:#000000;display:inline;overflow:visible;visibility:visible;fill:#ffffff;fill-opacity:1;fill-rule:nonzero;stroke:none;stroke-width:1px;marker:none;enable-background:accumulate"
       d="m 1286.2708,1309.2578 c 3.6765,-1.0212 6.7369,1.1598 9.1289,4.1414 11.2359,-14.5964 27.0112,26.7457 -0.4784,19.6785 -16.7378,5.7055 -18.2129,-9.5291 -11.4815,-14.9079 -2.5821,-3.2186 -0.8455,-7.8909 2.831,-8.912 z"
       id="path4059"
       inkscape:connector-curvature="0"
       sodipodi:nodetypes="zcccz" />
    <path
       style="color:#000000;display:inline;overflow:visible;visibility:visible;fill:#ffffff;fill-opacity:1;fill-rule:nonzero;stroke:none;stroke-width:1px;marker:none;enable-background:accumulate"
       d="m 890.7057,2375.7845 c 4.80241,-0.5176 9.04899,-2.3865 11.69908,-5.4552 7.31986,8.1455 17.01137,-1.2315 17.87301,-3.1528 9.04337,4.3028 21.5343,0.9197 26.38034,-3.7686 12.02684,6.3882 37.19206,-4.2865 36.30279,-18.0317 13.5834,-10.1899 14.13964,-21.9146 9.84973,-28.9515 10.41455,-8.3668 15.29755,-46.3421 -14.6025,-49.5776 -8.57998,-14.0737 -31.41974,-19.9459 -41.83422,-11.5788 -14.47311,-3.5557 -23.56264,-6.8803 -27.00958,0.8052 -5.93935,-6.6095 -19.24057,-7.7304 -21.10629,-0.4701 -10.47764,-6.7982 -24.79131,-8.3265 -32.42882,-2.1906 -14.47302,-3.5555 -23.56265,-6.8814 -27.00959,0.8042 -7.31966,-8.1454 -19.43972,-9.8704 -25.69564,0.8829 -12.44523,-4.9974 -14.31091,-1.538 -22.51706,4.2692 -14.03335,-10.6757 -26.48402,-5.4426 -31.48389,4.2528 -19.62784,-4.1973 -22.62044,12.4687 -21.59266,18.6702 -17.10753,6.434 -21.69923,21.44 -8.75965,33.8017 -3.8177,15.5024 2.27039,33.3851 28.13992,40.3648 6.36533,12.021 27.52807,20.7583 41.88068,10.6015 10.3496,9.2538 26.54559,8.9666 33.06881,1.4127 5.25507,5.8477 11.71546,2.6646 15.27046,-0.3076 9.28188,5.7901 22.34898,7.7264 32.20533,0.7514 6.14513,5.4945 14.35086,7.6246 21.36975,6.8679 z"
       id="path4043-4"
       inkscape:connector-curvature="0"
       sodipodi:nodetypes="ccccccccccccccccccccccc" />
    <flowRoot
       xml:space="preserve"
       id="flowRoot2987-4-9-3-5-9-8-3-5-4-0-5-5-7"
       style="font-style:normal;font-variant:normal;font-weight:normal;font-stretch:normal;font-size:12px;line-height:125%;font-family:Lavi;-inkscape-font-specification:Lavi;text-align:center;letter-spacing:0px;word-spacing:0px;text-anchor:middle;fill:#000000;fill-opacity:1;stroke:none"
       transform="translate(499.56542,2012.1239)"><flowRegion
         id="flowRegion2989-5-4-5-8-9-5-4-2-2-5-0-8-9"><rect
           id="rect2991-7-9-6-5-7-5-4-9-5-4-3-2-2"
           width="493.73337"
           height="314.38708"
           x="120.55251"
           y="265.53046"
           style="font-style:normal;font-variant:normal;font-weight:normal;font-stretch:normal;font-family:Lavi;-inkscape-font-specification:Lavi;text-align:center;text-anchor:middle" /></flowRegion><flowPara
         style="font-size:45px;text-align:center;text-anchor:middle"
         id="flowPara4272-0-7">jong...</flowPara></flowRoot>    <path
       style="color:#000000;display:inline;overflow:visible;visibility:visible;fill:#ffffff;fill-opacity:1;fill-rule:nonzero;stroke:none;stroke-width:1px;marker:none;enable-background:accumulate"
       d="m 1056.2023,2467.0345 c 5.8298,-0.5176 10.9848,-2.3865 14.202,-5.4552 8.886,8.1455 20.651,-1.2315 21.6969,-3.1528 10.9782,4.3028 26.1415,0.9197 32.0244,-3.7686 14.6,6.3882 45.1493,-4.2865 44.0697,-18.0317 16.4896,-10.1899 17.1648,-21.9146 11.9571,-28.9515 12.6428,-8.3668 18.5704,-46.3421 -17.7266,-49.5776 -10.4157,-14.0737 -38.1421,-19.9459 -50.7847,-11.5788 -17.5696,-3.5557 -28.6038,-6.8803 -32.7882,0.8052 -7.2101,-6.6095 -23.3571,-7.7304 -25.6219,-0.4701 -12.7194,-6.7982 -30.0955,-8.3265 -39.3669,-2.1906 -17.56955,-3.5555 -28.6039,-6.8814 -32.78835,0.8042 -8.88559,-8.1454 -23.59875,-9.8704 -31.19314,0.8829 -15.10786,-4.9974 -17.3727,-1.538 -27.33454,4.2692 -17.03575,-10.6757 -32.15022,-5.4426 -38.21981,4.2528 -23.82717,-4.1973 -27.46003,12.4687 -26.21237,18.6702 -20.76764,6.434 -26.34173,21.44 -10.63376,33.8017 -4.6345,15.5024 2.75614,33.3851 34.16041,40.3648 7.72717,12.021 33.41764,20.7583 50.84097,10.6015 12.56388,9.2538 32.22498,8.9666 40.14381,1.4127 6.37939,5.8477 14.22197,2.6646 18.5376,-0.3076 11.26768,5.7901 27.13048,7.7264 39.09558,0.7514 7.4598,5.4945 17.4212,7.6246 25.9418,6.8679 z"
       id="path4043-4-9"
       inkscape:connector-curvature="0"
       sodipodi:nodetypes="ccccccccccccccccccccccc" />
    <flowRoot
       xml:space="preserve"
       id="flowRoot2987-4-9-3-5-9-8-3-5-4-0-5-5-7-1"
       style="font-style:normal;font-variant:normal;font-weight:normal;font-stretch:normal;font-size:12px;line-height:125%;font-family:Lavi;-inkscape-font-specification:Lavi;text-align:center;letter-spacing:0px;word-spacing:0px;text-anchor:middle;fill:#000000;fill-opacity:1;stroke:none"
       transform="translate(651.67502,2104.4775)"><flowRegion
         id="flowRegion2989-5-4-5-8-9-5-4-2-2-5-0-8-9-8"><rect
           id="rect2991-7-9-6-5-7-5-4-9-5-4-3-2-2-3"
           width="493.73337"
           height="314.38708"
           x="120.55251"
           y="265.53046"
           style="font-style:normal;font-variant:normal;font-weight:normal;font-stretch:normal;font-family:Lavi;-inkscape-font-specification:Lavi;text-align:center;text-anchor:middle" /></flowRegion><flowPara
         style="font-size:45px;text-align:center;text-anchor:middle"
         id="flowPara4272-0-7-7">eenzaam...</flowPara></flowRoot>    <path
       style="color:#000000;display:inline;overflow:visible;visibility:visible;fill:#ffffff;fill-opacity:1;fill-rule:nonzero;stroke:none;stroke-width:1px;marker:none;enable-background:accumulate"
       d="m 1736.5076,2601.3246 c 6.8707,-0.7381 12.9459,-3.4028 16.7373,-7.7784 10.472,11.6143 24.3371,-1.7559 25.5698,-4.4952 12.9378,6.135 30.8078,1.3112 37.7408,-5.3736 17.2062,9.1086 53.2086,-6.1118 51.9364,-25.7102 19.4329,-14.5292 20.2288,-31.2468 14.0914,-41.2804 14.8995,-11.9297 21.8854,-66.0763 -20.8909,-70.6897 -12.2749,-20.0668 -44.9505,-28.4397 -59.8498,-16.5096 -20.706,-5.0698 -33.7098,-9.8102 -38.641,1.1482 -8.497,-9.4241 -27.5265,-11.0225 -30.1955,-0.6704 -14.99,-9.693 -35.4676,-11.8721 -46.3943,-3.1234 -20.7056,-5.0696 -33.7096,-9.8119 -38.641,1.1466 -10.4717,-11.614 -27.8112,-14.0736 -36.7613,1.259 -17.8046,-7.1256 -20.4736,-2.193 -32.2139,6.0872 -20.0766,-15.2219 -37.889,-7.7605 -45.042,6.0638 -28.0804,-5.9847 -32.3618,17.7784 -30.8915,26.6208 -24.4747,9.1739 -31.0438,30.57 -12.5319,48.1959 -5.4617,22.1038 3.2482,47.6018 40.2581,57.5536 9.1067,17.1401 39.3828,29.598 59.9164,15.1161 14.8065,13.1945 37.9772,12.785 47.3096,2.0143 7.5182,8.3379 16.7607,3.7994 21.8466,-0.4385 13.279,8.2558 31.9734,11.0165 46.0743,1.0714 8.7915,7.8343 20.5309,10.8714 30.5724,9.7925 z"
       id="path4043-4-9-1"
       inkscape:connector-curvature="0"
       sodipodi:nodetypes="ccccccccccccccccccccccc" />
    <flowRoot
       xml:space="preserve"
       id="flowRoot2987-4-9-3-5-9-8-3-5-4-0-5-5-7-1-9"
       style="font-style:normal;font-variant:normal;font-weight:normal;font-stretch:normal;font-size:12px;line-height:125%;font-family:Lavi;-inkscape-font-specification:Lavi;text-align:center;letter-spacing:0px;word-spacing:0px;text-anchor:middle;fill:#000000;fill-opacity:1;stroke:none"
       transform="translate(1318.8506,2188.3034)"><flowRegion
         id="flowRegion2989-5-4-5-8-9-5-4-2-2-5-0-8-9-8-8"><rect
           id="rect2991-7-9-6-5-7-5-4-9-5-4-3-2-2-3-4"
           width="493.73337"
           height="314.38708"
           x="120.55251"
           y="265.53046"
           style="font-style:normal;font-variant:normal;font-weight:normal;font-stretch:normal;font-family:Lavi;-inkscape-font-specification:Lavi;text-align:center;text-anchor:middle" /></flowRegion><flowPara
         style="font-size:45px;text-align:center;text-anchor:middle"
         id="flowPara4435">... gevangen in</flowPara><flowPara
         style="font-size:45px;text-align:center;text-anchor:middle"
         id="flowPara4178">ons lot.</flowPara></flowRoot>    <path
       style="color:#000000;display:inline;overflow:visible;visibility:visible;fill:#ffffff;fill-opacity:1;fill-rule:nonzero;stroke:none;stroke-width:1px;marker:none;enable-background:accumulate"
       d="m 1199.2151,2323.7893 c 2.225,-9.385 13.0044,-12.9003 20.604,-6.006 5.7937,-4.4838 15.1847,0.9709 10.4045,11.3728 7.9371,3.6245 10.2853,20.5369 -3.8877,20.7106 -3.8301,8.4751 -19.496,8.8047 -25.723,-3.4794 -10.5094,4.3941 -19.2873,-20.2128 -1.3978,-22.598 z"
       id="path4051-1"
       inkscape:connector-curvature="0"
       sodipodi:nodetypes="cccccc" />
    <path
       style="color:#000000;display:inline;overflow:visible;visibility:visible;fill:#ffffff;fill-opacity:1;fill-rule:nonzero;stroke:none;stroke-width:1px;marker:none;enable-background:accumulate"
       d="m 1261.6184,2282.2669 c 3.7043,-1.6524 6.641,0 8.8742,2.5696 6.3848,-5.2404 23.2295,7.2113 -1.4295,19.7477 -9.1804,4.5419 -17.6092,-6.4102 -10.6909,-12.9246 -2.4109,-2.7727 -0.4581,-7.7403 3.2462,-9.3927 z"
       id="path4059-6"
       inkscape:connector-curvature="0"
       sodipodi:nodetypes="zcccz" />
    <path
       style="color:#000000;display:inline;overflow:visible;visibility:visible;fill:#ffffff;fill-opacity:1;fill-rule:nonzero;stroke:none;stroke-width:1px;marker:none;enable-background:accumulate"
       d="m 1765.5082,2376.4339 c 14.1067,14.7269 5.3775,33.1901 -19.7909,27.1407 -14.6783,6.3004 -38.9492,-22.0463 -11.6312,-27.7892 -1.0944,-13.4466 34.9155,-16.36 31.4221,0.6485 z"
       id="path4051-1-3"
       inkscape:connector-curvature="0"
       sodipodi:nodetypes="cccc" />
    <path
       style="color:#000000;display:inline;overflow:visible;visibility:visible;fill:#ffffff;fill-opacity:1;fill-rule:nonzero;stroke:none;stroke-width:1px;marker:none;enable-background:accumulate"
       d="m 1734.4609,2345.1465 c -3.6004,3.1824 -7.7715,3.0113 -11.5262,1.6893 -2.5115,3.1494 -25.5738,-4.2698 -7.1025,-18.6006 8.7242,-8.2935 23.4543,-2.1601 18.2536,6.9001 4.0532,1.4271 3.9754,6.829 0.3751,10.0112 z"
       id="path4059-6-7"
       inkscape:connector-curvature="0"
       sodipodi:nodetypes="zcccz" />
  </g>
</svg>
