<?xml version="1.0" encoding="UTF-8" standalone="no"?>
<!-- Created with Inkscape (http://www.inkscape.org/) -->

<svg
   xmlns:dc="http://purl.org/dc/elements/1.1/"
   xmlns:cc="http://creativecommons.org/ns#"
   xmlns:rdf="http://www.w3.org/1999/02/22-rdf-syntax-ns#"
   xmlns:svg="http://www.w3.org/2000/svg"
   xmlns="http://www.w3.org/2000/svg"
   xmlns:xlink="http://www.w3.org/1999/xlink"
   xmlns:sodipodi="http://sodipodi.sourceforge.net/DTD/sodipodi-0.dtd"
   xmlns:inkscape="http://www.inkscape.org/namespaces/inkscape"
   id="svg2"
   version="1.1"
   inkscape:version="0.91 r13725"
   width="2481"
   height="3503"
   sodipodi:docname="Pepper-and-Carrot_by-David-Revoy_E11P01.svg">
  <metadata
     id="metadata8">
    <rdf:RDF>
      <cc:Work
         rdf:about="">
        <dc:format>image/svg+xml</dc:format>
        <dc:type
           rdf:resource="http://purl.org/dc/dcmitype/StillImage" />
        <dc:title />
      </cc:Work>
    </rdf:RDF>
  </metadata>
  <defs
     id="defs6" />
  <sodipodi:namedview
     pagecolor="#ffffff"
     bordercolor="#666666"
     borderopacity="1"
     objecttolerance="10"
     gridtolerance="10"
     guidetolerance="10"
     inkscape:pageopacity="0"
     inkscape:pageshadow="2"
     inkscape:window-width="1600"
     inkscape:window-height="832"
     id="namedview4"
     showgrid="false"
     inkscape:zoom="0.13150325"
     inkscape:cx="936.74216"
     inkscape:cy="601.3794"
     inkscape:window-x="1276"
     inkscape:window-y="0"
     inkscape:window-maximized="1"
     inkscape:current-layer="layer3" />
  <g
     inkscape:groupmode="layer"
     id="layer2"
     inkscape:label="artwork"
     sodipodi:insensitive="true">
    <image
       sodipodi:absref="/home/willem/Git/peppercarrot_ep11_translation/nl/../gfx_Pepper-and-Carrot_by-David-Revoy_E11P01.png"
       xlink:href="../gfx_Pepper-and-Carrot_by-David-Revoy_E11P01.png"
       y="0"
       x="0"
       id="image10"
       height="3503"
       width="2481" />
  </g>
  <g
     inkscape:groupmode="layer"
     id="layer3"
     inkscape:label="speechbubbles">
    <path
       style="fill:#ffffff;stroke:none"
       d="m 84.26351,1755.7171 c -5.049809,-128.9309 26.70945,-124.4991 229.38231,-123.4177 202.67277,1.0813 254.25244,-25.8336 260.80956,58.6833 6.00834,77.4433 -59.46299,136.4975 -85.95017,153.498 -37.90435,24.3282 -132.43286,48.0278 -223.74107,43.6535 -83.26623,-3.9891 -186.23667,-57.801 -180.50063,-132.4171 z"
       id="path3065"
       inkscape:connector-curvature="0"
       sodipodi:nodetypes="cssssc" />
    <path
       style="fill:#ffffff;stroke:none"
       d="m 900.21742,1754.7355 c 14.20505,-88.3086 135.59208,-105.0759 152.37978,-112.9008 16.7874,-7.8246 112.8901,-13.3085 124.5123,-12.1908 11.6223,1.1179 90.853,-5.7003 150.3398,-5.0047 62.2369,0.7277 97.7306,-11.2196 182.1914,26.8794 26.3609,11.891 68.2182,55.8439 76.9904,129.8301 3.8256,32.2662 -9.748,104.2815 -63.046,134.9027 -130.0171,74.6987 -244.3304,64.3709 -336.0164,58.7817 -91.6861,-5.589 -180.4982,-20.7896 -227.4615,-57.6758 -50.76311,-39.8706 -72.80318,-119.0265 -59.88978,-162.6218 z"
       id="path3061"
       inkscape:connector-curvature="0"
       sodipodi:nodetypes="cssssssssc" />
    <path
       style="color:#000000;display:inline;overflow:visible;visibility:visible;fill:#ffffff;fill-opacity:1;fill-rule:nonzero;stroke:none;stroke-width:1px;marker:none;enable-background:accumulate"
       d="m 1737.5073,1733.5487 c 10.786,-51.0104 9.4955,-139.1029 342.8727,-133.1668 333.3774,5.9364 320.424,27.1646 328.0154,141.9007 7.5915,114.7357 -138.754,130.0404 -342.9285,130.3153 -237.1756,0.3194 -330.7454,-55.4467 -327.9596,-139.0492 z"
       id="path5026"
       inkscape:connector-curvature="0"
       sodipodi:nodetypes="csssc" />
    <path
       style="color:#000000;display:inline;overflow:visible;visibility:visible;fill:#ffffff;fill-opacity:1;fill-rule:nonzero;stroke:none;stroke-width:1px;marker:none;enable-background:accumulate"
       d="m 248.4623,1830.0253 c 15.44367,15.7148 30.88746,36.4298 32.17439,41.43 1.28694,5.0001 -10.93928,32.8583 -6.4349,38.5728 4.50439,5.7145 21.23511,6.4288 23.16562,10.7147 1.93041,4.2859 -3.86092,26.4295 0,30.7153 3.86092,4.2859 30.88735,15.7149 32.17439,19.2865 1.28694,3.5715 8.36531,22.858 21.235,37.8584 -12.22622,-37.8584 -8.36531,-45.7159 -12.86969,-51.4303 -4.50439,-5.7146 -22.52204,-10.7147 -25.09603,-17.1436 -2.57398,-6.4287 2.57399,-27.8581 -2.57398,-33.5725 -5.14785,-5.7145 -17.37418,-7.8575 -17.37418,-7.8575 4.50449,-5.7145 23.80908,-39.2871 2.57398,-72.8597 -21.23511,-33.5727 -46.9746,4.2859 -46.9746,4.2859 z"
       id="path5050"
       inkscape:connector-curvature="0" />
    <path
       style="color:#000000;fill:#ffffff;fill-opacity:1;fill-rule:nonzero;stroke:none;stroke-width:1px;marker:none;visibility:visible;display:inline;overflow:visible;enable-background:accumulate"
       d="m 1396.1772,2120.9882 c 68.3118,-74.6739 88.7022,-171.0856 50.2681,-232.2418 -12.9068,-20.5376 -46.5081,4.9084 -46.5081,4.9084 59.7063,72.6609 34.287,166.8134 -3.76,227.3334 z"
       id="path4000"
       inkscape:connector-curvature="0"
       sodipodi:nodetypes="cscc" />
    <path
       style="fill:#ffffff;stroke:none"
       d="m 2291.4852,1815.4344 c -15.4539,18.0781 -34.4193,44.3463 -33.8114,53.7712 0.8079,9.3246 11.6508,27.238 10.4321,49.7021 -1.0616,19.5667 -14.0824,60.651 -76.2349,91.1318 39.1463,-33.6868 47.3811,-82.8609 45.3101,-99.1786 -1.7861,-14.0729 -24.2104,-45.8128 -23.7763,-55.1893 -0.878,-26.1428 12.9745,-54.7358 37.3709,-63.0033 24.3967,-8.2674 40.7095,22.7661 40.7095,22.7661 z"
       id="path3272"
       inkscape:connector-curvature="0"
       sodipodi:nodetypes="ccscscsc" />
    <path
       style="color:#000000;display:inline;overflow:visible;visibility:visible;fill:#ffffff;fill-opacity:1;fill-rule:nonzero;stroke:none;stroke-width:1px;marker:none;enable-background:accumulate"
       d="m 1486.9753,2935.723 c -0.7919,-23.3017 13.4636,-39.1469 21.3834,-46.6034 7.9198,-7.4565 57.8144,-24.2338 76.0299,-24.2338 18.2154,0 93.4533,16.7773 106.9169,33.5545 13.4636,16.7772 30.8871,16.7772 22.1754,44.7393 -8.7118,27.962 -63.3582,41.9431 -75.2379,44.7393 -11.8797,2.7962 -45.9347,4.6603 -57.0224,3.7283 -11.0877,-0.9321 -96.6212,-17.7092 -94.2453,-55.9242 z"
       id="path3357"
       inkscape:connector-curvature="0" />
    <path
       style="color:#000000;display:inline;overflow:visible;visibility:visible;fill:#ffffff;fill-opacity:1;fill-rule:nonzero;stroke:none;stroke-width:1px;marker:none;enable-background:accumulate"
       d="m 1533.2877,3017.3447 c -1.288,-23.338 18.0313,-40.0079 72.1255,-55.249 54.0941,-15.241 128.7957,-11.4308 148.1149,-6.668 19.3194,4.7628 92.7357,-7.5696 136.0188,20.8789 51.0712,26.8553 27.3644,83.778 -9.7989,94.3819 -23.1832,5.7155 -188.0418,13.336 -215.0888,9.5256 -27.047,-3.8101 -70.8377,-4.7628 -94.0208,-16.1936 -23.503,-11.5885 -36.0628,-23.3379 -37.3507,-46.6758 z"
       id="path3373"
       inkscape:connector-curvature="0"
       sodipodi:nodetypes="zssccssz" />
    <path
       style="color:#000000;display:inline;overflow:visible;visibility:visible;fill:#ffffff;fill-opacity:1;fill-rule:nonzero;stroke:none;stroke-width:1px;marker:none;enable-background:accumulate"
       d="m 1408.674,3036.2361 c 27.2189,10.6931 31.1073,9.721 39.8563,-1.9442 8.7489,-11.6652 17.4978,-31.1073 43.7446,-34.9957 26.2468,-3.8884 38.8841,5.8326 47.633,11.6652 63.6716,-29.2781 71.0511,-33.267 29.1631,16.5258 -16.5257,17.4978 -53.4656,-4.8605 -71.9356,-4.8605 -18.4699,0 -32.0794,26.2467 -46.6609,29.163 -14.5816,2.9163 -30.1352,-7.7768 -41.8005,-15.5536 z"
       id="path4538"
       inkscape:connector-curvature="0"
       sodipodi:nodetypes="cssccssc" />
  </g>
  <g
     inkscape:groupmode="layer"
     id="layer1"
     inkscape:label="txt">
    <flowRoot
       xml:space="preserve"
       id="flowRoot2987-4-9-3"
       style="font-style:normal;font-variant:normal;font-weight:normal;font-stretch:normal;font-size:12px;line-height:125%;font-family:Lavi;-inkscape-font-specification:Lavi;text-align:center;letter-spacing:0px;word-spacing:0px;text-anchor:middle;fill:#000000;fill-opacity:1;stroke:none"
       transform="translate(8.9379545,1409.2948)"><flowRegion
         id="flowRegion2989-5-4-5"><rect
           id="rect2991-7-9-6"
           width="396.31476"
           height="224.54428"
           x="120.55251"
           y="265.53046"
           style="font-style:normal;font-variant:normal;font-weight:normal;font-stretch:normal;font-family:Lavi;-inkscape-font-specification:Lavi;text-align:center;text-anchor:middle" /></flowRegion><flowPara
         style="font-size:45px;text-align:center;text-anchor:middle"
         id="flowPara3030-8">Pepper, je bent een schande voor Chaosah.</flowPara></flowRoot>    <flowRoot
       xml:space="preserve"
       id="flowRoot2987-4-9-3-9"
       style="font-style:normal;font-variant:normal;font-weight:normal;font-stretch:normal;font-size:12px;line-height:125%;font-family:Lavi;-inkscape-font-specification:Lavi;text-align:center;letter-spacing:0px;word-spacing:0px;text-anchor:middle;fill:#000000;fill-opacity:1;stroke:none"
       transform="translate(857.22868,1400.7253)"><flowRegion
         id="flowRegion2989-5-4-5-1"><rect
           id="rect2991-7-9-6-4"
           width="537.16528"
           height="297.96033"
           x="120.55251"
           y="265.53046"
           style="font-style:normal;font-variant:normal;font-weight:normal;font-stretch:normal;font-family:Lavi;-inkscape-font-specification:Lavi;text-align:center;text-anchor:middle" /></flowRegion><flowPara
         style="font-size:45px;text-align:center;text-anchor:middle"
         id="flowPara4289">Cayenne heeft gelijk,</flowPara><flowPara
         style="font-size:45px;text-align:center;text-anchor:middle"
         id="flowPara3345">een heks van Chaosah die haar titel waard is moet nederigheid, angst en respect afdwingen.</flowPara></flowRoot>    <flowRoot
       xml:space="preserve"
       id="flowRoot2987-4-9-3-9-7"
       style="font-style:normal;font-variant:normal;font-weight:normal;font-stretch:normal;font-size:12px;line-height:125%;font-family:Lavi;-inkscape-font-specification:Lavi;text-align:center;letter-spacing:0px;word-spacing:0px;text-anchor:middle;fill:#000000;fill-opacity:1;stroke:none"
       transform="translate(1693.8633,1414.8683)"><flowRegion
         id="flowRegion2989-5-4-5-1-6"><rect
           id="rect2991-7-9-6-4-8"
           width="637.72778"
           height="262.47906"
           x="65.552513"
           y="268.03046"
           style="font-style:normal;font-variant:normal;font-weight:normal;font-stretch:normal;font-family:Lavi;-inkscape-font-specification:Lavi;text-align:center;text-anchor:middle" /></flowRegion><flowPara
         style="font-size:45px;text-align:center;text-anchor:middle"
         id="flowPara3349">... terwijl jij koekjes en cakejes</flowPara><flowPara
         style="font-size:45px;text-align:center;text-anchor:middle"
         id="flowPara4177">zit te eten, zelfs met onze demonen*...</flowPara></flowRoot>    <flowRoot
       xml:space="preserve"
       id="flowRoot2987-4-9-9-9-9"
       style="font-style:normal;font-variant:normal;font-weight:normal;font-stretch:normal;font-size:12px;line-height:125%;font-family:Lavi;-inkscape-font-specification:Lavi;text-align:center;letter-spacing:0px;word-spacing:0px;text-anchor:middle;fill:#000000;fill-opacity:1;stroke:none"
       transform="matrix(0.66530597,0,0,0.68592152,1661.3862,2574.0818)"><flowRegion
         id="flowRegion2989-5-4-7-7-9"><rect
           id="rect2991-7-9-4-3-7"
           width="1100.3401"
           height="65.915588"
           x="120.55251"
           y="265.53046"
           style="font-style:normal;font-variant:normal;font-weight:normal;font-stretch:normal;font-family:Lavi;-inkscape-font-specification:Lavi;text-align:center;text-anchor:middle" /></flowRegion><flowPara
         style="font-size:48px;text-align:start;text-anchor:start;fill:#a0a0a0;fill-opacity:1"
         id="flowPara3080-9-7-0">* Zie aflevering 8: Peppers verjaardagsfeest</flowPara></flowRoot>    <flowRoot
       xml:space="preserve"
       id="flowRoot2987-4-9-3-0"
       style="font-style:normal;font-variant:normal;font-weight:normal;font-stretch:normal;font-size:12px;line-height:125%;font-family:Lavi;-inkscape-font-specification:Lavi;text-align:center;letter-spacing:0px;word-spacing:0px;text-anchor:middle;fill:#000000;fill-opacity:1;stroke:none"
       transform="translate(1405.6686,2630.8459)"><flowRegion
         id="flowRegion2989-5-4-5-4"><rect
           id="rect2991-7-9-6-8"
           width="154.90172"
           height="55.739933"
           x="120.55251"
           y="265.53046"
           style="font-style:normal;font-variant:normal;font-weight:normal;font-stretch:normal;font-family:Lavi;-inkscape-font-specification:Lavi;text-align:center;text-anchor:middle" /></flowRegion><flowPara
         style="font-size:45px;text-align:center;text-anchor:middle"
         id="flowPara3030-8-3">Maar...</flowPara></flowRoot>    <flowRoot
       xml:space="preserve"
       id="flowRoot2987-4-9-3-0-3"
       style="font-style:normal;font-variant:normal;font-weight:normal;font-stretch:normal;font-size:12px;line-height:125%;font-family:Lavi;-inkscape-font-specification:Lavi;text-align:center;letter-spacing:0px;word-spacing:0px;text-anchor:middle;fill:#000000;fill-opacity:1;stroke:none"
       transform="translate(1429.1049,2724.7653)"><flowRegion
         id="flowRegion2989-5-4-5-4-2"><rect
           id="rect2991-7-9-6-8-8"
           width="347.4017"
           height="63.239929"
           x="120.55251"
           y="265.53046"
           style="font-style:normal;font-variant:normal;font-weight:normal;font-stretch:normal;font-family:Lavi;-inkscape-font-specification:Lavi;text-align:center;text-anchor:middle" /></flowRegion><flowPara
         style="font-size:45px;text-align:center;text-anchor:middle"
         id="flowPara3030-8-3-6">... peettantes...</flowPara></flowRoot>  </g>
</svg>
