<?xml version="1.0" encoding="UTF-8" standalone="no"?>
<!-- Created with Inkscape (http://www.inkscape.org/) -->

<svg
   xmlns:dc="http://purl.org/dc/elements/1.1/"
   xmlns:cc="http://creativecommons.org/ns#"
   xmlns:rdf="http://www.w3.org/1999/02/22-rdf-syntax-ns#"
   xmlns:svg="http://www.w3.org/2000/svg"
   xmlns="http://www.w3.org/2000/svg"
   xmlns:xlink="http://www.w3.org/1999/xlink"
   xmlns:sodipodi="http://sodipodi.sourceforge.net/DTD/sodipodi-0.dtd"
   xmlns:inkscape="http://www.inkscape.org/namespaces/inkscape"
   id="svg2"
   version="1.1"
   inkscape:version="0.92.2 (5c3e80d, 2017-08-06)"
   width="2481"
   height="3503"
   sodipodi:docname="Pepper-and-Carrot_by-David-Revoy_E11P01.svg">
  <metadata
     id="metadata8">
    <rdf:RDF>
      <cc:Work
         rdf:about="">
        <dc:format>image/svg+xml</dc:format>
        <dc:type
           rdf:resource="http://purl.org/dc/dcmitype/StillImage" />
        <dc:title />
      </cc:Work>
    </rdf:RDF>
  </metadata>
  <defs
     id="defs6" />
  <sodipodi:namedview
     pagecolor="#ffffff"
     bordercolor="#666666"
     borderopacity="1"
     objecttolerance="10"
     gridtolerance="10"
     guidetolerance="10"
     inkscape:pageopacity="0"
     inkscape:pageshadow="2"
     inkscape:window-width="1366"
     inkscape:window-height="705"
     id="namedview4"
     showgrid="false"
     inkscape:zoom="0.2630065"
     inkscape:cx="1542.5416"
     inkscape:cy="2711.6326"
     inkscape:window-x="-8"
     inkscape:window-y="-8"
     inkscape:window-maximized="1"
     inkscape:current-layer="layer1" />
  <g
     inkscape:groupmode="layer"
     id="layer2"
     inkscape:label="artwork"
     sodipodi:insensitive="true">
    <image
       sodipodi:absref="C:\Users\jamesmichael\Downloads\Compressed\peppercarrot_ep11_translation-master\peppercarrot_ep11_translation-master\ph\../gfx_Pepper-and-Carrot_by-David-Revoy_E11P01.png"
       xlink:href="../gfx_Pepper-and-Carrot_by-David-Revoy_E11P01.png"
       y="0"
       x="0"
       id="image10"
       height="3503"
       width="2481" />
  </g>
  <g
     inkscape:groupmode="layer"
     id="layer3"
     inkscape:label="speechbubbles">
    <path
       style="fill:#ffffff;stroke:none;stroke-width:1.05469275"
       d="m 70.881825,1753.486 c -5.887974,-107.8182 46.816655,-122.0985 283.129095,-121.1941 236.31232,0.9042 293.31837,18.866 300.96384,89.5431 7.0056,64.7617 -25.44548,93.9111 -56.32898,108.1278 -44.1957,20.3444 -207.70558,24.425 -314.1691,20.767 -97.08673,-3.3359 -220.28296,-34.8462 -213.594855,-97.2438 z"
       id="path3065"
       inkscape:connector-curvature="0"
       sodipodi:nodetypes="cssssc" />
    <path
       style="fill:#ffffff;stroke:none;stroke-width:1.05446696"
       d="m 866.21849,1857.3256 c 12.79494,-109.0117 -25.7383,-175.4154 -10.6171,-185.0748 15.121,-9.659 332.89931,-28.527 343.36781,-27.1473 10.4685,1.38 81.8341,-7.0367 135.4158,-6.178 56.0588,0.8983 206.3254,-5.7842 282.402,41.2467 23.7441,14.6788 -8.4559,13.8206 -0.5547,105.1523 3.4458,39.8307 6.121,76.0071 6.3934,155.7752 0.5156,150.9705 -281.9129,127.8561 -368.5302,129.0222 -82.8648,1.1157 -286.25392,5.2549 -328.55526,-40.279 -45.72396,-49.2179 -70.95325,-118.7014 -59.32175,-172.5173 z"
       id="path3061"
       inkscape:connector-curvature="0"
       sodipodi:nodetypes="cssssssssc" />
    <path
       style="color:#000000;display:inline;overflow:visible;visibility:visible;fill:#ffffff;fill-opacity:1;fill-rule:nonzero;stroke:none;stroke-width:1px;marker:none;enable-background:accumulate"
       d="m 1767.0792,1753.5195 c 10.3972,-54.5333 9.1532,-148.7098 330.5126,-142.3637 321.3596,6.3464 308.8731,29.0407 316.1909,151.7008 7.3178,122.6597 -133.7521,139.0214 -330.5664,139.3153 -228.6257,0.3414 -318.8225,-59.276 -316.1371,-148.6524 z"
       id="path5026"
       inkscape:connector-curvature="0"
       sodipodi:nodetypes="csssc" />
    <path
       style="color:#000000;display:inline;overflow:visible;visibility:visible;fill:#ffffff;fill-opacity:1;fill-rule:nonzero;stroke:none;stroke-width:1px;marker:none;enable-background:accumulate"
       d="m 248.4623,1830.0253 c 15.44367,15.7148 30.88746,36.4298 32.17439,41.43 1.28694,5.0001 -10.93928,32.8583 -6.4349,38.5728 4.50439,5.7145 21.23511,6.4288 23.16562,10.7147 1.93041,4.2859 -3.86092,26.4295 0,30.7153 3.86092,4.2859 30.88735,15.7149 32.17439,19.2865 1.28694,3.5715 8.36531,22.858 21.235,37.8584 -12.22622,-37.8584 -8.36531,-45.7159 -12.86969,-51.4303 -4.50439,-5.7146 -22.52204,-10.7147 -25.09603,-17.1436 -2.57398,-6.4287 2.57399,-27.8581 -2.57398,-33.5725 -5.14785,-5.7145 -17.37418,-7.8575 -17.37418,-7.8575 4.50449,-5.7145 23.80908,-39.2871 2.57398,-72.8597 -21.23511,-33.5727 -46.9746,4.2859 -46.9746,4.2859 z"
       id="path5050"
       inkscape:connector-curvature="0" />
    <path
       style="color:#000000;display:inline;overflow:visible;visibility:visible;fill:#ffffff;fill-opacity:1;fill-rule:nonzero;stroke:none;stroke-width:0.57786244px;marker:none;enable-background:accumulate"
       d="m 1463.2182,2108.9646 c 64.311,-46.5923 81.9081,-85.6323 43.4992,-94.3999 -12.8983,-2.9444 -44.775,16.1473 -44.775,16.1473 59.1849,6.0442 36.6861,45.8841 1.2758,78.2526 z"
       id="path4000"
       inkscape:connector-curvature="0"
       sodipodi:nodetypes="cscc" />
    <path
       style="fill:#ffffff;stroke:none"
       d="m 2295.182,1822.1558 c -15.4539,18.0781 -34.4193,44.3463 -33.8114,53.7712 0.8079,9.3246 11.6508,27.238 10.4321,49.7021 -1.0616,19.5667 -14.0824,60.651 -76.2349,91.1318 39.1463,-33.6868 47.3811,-82.8609 45.3101,-99.1786 -1.7861,-14.0729 -24.2104,-45.8128 -23.7763,-55.1893 -0.878,-26.1428 12.9745,-54.7358 37.3709,-63.0033 24.3967,-8.2674 40.7095,22.7661 40.7095,22.7661 z"
       id="path3272"
       inkscape:connector-curvature="0"
       sodipodi:nodetypes="ccscscsc" />
    <path
       style="color:#000000;display:inline;overflow:visible;visibility:visible;fill:#ffffff;fill-opacity:1;fill-rule:nonzero;stroke:none;stroke-width:1px;marker:none;enable-background:accumulate"
       d="m 1533.2877,3017.3447 c -1.288,-23.338 18.0313,-40.0079 72.1255,-55.249 54.0941,-15.241 128.7957,-11.4308 148.1149,-6.668 19.3194,4.7628 92.7357,-7.5696 136.0188,20.8789 51.0712,26.8553 27.3644,83.778 -9.7989,94.3819 -23.1832,5.7155 -188.0418,13.336 -215.0888,9.5256 -27.047,-3.8101 -70.8377,-4.7628 -94.0208,-16.1936 -23.503,-11.5885 -36.0628,-23.3379 -37.3507,-46.6758 z"
       id="path3373"
       inkscape:connector-curvature="0"
       sodipodi:nodetypes="zssccssz" />
    <path
       style="color:#000000;display:inline;overflow:visible;visibility:visible;fill:#ffffff;fill-opacity:1;fill-rule:nonzero;stroke:none;stroke-width:1px;marker:none;enable-background:accumulate"
       d="m 1408.674,3036.2361 c 27.2189,10.6931 31.1073,9.721 39.8563,-1.9442 8.7489,-11.6652 17.4978,-31.1073 43.7446,-34.9957 26.2468,-3.8884 38.8841,5.8326 47.633,11.6652 63.6716,-29.2781 71.0511,-33.267 29.1631,16.5258 -16.5257,17.4978 -53.4656,-4.8605 -71.9356,-4.8605 -18.4699,0 -32.0794,26.2467 -46.6609,29.163 -14.5816,2.9163 -30.1352,-7.7768 -41.8005,-15.5536 z"
       id="path4538"
       inkscape:connector-curvature="0"
       sodipodi:nodetypes="cssccssc" />
  </g>
  <g
     inkscape:groupmode="layer"
     id="layer1"
     inkscape:label="txt">
    <flowRoot
       xml:space="preserve"
       id="flowRoot2987-4-9-3"
       style="font-style:normal;font-variant:normal;font-weight:normal;font-stretch:normal;line-height:0.01%;font-family:Lavi;-inkscape-font-specification:Lavi;text-align:center;letter-spacing:0px;word-spacing:0px;text-anchor:middle;fill:#241c1c;fill-opacity:1;stroke:none;"
       transform="translate(11.626508,1393.1635)"><flowRegion
         id="flowRegion2989-5-4-5"
         style="fill:#241c1c;"><rect
           id="rect2991-7-9-6"
           width="493.10263"
           height="216.47862"
           x="120.55251"
           y="265.53046"
           style="font-style:normal;font-variant:normal;font-weight:normal;font-stretch:normal;font-family:Lavi;-inkscape-font-specification:Lavi;text-align:center;text-anchor:middle;fill:#241c1c;" /></flowRegion><flowPara
         style="font-size:45px;line-height:1.25;text-align:center;text-anchor:middle;fill:#241c1c;"
         id="flowPara3030-8">Tsk, tsk ,tsk...</flowPara><flowPara
         style="font-size:45px;line-height:1.25;text-align:center;text-anchor:middle;fill:#241c1c;"
         id="flowPara968">Kahihiyan ka sa Chaosah, </flowPara><flowPara
         style="font-size:45px;line-height:1.25;text-align:center;text-anchor:middle;fill:#241c1c;"
         id="flowPara970">Pepper</flowPara></flowRoot>    <flowRoot
       xml:space="preserve"
       id="flowRoot2987-4-9-3-9"
       style="font-style:normal;font-variant:normal;font-weight:normal;font-stretch:normal;line-height:0.01%;font-family:Lavi;-inkscape-font-specification:Lavi;text-align:center;letter-spacing:0px;word-spacing:0px;text-anchor:middle;fill:#483e37;fill-opacity:1;stroke:none;stroke-width:2.20000005;stroke-miterlimit:4;stroke-dasharray:none;"
       transform="translate(819.78592,1405.4795)"><flowRegion
         id="flowRegion2989-5-4-5-1"
         style="stroke-width:2.20000005;stroke-miterlimit:4;stroke-dasharray:none;fill:#483e37;"><rect
           id="rect2991-7-9-6-4"
           width="625.88739"
           height="420.28937"
           x="120.55251"
           y="265.53046"
           style="font-style:normal;font-variant:normal;font-weight:normal;font-stretch:normal;font-family:Lavi;-inkscape-font-specification:Lavi;text-align:center;text-anchor:middle;stroke-width:2.20000005;stroke-miterlimit:4;stroke-dasharray:none;fill:#483e37;" /></flowRegion><flowPara
         style="font-size:45px;line-height:1.25;text-align:center;text-anchor:middle;stroke-width:2.20000005;stroke-miterlimit:4;stroke-dasharray:none;fill:#483e37;"
         id="flowPara3345">Tama si Cayenne, </flowPara><flowPara
         style="font-size:45px;line-height:1.25;text-align:center;text-anchor:middle;stroke-width:2.20000005;stroke-miterlimit:4;stroke-dasharray:none;fill:#483e37;"
         id="flowPara853">   ang isang bruha, </flowPara><flowPara
         style="font-size:45px;line-height:1.25;text-align:center;text-anchor:middle;stroke-width:2.20000005;stroke-miterlimit:4;stroke-dasharray:none;fill:#483e37;"
         id="flowPara866">na pinapangalanang: </flowPara><flowPara
         style="font-size:45px;line-height:1.25;text-align:center;text-anchor:middle;stroke-width:2.20000005;stroke-miterlimit:4;stroke-dasharray:none;fill:#483e37;"
         id="flowPara855">&quot;<flowSpan
   style="letter-spacing:1px;stroke:#483e37;stroke-width:2.20000005;stroke-miterlimit:4;stroke-dasharray:none;stroke-opacity:1;fill:#483e37"
   id="flowSpan868">Salamangkera ng Chaosah</flowSpan>&quot; ay  kailangang makapag udyok ng respeto, takot at pagsunod.</flowPara></flowRoot>    <flowRoot
       xml:space="preserve"
       id="flowRoot2987-4-9-3-9-7"
       style="font-style:normal;font-variant:normal;font-weight:normal;font-stretch:normal;line-height:0.01%;font-family:Lavi;-inkscape-font-specification:Lavi;text-align:center;letter-spacing:0px;word-spacing:0px;text-anchor:middle;fill:#241c1c;fill-opacity:1;stroke:none;"
       transform="translate(1696.5518,1385.2942)"><flowRegion
         id="flowRegion2989-5-4-5-1-6"
         style="fill:#241c1c;"><rect
           id="rect2991-7-9-6-4-8"
           width="637.72778"
           height="262.47906"
           x="65.552513"
           y="268.03046"
           style="font-style:normal;font-variant:normal;font-weight:normal;font-stretch:normal;font-family:Lavi;-inkscape-font-specification:Lavi;text-align:center;text-anchor:middle;fill:#241c1c;" /></flowRegion><flowPara
         style="font-size:45px;line-height:1.25;text-align:center;text-anchor:middle;fill:#241c1c;"
         id="flowPara3030-8-7-0">... samantalang ikaw </flowPara><flowPara
         style="font-size:45px;line-height:1.25;text-align:center;text-anchor:middle;fill:#241c1c;"
         id="flowPara3349">pati mga halimaw natin eh pinaghahandaan mo pa ng coffee gelato...</flowPara></flowRoot>    <flowRoot
       xml:space="preserve"
       id="flowRoot2987-4-9-9-9-9"
       style="font-style:normal;font-variant:normal;font-weight:normal;font-stretch:normal;line-height:0.01%;font-family:Lavi;-inkscape-font-specification:Lavi;text-align:center;letter-spacing:0px;word-spacing:0px;text-anchor:middle;fill:#000000;fill-opacity:1;stroke:none"
       transform="matrix(0.66530597,0,0,0.68592152,1696.3374,2574.0818)"><flowRegion
         id="flowRegion2989-5-4-7-7-9"><rect
           id="rect2991-7-9-4-3-7"
           width="1100.3401"
           height="65.915588"
           x="120.55251"
           y="265.53046"
           style="font-style:normal;font-variant:normal;font-weight:normal;font-stretch:normal;font-family:Lavi;-inkscape-font-specification:Lavi;text-align:center;text-anchor:middle" /></flowRegion><flowPara
         style="font-size:48px;line-height:1.25;text-align:start;text-anchor:start;fill:#a0a0a0;fill-opacity:1"
         id="flowPara3080-9-7-0">* See episode 8: Pepper's Birthday Party.</flowPara></flowRoot>    <flowRoot
       xml:space="preserve"
       id="flowRoot2987-4-9-3-0-3"
       style="font-style:normal;font-variant:normal;font-weight:normal;font-stretch:normal;line-height:0.01%;font-family:Lavi;-inkscape-font-specification:Lavi;text-align:center;letter-spacing:0px;word-spacing:0px;text-anchor:middle;fill:#000000;fill-opacity:1;stroke:none"
       transform="translate(1437.1706,2724.7653)"><flowRegion
         id="flowRegion2989-5-4-5-4-2"><rect
           id="rect2991-7-9-6-8-8"
           width="347.4017"
           height="63.239929"
           x="120.55251"
           y="265.53046"
           style="font-style:normal;font-variant:normal;font-weight:normal;font-stretch:normal;font-family:Lavi;-inkscape-font-specification:Lavi;text-align:center;text-anchor:middle" /></flowRegion><flowPara
         style="font-size:45px;line-height:1.25;text-align:center;text-anchor:middle"
         id="flowPara3030-8-3-6">...pero lola...</flowPara></flowRoot>  </g>
</svg>
