<?xml version="1.0" encoding="UTF-8" standalone="no"?>
<!-- Created with Inkscape (http://www.inkscape.org/) -->

<svg
   xmlns:dc="http://purl.org/dc/elements/1.1/"
   xmlns:cc="http://creativecommons.org/ns#"
   xmlns:rdf="http://www.w3.org/1999/02/22-rdf-syntax-ns#"
   xmlns:svg="http://www.w3.org/2000/svg"
   xmlns="http://www.w3.org/2000/svg"
   xmlns:xlink="http://www.w3.org/1999/xlink"
   xmlns:sodipodi="http://sodipodi.sourceforge.net/DTD/sodipodi-0.dtd"
   xmlns:inkscape="http://www.inkscape.org/namespaces/inkscape"
   id="svg2"
   version="1.1"
   inkscape:version="0.92.1 r15371"
   width="2646.3999"
   height="3736.5334"
   sodipodi:docname="Pepper-and-Carrot_by-David-Revoy_E11P03.svg">
  <metadata
     id="metadata8">
    <rdf:RDF>
      <cc:Work
         rdf:about="">
        <dc:format>image/svg+xml</dc:format>
        <dc:type
           rdf:resource="http://purl.org/dc/dcmitype/StillImage" />
        <dc:title />
      </cc:Work>
    </rdf:RDF>
  </metadata>
  <defs
     id="defs6" />
  <sodipodi:namedview
     pagecolor="#ffffff"
     bordercolor="#666666"
     borderopacity="1"
     objecttolerance="10"
     gridtolerance="10"
     guidetolerance="10"
     inkscape:pageopacity="0"
     inkscape:pageshadow="2"
     inkscape:window-width="1305"
     inkscape:window-height="744"
     id="namedview4"
     showgrid="false"
     inkscape:zoom="0.32526913"
     inkscape:cx="1360.1229"
     inkscape:cy="857.57301"
     inkscape:window-x="61"
     inkscape:window-y="24"
     inkscape:window-maximized="1"
     inkscape:current-layer="layer1" />
  <g
     inkscape:groupmode="layer"
     id="layer2"
     inkscape:label="artwork"
     sodipodi:insensitive="true">
    <image
       sodipodi:absref="/home/emmiline/Documents/git/peppercarrot/peppercarrot_ep11_translation/da/../gfx_Pepper-and-Carrot_by-David-Revoy_E11P03.png"
       xlink:href="../gfx_Pepper-and-Carrot_by-David-Revoy_E11P03.png"
       y="0"
       x="0"
       id="image10"
       height="3736.5334"
       width="2646.3999" />
  </g>
  <g
     inkscape:groupmode="layer"
     id="layer3"
     inkscape:label="speechbubbles">
    <path
       style="color:#000000;display:inline;overflow:visible;visibility:visible;fill:#ffffff;fill-opacity:1;fill-rule:nonzero;stroke:none;stroke-width:1.06666672px;marker:none;enable-background:accumulate"
       d="m 353.63177,1803.3525 c 25.95718,-47.214 73.58284,-92.1472 145.18893,-108.2428 71.60597,-16.0957 215.40967,-15.2905 238.68171,-9.9252 23.27183,5.365 152.13929,26.4234 179.88651,53.2496 27.74743,26.8262 60.11006,67.0646 68.16586,101.402 8.05581,34.3373 0.89507,116.9621 -25.06216,135.2039 -25.95716,18.2418 -144.10701,57.9445 -213.02785,60.0906 -68.92084,2.1462 -229.13906,-15.0227 -274.78797,-26.8261 -45.64891,-11.8036 -93.98293,-26.8263 -108.3041,-64.3829 -14.32124,-37.5566 -41.1735,-86.9168 -10.74093,-140.5691 z"
       id="path3533"
       inkscape:connector-curvature="0"
       sodipodi:nodetypes="cscssssssc" />
    <path
       style="color:#000000;display:inline;overflow:visible;visibility:visible;fill:#ffffff;fill-opacity:1;fill-rule:nonzero;stroke:none;stroke-width:1.06666672px;marker:none;enable-background:accumulate"
       d="m 942.69328,1861.4782 c 47.40769,-24.4213 124.17912,-24.8201 138.11412,58.6465 37.0012,15.3515 63.2769,31.3173 70.5165,99.5264 -14.811,-49.0313 -28.4459,-74.0662 -84.7851,-92.3937 -12.7764,-41.8041 -58.6335,-56.8722 -111.20606,-16.6739 -52.57256,40.1985 -35.54154,33.4907 -35.54154,33.4907 l 8.12148,-75.3165 z"
       id="path5074"
       inkscape:connector-curvature="0"
       sodipodi:nodetypes="ccccsccc" />
    <path
       style="color:#000000;display:inline;overflow:visible;visibility:visible;fill:#ffffff;fill-opacity:1;fill-rule:nonzero;stroke:none;stroke-width:1.06666672px;marker:none;enable-background:accumulate"
       d="m 477.52293,3470.7587 c 12.24119,-84.2132 80.94546,-126.0707 340.49702,-119.0602 171.2958,4.6267 318.68835,32.7554 302.36685,156.1715 -16.3217,123.4161 -218.52398,100.4951 -299.70957,101.0985 -88.45362,0.6573 -265.6666,-8.1467 -306.22482,-51.5494 -25.38855,-27.169 -38.96965,-60.5251 -36.92948,-86.6604 z"
       id="path4546"
       inkscape:connector-curvature="0"
       sodipodi:nodetypes="cssssc" />
    <path
       style="color:#000000;display:inline;overflow:visible;visibility:visible;fill:#ffffff;fill-opacity:1;fill-rule:nonzero;stroke:none;stroke-width:1.06666672px;marker:none;enable-background:accumulate"
       d="m 899.52747,3216.1968 c 2.83538,11.8381 0.60688,26.2505 -9.43758,34.1172 -6.00496,4.3139 -13.83761,2.1506 -20.31539,5.1699 -9.01049,3.3543 -17.56042,10.7103 -19.22195,20.5552 0.0697,7.963 1.12933,15.9093 0.55837,23.8889 -1.31409,29.6224 -11.53024,58.0224 -23.96547,84.6498 -6.02378,12.2007 -14.2897,25.0104 -27.85328,29.541 -17.27456,5.7986 -38.75595,-0.847 -47.77067,-17.17 -6.94467,-12.6844 -4.75317,-30.8157 7.44214,-39.5259 4.80569,-3.2951 11.17385,-3.9327 16.56063,-1.7585 16.28555,3.3841 32.72041,-6.9861 40.51494,-20.9378 3.8405,-7.3553 6.86612,-15.1191 10.05713,-22.7656 4.23767,-11.8587 4.23445,-24.6006 3.84308,-37.0186 0.027,-10.0206 6.84411,-18.3865 13.98284,-24.7168 5.60683,-4.7452 12.25165,-8.2766 19.35123,-10.1781 14.59918,2.5822 29.00706,-12.8609 25.20044,-27.2524 -4.24624,-18.308 -9.82852,-36.2736 -15.84132,-54.0739 10.87843,18.1326 22.22198,36.5945 26.89486,57.4756 z"
       id="path4496"
       inkscape:connector-curvature="0" />
  </g>
  <g
     inkscape:groupmode="layer"
     id="layer1"
     inkscape:label="txt">
    <path
       style="color:#000000;display:inline;overflow:visible;visibility:visible;fill:#ffffff;fill-opacity:1;fill-rule:nonzero;stroke:none;stroke-width:1.06666672px;marker:none;enable-background:accumulate"
       d="m 90.891939,114.98397 c -25.537753,22.82105 -31.618162,51.07566 -29.186007,64.1162 2.432183,13.04051 36.482494,73.8966 38.914668,90.19738 2.43217,16.30078 -34.050322,89.11055 -26.753823,113.01831 7.2965,23.90777 21.327462,88.94175 117.398013,95.46186 100.4809,5.38272 422.9969,47.07605 493.07565,-46.5597 64.77784,-99.69146 74.18851,-291.30037 -9.72873,-328.18788 C 622.32026,83.469227 150.47999,51.954496 90.891939,114.98397 Z"
       id="path4464"
       inkscape:connector-curvature="0"
       sodipodi:nodetypes="cssscccc" />
    <flowRoot
       xml:space="preserve"
       id="flowRoot2987-4-9-3-5-9-8-3-5"
       style="font-style:normal;font-variant:normal;font-weight:normal;font-stretch:normal;font-size:12.80000019px;line-height:0.01%;font-family:Lavi;-inkscape-font-specification:Lavi;text-align:center;letter-spacing:0px;word-spacing:0px;text-anchor:middle;fill:#000000;fill-opacity:1;stroke:none;stroke-width:1.06666672"><flowRegion
         id="flowRegion2989-5-4-5-8-9-5-4-2"
         style="stroke-width:1.06666672"><rect
           id="rect2991-7-9-6-5-7-5-4-9"
           width="530.8902"
           height="382.14398"
           x="144.41322"
           y="161.0266"
           style="font-style:normal;font-variant:normal;font-weight:normal;font-stretch:normal;font-family:Lavi;-inkscape-font-specification:Lavi;text-align:center;text-anchor:middle;stroke-width:1.13777781" /></flowRegion><flowPara
         style="font-size:48px;line-height:1.25;text-align:center;text-anchor:middle;stroke-width:1.06666672"
         id="flowPara3030-8-1-8-7-8-3">Den nye Konge af Akren er for god og sød mod sine undersåtter. Folket skal frygte</flowPara><flowPara
         style="font-size:48px;line-height:1.25;text-align:center;text-anchor:middle;stroke-width:1.06666672"
         id="flowPara28">deres Konge.</flowPara></flowRoot>    <path
       style="color:#000000;display:inline;overflow:visible;visibility:visible;fill:#ffffff;fill-opacity:1;fill-rule:nonzero;stroke:none;stroke-width:1.06666672px;marker:none;enable-background:accumulate"
       d="m 630.32741,429.22798 c -14.02244,34.97176 13.47888,122.10388 66.41606,135.57935 -74.86458,-4.34669 -105.96388,-82.10487 -112.67245,-106.62298 -6.70858,-24.51813 46.25639,-28.95637 46.25639,-28.95637 z"
       id="path5010"
       inkscape:connector-curvature="0"
       sodipodi:nodetypes="ccsc" />
    <flowRoot
       xml:space="preserve"
       id="flowRoot2987-4-9-3-5-9-8-3-5-4"
       style="font-style:normal;font-variant:normal;font-weight:normal;font-stretch:normal;font-size:12.80000019px;line-height:0.01%;font-family:Lavi;-inkscape-font-specification:Lavi;text-align:center;letter-spacing:0px;word-spacing:0px;text-anchor:middle;fill:#000000;fill-opacity:1;stroke:none;stroke-width:1.06666672"><flowRegion
         id="flowRegion2989-5-4-5-8-9-5-4-2-2"
         style="stroke-width:1.06666672"><rect
           id="rect2991-7-9-6-5-7-5-4-9-5"
           width="530.8902"
           height="382.14398"
           x="399.04767"
           y="1752.8239"
           style="font-style:normal;font-variant:normal;font-weight:normal;font-stretch:normal;font-family:Lavi;-inkscape-font-specification:Lavi;text-align:center;text-anchor:middle;stroke-width:1.13777781" /></flowRegion><flowPara
         style="font-size:48px;line-height:1.25;text-align:center;text-anchor:middle;stroke-width:1.06666672"
         id="flowPara3030-8-1-8-7-8-3-5">Din første opgave er at skræmme denne monark for bedre at manipulere ham</flowPara></flowRoot>    <flowRoot
       xml:space="preserve"
       id="flowRoot2987-4-9-3-5-9-8-3-5-4-6"
       style="font-style:normal;font-variant:normal;font-weight:normal;font-stretch:normal;font-size:12.80000019px;line-height:0.01%;font-family:Lavi;-inkscape-font-specification:Lavi;text-align:center;letter-spacing:0px;word-spacing:0px;text-anchor:middle;fill:#000000;fill-opacity:1;stroke:none;stroke-width:1.06666672"><flowRegion
         id="flowRegion2989-5-4-5-8-9-5-4-2-2-2"
         style="stroke-width:1.06666672"><rect
           id="rect2991-7-9-6-5-7-5-4-9-5-2"
           width="530.8902"
           height="382.14398"
           x="536.05731"
           y="3396.708"
           style="font-style:normal;font-variant:normal;font-weight:normal;font-stretch:normal;font-family:Lavi;-inkscape-font-specification:Lavi;text-align:center;text-anchor:middle;stroke-width:1.13777781" /></flowRegion><flowPara
         style="font-size:48px;line-height:1.25;text-align:center;text-anchor:middle;stroke-width:1.06666672"
         id="flowPara3030-8-1-8-7-8-3-5-1">En ægte Kaosah-heks har indflydelse på de magtfulde!</flowPara></flowRoot>    <flowRoot
       xml:space="preserve"
       id="flowRoot30"
       style="fill:black;fill-opacity:1;stroke:none;font-family:sans-serif;font-style:normal;font-weight:normal;font-size:40px;line-height:1.25;letter-spacing:0px;word-spacing:0px"><flowRegion
         id="flowRegion32"><rect
           id="rect34"
           width="153.71886"
           height="64.56192"
           x="3095.8979"
           y="603.74304" /></flowRegion><flowPara
         id="flowPara36" /></flowRoot>    <flowRoot
       xml:space="preserve"
       id="flowRoot38"
       style="fill:black;fill-opacity:1;stroke:none;font-family:sans-serif;font-style:normal;font-weight:normal;font-size:40px;line-height:1.25;letter-spacing:0px;word-spacing:0px"><flowRegion
         id="flowRegion40"><rect
           id="rect42"
           width="39.966904"
           height="67.636299"
           x="3194.2778"
           y="2027.1797" /></flowRegion><flowPara
         id="flowPara44" /></flowRoot>  </g>
</svg>
