<?xml version="1.0" encoding="UTF-8" standalone="no"?>
<!-- Created with Inkscape (http://www.inkscape.org/) -->

<svg
   xmlns:dc="http://purl.org/dc/elements/1.1/"
   xmlns:cc="http://creativecommons.org/ns#"
   xmlns:rdf="http://www.w3.org/1999/02/22-rdf-syntax-ns#"
   xmlns:svg="http://www.w3.org/2000/svg"
   xmlns="http://www.w3.org/2000/svg"
   xmlns:xlink="http://www.w3.org/1999/xlink"
   xmlns:sodipodi="http://sodipodi.sourceforge.net/DTD/sodipodi-0.dtd"
   xmlns:inkscape="http://www.inkscape.org/namespaces/inkscape"
   id="svg2"
   version="1.1"
   inkscape:version="0.92.1 r15371"
   width="2646.3999"
   height="3736.5334"
   sodipodi:docname="Pepper-and-Carrot_by-David-Revoy_E11P05.svg">
  <metadata
     id="metadata8">
    <rdf:RDF>
      <cc:Work
         rdf:about="">
        <dc:format>image/svg+xml</dc:format>
        <dc:type
           rdf:resource="http://purl.org/dc/dcmitype/StillImage" />
        <dc:title />
      </cc:Work>
    </rdf:RDF>
  </metadata>
  <defs
     id="defs6">
    <filter
       style="color-interpolation-filters:sRGB"
       id="filter4375-4-1-1"
       inkscape:label="deevad outline effect">
      <feFlood
         id="feFlood4377-7-9-0"
         flood-opacity="1"
         flood-color="rgb(0,0,0)"
         result="flood" />
      <feComposite
         id="feComposite4379-3-8-8"
         in2="SourceGraphic"
         in="flood"
         operator="in"
         result="composite1" />
      <feMorphology
         id="feMorphology4393-1-0-49"
         operator="dilate"
         radius="4"
         result="result3" />
      <feComposite
         id="feComposite4385-9-5-7"
         in2="result3"
         in="SourceGraphic"
         operator="over"
         result="composite2" />
    </filter>
    <filter
       style="color-interpolation-filters:sRGB"
       id="filter4375-4-1-1-9"
       inkscape:label="deevad outline effect">
      <feFlood
         id="feFlood4377-7-9-0-2"
         flood-opacity="1"
         flood-color="rgb(0,0,0)"
         result="flood" />
      <feComposite
         id="feComposite4379-3-8-8-5"
         in2="SourceGraphic"
         in="flood"
         operator="in"
         result="composite1" />
      <feMorphology
         id="feMorphology4393-1-0-49-5"
         operator="dilate"
         radius="4"
         result="result3" />
      <feComposite
         id="feComposite4385-9-5-7-5"
         in2="result3"
         in="SourceGraphic"
         operator="over"
         result="composite2" />
    </filter>
    <filter
       style="color-interpolation-filters:sRGB"
       id="filter4375-4-1-1-2"
       inkscape:label="deevad outline effect">
      <feFlood
         id="feFlood4377-7-9-0-0"
         flood-opacity="1"
         flood-color="rgb(118,29,43)"
         result="flood" />
      <feComposite
         id="feComposite4379-3-8-8-4"
         in2="SourceGraphic"
         in="flood"
         operator="in"
         result="composite1" />
      <feMorphology
         id="feMorphology4393-1-0-49-9"
         operator="dilate"
         radius="4"
         result="result3" />
      <feComposite
         id="feComposite4385-9-5-7-9"
         in2="result3"
         in="SourceGraphic"
         operator="over"
         result="composite2" />
    </filter>
  </defs>
  <sodipodi:namedview
     pagecolor="#ffffff"
     bordercolor="#666666"
     borderopacity="1"
     objecttolerance="10"
     gridtolerance="10"
     guidetolerance="10"
     inkscape:pageopacity="0"
     inkscape:pageshadow="2"
     inkscape:window-width="1305"
     inkscape:window-height="744"
     id="namedview4"
     showgrid="false"
     inkscape:zoom="0.40000001"
     inkscape:cx="1387.5885"
     inkscape:cy="825.04463"
     inkscape:window-x="61"
     inkscape:window-y="24"
     inkscape:window-maximized="1"
     inkscape:current-layer="layer1" />
  <g
     inkscape:groupmode="layer"
     id="layer2"
     inkscape:label="artwork"
     sodipodi:insensitive="true">
    <image
       sodipodi:absref="/home/emmiline/Documents/git/peppercarrot/peppercarrot_ep11_translation/da/../gfx_Pepper-and-Carrot_by-David-Revoy_E11P05.png"
       xlink:href="../gfx_Pepper-and-Carrot_by-David-Revoy_E11P05.png"
       width="2646.3999"
       height="3736.5334"
       id="image10"
       x="0"
       y="0" />
  </g>
  <g
     inkscape:groupmode="layer"
     id="layer3"
     inkscape:label="speechbubbles" />
  <g
     inkscape:groupmode="layer"
     id="layer1"
     inkscape:label="txt">
    <path
       style="color:#000000;display:inline;overflow:visible;visibility:visible;fill:#ffffff;fill-opacity:1;fill-rule:nonzero;stroke:none;stroke-width:0.88278067px;marker:none;enable-background:accumulate"
       d="m 1392.4597,1126.429 c -7.611,0.8328 -14.3412,3.8404 -18.5411,8.779 -11.6009,-13.1086 -26.9604,1.9819 -28.326,5.0738 -14.3323,-6.9245 -34.1285,-1.4799 -41.8087,6.065 -19.0606,-10.2806 -58.9436,6.8984 -57.5341,29.0187 -21.5277,16.3984 -22.4092,35.2672 -15.6105,46.5917 -16.5054,13.4649 -24.2442,74.5789 23.1428,79.7858 13.5979,22.649 49.7955,32.0992 66.3007,18.6341 22.9375,5.7221 37.3431,11.0725 42.8059,-1.2958 9.4129,10.6365 30.4933,12.4407 33.4502,0.7564 16.6054,10.9405 39.2903,13.3999 51.3946,3.5252 22.9374,5.7222 37.3431,11.0744 42.8059,-1.2939 11.6006,13.1085 30.8089,15.8845 40.7236,-1.4211 19.7238,8.0425 22.6806,2.4752 35.686,-6.8705 22.2407,17.1807 41.9731,8.759 49.8971,-6.8439 31.1071,6.7547 35.8498,-20.0661 34.221,-30.0463 27.1127,-10.3542 34.3898,-34.5036 13.8826,-54.3973 6.0504,-24.9483 -3.5981,-53.7271 -44.5973,-64.9597 -10.0881,-19.3453 -43.6276,-33.4063 -66.3743,-17.061 -16.4026,-14.8923 -42.0707,-14.4302 -52.4089,-2.2734 -8.3285,-9.4109 -18.5671,-4.2883 -24.2014,0.4949 -14.7102,-9.3181 -35.4195,-12.4343 -51.0404,-1.2091 -9.739,-8.8424 -22.7438,-12.2704 -33.8677,-11.0526 z"
       id="path4043"
       inkscape:connector-curvature="0"
       sodipodi:nodetypes="ccccccccccccccccccccccc" />
    <flowRoot
       xml:space="preserve"
       id="flowRoot2987-4-9-3-5-9-8-3-5-4-0-5-5"
       style="font-style:normal;font-variant:normal;font-weight:normal;font-stretch:normal;font-size:12.80000019px;line-height:0.01%;font-family:Lavi;-inkscape-font-specification:Lavi;text-align:center;letter-spacing:0px;word-spacing:0px;text-anchor:middle;fill:#000000;fill-opacity:1;stroke:none;stroke-width:1.06666672"
       transform="translate(-12,8)"><flowRegion
         id="flowRegion2989-5-4-5-8-9-5-4-2-2-5-0-8"
         style="stroke-width:1.06666672"><rect
           id="rect2991-7-9-6-5-7-5-4-9-5-4-3-2"
           width="526.64893"
           height="335.34622"
           x="1200.0718"
           y="1160.869"
           style="font-style:normal;font-variant:normal;font-weight:normal;font-stretch:normal;font-family:Lavi;-inkscape-font-specification:Lavi;text-align:center;text-anchor:middle;stroke-width:1.13777781" /></flowRegion><flowPara
         style="font-size:48px;line-height:1.25;text-align:center;text-anchor:middle;stroke-width:1.06666672"
         id="flowPara63">Dig og mig...</flowPara><flowPara
         style="font-size:48px;line-height:1.25;text-align:center;text-anchor:middle;stroke-width:1.06666672"
         id="flowPara59">vi er meget ens...</flowPara></flowRoot>    <path
       style="color:#000000;display:inline;overflow:visible;visibility:visible;fill:#ffffff;fill-opacity:1;fill-rule:nonzero;stroke:none;stroke-width:0.94993061px;marker:none;enable-background:accumulate"
       d="m 991.36902,2526.1701 c 4.76873,-0.5521 8.98548,-2.5456 11.61698,-5.8188 7.2685,8.6885 16.892,-1.3136 17.7475,-3.363 8.98,4.5896 21.3832,0.981 26.1952,-4.0199 11.9426,6.8141 36.9311,-4.5722 36.0481,-19.2338 13.488,-10.8692 14.0404,-23.3756 9.7806,-30.8816 10.3414,-8.9246 15.1901,-49.4316 -14.5,-52.8828 -8.5198,-15.0119 -31.1993,-21.2756 -41.5406,-12.3507 -14.3716,-3.7927 -23.3973,-7.339 -26.8201,0.8589 -5.8977,-7.0501 -19.10551,-8.2458 -20.95813,-0.5014 -10.40412,-7.2515 -24.61732,-8.8816 -32.20123,-2.3367 -14.37144,-3.7925 -23.39728,-7.3401 -26.82003,0.8578 -7.26828,-8.6884 -19.30327,-10.5284 -25.51529,0.9418 -12.35789,-5.3306 -14.21048,-1.6405 -22.35904,4.5538 -13.93484,-11.3874 -26.29813,-5.8054 -31.26292,4.5363 -19.49008,-4.4771 -22.46167,13.3 -21.44111,19.9149 -16.98746,6.8629 -21.54693,22.8693 -8.69817,36.0552 -3.79091,16.5358 2.25445,35.6107 27.94243,43.0557 6.32065,12.8224 27.33486,22.1422 41.58674,11.3083 10.27696,9.8707 26.35928,9.5644 32.83673,1.5069 5.21817,6.2375 11.63321,2.8422 15.16328,-0.3281 9.21673,6.1761 22.19211,8.2415 31.9793,0.8015 6.10199,5.8608 14.25013,8.1329 21.21976,7.3257 z"
       id="path4043-4"
       inkscape:connector-curvature="0"
       sodipodi:nodetypes="ccccccccccccccccccccccc" />
    <flowRoot
       xml:space="preserve"
       id="flowRoot2987-4-9-3-5-9-8-3-5-4-0-5-5-7"
       style="font-style:normal;font-variant:normal;font-weight:normal;font-stretch:normal;font-size:12.80000019px;line-height:0.01%;font-family:Lavi;-inkscape-font-specification:Lavi;text-align:center;letter-spacing:0px;word-spacing:0px;text-anchor:middle;fill:#000000;fill-opacity:1;stroke:none;stroke-width:1.06666672"
       transform="translate(18)"><flowRegion
         id="flowRegion2989-5-4-5-8-9-5-4-2-2-5-0-8-9"
         style="stroke-width:1.06666672"><rect
           id="rect2991-7-9-6-5-7-5-4-9-5-4-3-2-2"
           width="526.64893"
           height="335.34622"
           x="690.59247"
           y="2429.498"
           style="font-style:normal;font-variant:normal;font-weight:normal;font-stretch:normal;font-family:Lavi;-inkscape-font-specification:Lavi;text-align:center;text-anchor:middle;stroke-width:1.13777781" /></flowRegion><flowPara
         style="font-size:48px;line-height:1.25;text-align:center;text-anchor:middle;stroke-width:1.06666672"
         id="flowPara4272-0-7">unge...</flowPara></flowRoot>    <path
       style="color:#000000;display:inline;overflow:visible;visibility:visible;fill:#ffffff;fill-opacity:1;fill-rule:nonzero;stroke:none;stroke-width:0.98241746px;marker:none;enable-background:accumulate"
       d="m 1152.2601,2631.5035 c 5.1005,-0.5521 9.6105,-2.5456 12.4251,-5.8189 7.7742,8.6885 18.0672,-1.3136 18.9822,-3.363 9.6047,4.5897 22.8707,0.981 28.0175,-4.0198 12.7734,6.814 39.5004,-4.5723 38.5559,-19.2339 14.4264,-10.8692 15.0172,-23.3755 10.461,-30.8816 11.0609,-8.9245 16.2469,-49.4315 -15.5087,-52.8827 -9.1124,-15.012 -33.3698,-21.2757 -44.4305,-12.3507 -15.3714,-3.7928 -25.025,-7.339 -28.6859,0.8588 -6.3079,-7.0501 -20.4347,-8.2457 -22.4161,-0.5014 -11.128,-7.2514 -26.3299,-8.8816 -34.4414,-2.3366 -15.3712,-3.7926 -25.025,-7.3402 -28.6859,0.8578 -7.7739,-8.6885 -20.6461,-10.5285 -27.2904,0.9417 -13.2176,-5.3305 -15.1991,-1.6405 -23.9145,4.5538 -14.9043,-11.3874 -28.1276,-5.8054 -33.4378,4.5364 -20.84594,-4.4772 -24.02428,13.2999 -22.93271,19.9148 -18.16925,6.863 -23.04592,22.8694 -9.30329,36.0552 -4.05464,16.5359 2.41129,35.6108 29.88632,43.0558 6.76038,12.8224 29.23648,22.1422 44.47978,11.3082 10.992,9.8708 28.1932,9.5644 35.1212,1.5069 5.5812,6.2376 12.4425,2.8423 16.2182,-0.3281 9.8579,6.1761 23.736,8.2415 34.2039,0.8015 6.5266,5.8608 15.2416,8.1329 22.6961,7.3258 z"
       id="path4043-4-9"
       inkscape:connector-curvature="0"
       sodipodi:nodetypes="ccccccccccccccccccccccc" />
    <flowRoot
       xml:space="preserve"
       id="flowRoot2987-4-9-3-5-9-8-3-5-4-0-5-5-7-1"
       style="font-style:normal;font-variant:normal;font-weight:normal;font-stretch:normal;font-size:12.80000019px;line-height:0.01%;font-family:Lavi;-inkscape-font-specification:Lavi;text-align:center;letter-spacing:0px;word-spacing:0px;text-anchor:middle;fill:#000000;fill-opacity:1;stroke:none;stroke-width:1.06666672"
       transform="translate(10)"><flowRegion
         id="flowRegion2989-5-4-5-8-9-5-4-2-2-5-0-8-9-8"
         style="stroke-width:1.06666672"><rect
           id="rect2991-7-9-6-5-7-5-4-9-5-4-3-2-2-3"
           width="526.64893"
           height="335.34622"
           x="849.77606"
           y="2535.675"
           style="font-style:normal;font-variant:normal;font-weight:normal;font-stretch:normal;font-family:Lavi;-inkscape-font-specification:Lavi;text-align:center;text-anchor:middle;stroke-width:1.13777781" /></flowRegion><flowPara
         style="font-size:48px;line-height:1.25;text-align:center;text-anchor:middle;stroke-width:1.06666672"
         id="flowPara4272-0-7-7">alene...</flowPara></flowRoot>    <path
       style="color:#000000;display:inline;overflow:visible;visibility:visible;fill:#ffffff;fill-opacity:1;fill-rule:nonzero;stroke:none;stroke-width:1.03236961px;marker:none;enable-background:accumulate"
       d="m 1846.8177,2770.1758 c 7.3672,-0.7751 13.8816,-3.573 17.9469,-8.1674 11.2289,12.1951 26.096,-1.8437 27.4178,-4.72 13.8728,6.4418 33.0343,1.3768 40.4683,-5.6423 18.4497,9.5641 57.054,-6.4174 55.6899,-26.9959 20.8374,-15.2557 21.6906,-32.8092 15.1097,-43.3446 15.9764,-12.5263 23.4671,-69.3806 -22.4007,-74.2246 -13.1619,-21.0703 -48.199,-29.8619 -64.1751,-17.3352 -22.2024,-5.3233 -36.1461,-10.3008 -41.4335,1.2056 -9.1113,-9.8954 -29.5159,-11.5737 -32.378,-0.7039 -16.0733,-10.1777 -38.0307,-12.4658 -49.7471,-3.2796 -22.202,-5.3231 -36.1458,-10.3025 -41.4337,1.2039 -11.2284,-12.1947 -29.821,-14.7773 -39.418,1.322 -19.0913,-7.482 -21.9533,-2.3027 -34.542,6.3915 -21.5276,-15.983 -40.6273,-8.1484 -48.2973,6.3671 -30.1098,-6.284 -34.7005,18.6674 -33.124,27.952 -26.2435,9.6326 -33.2874,32.0986 -13.4376,50.6059 -5.8564,23.2092 3.483,49.9822 43.1676,60.4317 9.7648,17.9973 42.2291,31.0781 64.2466,15.872 15.8766,13.8543 40.7218,13.4243 50.7288,2.115 8.0614,8.7549 17.9719,3.9895 23.4254,-0.4604 14.2387,8.6686 34.2841,11.5674 49.4041,1.1249 9.4269,8.2262 22.0147,11.4151 32.7819,10.2823 z"
       id="path4043-4-9-1"
       inkscape:connector-curvature="0"
       sodipodi:nodetypes="ccccccccccccccccccccccc" />
    <flowRoot
       xml:space="preserve"
       id="flowRoot2987-4-9-3-5-9-8-3-5-4-0-5-5-7-1-9"
       style="font-style:normal;font-variant:normal;font-weight:normal;font-stretch:normal;font-size:12.80000019px;line-height:0.01%;font-family:Lavi;-inkscape-font-specification:Lavi;text-align:center;letter-spacing:0px;word-spacing:0px;text-anchor:middle;fill:#000000;fill-opacity:1;stroke:none;stroke-width:1.06666672"
       transform="translate(10)"><flowRegion
         id="flowRegion2989-5-4-5-8-9-5-4-2-2-5-0-8-9-8-8"
         style="stroke-width:1.06666672"><rect
           id="rect2991-7-9-6-5-7-5-4-9-5-4-3-2-2-3-4"
           width="526.64893"
           height="335.34622"
           x="1524.6967"
           y="2617.4229"
           style="font-style:normal;font-variant:normal;font-weight:normal;font-stretch:normal;font-family:Lavi;-inkscape-font-specification:Lavi;text-align:center;text-anchor:middle;stroke-width:1.13777781" /></flowRegion><flowPara
         style="font-size:48px;line-height:1.25;text-align:center;text-anchor:middle;stroke-width:1.06666672"
         id="flowPara4435">... fanger af</flowPara><flowPara
         style="font-size:48px;line-height:1.25;text-align:center;text-anchor:middle;stroke-width:1.06666672"
         id="flowPara67">vores skæbne</flowPara></flowRoot>    <path
       style="color:#000000;display:inline;overflow:visible;visibility:visible;fill:#ffffff;fill-opacity:1;fill-rule:nonzero;stroke:none;stroke-width:1.06666672px;marker:none;enable-background:accumulate"
       d="m 1323.2293,1361.6917 c 3.4695,-14.8418 13.1862,-13.6474 21.025,-8.8436 7.6007,-0.1605 16.5858,1.0093 10.2122,14.1498 4.7449,3.8323 11.0695,12.3559 -2.2727,19.5494 -1.8594,6.713 -21.2838,12.0373 -28.3637,-3.0412 -13.8164,-6.4854 -18.6221,-19.4561 -0.6008,-21.8144 z"
       id="path4051"
       inkscape:connector-curvature="0"
       sodipodi:nodetypes="cccccc" />
    <path
       style="color:#000000;display:inline;overflow:visible;visibility:visible;fill:#ffffff;fill-opacity:1;fill-rule:nonzero;stroke:none;stroke-width:1.06666672px;marker:none;enable-background:accumulate"
       d="m 1372.0222,1396.5417 c 3.9216,-1.0893 7.186,1.2371 9.7375,4.4174 11.9849,-15.5694 28.8119,28.5288 -0.5103,20.9904 -17.8537,6.0859 -19.4271,-10.1643 -12.2469,-15.9017 -2.7543,-3.4332 -0.9019,-8.417 3.0197,-9.5061 z"
       id="path4059"
       inkscape:connector-curvature="0"
       sodipodi:nodetypes="zcccz" />
    <path
       style="color:#000000;display:inline;overflow:visible;visibility:visible;fill:#ffffff;fill-opacity:1;fill-rule:nonzero;stroke:none;stroke-width:1.06666672px;marker:none;enable-background:accumulate"
       d="m 1279.1628,2478.7086 c 2.3733,-10.0107 13.8713,-13.7603 21.9776,-6.4064 6.1799,-4.7827 16.197,1.0356 11.0981,12.131 8.4662,3.8661 10.971,21.906 -4.1469,22.0913 -4.0854,9.0401 -20.7957,9.3917 -27.4378,-3.7114 -11.2101,4.6871 -20.5732,-21.5603 -1.491,-24.1045 z"
       id="path4051-1"
       inkscape:connector-curvature="0"
       sodipodi:nodetypes="cccccc" />
    <path
       style="color:#000000;display:inline;overflow:visible;visibility:visible;fill:#ffffff;fill-opacity:1;fill-rule:nonzero;stroke:none;stroke-width:1.06666672px;marker:none;enable-background:accumulate"
       d="m 1335.7263,2424.418 c 3.9512,-1.7625 7.0837,0 9.4658,2.7409 6.8105,-5.5897 24.7781,7.6921 -1.5248,21.0642 -9.7924,4.8447 -18.7831,-6.8375 -11.4036,-13.7862 -2.5716,-2.9575 -0.4887,-8.2563 3.4626,-10.0189 z"
       id="path4059-6"
       inkscape:connector-curvature="0"
       sodipodi:nodetypes="zcccz" />
    <path
       style="color:#000000;display:inline;overflow:visible;visibility:visible;fill:#ffffff;fill-opacity:1;fill-rule:nonzero;stroke:none;stroke-width:1.06666672px;marker:none;enable-background:accumulate"
       d="m 1883.2087,2534.8628 c 15.0472,15.7087 5.736,35.4028 -21.1102,28.9501 -15.6569,6.7204 -41.5459,-23.516 -12.4067,-29.6418 -1.1673,-14.343 37.2432,-17.4507 33.5169,0.6917 z"
       id="path4051-1-3"
       inkscape:connector-curvature="0"
       sodipodi:nodetypes="cccc" />
    <path
       style="color:#000000;display:inline;overflow:visible;visibility:visible;fill:#ffffff;fill-opacity:1;fill-rule:nonzero;stroke:none;stroke-width:1.06666672px;marker:none;enable-background:accumulate"
       d="m 1850.0916,2501.4896 c -3.8404,3.3946 -8.2896,3.2121 -12.2946,1.8019 -2.6789,3.3594 -27.2787,-4.5544 -7.576,-19.8406 9.3058,-8.8464 25.0179,-2.3041 19.4705,7.3601 4.3234,1.5222 4.2404,7.2843 0.4001,10.6786 z"
       id="path4059-6-7"
       inkscape:connector-curvature="0"
       sodipodi:nodetypes="zcccz" />
    <flowRoot
       xml:space="preserve"
       id="flowRoot2987-7-9-9-7-0-3-4"
       style="font-style:normal;font-variant:normal;font-weight:normal;font-stretch:normal;line-height:0.01%;font-family:Lavi;-inkscape-font-specification:Lavi;letter-spacing:0px;word-spacing:0px;fill:#000000;fill-opacity:1;stroke:#000000;stroke-width:0.99236238;stroke-miterlimit:4;stroke-dasharray:none;stroke-opacity:1;filter:url(#filter4375-4-1-1-2)"
       transform="matrix(0.77682026,-0.87206143,0.26418689,2.3092329,821.50208,-273.74941)"><flowRegion
         id="flowRegion2989-4-5-8-7-41-7-62"
         style="stroke-width:5.40286207"><rect
           id="rect2991-45-1-3-3-8-0-4"
           width="319.66232"
           height="53.089447"
           x="120.55251"
           y="265.53046"
           style="font-style:normal;font-variant:normal;font-weight:normal;font-stretch:normal;font-family:Lavi;-inkscape-font-specification:Lavi;fill:#000000;fill-opacity:1;stroke:#000000;stroke-width:0.99236238;stroke-miterlimit:4;stroke-dasharray:none;stroke-opacity:1" /></flowRegion><flowPara
         id="flowPara2995-4-1-5-0-7-2-6"
         style="font-weight:normal;font-size:48px;line-height:1.25;-inkscape-font-specification:Lavi;letter-spacing:7.06853437px;fill:#ffffff;fill-opacity:1;stroke:#ffffff;stroke-width:0.99236238;stroke-linejoin:miter;stroke-miterlimit:4;stroke-dasharray:none;stroke-opacity:1">Dzzz</flowPara></flowRoot>  </g>
</svg>
