<?xml version="1.0" encoding="UTF-8" standalone="no"?>
<!-- Created with Inkscape (http://www.inkscape.org/) -->

<svg
   xmlns:dc="http://purl.org/dc/elements/1.1/"
   xmlns:cc="http://creativecommons.org/ns#"
   xmlns:rdf="http://www.w3.org/1999/02/22-rdf-syntax-ns#"
   xmlns:svg="http://www.w3.org/2000/svg"
   xmlns="http://www.w3.org/2000/svg"
   xmlns:xlink="http://www.w3.org/1999/xlink"
   xmlns:sodipodi="http://sodipodi.sourceforge.net/DTD/sodipodi-0.dtd"
   xmlns:inkscape="http://www.inkscape.org/namespaces/inkscape"
   id="svg2"
   version="1.1"
   inkscape:version="0.92.1 r15371"
   width="2646.3999"
   height="3736.5334"
   sodipodi:docname="Pepper-and-Carrot_by-David-Revoy_E11P01.svg">
  <metadata
     id="metadata8">
    <rdf:RDF>
      <cc:Work
         rdf:about="">
        <dc:format>image/svg+xml</dc:format>
        <dc:type
           rdf:resource="http://purl.org/dc/dcmitype/StillImage" />
        <dc:title />
      </cc:Work>
    </rdf:RDF>
  </metadata>
  <defs
     id="defs6" />
  <sodipodi:namedview
     pagecolor="#ffffff"
     bordercolor="#666666"
     borderopacity="1"
     objecttolerance="10"
     gridtolerance="10"
     guidetolerance="10"
     inkscape:pageopacity="0"
     inkscape:pageshadow="2"
     inkscape:window-width="1305"
     inkscape:window-height="744"
     id="namedview4"
     showgrid="false"
     inkscape:zoom="0.25"
     inkscape:cx="2112.1776"
     inkscape:cy="1241.0273"
     inkscape:window-x="61"
     inkscape:window-y="24"
     inkscape:window-maximized="1"
     inkscape:current-layer="layer1" />
  <g
     inkscape:groupmode="layer"
     id="layer2"
     inkscape:label="artwork"
     sodipodi:insensitive="true">
    <image
       sodipodi:absref="/home/emmiline/Documents/git/peppercarrot/peppercarrot_ep11_translation/da/../gfx_Pepper-and-Carrot_by-David-Revoy_E11P01.png"
       xlink:href="../gfx_Pepper-and-Carrot_by-David-Revoy_E11P01.png"
       width="2646.3999"
       height="3736.5334"
       id="image10"
       x="0"
       y="0" />
  </g>
  <g
     inkscape:groupmode="layer"
     id="layer3"
     inkscape:label="speechbubbles">
    <path
       style="fill:#ffffff;stroke:none;stroke-width:1.06666672"
       d="m 75.52909,1865.2662 c -5.207493,-110.4536 41.40599,-125.0829 250.40744,-124.1564 209.00137,0.9263 259.41914,19.3271 266.18102,91.7318 6.19594,66.3447 -22.50471,96.2067 -49.81897,110.7709 -39.08793,20.8418 -183.70073,25.0221 -277.86012,21.2746 -85.86626,-3.4173 -194.824522,-35.698 -188.90937,-99.6209 z"
       id="path3065"
       inkscape:connector-curvature="0"
       sodipodi:nodetypes="cssssc" />
    <path
       style="fill:#ffffff;stroke:none;stroke-width:1.06666672"
       d="m 978.68545,1883.5809 c 14.7705,-102.1734 140.98955,-121.5733 158.44545,-130.6267 17.4557,-9.0533 117.3839,-15.3981 129.4687,-14.1049 12.0849,1.2934 94.4695,-6.5953 156.3242,-5.7905 64.7144,0.842 101.6209,-12.9813 189.4438,31.0996 27.4102,13.758 70.9337,64.6116 80.0551,150.2142 3.9779,37.3321 -10.136,120.6543 -65.5556,156.0832 -135.1926,86.4267 -254.0563,74.4774 -349.392,68.0108 -95.3358,-6.4666 -187.6831,-24.0538 -236.5159,-66.7313 -52.78379,-46.1305 -75.70118,-137.7144 -62.27375,-188.1544 z"
       id="path3061"
       inkscape:connector-curvature="0"
       sodipodi:nodetypes="cssssssssc" />
    <path
       style="color:#000000;display:inline;overflow:visible;visibility:visible;fill:#ffffff;fill-opacity:1;fill-rule:nonzero;stroke:none;stroke-width:1.06666672px;marker:none;enable-background:accumulate"
       d="m 1910.3899,1868.1482 c -0.9708,-97.0275 9.4025,-156.258 339.5171,-149.5897 330.1148,6.6685 317.2881,30.5147 324.8053,159.4006 7.5171,128.8857 -137.3961,146.0778 -339.5725,146.3867 -234.8544,0.3587 -308.0899,-16.5996 -324.7499,-156.1976 z"
       id="path5026"
       inkscape:connector-curvature="0"
       sodipodi:nodetypes="csssc" />
    <path
       style="color:#000000;display:inline;overflow:visible;visibility:visible;fill:#ffffff;fill-opacity:1;fill-rule:nonzero;stroke:none;stroke-width:1.06666672px;marker:none;enable-background:accumulate"
       d="m 253.43226,1958.9835 c 16.47324,16.7624 32.94662,38.8584 34.31935,44.192 1.37273,5.3334 -11.66857,35.0488 -6.8639,41.1443 4.80468,6.0955 22.65079,6.8574 24.71,11.429 2.0591,4.5716 -4.11832,28.1915 0,32.763 4.11831,4.5716 32.9465,16.7625 34.31935,20.5723 1.37273,3.8096 8.92299,24.3818 22.65066,40.3822 -13.0413,-40.3822 -8.92299,-48.7636 -13.72767,-54.8589 -4.80468,-6.0956 -24.02351,-11.4291 -26.7691,-18.2865 -2.74557,-6.8573 2.74559,-29.7154 -2.74557,-35.8107 -5.49104,-6.0955 -18.53246,-8.3813 -18.53246,-8.3813 4.80479,-6.0955 25.39635,-41.9063 2.74558,-77.7171 -22.65079,-35.8108 -50.10624,4.5717 -50.10624,4.5717 z"
       id="path5050"
       inkscape:connector-curvature="0" />
    <path
       style="color:#000000;display:inline;overflow:visible;visibility:visible;fill:#ffffff;fill-opacity:1;fill-rule:nonzero;stroke:none;stroke-width:1.06666672px;marker:none;enable-background:accumulate"
       d="m 1470.0557,2292.2541 c 72.8659,-79.6522 94.6157,-182.4913 53.6193,-247.7246 -13.7673,-21.9068 -49.6087,5.2356 -49.6087,5.2356 63.6868,77.505 36.5728,177.9343 -4.0106,242.489 z"
       id="path4000"
       inkscape:connector-curvature="0"
       sodipodi:nodetypes="cscc" />
    <path
       style="fill:#ffffff;stroke:none;stroke-width:1.06666672"
       d="m 2448.1941,1943.6329 c -16.4841,19.2833 -36.7139,47.3027 -36.0655,57.3559 0.8618,9.9462 12.4276,29.0539 11.1276,53.0156 -1.1324,20.8711 -15.0212,64.6944 -81.3172,97.2072 41.756,-35.9326 50.5398,-88.3849 48.3308,-105.7905 -1.9052,-15.0111 -25.8245,-48.867 -25.3614,-58.8686 -0.9366,-27.8856 13.8394,-58.3848 39.8623,-67.2035 26.0231,-8.8185 43.4234,24.2839 43.4234,24.2839 z"
       id="path3272"
       inkscape:connector-curvature="0"
       sodipodi:nodetypes="ccscscsc" />
    <path
       style="color:#000000;display:inline;overflow:visible;visibility:visible;fill:#ffffff;fill-opacity:1;fill-rule:nonzero;stroke:none;stroke-width:1.06666672px;marker:none;enable-background:accumulate"
       d="m 1586.107,3131.4379 c -0.8447,-24.8552 14.3612,-41.7567 22.8089,-49.7103 8.4478,-7.9536 61.6687,-25.8494 81.0986,-25.8494 19.4298,0 99.6835,17.8958 114.0447,35.7915 14.3612,17.8956 32.9462,17.8956 23.6538,47.7219 -9.2926,29.8261 -67.5821,44.7393 -80.2538,47.7219 -12.6717,2.9826 -48.997,4.971 -60.8239,3.9768 -11.8269,-0.9942 -103.0626,-18.8898 -100.5283,-59.6524 z"
       id="path3357"
       inkscape:connector-curvature="0" />
    <path
       style="color:#000000;display:inline;overflow:visible;visibility:visible;fill:#ffffff;fill-opacity:1;fill-rule:nonzero;stroke:none;stroke-width:1.06666672px;marker:none;enable-background:accumulate"
       d="m 1639.0117,3224.5627 c -1.3329,-23.3202 18.6596,-39.9775 74.6384,-55.207 55.9789,-15.2294 133.2831,-11.422 153.2754,-6.6629 19.9926,4.7591 95.9668,-7.5638 140.7579,20.863 52.8506,26.8348 28.3178,83.7142 -10.1404,94.31 -23.9909,5.7112 -194.5932,13.3259 -222.5827,9.5184 -27.9893,-3.8072 -73.3057,-4.7591 -97.2965,-16.1813 -24.3219,-11.5796 -37.3193,-23.3201 -38.6521,-46.6402 z"
       id="path3373"
       inkscape:connector-curvature="0"
       sodipodi:nodetypes="zssccssz" />
    <path
       style="color:#000000;display:inline;overflow:visible;visibility:visible;fill:#ffffff;fill-opacity:1;fill-rule:nonzero;stroke:none;stroke-width:1.06666672px;marker:none;enable-background:accumulate"
       d="m 1502.5856,3238.6518 c 29.0335,11.406 33.1811,10.3691 42.5134,-2.0738 9.3321,-12.4429 18.6643,-33.1811 46.6609,-37.3287 27.9966,-4.1476 41.4764,6.2214 50.8085,12.4429 67.9164,-31.23 75.7879,-35.4848 31.1073,17.6275 -17.6274,18.6643 -57.0299,-5.1846 -76.7313,-5.1846 -19.7012,0 -34.218,27.9965 -49.7716,31.1072 -15.5537,3.1108 -32.1442,-8.2952 -44.5872,-16.5905 z"
       id="path4538"
       inkscape:connector-curvature="0"
       sodipodi:nodetypes="cssccssc" />
  </g>
  <g
     inkscape:groupmode="layer"
     id="layer1"
     inkscape:label="txt">
    <flowRoot
       xml:space="preserve"
       id="flowRoot2987-4-9-3"
       style="font-style:normal;font-variant:normal;font-weight:normal;font-stretch:normal;font-size:12.80000019px;line-height:0.01%;font-family:Lavi;-inkscape-font-specification:Lavi;text-align:center;letter-spacing:0px;word-spacing:0px;text-anchor:middle;fill:#000000;fill-opacity:1;stroke:none;stroke-width:1.06666672"><flowRegion
         id="flowRegion2989-5-4-5"
         style="stroke-width:1.06666672"><rect
           id="rect2991-7-9-6"
           width="397.22849"
           height="248.78926"
           x="155.87885"
           y="1809.4226"
           style="font-style:normal;font-variant:normal;font-weight:normal;font-stretch:normal;font-family:Lavi;-inkscape-font-specification:Lavi;text-align:center;text-anchor:middle;stroke-width:1.13777781" /></flowRegion><flowPara
         style="font-size:48px;line-height:1.25;text-align:center;text-anchor:middle;stroke-width:1.06666672"
         id="flowPara3030-8">Pepper, du kaster</flowPara><flowPara
         style="font-size:48px;line-height:1.25;text-align:center;text-anchor:middle;stroke-width:1.06666672"
         id="flowPara44">skam over Kaosah</flowPara></flowRoot>    <flowRoot
       xml:space="preserve"
       id="flowRoot2987-4-9-3-9"
       style="font-style:normal;font-variant:normal;font-weight:normal;font-stretch:normal;font-size:12.80000019px;line-height:0.01%;font-family:Lavi;-inkscape-font-specification:Lavi;text-align:center;letter-spacing:0px;word-spacing:0px;text-anchor:middle;fill:#000000;fill-opacity:1;stroke:none;stroke-width:1.06666672"
       transform="translate(-2,4)"><flowRegion
         id="flowRegion2989-5-4-5-1"
         style="stroke-width:1.06666672"><rect
           id="rect2991-7-9-6-4"
           width="572.97632"
           height="317.82434"
           x="1053.4868"
           y="1810.1185"
           style="font-style:normal;font-variant:normal;font-weight:normal;font-stretch:normal;font-family:Lavi;-inkscape-font-specification:Lavi;text-align:center;text-anchor:middle;stroke-width:1.13777781" /></flowRegion><flowPara
         style="font-size:48px;line-height:1.25;text-align:center;text-anchor:middle;stroke-width:1.06666672"
         id="flowPara4289">Cayenne har ret;</flowPara><flowPara
         style="font-size:48px;line-height:1.25;text-align:center;text-anchor:middle;stroke-width:1.06666672"
         id="flowPara48"> en ægte Kaosah-heks</flowPara><flowPara
         style="font-size:48px;line-height:1.25;text-align:center;text-anchor:middle;stroke-width:1.06666672"
         id="flowPara50"> skal frembringe frygt, lydighed og respekt </flowPara></flowRoot>    <flowRoot
       xml:space="preserve"
       id="flowRoot2987-4-9-3-9-7"
       style="font-style:normal;font-variant:normal;font-weight:normal;font-stretch:normal;font-size:12.80000019px;line-height:0.01%;font-family:Lavi;-inkscape-font-specification:Lavi;text-align:center;letter-spacing:0px;word-spacing:0px;text-anchor:middle;fill:#000000;fill-opacity:1;stroke:none;stroke-width:1.06666672"><flowRegion
         id="flowRegion2989-5-4-5-1-6"
         style="stroke-width:1.06666672"><rect
           id="rect2991-7-9-6-4-8"
           width="578.90961"
           height="271.97766"
           x="1950.2087"
           y="1799.8442"
           style="font-style:normal;font-variant:normal;font-weight:normal;font-stretch:normal;font-family:Lavi;-inkscape-font-specification:Lavi;text-align:center;text-anchor:middle;stroke-width:1.13777781" /></flowRegion><flowPara
         style="font-size:48px;line-height:1.25;text-align:center;text-anchor:middle;stroke-width:1.06666672"
         id="flowPara3030-8-7-0">... mens du derimod tilbyder cupcakes og the selv til vores dæmoner*... </flowPara></flowRoot>    <flowRoot
       xml:space="preserve"
       id="flowRoot2987-4-9-9-9-9"
       style="font-style:normal;font-variant:normal;font-weight:normal;font-stretch:normal;line-height:0.01%;font-family:Lavi;-inkscape-font-specification:Lavi;text-align:center;letter-spacing:0px;word-spacing:0px;text-anchor:middle;fill:#000000;fill-opacity:1;stroke:none"
       transform="matrix(0.7096597,0,0,0.73164962,1919.2343,2752.2206)"><flowRegion
         id="flowRegion2989-5-4-7-7-9"><rect
           id="rect2991-7-9-4-3-7"
           width="1100.3401"
           height="65.915588"
           x="120.55251"
           y="265.53046"
           style="font-style:normal;font-variant:normal;font-weight:normal;font-stretch:normal;font-family:Lavi;-inkscape-font-specification:Lavi;text-align:center;text-anchor:middle" /></flowRegion><flowPara
         style="font-size:48px;line-height:1.25;text-align:start;text-anchor:start;fill:#a0a0a0;fill-opacity:1"
         id="flowPara3080-9-7-0">* Se episode 8: Peppers fødselsdag</flowPara></flowRoot>    <flowRoot
       xml:space="preserve"
       id="flowRoot2987-4-9-3-0"
       style="font-style:normal;font-variant:normal;font-weight:normal;font-stretch:normal;font-size:12.80000019px;line-height:0.01%;font-family:Lavi;-inkscape-font-specification:Lavi;text-align:center;letter-spacing:0px;word-spacing:0px;text-anchor:middle;fill:#000000;fill-opacity:1;stroke:none;stroke-width:1.06666672"><flowRegion
         id="flowRegion2989-5-4-5-4"
         style="stroke-width:1.06666672"><rect
           id="rect2991-7-9-6-8"
           width="165.2285"
           height="59.455929"
           x="1627.9692"
           y="3089.468"
           style="font-style:normal;font-variant:normal;font-weight:normal;font-stretch:normal;font-family:Lavi;-inkscape-font-specification:Lavi;text-align:center;text-anchor:middle;stroke-width:1.13777781" /></flowRegion><flowPara
         style="font-size:48px;line-height:1.25;text-align:center;text-anchor:middle;stroke-width:1.06666672"
         id="flowPara3030-8-3">Men...</flowPara></flowRoot>    <flowRoot
       xml:space="preserve"
       id="flowRoot2987-4-9-3-0-3"
       style="font-style:normal;font-variant:normal;font-weight:normal;font-stretch:normal;font-size:12.80000019px;line-height:0.01%;font-family:Lavi;-inkscape-font-specification:Lavi;text-align:center;letter-spacing:0px;word-spacing:0px;text-anchor:middle;fill:#000000;fill-opacity:1;stroke:none;stroke-width:1.06666672"><flowRegion
         id="flowRegion2989-5-4-5-4-2"
         style="stroke-width:1.06666672"><rect
           id="rect2991-7-9-6-8-8"
           width="370.56183"
           height="67.455925"
           x="1652.8044"
           y="3184.3887"
           style="font-style:normal;font-variant:normal;font-weight:normal;font-stretch:normal;font-family:Lavi;-inkscape-font-specification:Lavi;text-align:center;text-anchor:middle;stroke-width:1.13777781" /></flowRegion><flowPara
         style="font-size:48px;line-height:1.25;text-align:center;text-anchor:middle;stroke-width:1.06666672"
         id="flowPara3030-8-3-6">...gudmødre...</flowPara></flowRoot>    <flowRoot
       xml:space="preserve"
       id="flowRoot52"
       style="fill:black;fill-opacity:1;stroke:none;font-family:sans-serif;font-style:normal;font-weight:normal;font-size:40px;line-height:1.25;letter-spacing:0px;word-spacing:0px"><flowRegion
         id="flowRegion54"><rect
           id="rect56"
           width="37.194733"
           height="60.441441"
           x="2578.0601"
           y="2325.4583" /></flowRegion><flowPara
         id="flowPara58"></flowPara></flowRoot>    <flowRoot
       xml:space="preserve"
       id="flowRoot60"
       style="fill:black;fill-opacity:1;stroke:none;font-family:sans-serif;font-style:normal;font-weight:normal;font-size:40px;line-height:1.25;letter-spacing:0px;word-spacing:0px"><flowRegion
         id="flowRegion62"><rect
           id="rect64"
           width="29.58823"
           height="40.272869"
           x="2086.792"
           y="2982.0337" /></flowRegion><flowPara
         id="flowPara66"></flowPara></flowRoot>    <flowRoot
       xml:space="preserve"
       id="flowRoot68"
       style="fill:black;fill-opacity:1;stroke:none;font-family:sans-serif;font-style:normal;font-weight:normal;font-size:40px;line-height:1.25;letter-spacing:0px;word-spacing:0px"><flowRegion
         id="flowRegion70"><rect
           id="rect72"
           width="1826.0289"
           height="933.35535"
           x="205.73337"
           y="3297.1707" /></flowRegion><flowPara
         id="flowPara74"></flowPara></flowRoot>    <flowRoot
       xml:space="preserve"
       id="flowRoot76"
       style="fill:black;fill-opacity:1;stroke:none;font-family:sans-serif;font-style:normal;font-weight:normal;font-size:40px;line-height:1.25;letter-spacing:0px;word-spacing:0px"><flowRegion
         id="flowRegion78"><rect
           id="rect80"
           width="996.12146"
           height="74.389465"
           x="-68.577789"
           y="3144.9048" /></flowRegion><flowPara
         id="flowPara82"></flowPara></flowRoot>  </g>
</svg>
