<?xml version="1.0" encoding="UTF-8" standalone="no"?>
<!-- Created with Inkscape (http://www.inkscape.org/) -->

<svg
   xmlns:dc="http://purl.org/dc/elements/1.1/"
   xmlns:cc="http://creativecommons.org/ns#"
   xmlns:rdf="http://www.w3.org/1999/02/22-rdf-syntax-ns#"
   xmlns:svg="http://www.w3.org/2000/svg"
   xmlns="http://www.w3.org/2000/svg"
   xmlns:xlink="http://www.w3.org/1999/xlink"
   xmlns:sodipodi="http://sodipodi.sourceforge.net/DTD/sodipodi-0.dtd"
   xmlns:inkscape="http://www.inkscape.org/namespaces/inkscape"
   id="svg2"
   version="1.1"
   inkscape:version="0.92.1 r15371"
   width="2646.3999"
   height="3736.5334"
   sodipodi:docname="Pepper-and-Carrot_by-David-Revoy_E11P02.svg">
  <metadata
     id="metadata8">
    <rdf:RDF>
      <cc:Work
         rdf:about="">
        <dc:format>image/svg+xml</dc:format>
        <dc:type
           rdf:resource="http://purl.org/dc/dcmitype/StillImage" />
        <dc:title />
      </cc:Work>
    </rdf:RDF>
  </metadata>
  <defs
     id="defs6">
    <filter
       style="color-interpolation-filters:sRGB"
       id="filter4375-4-1-1-1"
       inkscape:label="deevad outline effect">
      <feFlood
         id="feFlood4377-7-9-0-8"
         flood-opacity="1"
         flood-color="rgb(0,0,0)"
         result="flood" />
      <feComposite
         id="feComposite4379-3-8-8-2"
         in2="SourceGraphic"
         in="flood"
         operator="in"
         result="composite1" />
      <feMorphology
         id="feMorphology4393-1-0-49-8"
         operator="dilate"
         radius="4"
         result="result3" />
      <feComposite
         id="feComposite4385-9-5-7-0"
         in2="result3"
         in="SourceGraphic"
         operator="over"
         result="composite2" />
    </filter>
    <filter
       style="color-interpolation-filters:sRGB"
       id="filter4375-4-1-1-1-3"
       inkscape:label="deevad outline effect">
      <feFlood
         id="feFlood4377-7-9-0-8-2"
         flood-opacity="1"
         flood-color="rgb(55,104,53)"
         result="flood" />
      <feComposite
         id="feComposite4379-3-8-8-2-4"
         in2="SourceGraphic"
         in="flood"
         operator="in"
         result="composite1" />
      <feMorphology
         id="feMorphology4393-1-0-49-8-1"
         operator="dilate"
         radius="4"
         result="result3" />
      <feComposite
         id="feComposite4385-9-5-7-0-8"
         in2="result3"
         in="SourceGraphic"
         operator="over"
         result="composite2" />
    </filter>
  </defs>
  <sodipodi:namedview
     pagecolor="#ffffff"
     bordercolor="#666666"
     borderopacity="1"
     objecttolerance="10"
     gridtolerance="10"
     guidetolerance="10"
     inkscape:pageopacity="0"
     inkscape:pageshadow="2"
     inkscape:window-width="1305"
     inkscape:window-height="744"
     id="namedview4"
     showgrid="false"
     inkscape:zoom="0.3478261"
     inkscape:cx="1298.3414"
     inkscape:cy="870.90958"
     inkscape:window-x="61"
     inkscape:window-y="24"
     inkscape:window-maximized="1"
     inkscape:current-layer="layer1" />
  <g
     inkscape:groupmode="layer"
     id="layer2"
     inkscape:label="artwork"
     sodipodi:insensitive="true">
    <image
       sodipodi:absref="/home/emmiline/Documents/git/peppercarrot/peppercarrot_ep11_translation/da/../gfx_Pepper-and-Carrot_by-David-Revoy_E11P02.png"
       xlink:href="../gfx_Pepper-and-Carrot_by-David-Revoy_E11P02.png"
       y="0"
       x="0"
       id="image10"
       height="3736.5334"
       width="2646.3999" />
  </g>
  <g
     inkscape:groupmode="layer"
     id="layer3"
     inkscape:label="speechbubbles">
    <path
       style="fill:#ffffff;fill-opacity:1;stroke:none;stroke-width:1.06666672"
       d="m 124.95291,255.95518 c -7.73012,-104.04039 35.26686,-105.55565 80.84137,-119.74526 47.55319,-14.80566 395.78905,-41.467738 458.57504,29.01851 34.47253,38.70032 32.94567,186.58639 -59.46241,229.97072 -60.73807,28.51569 -296.0187,50.2263 -390.37418,3.31767 -30.6138,-15.21958 -77.80301,-60.69433 -89.57982,-142.56164 z"
       id="path3659"
       inkscape:connector-curvature="0"
       sodipodi:nodetypes="cssssc" />
    <path
       style="fill:#ffffff;fill-opacity:1;stroke:none;stroke-width:1.06666672"
       d="m 908.00107,522.89061 c 7.61475,104.04891 -26.10852,144.93678 -71.69874,159.07585 -47.56957,14.75293 -407.42898,47.98539 -470.13678,-22.57043 -34.42959,-38.73852 -79.11557,-205.17352 13.34055,-248.45537 60.76965,-28.44833 339.86337,-34.61707 462.26168,-5.20368 33.24193,7.98833 54.54726,35.27332 66.23329,117.15363 z"
       id="path3659-3"
       inkscape:connector-curvature="0"
       sodipodi:nodetypes="cssssc" />
    <path
       style="color:#000000;display:inline;overflow:visible;visibility:visible;fill:#ffffff;fill-opacity:1;fill-rule:nonzero;stroke:none;stroke-width:1.06666672px;marker:none;enable-background:accumulate"
       d="m 752.74957,669.08018 c 27.22367,38.80461 86.63221,72.09834 173.60253,30.33337 -93.7906,20.28353 -127.88902,-10.77929 -144.66852,-45.27223 -16.77941,-34.49301 -29.10127,-48.09629 -29.10127,-48.09629 z"
       id="path4440"
       inkscape:connector-curvature="0"
       sodipodi:nodetypes="ccscc" />
    <path
       style="color:#000000;display:inline;overflow:visible;visibility:visible;fill:#ffffff;fill-opacity:1;fill-rule:nonzero;stroke:none;stroke-width:1.06666672px;marker:none;enable-background:accumulate"
       d="m 2350.9111,1183.7284 c 33.3275,-20.3514 69.7535,-48.1371 77.6734,-55.508 -13.5391,-5.3171 -24.5926,-12.2368 -33.3106,-17.4907 16.0769,-12.4026 94.687,-65.7955 119.0193,-70.3808 -60.7181,9.0122 -123.7252,45.3244 -148.1846,67.6613 10.2787,8.7781 17.6726,12.8467 22.9682,17.588 -11.5676,11.7611 -58.4111,41.2785 -58.4111,41.2785 z"
       id="path5066"
       inkscape:connector-curvature="0" />
    <path
       style="color:#000000;display:inline;overflow:visible;visibility:visible;fill:#ffffff;fill-opacity:1;fill-rule:nonzero;stroke:none;stroke-width:1.06666672px;marker:none;enable-background:accumulate"
       d="m 2098.6243,1340.5836 c 11.0611,-13.1847 83.5405,-51.0531 87.6128,0.7729 52.1283,-63.1138 84.7273,-44.8217 128.5169,0.039 5.4524,-43.7543 38.945,-43.8522 85.9657,-14.6371 -13.1583,-31.8434 15.9322,-30.315 55.2373,-33.9056 -48.0289,-16.5278 -54.9653,-29.0763 40.7808,-31.6818 -70.7499,-8.7012 -136.5037,-18.1712 -44.8406,-51.8579 -25.9256,-3.7872 -94.908,25.1163 -45.5426,-75.57 -51.48,28.4658 -111.6357,12.5641 -158.0295,-63.3511 -12.4324,58.8315 -48.4712,121.1939 -95.5647,60.3722 -30.3393,71.124 -84.0794,10.3501 -100.5678,-19.6329 7.2952,42.7752 18.24,69.835 -46.9344,65.9563 97.483,66.409 -4.0897,52.9169 -24.2992,65.0118 81.3189,27.9256 48.4086,43.3071 28.6363,65.1775 66.603,-19.945 90.8185,2.9087 89.029,33.3065 z"
       id="path3549-3"
       inkscape:connector-curvature="0"
       sodipodi:nodetypes="cccccccccccccccc" />
    <flowRoot
       transform="matrix(0.96658894,0,-0.23549881,1.7307518,1786.2922,729.28002)"
       style="font-style:normal;font-variant:normal;font-weight:normal;font-stretch:normal;line-height:0.01%;font-family:Lavi;-inkscape-font-specification:Lavi;text-align:center;letter-spacing:0px;word-spacing:0px;text-anchor:middle;fill:#000000;fill-opacity:1;stroke:#000000;stroke-width:1.56608522;stroke-miterlimit:4;stroke-dasharray:none;stroke-opacity:1"
       id="flowRoot4212-3-7-8-6"
       xml:space="preserve"><flowRegion
         id="flowRegion4214-6-7-8-3"><rect
           style="font-style:normal;font-variant:normal;font-weight:normal;font-stretch:normal;font-family:Lavi;-inkscape-font-specification:Lavi;text-align:center;text-anchor:middle;stroke:#000000;stroke-width:1.56608522;stroke-miterlimit:4;stroke-dasharray:none;stroke-opacity:1"
           y="265.53046"
           x="120.55251"
           height="355.03918"
           width="798.1947"
           id="rect4216-4-0-26-5" /></flowRegion><flowPara
         style="font-size:48px;line-height:1.25;text-align:center;letter-spacing:5.20896292px;text-anchor:middle;stroke:#000000;stroke-width:1.56608522;stroke-miterlimit:4;stroke-dasharray:none;stroke-opacity:1"
         id="flowPara4358-7-1">TI STILLE!</flowPara></flowRoot>    <path
       style="color:#000000;display:inline;overflow:visible;visibility:visible;fill:#ffffff;fill-opacity:1;fill-rule:nonzero;stroke:none;stroke-width:1.06666672px;marker:none;enable-background:accumulate"
       d="m 1767.127,917.81513 c -14.895,33.7517 -50.1669,99.17137 -62.3773,110.32497 -23.3618,-17.9576 -71.7152,-37.73837 -74.8281,-33.23838 -3.1127,4.50004 -14.2816,93.69468 -22.2775,95.89598 -7.996,2.201 -36.4111,0.2577 -46.3929,-4.9385 30.664,11.9501 54.7693,18.8242 65.2796,12.3383 7.3497,-3.9966 15.3558,-73.8013 15.6438,-78.6369 24.1531,8.885 71.788,32.3045 81.8424,32.0666 9.864,-8.2814 47.7401,-40.1624 77.4326,-94.78643 29.6924,-54.62412 -34.3226,-39.02564 -34.3226,-39.02564 z"
       id="path5901"
       inkscape:connector-curvature="0"
       sodipodi:nodetypes="ccccccccsc" />
    <path
       style="color:#000000;display:inline;overflow:visible;visibility:visible;fill:#ffffff;fill-opacity:1;fill-rule:nonzero;stroke:none;stroke-width:1.06666672px;marker:none;enable-background:accumulate"
       d="m 1174.2323,1925.5333 c -97.3102,-67.1878 -169.7965,-114.3587 -260.37061,-109.6059 -90.57397,4.7527 -107.19833,23.4614 -116.83293,29.6274 5.5337,13.7672 25.33966,33.7209 32.80194,37.0148 -23.8282,2.6189 -81.64467,66.9231 -117.84467,60.0972 -68.92703,-12.997 -292.24177,-3.7929 -108.50981,39.0063 183.73198,42.7991 205.16389,-83.2029 281.01397,-91.3972 -18.02135,-10.2196 -52.63739,-29.3497 -48.79484,-36.4869 3.84261,-7.1369 74.1946,-24.3264 109.72138,-17.5911 35.52696,6.735 130.12197,18.7058 228.81557,89.3354 z"
       id="path3923"
       inkscape:connector-curvature="0"
       sodipodi:nodetypes="csccszccsc" />
    <path
       style="fill:#ffffff;fill-rule:evenodd;stroke:none;stroke-width:1.06666672px;stroke-linecap:butt;stroke-linejoin:miter;stroke-opacity:1"
       d="m 219.78575,1778.6254 c 2.01638,78.6389 54.44235,207.6875 116.95022,201.6383 62.50788,-6.0492 36.2949,-30.2458 36.2949,-30.2458 0,0 -88.72085,28.2294 -125.01576,-171.3925 -36.29489,-199.622 -28.22936,0 -28.22936,0 z"
       id="path4413"
       inkscape:connector-curvature="0" />
    <path
       style="fill:#ffffff;stroke:none;stroke-width:1.06666672"
       d="m 1467.2313,3425.4828 c -2.5102,48.6803 38.3777,60.2587 79.9693,67.7655 41.5916,7.5067 171.5244,1.9351 163.3781,-57.8095 -8.1465,-59.7446 -70.7358,-68.9845 -122.6684,-67.1599 -51.9329,1.8246 -112.0798,11.1751 -120.679,57.2039 z"
       id="path3938"
       inkscape:connector-curvature="0"
       sodipodi:nodetypes="csssc" />
    <path
       style="color:#000000;display:inline;overflow:visible;visibility:visible;fill:#ffffff;fill-opacity:1;fill-rule:nonzero;stroke:none;stroke-width:1.06666672px;marker:none;enable-background:accumulate"
       d="m 1642.9798,3438.2942 c 74.2672,-27.8028 71.3485,-93.6958 71.4983,-106.3232 -18.0932,17.1586 -20.3308,57.9192 -82.0774,82.0937 -26.838,10.5077 10.5791,24.2295 10.5791,24.2295 z"
       id="path3940"
       inkscape:connector-curvature="0"
       sodipodi:nodetypes="ccsc" />
    <flowRoot
       xml:space="preserve"
       id="flowRoot3056-6"
       style="font-style:normal;font-variant:normal;font-weight:normal;font-stretch:normal;line-height:0.01%;font-family:Arial;-inkscape-font-specification:Arial;letter-spacing:0px;word-spacing:0px;fill:#000000;fill-opacity:1;stroke:none"
       transform="matrix(0.98564159,-0.04601568,-0.23114375,0.97169882,435.94484,2827.9959)"><flowRegion
         id="flowRegion3058-8"><rect
           id="rect3060-0"
           width="343.2529"
           height="151.69978"
           x="1244.4525"
           y="652.80212" /></flowRegion><flowPara
         id="flowPara3062-10"
         style="font-style:normal;font-variant:normal;font-weight:normal;font-stretch:normal;font-size:48px;line-height:1.25;font-family:Lavi;-inkscape-font-specification:Lavi">Dadaaa!</flowPara></flowRoot>    <path
       style="fill:#ffffff;stroke:none;stroke-width:1.06666672"
       d="m 83.341494,3020.7057 c -43.41533,-245.7905 51.056956,-169.138 341.820096,-176.5014 227.3617,-5.7579 348.61496,49.9681 352.81772,163.9318 4.0708,110.3859 -96.59734,199.8235 -310.06576,202.3374 -213.46844,2.5138 -382.908888,-28.086 -384.572056,-189.7678 z"
       id="path3270"
       inkscape:connector-curvature="0"
       sodipodi:nodetypes="csssc" />
    <path
       style="fill:#ffffff;stroke:none;stroke-width:1.06666672"
       d="m 789.57319,3222.4819 c -67.53649,26.1024 -160.46294,12.6913 -191.49225,-62.2996 -18.80066,-45.4371 -24.25566,-74.5372 -24.25566,-74.5372 l -37.0217,36.7123 17.87262,52.2873 c 0,0 81.70329,122.3744 234.89699,47.8372 z"
       id="path3063"
       inkscape:connector-curvature="0"
       sodipodi:nodetypes="cscccc" />
    <path
       style="color:#000000;display:inline;overflow:visible;visibility:visible;fill:#ffffff;fill-opacity:1;fill-rule:nonzero;stroke:none;stroke-width:1.10819566px;marker:none;enable-background:accumulate"
       d="m 206.34091,1871.6187 c 9.90829,6.768 25.41195,5.4142 17.00695,-12.4863 14.92484,9.5152 19.32021,11.43 12.7866,-5.1368 11.3982,8.683 23.79369,9.6933 22.06031,-9.9376 32.61281,22.0282 130.05825,6.2071 171.53046,8.7493 41.47221,2.542 152.69326,0.5084 164.00387,0 11.31062,-0.5083 98.02511,0 105.56567,0 7.54034,0 37.70192,5.5925 47.12739,8.6429 14.13816,-4.0673 31.60626,-15.2759 31.60626,-15.2759 0,0 0.4403,30.0199 3.26799,31.5451 2.8277,1.5253 16.33665,-1.7993 24.63704,-3.0561 -5.49097,5.0743 -24.63704,20.8505 -21.80934,21.3587 2.8275,0.5087 22.82225,1.7961 30.484,2.5633 -6.12924,3.2143 -22.94363,17.2649 -22.00128,17.7734 13.0363,16.5574 20.66754,13.5123 31.59912,9.7456 -5.22988,8.7995 -18.30298,14.0506 -20.84343,18.6916 1.82845,4.5853 4.0672,6.6794 14.13811,16.7777 -11.40796,-6.7471 -13.8932,-2.0828 -16.77356,2.1996 1.32276,10.6815 3.68543,21.6884 2.12487,39.7665 -1.84245,21.3434 -3.62595,43.0691 -12.10897,54.2541 4.71285,5.0841 10.11831,14.2997 18.08306,18.0442 -7.37904,1.4002 -16.2192,13.8887 -15.27644,16.4304 0.94258,2.5424 7.45224,12.0909 17.63759,16.9761 -9.67769,0.4806 -16.79618,2.0066 -22.45139,4.5486 -0.94295,4.0674 5.75638,14.3946 7.49884,22.4964 -5.04371,-3.1959 -30.51567,-13.0013 -34.73157,-13.5162 -1.56784,2.1656 -2.76353,11.1055 -1.51745,22.2645 -150.29965,-56.6857 -473.11322,-14.9863 -491.85843,-13.2106 -8.48291,0 -23.41351,0.9502 -39.11858,12.1302 10.01748,-15.4046 13.71703,-27.1975 13.71703,-27.1975 0,0 -22.46013,-2.4493 -36.53539,1.9815 9.80384,-8.3898 15.56189,-17.2027 14.6193,-18.728 -0.94256,-1.5252 -17.41074,-2.1009 -29.92651,1.4567 4.8475,-5.3063 22.37751,-17.4433 21.43494,-19.9853 -9.74858,0.558 -36.13863,-39.5488 -21.05794,-158.5167 -0.67588,-10.4767 -7.57643,-16.6384 -19.88774,-22.3148 20.98694,-5.9707 50.37512,-9.2957 34.96862,-29.0346 z"
       id="path3915"
       inkscape:connector-curvature="0"
       sodipodi:nodetypes="ccccsssccsccccccccscccccccccccccccccc" />
    <path
       style="color:#000000;display:inline;overflow:visible;visibility:visible;fill:#ffffff;fill-opacity:1;fill-rule:nonzero;stroke:none;stroke-width:1.06666672px;marker:none;enable-background:accumulate"
       d="m 661.19322,1789.4167 c -10.09481,-5.9904 -25.81969,-4.6747 -17.18457,11.2882 -15.20178,-8.4152 -19.67345,-10.0992 -12.94527,4.6827 -11.61807,-7.6942 -24.2028,-8.5152 -22.32771,9.0411 -33.22526,-19.4945 -132.01788,-4.6827 -174.1183,-6.6797 -42.10041,-1.9967 -154.95385,0.5689 -166.42868,1.0997 -11.47484,0.5308 -99.47441,0.6573 -107.12646,0.7079 -7.65182,0.05 -38.29243,-4.752 -47.87529,-7.4185 -14.323129,3.7346 -31.983225,13.8825 -31.983225,13.8825 0,0 -0.62432,-26.8621 -3.502837,-28.2081 -2.878539,-1.346 -16.567552,1.7198 -24.983221,2.9001 5.542133,-4.5778 24.877994,-18.8245 22.005482,-19.2603 -2.87232,-0.4362 -23.170304,-1.4542 -30.949868,-2.0894 6.200855,-2.9177 23.18077,-15.6043 22.221474,-16.0531 -13.326955,-14.7301 -21.053012,-11.9536 -32.123915,-8.5096 5.255157,-7.9097 18.490475,-12.6967 21.041045,-16.867 -6.377877,-3.7336 -16.397954,-11.8994 -14.446348,-14.9197 1.951492,-3.0198 15.085495,3.4029 25.074338,3.1094 -2.96624,-2.6575 -21.484736,-11.4026 -7.876438,-39.1418 8.420438,-17.1644 0.844086,-40.1887 9.38639,-50.255 -4.812598,-4.5182 -10.35247,-12.7292 -18.45712,-16.0267 7.47985,-1.3025 16.376874,-12.5378 15.405141,-14.8062 -0.971552,-2.2688 -7.63392,-10.7702 -17.998752,-15.0737 9.817941,-0.4949 17.032651,-1.9084 22.756437,-4.2211 0.932843,-3.6463 -5.926602,-12.8433 -7.742741,-20.0819 5.137184,2.8262 31.043733,11.4304 35.325013,11.8628 1.578208,-1.9486 2.73872,-9.9569 1.408224,-19.9348 152.857041,49.7205 480.196861,10.2389 499.208721,8.5241 8.60834,-0.056 23.75407,-1.0073 39.62522,-11.1176 -10.07449,13.8528 -13.75901,24.431 -13.75901,24.431 0,0 22.80668,2.0414 37.06386,-2.0181 -9.89919,7.5739 -15.69025,15.4992 -14.72471,16.8578 0.96551,1.3586 17.68058,1.7634 30.36037,-1.5043 -4.88781,4.7811 -22.60523,15.7603 -21.63369,18.0288 9.88941,-0.5647 36.9068,35.1501 22.30664,141.7165 0.74784,9.3711 7.78684,14.839 20.31375,19.8363 -21.26194,5.4839 -51.06496,8.6565 -35.31395,26.2177 z"
       id="path3915-2"
       inkscape:connector-curvature="0"
       sodipodi:nodetypes="ccccsssccsccccccccscccccccccccccccccc" />
    <path
       style="fill:#ffffff;fill-opacity:1;stroke:none;stroke-width:1.06666672"
       d="m 1654.1139,877.74469 c 38.2923,8.77346 53.1835,17.48549 46.5361,23.27945 15.6722,2.37721 23.7503,75.1122 9.5461,88.82924 -0.9314,1.42873 -1.588,2.15744 -4.6777,6.44153 7.5057,-1.22291 20.4141,-1.96135 23.4225,0.76218 3.0082,2.72387 -24.9922,43.47531 -21.0527,44.77051 3.9396,1.2952 92.7451,-27.7911 105.6019,-21.8293 12.8572,5.9618 9.9798,18.3906 10.4501,22.8637 4.7798,-1.345 40.479,-5.2436 44.7248,-4.0296 4.6767,2.2916 18.1818,17.9076 19.1957,21.9229 3.1683,-2.6645 28.7208,-8.7806 30.9151,-9.2637 2.6251,2.1028 6.816,14.5074 7.3985,18.7381 4.0303,-3.9575 25.851,-15.4386 28.7951,-14.8178 2.9437,0.6211 17.5344,33.0035 19.668,37.343 2.3495,-3.8484 34.8625,-39.536 37.7635,-40.317 2.9009,-0.7809 25.2613,40.1806 26.8092,47.67 3.2717,-6.9472 22.3702,-33.5825 25.3143,-32.9614 2.9439,0.6209 22.7001,17.8009 25.993,21.0354 0.492,-6.6776 27.8934,-44.256 31.7898,-44.3626 3.8967,-0.1065 37.5972,17.912 40.6272,21.3366 -0.849,-7.5649 5.2864,-18.3836 9.183,-18.4902 3.8967,-0.1066 45.4305,9.1292 50.0464,10.5565 -2.495,-2.8824 -7.2485,-13.8317 -4.3261,-13.9117 2.9225,-0.08 42.3486,7.7868 51.0851,12.6326 -3.1152,-9.8068 91.7111,9.4176 106.6324,11.8146 -8.9968,-9.024 -45.5971,-56.2758 -40.8554,-60.6145 4.742,-4.3388 17.902,-2.2823 23.3368,-2.0414 -6.737,-6.79278 -11.0591,-10.92145 -8.2228,-13.80509 2.8368,-2.88355 21.2379,-17.75272 38.429,-18.5886 -11.8989,-8.16222 -11.1665,-14.42625 -11.1665,-14.42625 0,0 50.7715,-16.66795 61.7657,-20.63013 -8.6462,-3.38756 -29.8469,-19.52679 -26.1008,-24.53982 3.7463,-5.01302 4.756,-6.88634 13.316,-10.8868 -6.253,-1.75409 -19.7192,-7.17716 -18.8523,-10.70838 0.8669,-3.53125 2.7452,-20.02759 12.908,-24.20403 -8.584,1.42597 -20.5,-0.84223 -20.5859,-3.64594 -0.086,-2.80358 17.7486,-54.36494 32.3944,-67.36619 -29.7904,14.1434 -50.8521,-15.12131 -82.9987,-14.24192 -32.1471,0.8794 -19.5224,-0.75424 -24.393,-0.621 -4.8708,0.13323 -40.9078,1.33026 -45.7786,1.46349 -4.8706,0.13323 -6.8317,-0.2355 -10.7285,-0.12891 -3.8963,0.10656 -26.2844,1.28927 -31.155,1.42251 -4.8706,0.13324 -50.6852,0.41505 -57.5044,0.60159 -6.8189,0.18653 -33.109,1.28587 -38.9541,1.44577 -5.8448,0.15988 -10.7296,-0.17111 -15.6005,-0.0379 -4.8707,0.13324 -36.0315,1.36584 -40.9021,1.49906 -4.8708,0.13324 -12.7067,-1.06872 -16.6034,-0.96212 -3.8964,0.10656 -17.4905,1.93703 -17.4905,1.93703 0,0 -12.6677,0.21982 -18.5127,0.3797 -5.8448,0.1599 -45.762,1.99104 -50.6326,2.12429 -4.8708,0.13324 -48.0439,1.76058 -45.1216,1.68064 2.9226,-0.0799 -42.549,0.80214 -49.3679,0.98868 -6.8189,0.18656 -19.4633,1.22013 -21.4116,1.27343 -1.9483,0.0533 -15.5949,0.0979 -21.4398,0.25782 -5.8448,0.15992 -19.4796,0.63849 -19.4796,0.63849 l 1.9521,0.0733 c 0,0 -40.9282,0.65502 -45.799,0.78825 -4.8706,0.13323 2.9446,0.63749 5.8669,0.55757 -17.5345,0.47964 -69.1836,1.25899 -73.0799,1.36557 -3.8968,0.10656 6.8349,0.34101 12.6798,0.18112 -7.7931,0.21318 -14.615,0.3154 -14.615,0.3154 l 22.4212,-0.10645 -6.818,0.22877 c 0,0 -18.1032,34.74638 -17.9958,38.25095 0.1073,3.50446 -37.7553,8.7493 -37.7553,8.7493 0,0 15.7794,5.88169 11.9902,9.49286 -3.7894,3.61118 -13.4664,5.98039 -13.4664,5.98039 l -1.6689,9.16527 z"
       id="path5888"
       inkscape:connector-curvature="0"
       sodipodi:nodetypes="ccccccccccccccccccscscsccscccccccccscscsscccccccssccccccsccccccsccccc" />
    <flowRoot
       xml:space="preserve"
       id="flowRoot109"
       style="fill:black;fill-opacity:1;stroke:none;font-family:sans-serif;font-style:normal;font-weight:normal;font-size:40px;line-height:1.25;letter-spacing:0px;word-spacing:0px"><flowRegion
         id="flowRegion111"><rect
           id="rect113"
           width="11.87137"
           height="49.600517"
           x="238.25362"
           y="1844.058" /></flowRegion><flowPara
         id="flowPara115"></flowPara></flowRoot>  </g>
  <g
     inkscape:groupmode="layer"
     id="layer1"
     inkscape:label="txt">
    <flowRoot
       xml:space="preserve"
       id="flowRoot2987-4-9-3"
       style="font-style:normal;font-variant:normal;font-weight:normal;font-stretch:normal;font-size:12.80000019px;line-height:0.01%;font-family:Lavi;-inkscape-font-specification:Lavi;text-align:center;letter-spacing:0px;word-spacing:0px;text-anchor:middle;fill:#000000;fill-opacity:1;stroke:none;stroke-width:1.06666672"><flowRegion
         id="flowRegion2989-5-4-5"
         style="stroke-width:1.06666672"><rect
           id="rect2991-7-9-6"
           width="499.39862"
           height="295.16104"
           x="160.95047"
           y="153.49026"
           style="font-style:normal;font-variant:normal;font-weight:normal;font-stretch:normal;font-family:Lavi;-inkscape-font-specification:Lavi;text-align:center;text-anchor:middle;stroke-width:1.13777781" /></flowRegion><flowPara
         style="font-size:48px;line-height:1.25;text-align:center;text-anchor:middle;stroke-width:1.06666672"
         id="flowPara3030-8">Pepper, du er uden tvivl talentfuld, men du er også vores eneste efterfølger.</flowPara></flowRoot>    <flowRoot
       xml:space="preserve"
       id="flowRoot2987-4-9-3-5"
       style="font-style:normal;font-variant:normal;font-weight:normal;font-stretch:normal;font-size:12.80000019px;line-height:0.01%;font-family:Lavi;-inkscape-font-specification:Lavi;text-align:center;letter-spacing:0px;word-spacing:0px;text-anchor:middle;fill:#000000;fill-opacity:1;stroke:none;stroke-width:1.06666672"><flowRegion
         id="flowRegion2989-5-4-5-8"
         style="stroke-width:1.06666672"><rect
           id="rect2991-7-9-6-5"
           width="479.23477"
           height="281.04633"
           x="380.90137"
           y="431.46936"
           style="font-style:normal;font-variant:normal;font-weight:normal;font-stretch:normal;font-family:Lavi;-inkscape-font-specification:Lavi;text-align:center;text-anchor:middle;stroke-width:1.13777781" /></flowRegion><flowPara
         style="font-size:48px;line-height:1.25;text-align:center;text-anchor:middle;stroke-width:1.06666672"
         id="flowPara3030-8-1">Det er vores pligt</flowPara><flowPara
         style="font-size:48px;line-height:1.25;text-align:center;text-anchor:middle;stroke-width:1.06666672"
         id="flowPara75">at gøre dig til</flowPara><flowPara
         style="font-size:48px;line-height:1.25;text-align:center;text-anchor:middle;stroke-width:1.06666672"
         id="flowPara79">en ægte ond</flowPara><flowPara
         style="font-size:48px;line-height:1.25;text-align:center;text-anchor:middle;stroke-width:1.06666672"
         id="flowPara73">Kaosah-heks</flowPara></flowRoot>    <flowRoot
       xml:space="preserve"
       id="flowRoot2987-4-9-3-5-9"
       style="font-style:normal;font-variant:normal;font-weight:normal;font-stretch:normal;font-size:12.80000019px;line-height:0.01%;font-family:Lavi;-inkscape-font-specification:Lavi;text-align:center;letter-spacing:0px;word-spacing:0px;text-anchor:middle;fill:#000000;fill-opacity:1;stroke:none;stroke-width:1.06666672"><flowRegion
         id="flowRegion2989-5-4-5-8-9"
         style="stroke-width:1.06666672"><rect
           id="rect2991-7-9-6-5-7"
           width="606.77094"
           height="206.8434"
           x="1749.7877"
           y="844.5722"
           style="font-style:normal;font-variant:normal;font-weight:normal;font-stretch:normal;font-family:Lavi;-inkscape-font-specification:Lavi;text-align:center;text-anchor:middle;stroke-width:1.13777781" /></flowRegion><flowPara
         style="font-size:48px;line-height:1.25;text-align:center;text-anchor:middle;stroke-width:1.06666672"
         id="flowPara81">Men... jeg vil ikke </flowPara><flowPara
         style="font-size:48px;line-height:1.25;text-align:center;text-anchor:middle;stroke-width:1.06666672"
         id="flowPara103">være ond! Det...</flowPara><flowPara
         style="font-size:48px;line-height:1.25;text-align:center;text-anchor:middle;stroke-width:1.06666672"
         id="flowPara107">det er mod min...</flowPara></flowRoot>    <flowRoot
       xml:space="preserve"
       id="flowRoot2987-4-9-3-5-9-8"
       style="font-style:normal;font-variant:normal;font-weight:normal;font-stretch:normal;font-size:12.80000019px;line-height:0.01%;font-family:Lavi;-inkscape-font-specification:Lavi;text-align:center;letter-spacing:0px;word-spacing:0px;text-anchor:middle;fill:#000000;fill-opacity:1;stroke:none;stroke-width:1.06666672"><flowRegion
         id="flowRegion2989-5-4-5-8-9-5"
         style="stroke-width:1.06666672"><rect
           id="rect2991-7-9-6-5-7-5"
           width="606.77094"
           height="206.8434"
           x="72.138519"
           y="1647.0518"
           style="font-style:normal;font-variant:normal;font-weight:normal;font-stretch:normal;font-family:Lavi;-inkscape-font-specification:Lavi;text-align:center;text-anchor:middle;stroke-width:1.13777781" /></flowRegion><flowPara
         style="font-size:48px;line-height:1.25;text-align:center;text-anchor:middle;stroke-width:1.06666672"
         id="flowPara3030-8-1-8-7">... ellers tilbagekalder vi alle dine kræfter!</flowPara></flowRoot>    <flowRoot
       xml:space="preserve"
       id="flowRoot2987-4-9-3-5-9-8-3"
       style="font-style:normal;font-variant:normal;font-weight:normal;font-stretch:normal;font-size:12.80000019px;line-height:0.01%;font-family:Lavi;-inkscape-font-specification:Lavi;text-align:center;letter-spacing:0px;word-spacing:0px;text-anchor:middle;fill:#000000;fill-opacity:1;stroke:none;stroke-width:1.06666672"
       transform="translate(14,-10)"><flowRegion
         id="flowRegion2989-5-4-5-8-9-5-4"
         style="stroke-width:1.06666672"><rect
           id="rect2991-7-9-6-5-7-5-4"
           width="511.70425"
           height="252.8434"
           x="229.84535"
           y="1877.2477"
           style="font-style:normal;font-variant:normal;font-weight:normal;font-stretch:normal;font-family:Lavi;-inkscape-font-specification:Lavi;text-align:center;text-anchor:middle;stroke-width:1.13777781" /></flowRegion><flowPara
         style="font-size:48px;line-height:1.25;text-align:center;text-anchor:middle;stroke-width:1.06666672"
         id="flowPara3030-8-1-8-7-8">Og du bliver igen</flowPara><flowPara
         style="font-size:48px;line-height:1.25;text-align:center;text-anchor:middle;stroke-width:1.06666672"
         id="flowPara117">den lille dumme forældreløse pige</flowPara><flowPara
         style="font-size:48px;line-height:1.25;text-align:center;text-anchor:middle;stroke-width:1.06666672"
         id="flowPara119">ved Egerns Ende</flowPara></flowRoot>    <flowRoot
       xml:space="preserve"
       id="flowRoot2987-4-9-3-5-9-8-3-5"
       style="font-style:normal;font-variant:normal;font-weight:normal;font-stretch:normal;font-size:12.80000019px;line-height:0.01%;font-family:Lavi;-inkscape-font-specification:Lavi;text-align:center;letter-spacing:0px;word-spacing:0px;text-anchor:middle;fill:#000000;fill-opacity:1;stroke:none;stroke-width:1.06666672"><flowRegion
         id="flowRegion2989-5-4-5-8-9-5-4-2"
         style="stroke-width:1.06666672"><rect
           id="rect2991-7-9-6-5-7-5-4-9"
           width="567.70428"
           height="284.84338"
           x="154.56824"
           y="2917.0566"
           style="font-style:normal;font-variant:normal;font-weight:normal;font-stretch:normal;font-family:Lavi;-inkscape-font-specification:Lavi;text-align:center;text-anchor:middle;stroke-width:1.13777781" /></flowRegion><flowPara
         style="font-size:48px;line-height:1.25;text-align:center;text-anchor:middle;stroke-width:1.06666672"
         id="flowPara3030-8-1-8-7-8-3">Spidskommen vil fra nu af følge dig overalt for at oplære dig og sikre, at du gør fremskridt</flowPara><flowPara
         style="font-size:48px;line-height:1.25;text-align:center;text-anchor:middle;stroke-width:1.06666672"
         id="flowPara121"></flowPara><flowPara
         style="font-size:48px;line-height:1.25;text-align:center;text-anchor:middle;stroke-width:1.06666672"
         id="flowPara123" /></flowRoot>    <flowRoot
       xml:space="preserve"
       id="flowRoot2987-7-9-9-7-0-3-4-1"
       style="font-style:normal;font-variant:normal;font-weight:normal;font-stretch:normal;line-height:0.01%;font-family:Lavi;-inkscape-font-specification:Lavi;letter-spacing:0px;word-spacing:0px;fill:#000000;fill-opacity:1;stroke:#000000;stroke-width:0.99236238;stroke-miterlimit:4;stroke-dasharray:none;stroke-opacity:1;filter:url(#filter4375-4-1-1-1-3)"
       transform="matrix(1.2765378,-0.60041699,0.24435812,2.4231504,1921.3567,2765.9188)"><flowRegion
         id="flowRegion2989-4-5-8-7-41-7-62-2"
         style="stroke-width:5.40286207"><rect
           id="rect2991-45-1-3-3-8-0-4-6"
           width="319.66232"
           height="53.089447"
           x="120.55251"
           y="265.53046"
           style="font-style:normal;font-variant:normal;font-weight:normal;font-stretch:normal;font-family:Lavi;-inkscape-font-specification:Lavi;fill:#000000;fill-opacity:1;stroke:#000000;stroke-width:0.99236238;stroke-miterlimit:4;stroke-dasharray:none;stroke-opacity:1" /></flowRegion><flowPara
         id="flowPara2995-4-1-5-0-7-2-6-4"
         style="font-weight:normal;font-size:48px;line-height:1.25;-inkscape-font-specification:Lavi;letter-spacing:7.06853437px;fill:#ffffff;fill-opacity:1;stroke:#ffffff;stroke-width:0.99236238;stroke-linejoin:miter;stroke-miterlimit:4;stroke-dasharray:none;stroke-opacity:1">Pouf!</flowPara></flowRoot>  </g>
</svg>
