<?xml version="1.0" encoding="UTF-8" standalone="no"?>
<!-- Created with Inkscape (http://www.inkscape.org/) -->

<svg
   xmlns:dc="http://purl.org/dc/elements/1.1/"
   xmlns:cc="http://creativecommons.org/ns#"
   xmlns:rdf="http://www.w3.org/1999/02/22-rdf-syntax-ns#"
   xmlns:svg="http://www.w3.org/2000/svg"
   xmlns="http://www.w3.org/2000/svg"
   xmlns:xlink="http://www.w3.org/1999/xlink"
   xmlns:sodipodi="http://sodipodi.sourceforge.net/DTD/sodipodi-0.dtd"
   xmlns:inkscape="http://www.inkscape.org/namespaces/inkscape"
   id="svg2"
   version="1.1"
   inkscape:version="0.91 r"
   width="2481"
   height="3503"
   sodipodi:docname="Pepper-and-Carrot_by-David-Revoy_E11P03.svg">
  <metadata
     id="metadata8">
    <rdf:RDF>
      <cc:Work
         rdf:about="">
        <dc:format>image/svg+xml</dc:format>
        <dc:type
           rdf:resource="http://purl.org/dc/dcmitype/StillImage" />
        <dc:title />
      </cc:Work>
    </rdf:RDF>
  </metadata>
  <defs
     id="defs6" />
  <sodipodi:namedview
     pagecolor="#ffffff"
     bordercolor="#666666"
     borderopacity="1"
     objecttolerance="10"
     gridtolerance="10"
     guidetolerance="10"
     inkscape:pageopacity="0"
     inkscape:pageshadow="2"
     inkscape:window-width="1680"
     inkscape:window-height="1033"
     id="namedview4"
     showgrid="false"
     inkscape:zoom="0.46000001"
     inkscape:cx="765.05303"
     inkscape:cy="2472.0378"
     inkscape:window-x="1920"
     inkscape:window-y="0"
     inkscape:window-maximized="1"
     inkscape:current-layer="layer1" />
  <g
     inkscape:groupmode="layer"
     id="layer2"
     inkscape:label="artwork"
     sodipodi:insensitive="true">
    <image
       sodipodi:absref="/home/deevad/Production/Webcomics/New/lang/fr/../gfx_Pepper-and-Carrot_by-David-Revoy_E11P03.png"
       xlink:href="../gfx_Pepper-and-Carrot_by-David-Revoy_E11P03.png"
       y="0"
       x="0"
       id="image10"
       height="3503"
       width="2481" />
  </g>
  <g
     inkscape:groupmode="layer"
     id="layer3"
     inkscape:label="speechbubbles">
    <path
       style="color:#000000;display:inline;overflow:visible;visibility:visible;fill:#ffffff;fill-opacity:1;fill-rule:nonzero;stroke:none;stroke-width:1px;marker:none;enable-background:accumulate"
       d="m 331.52978,1690.643 c 24.33486,-44.2632 68.98392,-86.388 136.11463,-101.4777 67.13059,-15.0897 201.94656,-14.3348 223.7641,-9.3048 21.81734,5.0297 142.63058,24.7719 168.6436,49.9215 26.01322,25.1495 56.35318,62.873 63.9055,95.0643 7.55232,32.1913 0.83912,109.652 -23.49578,126.7537 -24.33484,17.1017 -135.10032,54.323 -199.71361,56.3349 -64.61329,2.0121 -214.81787,-14.0837 -257.61372,-25.1494 -42.79585,-11.0659 -88.109,-25.1497 -101.53509,-60.359 -13.42617,-35.2093 -38.60016,-81.4845 -10.06963,-131.7835 z"
       id="path3533"
       inkscape:connector-curvature="0"
       sodipodi:nodetypes="cscssssssc" />
    <path
       style="color:#000000;display:inline;overflow:visible;visibility:visible;fill:#ffffff;fill-opacity:1;fill-rule:nonzero;stroke:none;stroke-width:1px;marker:none;enable-background:accumulate"
       d="m 883.77495,1745.1358 c 44.44471,-22.895 116.41795,-23.2688 129.48195,54.9811 34.6887,14.392 59.3221,29.36 66.1093,93.306 -13.8854,-45.9668 -26.6681,-69.4371 -79.48608,-86.6191 -11.9779,-39.1913 -54.96889,-53.3177 -104.25568,-15.6318 -49.28677,37.6861 -33.32019,31.3976 -33.32019,31.3976 l 7.61389,-70.6093 z"
       id="path5074"
       inkscape:connector-curvature="0"
       sodipodi:nodetypes="ccccsccc" />
    <path
       style="color:#000000;display:inline;overflow:visible;visibility:visible;fill:#ffffff;fill-opacity:1;fill-rule:nonzero;stroke:none;stroke-width:1px;marker:none;enable-background:accumulate"
       d="m 447.67775,3253.8363 c 11.47611,-78.9499 75.88637,-118.1913 319.21595,-111.619 160.58982,4.3376 298.7703,30.7082 283.4689,146.4108 -15.3016,115.7026 -204.86621,94.2142 -280.9777,94.7799 -82.92527,0.6162 -249.06243,-7.6376 -287.08577,-48.3276 -23.80176,-25.4709 -36.53404,-56.7423 -34.62138,-81.2441 z"
       id="path4546"
       inkscape:connector-curvature="0"
       sodipodi:nodetypes="cssssc" />
    <path
       style="color:#000000;display:inline;overflow:visible;visibility:visible;fill:#ffffff;fill-opacity:1;fill-rule:nonzero;stroke:none;stroke-width:1px;marker:none;enable-background:accumulate"
       d="m 802.80252,2968.7264 c 11.07268,17.5914 22.81036,35.7325 26.79713,58.318 1.01942,6.4618 1.69704,13.2732 0.8603,19.9677 -2.13488,6.8588 -8.0046,10.9395 -13.63505,11.7125 -8.11535,1.8042 -16.97191,-0.3491 -24.47096,5.4601 -5.38556,4.3813 -6.06745,12.504 -7.13123,19.3023 -2.43507,17.3638 -2.97063,35.0301 -7.64784,52.0685 -4.26526,19.4939 -9.89483,39.7496 -21.71008,55.2021 -4.75293,6.0274 -10.36404,11.5941 -17.01384,13.6262 -16.93018,6.136 -36.18293,0.8137 -46.68954,-15.1409 -5.84983,-11.036 -3.03134,-28.9083 7.27287,-36.4661 5.39695,-4.0838 11.88665,-3.3004 17.09289,-0.5878 10.49304,2.725 22.18726,-2.305 30.32475,-11.8054 6.81219,-7.7175 11.73629,-17.7565 14.39573,-28.3325 6.67084,-13.5431 4.96053,-29.0804 5.87665,-43.5892 0.49961,-6.6294 1.39903,-13.6785 4.44551,-19.5751 5.90723,-7.3191 14.64135,-7.295 21.95511,-6.2342 7.58293,0.8546 16.22562,2.8996 23.25642,-3.257 5.29761,-3.5199 3.38357,-11.3159 3.71315,-17.0122 -0.90369,-18.3049 -6.5414,-35.5415 -14.86542,-49.9818 -0.88295,-1.2943 -1.85199,-2.4853 -2.8266,-3.6752 z"
       id="path4496"
       inkscape:connector-curvature="0" />
  </g>
  <g
     inkscape:groupmode="layer"
     id="layer1"
     inkscape:label="txt">
    <path
       style="color:#000000;display:inline;overflow:visible;visibility:visible;fill:#ffffff;fill-opacity:1;fill-rule:nonzero;stroke:none;stroke-width:1px;marker:none;enable-background:accumulate"
       d="m 85.211193,107.79747 c -23.941644,21.39474 -29.642027,47.88343 -27.361882,60.10894 2.280172,12.22548 34.202338,69.27806 36.482501,84.56004 2.280159,15.28198 -31.922176,83.54114 -25.081709,105.95467 6.840469,22.41353 19.994496,83.38289 110.060637,89.49549 94.20084,5.0463 396.55959,44.1338 462.25842,-43.64972 C 702.29839,310.80615 711.12089,131.1728 632.44848,96.59076 583.42524,78.2524 141.07499,48.70734 85.211193,107.79747 Z"
       id="path4464"
       inkscape:connector-curvature="0"
       sodipodi:nodetypes="cssscccc" />
    <flowRoot
       xml:space="preserve"
       id="flowRoot2987-4-9-3-5-9-8-3-5"
       style="font-style:normal;font-variant:normal;font-weight:normal;font-stretch:normal;font-size:12px;line-height:125%;font-family:Lavi;-inkscape-font-specification:Lavi;text-align:center;letter-spacing:0px;word-spacing:0px;text-anchor:middle;fill:#000000;fill-opacity:1;stroke:none"
       transform="translate(14.834888,-114.56802)"><flowRegion
         id="flowRegion2989-5-4-5-8-9-5-4-2"><rect
           id="rect2991-7-9-6-5-7-5-4-9"
           width="497.70953"
           height="358.25998"
           x="120.55251"
           y="265.53046"
           style="font-style:normal;font-variant:normal;font-weight:normal;font-stretch:normal;font-family:Lavi;-inkscape-font-specification:Lavi;text-align:center;text-anchor:middle" /></flowRegion><flowPara
         style="font-size:45px;text-align:center;text-anchor:middle"
         id="flowPara3030-8-1-8-7-8-3">Le nouveau Roi de Acren est trop doux et bons avec ses sujets. Le peuple doit avoir peur de son Roi.</flowPara></flowRoot>    <path
       style="color:#000000;display:inline;overflow:visible;visibility:visible;fill:#ffffff;fill-opacity:1;fill-rule:nonzero;stroke:none;stroke-width:1px;marker:none;enable-background:accumulate"
       d="m 590.93195,402.40123 c -13.14604,32.78603 12.63645,114.47239 62.26505,127.10564 -70.18554,-4.07502 -99.34113,-76.97331 -105.63042,-99.95904 -6.28929,-22.98575 43.36537,-27.1466 43.36537,-27.1466 z"
       id="path5010"
       inkscape:connector-curvature="0"
       sodipodi:nodetypes="ccsc" />
    <flowRoot
       xml:space="preserve"
       id="flowRoot2987-4-9-3-5-9-8-3-5-4"
       style="font-style:normal;font-variant:normal;font-weight:normal;font-stretch:normal;font-size:12px;line-height:125%;font-family:Lavi;-inkscape-font-specification:Lavi;text-align:center;letter-spacing:0px;word-spacing:0px;text-anchor:middle;fill:#000000;fill-opacity:1;stroke:none"
       transform="translate(253.55467,1377.7419)"><flowRegion
         id="flowRegion2989-5-4-5-8-9-5-4-2-2"><rect
           id="rect2991-7-9-6-5-7-5-4-9-5"
           width="497.70953"
           height="358.25998"
           x="120.55251"
           y="265.53046"
           style="font-style:normal;font-variant:normal;font-weight:normal;font-stretch:normal;font-family:Lavi;-inkscape-font-specification:Lavi;text-align:center;text-anchor:middle" /></flowRegion><flowPara
         style="font-size:45px;text-align:center;text-anchor:middle"
         id="flowPara3030-8-1-8-7-8-3-5">Ta premiere mission est d'aller intimider ce monarque pour le manipuler.</flowPara></flowRoot>    <flowRoot
       xml:space="preserve"
       id="flowRoot2987-4-9-3-5-9-8-3-5-4-6"
       style="font-style:normal;font-variant:normal;font-weight:normal;font-stretch:normal;font-size:12px;line-height:125%;font-family:Lavi;-inkscape-font-specification:Lavi;text-align:center;letter-spacing:0px;word-spacing:0px;text-anchor:middle;fill:#000000;fill-opacity:1;stroke:none"
       transform="translate(382.00119,2918.8834)"><flowRegion
         id="flowRegion2989-5-4-5-8-9-5-4-2-2-2"><rect
           id="rect2991-7-9-6-5-7-5-4-9-5-2"
           width="497.70953"
           height="358.25998"
           x="120.55251"
           y="265.53046"
           style="font-style:normal;font-variant:normal;font-weight:normal;font-stretch:normal;font-family:Lavi;-inkscape-font-specification:Lavi;text-align:center;text-anchor:middle" /></flowRegion><flowPara
         style="font-size:45px;text-align:center;text-anchor:middle"
         id="flowPara3030-8-1-8-7-8-3-5-1">Une vraie sorcière de Chaosah à de l'influence sur les puissants!</flowPara></flowRoot>  </g>
</svg>
