<?xml version="1.0" encoding="UTF-8" standalone="no"?>
<!-- Created with Inkscape (http://www.inkscape.org/) -->

<svg
   xmlns:dc="http://purl.org/dc/elements/1.1/"
   xmlns:cc="http://creativecommons.org/ns#"
   xmlns:rdf="http://www.w3.org/1999/02/22-rdf-syntax-ns#"
   xmlns:svg="http://www.w3.org/2000/svg"
   xmlns="http://www.w3.org/2000/svg"
   xmlns:xlink="http://www.w3.org/1999/xlink"
   xmlns:sodipodi="http://sodipodi.sourceforge.net/DTD/sodipodi-0.dtd"
   xmlns:inkscape="http://www.inkscape.org/namespaces/inkscape"
   id="svg2"
   version="1.1"
   inkscape:version="0.92.1 renderfarm"
   width="2481"
   height="3503"
   sodipodi:docname="Pepper-and-Carrot_by-David-Revoy_E11P04_092.svg">
  <sodipodi:namedview pagecolor="#ffffff" bordercolor="#666666" inkscape:pageopacity="0" inkscape:pageshadow="2" inkscape:window-width="1813" inkscape:window-height="955" id="namedview70" showgrid="false" inkscape:zoom="0.4" inkscape:cx="1284.4231" inkscape:cy="2618.6204" inkscape:current-layer="layer1" /><metadata
     id="metadata8">
    <rdf:RDF>
      <cc:Work
         rdf:about="">
        <dc:format>image/svg+xml</dc:format>
        <dc:type
           rdf:resource="http://purl.org/dc/dcmitype/StillImage" />
        <dc:title />
      </cc:Work>
    </rdf:RDF>
  </metadata>
  <defs
     id="defs6" />
  <sodipodi:namedview
     pagecolor="#ffffff"
     bordercolor="#666666"
     borderopacity="1"
     objecttolerance="10"
     gridtolerance="10"
     guidetolerance="10"
     inkscape:pageopacity="0"
     inkscape:pageshadow="2"
     inkscape:window-width="1920"
     inkscape:window-height="1026"
     id="namedview4"
     showgrid="false"
     inkscape:zoom="0.52900001"
     inkscape:cx="1137.4875"
     inkscape:cy="482.40817"
     inkscape:window-x="0"
     inkscape:window-y="27"
     inkscape:window-maximized="1"
     inkscape:current-layer="layer1" />
  <g
     inkscape:groupmode="layer"
     id="layer2"
     inkscape:label="artwork"
     sodipodi:insensitive="true">
    <image
       sodipodi:absref="/home/deevad/peppercarrot/webcomics/ep11_The-Witches-of-Chaosah/lang/fr/../gfx_Pepper-and-Carrot_by-David-Revoy_E11P04.png"
       xlink:href="../gfx_Pepper-and-Carrot_by-David-Revoy_E11P04.png"
       width="2481"
       height="3503"
       id="image10"
       x="0"
       y="0" />
  </g>
  <g
     inkscape:groupmode="layer"
     id="layer3"
     inkscape:label="speechbubbles">
    <path
       style="color:#000000;display:inline;overflow:visible;visibility:visible;fill:#ffffff;fill-opacity:1;fill-rule:nonzero;stroke:none;stroke-width:1px;marker:none;enable-background:accumulate"
       d="m 957.74047,2012.0203 c -3.45821,-21.6083 6.01335,-19.8828 10.26411,-23.5838 -6.55526,-17.977 1.64409,-39.1399 40.13912,-48.3504 8.9271,-14.3173 40.258,-25.3923 62.3575,-14.094 15.0588,-11.2422 39.4062,-11.5619 49.6055,-2.9908 10.5659,-9.823 25.622,0.7518 27.0182,2.9641 13.3584,-5.3983 32.3013,-1.9474 39.8296,3.3399 17.7301,-7.9585 56.1013,3.5072 55.4922,19.6194 20.9458,11.3681 22.4012,25.0593 16.3285,33.4632 16.0887,9.3643 25.4336,53.583 -19.3147,58.5774 -12.1456,16.8078 -46.1477,24.5992 -62.2362,15.2348 -21.5548,4.7444 -35.0344,9.0018 -40.6192,0.1525 -10.5658,9.8232 -38.3739,10.3514 -30.843,-6.1783 -13.1657,11.0613 -29.2235,14.8962 -41.8589,8.4362 -20.518,13.0544 -47.5253,2.4419 -47.524,-10.032 -29.26527,5.7035 -34.64375,-13.6678 -33.42752,-20.9628 -4.75614,-1.0263 -16.10771,-1.6549 -25.21121,-15.5954 z"
       id="path4043"
       inkscape:connector-curvature="0"
       sodipodi:nodetypes="ccccccccccccccccc" />
    <path
       style="color:#000000;display:inline;overflow:visible;visibility:visible;fill:#ffffff;fill-opacity:1;fill-rule:nonzero;stroke:none;stroke-width:1px;marker:none;enable-background:accumulate"
       d="m 1067.106,2116.9058 c -3.8053,-25.0195 6.6169,-23.0216 11.2943,-27.3069 -7.2132,-20.815 1.8091,-45.3188 44.1678,-55.9832 9.8231,-16.5776 44.2986,-29.401 68.6161,-16.319 16.5703,-13.017 43.3613,-13.3872 54.5843,-3.463 11.6264,-11.3738 28.1936,0.8705 29.73,3.4321 14.6991,-6.2507 35.5432,-2.2549 43.8271,3.8671 19.5097,-9.2149 61.7321,4.0608 61.0619,22.7167 23.048,13.1627 24.6495,29.0153 17.9673,38.7459 17.7035,10.8426 27.9863,62.0419 -21.2533,67.8249 -13.3646,19.4611 -50.7794,28.4825 -68.4826,17.6398 -23.7183,5.4933 -38.5508,10.4229 -44.6961,0.1766 -11.6263,11.3739 -42.2254,11.9855 -33.9386,-7.1537 -14.4871,12.8075 -32.1566,9.916 -46.0602,2.4362 -22.5773,15.1153 -52.2953,10.1592 -52.2938,-4.284 -32.2026,6.604 -38.1209,-15.8255 -36.7826,-24.272 -5.2335,-1.1884 -17.7244,-1.9163 -27.7416,-18.0575 z"
       id="path4043-2"
       inkscape:connector-curvature="0" />
    <path
       style="color:#000000;display:inline;overflow:visible;visibility:visible;fill:#ffffff;fill-opacity:1;fill-rule:nonzero;stroke:none;stroke-width:1px;marker:none;enable-background:accumulate"
       d="m 2414.0555,2661.9207 c 5.451,39.7259 13.4777,38.409 7.6131,45.3248 9.698,32.9653 30.0053,72.1392 -23.7746,89.992 -12.1353,26.5802 -108.4091,46.0594 -139.7414,25.7547 -20.8272,21.0564 -54.9939,22.206 -69.5471,6.6515 -14.5598,18.3385 -35.9856,-0.7954 -38.0065,-4.8386 -18.6017,10.2522 -45.2865,4.3311 -55.9997,-5.2359 -24.6675,15.0691 -78.8448,-5.1692 -78.4347,-34.8643 -29.715,-20.4597 -32.136,-45.6473 -23.8441,-61.2684 -22.8418,-16.8799 -37.1802,-98.1221 25.4936,-108.3526 16.5843,-31.2418 64.0968,-46.3773 86.9383,-29.4971 30.1249,-9.2359 48.9283,-17.389 57.0117,-1.216 14.5598,-18.3388 53.5786,-19.952 43.4641,10.6715 18.1748,-20.6794 40.7836,-16.4489 58.698,-4.8393 28.4398,-24.5205 66.4675,-17.257 66.8101,5.7218 40.9212,-11.1804 49.006,24.3806 47.5002,37.847 6.7044,1.7812 22.6556,2.6779 35.819,28.1489 z"
       id="path4043-2-3"
       inkscape:connector-curvature="0"
       sodipodi:nodetypes="ccccccccccccccccc" />
    <path
       style="color:#000000;display:inline;overflow:visible;visibility:visible;fill:#ffffff;fill-opacity:1;fill-rule:nonzero;stroke:none;stroke-width:1px;marker:none;enable-background:accumulate"
       d="m 601.55077,3167.8907 c -13.14402,34.6187 -87.27823,37.5217 -114.5691,30.4847 55.01205,38.7275 53.09421,62.7895 -21.59666,66.5255 125.25786,69.7969 22.89883,59.2351 2.70922,76.9335 98.3506,24.0536 54.34753,53.9888 36.83771,83.7888 113.04429,1.0235 76.05005,48.7919 80.81465,86.8365 9.58343,-17.8522 55.11166,-72.2021 57.85107,-11.687 74.77221,-57.7347 164.83346,-95.0282 171.9846,6.0074 30.12698,-50.8283 60.16354,-72.3105 57.85104,-11.6871 74.6451,-78.8482 141.7242,-50.4666 209.201,-28.1811 17.7224,-23.7983 19.7873,-60.3593 77.1232,-51.7914 -8.0389,-23.5884 11.3199,-39.8028 55.0392,-49.4317 -58.0959,-14.2491 -68.8028,-28.9466 39.0682,-44.7634 -82.0836,-1.53 -158.6268,-4.6644 -62.325,-58.6045 -30.2126,-1.3051 -101.8952,43.7039 -68.474,-88.0161 -51.952,42.1683 -107.3804,65.4422 -176.89239,-22.8895 -32.89666,44.1287 -89.95518,65.9653 -114.77843,10.8451 -8.92199,23.4987 -45.91732,32.3361 -77.32358,33.4079 -12.14486,-9.3342 -24.67086,-22.0122 -37.74231,-38.6225 -21.36425,34.8772 -53.32279,58.432 -114.77842,10.8449 z"
       id="path3549-3-7"
       inkscape:connector-curvature="0"
       sodipodi:nodetypes="cccccccccccccccccccc" />
    <path
       style="color:#000000;display:inline;overflow:visible;visibility:visible;fill:#ffffff;fill-opacity:1;fill-rule:nonzero;stroke:none;stroke-width:1px;marker:none;enable-background:accumulate"
       d="m 749.88532,3072.4592 c 59.98272,22.9665 72.40603,51.7648 83.09037,71.7564 -3.96986,4.3889 -9.50747,13.9597 -9.50747,13.9597 0,0 23.841,37.6333 29.26881,54.6234 5.42777,16.99 -11.14554,22.2846 -11.14554,22.2846 0,0 -47.75233,-72.1235 -61.50191,-84.8945 11.38696,-11.4395 15.42716,-18.9715 21.27652,-20.8402 -3.09592,-13.0541 -30.38419,-48.0256 -51.48078,-56.8894 z"
       id="path4456"
       inkscape:connector-curvature="0" />
  </g>
  <g
     inkscape:groupmode="layer"
     id="layer1"
     inkscape:label="txt">
    <path
       style="color:#000000;display:inline;overflow:visible;visibility:visible;fill:#ffffff;fill-opacity:1;fill-rule:nonzero;stroke:none;stroke-width:1px;marker:none;enable-background:accumulate"
       d="m 1410.1656,2224.4746 c -0.824,-5.3715 4.3942,-8.0572 4.3942,-8.0572 0,0 -5.2182,-4.1506 0.8239,-8.3014 6.0421,-4.1506 11.5348,0.9767 11.5348,0.9767 0,0 7.69,-8.0572 14.8306,1.2208 7.1407,9.2779 0,14.4052 0,14.4052 0,0 4.1196,9.7664 -6.866,11.9638 -10.9856,2.1974 -14.0066,0.7324 -16.7531,-5.1273 -7.6898,-1.9533 -7.9644,-7.0806 -7.9644,-7.0806 z"
       id="path5098"
       inkscape:connector-curvature="0" />
    <path
       style="color:#000000;display:inline;overflow:visible;visibility:visible;fill:#ffffff;fill-opacity:1;fill-rule:nonzero;stroke:none;stroke-width:1px;marker:none;enable-background:accumulate"
       d="m 1333.0902,2204.0312 c 4.0416,-10.1338 13.0576,-10.7479 13.0576,-10.7479 0,0 -0.3109,-7.6772 5.907,-11.9763 6.218,-4.2992 13.6795,0.3071 13.6795,0.3071 0,0 10.2596,-1.5355 15.2339,7.9841 4.9744,9.5196 8.3942,14.1259 3.7308,23.6455 3.4199,5.2204 0,16.2754 -4.9743,18.425 -4.9744,2.1496 -17.0993,5.8345 -23.9391,-5.2205 -5.5962,1.8426 -22.6954,3.0709 -22.6954,-22.417 z"
       id="path5090"
       inkscape:connector-curvature="0" />
    <flowRoot
       xml:space="preserve"
       id="flowRoot2987-4-9-3-5-9-8-3-5-4"
       style="font-style:normal;font-variant:normal;font-weight:normal;font-stretch:normal;line-height:0.01%;font-family:Lavi;-inkscape-font-specification:Lavi;text-align:center;letter-spacing:0px;word-spacing:0px;text-anchor:middle;fill:#000000;fill-opacity:1;stroke:none"
       transform="translate(753.04179,1697.0696)"><flowRegion
         id="flowRegion2989-5-4-5-8-9-5-4-2-2"><rect
           id="rect2991-7-9-6-5-7-5-4-9-5"
           width="497.70953"
           height="358.25998"
           x="120.55251"
           y="265.53046"
           style="font-style:normal;font-variant:normal;font-weight:normal;font-stretch:normal;font-family:Lavi;-inkscape-font-specification:Lavi;text-align:center;text-anchor:middle" /></flowRegion><flowPara
         style="font-size:45px;line-height:1.25;text-align:center;text-anchor:middle"
         id="flowPara3030-8-1-8-7-8-3-5">Le Roi ?...</flowPara></flowRoot>    <flowRoot
       xml:space="preserve"
       id="flowRoot2987-4-9-3-5-9-8-3-5-4-0"
       style="font-style:normal;font-variant:normal;font-weight:normal;font-stretch:normal;line-height:0.01%;font-family:Lavi;-inkscape-font-specification:Lavi;text-align:center;letter-spacing:0px;word-spacing:0px;text-anchor:middle;fill:#000000;fill-opacity:1;stroke:none"
       transform="translate(869.66915,1804.7426)"><flowRegion
         id="flowRegion2989-5-4-5-8-9-5-4-2-2-5"><rect
           id="rect2991-7-9-6-5-7-5-4-9-5-4"
           width="497.70953"
           height="358.25998"
           x="120.55251"
           y="265.53046"
           style="font-style:normal;font-variant:normal;font-weight:normal;font-stretch:normal;font-family:Lavi;-inkscape-font-specification:Lavi;text-align:center;text-anchor:middle" /></flowRegion><flowPara
         style="font-size:45px;line-height:1.25;text-align:center;text-anchor:middle"
         id="flowPara4229">...si jeune ?!</flowPara></flowRoot>    <flowRoot
       xml:space="preserve"
       id="flowRoot2987-4-9-3-5-9-8-3-5-4-0-5"
       style="font-style:normal;font-variant:normal;font-weight:normal;font-stretch:normal;line-height:0.01%;font-family:Lavi;-inkscape-font-specification:Lavi;text-align:center;letter-spacing:0px;word-spacing:0px;text-anchor:middle;fill:#000000;fill-opacity:1;stroke:none"
       transform="translate(1823.1389,2373.8146)"><flowRegion
         id="flowRegion2989-5-4-5-8-9-5-4-2-2-5-0"><rect
           id="rect2991-7-9-6-5-7-5-4-9-5-4-3"
           width="497.70953"
           height="358.25998"
           x="120.55251"
           y="265.53046"
           style="font-style:normal;font-variant:normal;font-weight:normal;font-stretch:normal;font-family:Lavi;-inkscape-font-specification:Lavi;text-align:center;text-anchor:middle" /></flowRegion><flowPara
         style="font-size:45px;line-height:1.25;text-align:center;text-anchor:middle"
         id="flowPara4229-0">On doit avoir le</flowPara><flowPara
         style="font-size:45px;line-height:1.25;text-align:center;text-anchor:middle"
         id="flowPara4272">même âge...</flowPara></flowRoot>    <path
       style="color:#000000;display:inline;overflow:visible;visibility:visible;fill:#ffffff;fill-opacity:1;fill-rule:nonzero;stroke:none;stroke-width:1px;marker:none;enable-background:accumulate"
       d="m 2210.6349,2528.6131 c 2.0696,-13.9994 -8.3532,-20.0368 -8.3532,-20.0368 0,0 5.6241,-8.6102 1.0865,-17.2136 -4.5378,-8.6035 -16.6613,-7.7412 -16.6613,-7.7412 0,0 -11.2882,-7.8287 -23.7806,0.1332 -12.4925,7.9618 -19.7553,11.2152 -20.6573,24.8788 -7.6828,3.9568 -11.1303,18.6435 -6.6181,24.0487 4.5121,5.4054 16.5736,16.7998 32.3596,8.1827 5.4699,5.4216 25.1937,16.9447 42.6244,-12.2518 z"
       id="path5090-2"
       inkscape:connector-curvature="0" />
    <path
       style="color:#000000;display:inline;overflow:visible;visibility:visible;fill:#ffffff;fill-opacity:1;fill-rule:nonzero;stroke:none;stroke-width:1px;marker:none;enable-background:accumulate"
       d="m 2115.1571,2425.2289 c 5.9597,0.3755 7.5527,6.7768 7.5527,6.7768 0,0 5.7336,-4.7662 8.6939,2.8948 2.9601,7.6609 -3.8878,12.4964 -3.8878,12.4964 0,0 6.7409,10.4141 -4.9613,16.0754 -11.7021,5.6615 -15.4383,-3.4455 -15.4383,-3.4455 0,0 -11.4816,2.2104 -11.1307,-10.4391 0.3508,-12.6495 2.6649,-15.6332 9.6214,-17.2627 3.9875,-8.0194 9.5501,-7.0961 9.5501,-7.0961 z"
       id="path5098-4"
       inkscape:connector-curvature="0"
       inkscape:transform-center-x="27.255435"
       inkscape:transform-center-y="-31.014805" />
    <flowRoot
       xml:space="preserve"
       id="flowRoot2987-4-9-3-5-9-8-3-5-4-0-5-5"
       style="font-style:normal;font-variant:normal;font-weight:normal;font-stretch:normal;line-height:0.01%;font-family:Lavi;-inkscape-font-specification:Lavi;text-align:center;letter-spacing:0px;word-spacing:0px;text-anchor:middle;fill:#000000;fill-opacity:1;stroke:none"
       transform="translate(445.95014,2955.1123)"><flowRegion
         id="flowRegion2989-5-4-5-8-9-5-4-2-2-5-0-8"><rect
           id="rect2991-7-9-6-5-7-5-4-9-5-4-3-2"
           width="552.33453"
           height="329.50995"
           x="120.55251"
           y="265.53046"
           style="font-style:normal;font-variant:normal;font-weight:normal;font-stretch:normal;font-family:Lavi;-inkscape-font-specification:Lavi;text-align:center;text-anchor:middle" /></flowRegion><flowPara
         style="font-size:45px;line-height:1.25;text-align:center;text-anchor:middle"
         id="flowPara4272-0">Mais qu'est-ce que tu attends ! Vas-y ! réveille-le, sermone le, fais lui peur !</flowPara></flowRoot>  </g>
</svg>
