<?xml version="1.0" encoding="UTF-8" standalone="no"?>
<!-- Created with Inkscape (http://www.inkscape.org/) -->

<svg
   xmlns:dc="http://purl.org/dc/elements/1.1/"
   xmlns:cc="http://creativecommons.org/ns#"
   xmlns:rdf="http://www.w3.org/1999/02/22-rdf-syntax-ns#"
   xmlns:svg="http://www.w3.org/2000/svg"
   xmlns="http://www.w3.org/2000/svg"
   xmlns:xlink="http://www.w3.org/1999/xlink"
   xmlns:sodipodi="http://sodipodi.sourceforge.net/DTD/sodipodi-0.dtd"
   xmlns:inkscape="http://www.inkscape.org/namespaces/inkscape"
   id="svg2"
   version="1.1"
   inkscape:version="0.91 r"
   width="2481"
   height="3503"
   sodipodi:docname="Pepper-and-Carrot_by-David-Revoy_E11P01.svg">
  <metadata
     id="metadata8">
    <rdf:RDF>
      <cc:Work
         rdf:about="">
        <dc:format>image/svg+xml</dc:format>
        <dc:type
           rdf:resource="http://purl.org/dc/dcmitype/StillImage" />
        <dc:title />
      </cc:Work>
    </rdf:RDF>
  </metadata>
  <defs
     id="defs6" />
  <sodipodi:namedview
     pagecolor="#ffffff"
     bordercolor="#666666"
     borderopacity="1"
     objecttolerance="10"
     gridtolerance="10"
     guidetolerance="10"
     inkscape:pageopacity="0"
     inkscape:pageshadow="2"
     inkscape:window-width="1680"
     inkscape:window-height="1033"
     id="namedview4"
     showgrid="false"
     inkscape:zoom="0.3478261"
     inkscape:cx="1267.1014"
     inkscape:cy="1136.4763"
     inkscape:window-x="1920"
     inkscape:window-y="0"
     inkscape:window-maximized="1"
     inkscape:current-layer="layer1" />
  <g
     inkscape:groupmode="layer"
     id="layer2"
     inkscape:label="artwork"
     sodipodi:insensitive="true">
    <image
       sodipodi:absref="/home/deevad/Production/Webcomics/2015-09-30_ep11_The-Witches-of-Chaosah/lang/fr/../gfx_Pepper-and-Carrot_by-David-Revoy_E11P01.png"
       xlink:href="../gfx_Pepper-and-Carrot_by-David-Revoy_E11P01.png"
       y="0"
       x="0"
       id="image10"
       height="3503"
       width="2481" />
  </g>
  <g
     inkscape:groupmode="layer"
     id="layer3"
     inkscape:label="speechbubbles">
    <path
       style="fill:#ffffff;stroke:none"
       d="m 70.808522,1748.6871 c -4.882025,-103.5503 38.818118,-117.2653 234.756978,-116.3967 195.93878,0.8684 243.20544,18.1192 249.5447,85.9986 5.8087,62.1982 -21.09816,90.1938 -46.70528,103.8477 -36.64494,19.5392 -172.21944,23.4582 -260.49386,19.945 -80.49962,-3.2038 -182.647993,-33.4669 -177.102538,-93.3946 z"
       id="path3065"
       inkscape:connector-curvature="0"
       sodipodi:nodetypes="cssssc" />
    <path
       style="fill:#ffffff;stroke:none"
       d="m 917.51761,1765.8571 c 13.84734,-95.7876 132.17769,-113.975 148.54259,-122.4625 16.3647,-8.4875 110.0474,-14.4358 121.3769,-13.2234 11.3296,1.2126 88.5652,-6.1831 146.554,-5.4286 60.6697,0.7894 95.2696,-12.1699 177.6035,29.1559 25.6971,12.8981 66.5004,60.5734 75.0517,140.8258 3.7293,34.9989 -9.5025,113.1134 -61.4584,146.328 -126.7431,81.025 -238.1778,69.8226 -327.555,63.7601 -89.3773,-6.0624 -175.9529,-22.5504 -221.73363,-62.5606 -49.48482,-43.2473 -70.96988,-129.1072 -58.38166,-176.3947 z"
       id="path3061"
       inkscape:connector-curvature="0"
       sodipodi:nodetypes="cssssssssc" />
    <path
       style="color:#000000;display:inline;overflow:visible;visibility:visible;fill:#ffffff;fill-opacity:1;fill-rule:nonzero;stroke:none;stroke-width:1px;marker:none;enable-background:accumulate"
       d="m 1790.9905,1751.3889 c -0.9101,-90.9632 8.8149,-146.4918 318.2973,-140.2403 309.4826,6.2517 297.4576,28.6075 304.505,149.4381 7.0473,120.8303 -128.8089,136.9479 -318.3492,137.2375 -220.176,0.3363 -288.8343,-15.5621 -304.4531,-146.4353 z"
       id="path5026"
       inkscape:connector-curvature="0"
       sodipodi:nodetypes="csssc" />
    <path
       style="color:#000000;display:inline;overflow:visible;visibility:visible;fill:#ffffff;fill-opacity:1;fill-rule:nonzero;stroke:none;stroke-width:1px;marker:none;enable-background:accumulate"
       d="m 237.59274,1836.547 c 15.44367,15.7148 30.88746,36.4298 32.17439,41.43 1.28694,5.0001 -10.93928,32.8583 -6.4349,38.5728 4.50439,5.7145 21.23511,6.4288 23.16562,10.7147 1.93041,4.2859 -3.86092,26.4295 0,30.7153 3.86092,4.2859 30.88735,15.7149 32.17439,19.2865 1.28694,3.5715 8.36531,22.858 21.235,37.8584 -12.22622,-37.8584 -8.36531,-45.7159 -12.86969,-51.4303 -4.50439,-5.7146 -22.52204,-10.7147 -25.09603,-17.1436 -2.57398,-6.4287 2.57399,-27.8581 -2.57398,-33.5725 -5.14785,-5.7145 -17.37418,-7.8575 -17.37418,-7.8575 4.50449,-5.7145 23.80908,-39.2871 2.57398,-72.8597 -21.23511,-33.5727 -46.9746,4.2859 -46.9746,4.2859 z"
       id="path5050"
       inkscape:connector-curvature="0" />
    <path
       style="color:#000000;display:inline;overflow:visible;visibility:visible;fill:#ffffff;fill-opacity:1;fill-rule:nonzero;stroke:none;stroke-width:1px;marker:none;enable-background:accumulate"
       d="m 1378.1772,2148.9882 c 68.3118,-74.6739 88.7022,-171.0856 50.2681,-232.2418 -12.9068,-20.5376 -46.5081,4.9084 -46.5081,4.9084 59.7063,72.6609 34.287,166.8134 -3.76,227.3334 z"
       id="path4000"
       inkscape:connector-curvature="0"
       sodipodi:nodetypes="cscc" />
    <path
       style="fill:#ffffff;stroke:none"
       d="m 2295.182,1822.1558 c -15.4539,18.0781 -34.4193,44.3463 -33.8114,53.7712 0.8079,9.3246 11.6508,27.238 10.4321,49.7021 -1.0616,19.5667 -14.0824,60.651 -76.2349,91.1318 39.1463,-33.6868 47.3811,-82.8609 45.3101,-99.1786 -1.7861,-14.0729 -24.2104,-45.8128 -23.7763,-55.1893 -0.878,-26.1428 12.9745,-54.7358 37.3709,-63.0033 24.3967,-8.2674 40.7095,22.7661 40.7095,22.7661 z"
       id="path3272"
       inkscape:connector-curvature="0"
       sodipodi:nodetypes="ccscscsc" />
    <path
       style="color:#000000;display:inline;overflow:visible;visibility:visible;fill:#ffffff;fill-opacity:1;fill-rule:nonzero;stroke:none;stroke-width:1px;marker:none;enable-background:accumulate"
       d="m 1486.9753,2935.723 c -0.7919,-23.3017 13.4636,-39.1469 21.3834,-46.6034 7.9198,-7.4565 57.8144,-24.2338 76.0299,-24.2338 18.2154,0 93.4533,16.7773 106.9169,33.5545 13.4636,16.7772 30.8871,16.7772 22.1754,44.7393 -8.7118,27.962 -63.3582,41.9431 -75.2379,44.7393 -11.8797,2.7962 -45.9347,4.6603 -57.0224,3.7283 -11.0877,-0.9321 -96.6212,-17.7092 -94.2453,-55.9242 z"
       id="path3357"
       inkscape:connector-curvature="0" />
    <path
       style="color:#000000;display:inline;overflow:visible;visibility:visible;fill:#ffffff;fill-opacity:1;fill-rule:nonzero;stroke:none;stroke-width:1px;marker:none;enable-background:accumulate"
       d="m 1536.5735,3023.0275 c -1.2496,-21.8627 17.4933,-37.4789 69.9735,-51.7565 52.4802,-14.2776 124.9529,-10.7082 143.6957,-6.2465 18.743,4.4617 89.9688,-7.0911 131.9605,19.5591 49.5474,25.1576 26.5479,78.482 -9.5066,88.4156 -22.4915,5.3542 -182.4312,12.493 -208.6713,8.9235 -26.24,-3.5693 -68.7241,-4.4617 -91.2155,-15.17 -22.8018,-10.8559 -34.9868,-21.8626 -36.2363,-43.7252 z"
       id="path3373"
       inkscape:connector-curvature="0"
       sodipodi:nodetypes="zssccssz" />
    <path
       style="color:#000000;display:inline;overflow:visible;visibility:visible;fill:#ffffff;fill-opacity:1;fill-rule:nonzero;stroke:none;stroke-width:1px;marker:none;enable-background:accumulate"
       d="m 1408.674,3036.2361 c 27.2189,10.6931 31.1073,9.721 39.8563,-1.9442 8.7489,-11.6652 17.4978,-31.1073 43.7446,-34.9957 26.2468,-3.8884 38.8841,5.8326 47.633,11.6652 63.6716,-29.2781 71.0511,-33.267 29.1631,16.5258 -16.5257,17.4978 -53.4656,-4.8605 -71.9356,-4.8605 -18.4699,0 -32.0794,26.2467 -46.6609,29.163 -14.5816,2.9163 -30.1352,-7.7768 -41.8005,-15.5536 z"
       id="path4538"
       inkscape:connector-curvature="0"
       sodipodi:nodetypes="cssccssc" />
  </g>
  <g
     inkscape:groupmode="layer"
     id="layer1"
     inkscape:label="txt">
    <flowRoot
       xml:space="preserve"
       id="flowRoot2987-4-9-3"
       style="font-style:normal;font-variant:normal;font-weight:normal;font-stretch:normal;font-size:12px;line-height:125%;font-family:Lavi;-inkscape-font-specification:Lavi;text-align:center;letter-spacing:0px;word-spacing:0px;text-anchor:middle;fill:#000000;fill-opacity:1;stroke:none"
       transform="translate(25.583909,1430.8032)"><flowRegion
         id="flowRegion2989-5-4-5"><rect
           id="rect2991-7-9-6"
           width="372.4017"
           height="233.23993"
           x="120.55251"
           y="265.53046"
           style="font-style:normal;font-variant:normal;font-weight:normal;font-stretch:normal;font-family:Lavi;-inkscape-font-specification:Lavi;text-align:center;text-anchor:middle" /></flowRegion><flowPara
         style="font-size:45px;text-align:center;text-anchor:middle"
         id="flowPara3030-8">Pepper, tu fais honte à Chaosah.</flowPara></flowRoot>    <flowRoot
       xml:space="preserve"
       id="flowRoot2987-4-9-3-9"
       style="font-style:normal;font-variant:normal;font-weight:normal;font-stretch:normal;font-size:12px;line-height:125%;font-family:Lavi;-inkscape-font-specification:Lavi;text-align:center;letter-spacing:0px;word-spacing:0px;text-anchor:middle;fill:#000000;fill-opacity:1;stroke:none"
       transform="translate(857.22868,1428.1681)"><flowRegion
         id="flowRegion2989-5-4-5-1"><rect
           id="rect2991-7-9-6-4"
           width="537.16528"
           height="297.96033"
           x="120.55251"
           y="265.53046"
           style="font-style:normal;font-variant:normal;font-weight:normal;font-stretch:normal;font-family:Lavi;-inkscape-font-specification:Lavi;text-align:center;text-anchor:middle" /></flowRegion><flowPara
         style="font-size:45px;text-align:center;text-anchor:middle"
         id="flowPara3030-8-7">Cayenne à raison; une sorcière de Chaosah digne de ce nom doit inspirer la</flowPara><flowPara
         style="font-size:45px;text-align:center;text-anchor:middle"
         id="flowPara4289">crainte, la peur et le respect.</flowPara></flowRoot>    <flowRoot
       xml:space="preserve"
       id="flowRoot2987-4-9-3-9-7"
       style="font-style:normal;font-variant:normal;font-weight:normal;font-stretch:normal;font-size:12px;line-height:125%;font-family:Lavi;-inkscape-font-specification:Lavi;text-align:center;letter-spacing:0px;word-spacing:0px;text-anchor:middle;fill:#000000;fill-opacity:1;stroke:none"
       transform="translate(1707.7682,1421.8235)"><flowRegion
         id="flowRegion2989-5-4-5-1-6"><rect
           id="rect2991-7-9-6-4-8"
           width="542.72778"
           height="254.97906"
           x="120.55251"
           y="265.53046"
           style="font-style:normal;font-variant:normal;font-weight:normal;font-stretch:normal;font-family:Lavi;-inkscape-font-specification:Lavi;text-align:center;text-anchor:middle" /></flowRegion><flowPara
         style="font-size:45px;text-align:center;text-anchor:middle"
         id="flowPara3030-8-7-0">..et toi, tu offres des cupcakes et du thé même à nos démons*...</flowPara></flowRoot>    <flowRoot
       xml:space="preserve"
       id="flowRoot2987-4-9-9-9-9"
       style="font-style:normal;font-variant:normal;font-weight:normal;font-stretch:normal;font-size:12px;line-height:125%;font-family:Lavi;-inkscape-font-specification:Lavi;text-align:center;letter-spacing:0px;word-spacing:0px;text-anchor:middle;fill:#000000;fill-opacity:1;stroke:none"
       transform="matrix(0.66530597,0,0,0.68592152,1690.5874,2578.3318)"><flowRegion
         id="flowRegion2989-5-4-7-7-9"><rect
           id="rect2991-7-9-4-3-7"
           width="1100.3401"
           height="65.915588"
           x="120.55251"
           y="265.53046"
           style="font-style:normal;font-variant:normal;font-weight:normal;font-stretch:normal;font-family:Lavi;-inkscape-font-specification:Lavi;text-align:center;text-anchor:middle" /></flowRegion><flowPara
         style="font-size:48px;text-align:start;text-anchor:start;fill:#a0a0a0;fill-opacity:1"
         id="flowPara3080-9-7-0">* voir épisode 8: L'anniversaire de Pepper.</flowPara></flowRoot>    <flowRoot
       xml:space="preserve"
       id="flowRoot2987-4-9-3-0"
       style="font-style:normal;font-variant:normal;font-weight:normal;font-stretch:normal;font-size:12px;line-height:125%;font-family:Lavi;-inkscape-font-specification:Lavi;text-align:center;letter-spacing:0px;word-spacing:0px;text-anchor:middle;fill:#000000;fill-opacity:1;stroke:none"
       transform="translate(1405.6686,2630.8459)"><flowRegion
         id="flowRegion2989-5-4-5-4"><rect
           id="rect2991-7-9-6-8"
           width="154.90172"
           height="55.739933"
           x="120.55251"
           y="265.53046"
           style="font-style:normal;font-variant:normal;font-weight:normal;font-stretch:normal;font-family:Lavi;-inkscape-font-specification:Lavi;text-align:center;text-anchor:middle" /></flowRegion><flowPara
         style="font-size:45px;text-align:center;text-anchor:middle"
         id="flowPara3030-8-3">Mais...</flowPara></flowRoot>    <flowRoot
       xml:space="preserve"
       id="flowRoot2987-4-9-3-0-3"
       style="font-style:normal;font-variant:normal;font-weight:normal;font-stretch:normal;font-size:12px;line-height:125%;font-family:Lavi;-inkscape-font-specification:Lavi;text-align:center;letter-spacing:0px;word-spacing:0px;text-anchor:middle;fill:#000000;fill-opacity:1;stroke:none"
       transform="translate(1428.9516,2719.8339)"><flowRegion
         id="flowRegion2989-5-4-5-4-2"><rect
           id="rect2991-7-9-6-8-8"
           width="347.4017"
           height="63.239929"
           x="120.55251"
           y="265.53046"
           style="font-style:normal;font-variant:normal;font-weight:normal;font-stretch:normal;font-family:Lavi;-inkscape-font-specification:Lavi;text-align:center;text-anchor:middle" /></flowRegion><flowPara
         style="font-size:45px;text-align:center;text-anchor:middle"
         id="flowPara3030-8-3-6">...marraines...</flowPara></flowRoot>  </g>
</svg>
